<?xml version="1.0" encoding="UTF-8"?>
<!DOCTYPE svg PUBLIC "-//W3C//DTD SVG 1.1//EN" "http://www.w3.org/Graphics/SVG/1.1/DTD/svg11.dtd">
<!-- Creator: CorelDRAW X7 -->
<svg xmlns="http://www.w3.org/2000/svg" xml:space="preserve" width="358.167mm" height="349.99mm" version="1.1" style="shape-rendering:geometricPrecision; text-rendering:geometricPrecision; image-rendering:optimizeQuality; fill-rule:evenodd; clip-rule:evenodd"
viewBox="0 0 35817 34999"
 xmlns:xlink="http://www.w3.org/1999/xlink">
 <defs>
  <style type="text/css">
   <![CDATA[
    .fil4 {fill:#505659}
    .fil1 {fill:#C39562}
    .fil0 {fill:#D3A877}
    .fil2 {fill:#EEC494}
    .fil10 {fill:#F1DCC3}
    .fil3 {fill:white}
    .fil8 {fill:#042757;fill-rule:nonzero}
    .fil6 {fill:#4D4C4E;fill-rule:nonzero}
    .fil9 {fill:#ED1C24;fill-rule:nonzero}
    .fil5 {fill:#F3F4F4;fill-rule:nonzero}
    .fil7 {fill:#FEFEFE;fill-rule:nonzero;fill-opacity:0.501961}
   ]]>
  </style>
 </defs>
 <g id="Layer_x0020_1">
  <metadata id="CorelCorpID_0Corel-Layer"/>
  <g id="_2519878905600">
   <polygon class="fil0" points="16476,12641 8697,16549 9206,23516 12604,26510 18428,16848 "/>
   <path class="fil0" d="M16031 26249l0 0c-589,543 -1535,521 -2057,-83l-5212 -5448c-552,-578 -282,-1837 306,-2380l0 0c589,-543 1513,-504 2058,84l4989 5770c524,606 505,1514 -84,2057z"/>
   <path class="fil0" d="M17476 23354l0 0c-495,629 -1432,759 -2045,245l-5843 -4903c-612,-513 -740,-1415 -245,-2045l0 0c495,-629 1414,-738 2045,-245l5843 4903c614,515 740,1415 245,2045z"/>
   <path class="fil0" d="M18797 20191l0 0c-306,741 -1173,1119 -1902,791l-6954 -3132c-729,-328 -1097,-1160 -791,-1901l0 0c305,-741 1159,-1095 1901,-791l6955 3132c730,329 1096,1160 791,1901z"/>
   <path class="fil1" d="M14843 9479c-5130,2678 -3502,9970 -625,14069l4267 -7077 -3642 -6992z"/>
   <path class="fil2" d="M14542 11503c318,-2923 4800,-3914 6600,-2807 1800,1107 1927,3896 518,6500 -1409,2604 -4324,3152 -5255,2545 -931,-607 -2182,-3315 -1863,-6238z"/>
   <path class="fil2" d="M17557 9293l0 0c478,643 426,1703 -298,2038l-8843 4095c-724,335 -1559,344 -2038,-298l0 0c-478,-643 -343,-1558 298,-2038l8843 -4095c727,-337 1559,-344 2038,298z"/>
   <path class="fil2" d="M7445 22120l0 0c-800,-34 -1408,-719 -1393,-1517l41 -6276c5,-799 716,-1428 1517,-1394l0 0c800,34 1425,717 1393,1517l-41 6277c-5,801 -716,1427 -1517,1393z"/>
   <path class="fil2" d="M10072 29733l0 0c-761,249 -1613,-164 -1837,-931l-2138 -7321c-224,-767 170,-1588 931,-1837l0 0c762,-249 1586,170 1837,931l2138 7322c225,769 -170,1587 -931,1836z"/>
   <path class="fil2" d="M9084 17081c1147,-753 5818,-3676 6180,-224 361,3451 4010,-4753 4010,-4753l-5481 -1522c0,0 -7218,1337 -4709,6499z"/>
   <path class="fil2" d="M13981 10420c6022,2388 9627,65 3661,-3931l-3661 3931z"/>
   <path class="fil3" d="M16977 6632l6820 6176 8024 -9240c-285,-327 -658,-691 -1083,-1072l-10421 401 -3340 3735z"/>
   <polygon class="fil4" points="17762,4539 25804,11746 35817,0 21739,13 "/>
   <path class="fil3" d="M27110 9026c197,-454 -14,-986 -468,-1182 -455,-197 -986,14 -1183,468 -197,455 14,986 468,1183 455,197 986,-14 1183,-469z"/>
   <path class="fil5" d="M0 24887l0 8855c0,693 561,1256 1256,1256l14449 1c695,0 1257,-563 1257,-1256l0 -8855c0,-693 -562,-1255 -1255,-1255l-14451 -2c-693,0 -1256,563 -1256,1256z"/>
   <polygon class="fil6" points="16962,31707 0,31713 0,33742 0,33745 16962,33739 "/>
   <path class="fil7" d="M0 24887l0 8855c0,693 561,1256 1256,1256l3855 0 6146 -11365 -10001 -2c-693,0 -1256,563 -1256,1256z"/>
   <g>
    <g>
     <path class="fil8" d="M1393 25919c-72,0 -130,-26 -171,-79l-9 0c6,52 9,81 9,90l0 251 -169 0 0 -894 137 0 24 81 8 0c40,-61 98,-92 176,-92 73,0 130,28 172,85 41,57 62,135 62,236 0,66 -10,124 -29,172 -19,49 -47,86 -83,112 -36,26 -78,38 -127,38zm-50 -508c-41,0 -72,13 -91,39 -19,26 -29,68 -30,127l0 18c0,67 10,115 30,144 19,28 51,43 94,43 76,0 113,-63 113,-188 0,-61 -9,-106 -28,-137 -18,-30 -47,-46 -88,-46zm619 -14c-36,0 -64,11 -85,34 -20,22 -32,55 -35,96l238 0c-1,-41 -12,-74 -33,-96 -21,-23 -50,-34 -85,-34zm23 522c-100,0 -178,-27 -234,-83 -56,-55 -84,-133 -84,-234 0,-104 26,-184 78,-241 52,-56 124,-85 215,-85 88,0 156,25 205,75 49,50 73,119 73,207l0 82 -400 0c2,48 16,85 43,113 27,27 64,40 112,40 37,0 73,-4 106,-12 33,-7 68,-20 105,-37l0 131c-30,15 -62,26 -96,33 -33,8 -74,11 -123,11zm670 -643c23,0 42,2 57,5l-13 159c-14,-4 -30,-6 -50,-6 -54,0 -96,14 -126,42 -30,28 -45,66 -45,116l0 316 -169 0 0 -621 128 0 25 105 8 0c19,-35 45,-63 78,-84 33,-21 68,-32 107,-32zm535 448c0,63 -22,112 -66,145 -44,34 -110,50 -198,50 -46,0 -84,-3 -116,-9 -32,-6 -61,-15 -89,-27l0 -140c31,15 67,27 106,37 39,10 74,15 104,15 62,0 92,-17 92,-53 0,-13 -4,-24 -12,-32 -8,-9 -22,-18 -42,-29 -20,-10 -47,-23 -80,-37 -48,-20 -83,-38 -105,-55 -22,-17 -39,-37 -49,-59 -10,-22 -15,-49 -15,-81 0,-55 21,-98 64,-128 43,-30 103,-45 182,-45 74,0 147,16 217,49l-50 122c-32,-14 -60,-25 -88,-33 -26,-9 -54,-13 -82,-13 -50,0 -75,14 -75,41 0,15 8,28 24,39 16,11 51,28 106,49 48,20 84,39 106,56 23,17 39,36 50,58 11,23 16,49 16,80zm58 -597c0,-55 31,-83 92,-83 61,0 92,28 92,83 0,26 -8,47 -23,61 -15,15 -38,22 -69,22 -61,0 -92,-28 -92,-83zm176 781l-169 0 0 -621 169 0 0 621zm505 0l-33 -84 -5 0c-28,36 -57,61 -88,74 -30,14 -69,21 -117,21 -60,0 -107,-17 -141,-51 -34,-34 -51,-82 -51,-145 0,-66 23,-115 69,-146 46,-31 115,-49 208,-52l108 -3 0 -28c0,-63 -33,-94 -97,-94 -49,0 -108,15 -175,45l-56 -114c72,-37 151,-56 238,-56 83,0 147,18 191,54 45,37 67,92 67,166l0 413 -118 0zm-50 -288l-66 3c-49,1 -86,10 -110,26 -24,17 -36,41 -36,75 0,47 28,71 82,71 40,0 71,-11 94,-34 24,-22 36,-52 36,-89l0 -52zm480 223c16,0 32,-1 47,-4 15,-2 27,-4 36,-7l0 71c-10,4 -24,8 -44,11 -19,4 -37,5 -52,5 -118,0 -177,-62 -177,-186l0 -361 -87 0 0 -45 87 -38 39 -130 53 0 0 141 177 0 0 72 -177 0 0 357c0,37 9,65 26,85 18,19 42,29 72,29zm415 -554c27,0 51,2 72,6l-12 86c-25,-5 -48,-8 -67,-8 -49,0 -91,20 -126,60 -35,40 -52,89 -52,149l0 326 -93 0 0 -608 77 0 10 112 5 0c22,-39 49,-70 81,-91 32,-22 67,-32 105,-32zm470 619l-18 -87 -5 0c-30,38 -60,64 -90,78 -30,13 -68,20 -113,20 -60,0 -108,-15 -142,-46 -34,-32 -51,-76 -51,-133 0,-123 98,-188 294,-193l104 -4 0 -38c0,-47 -11,-82 -31,-105 -21,-23 -54,-34 -99,-34 -50,0 -108,15 -172,46l-28 -70c30,-16 63,-29 99,-38 35,-10 71,-14 107,-14 72,0 126,16 161,48 35,32 52,84 52,155l0 415 -68 0zm-208 -65c58,0 103,-16 135,-47 33,-31 49,-75 49,-132l0 -55 -92 4c-73,2 -126,14 -158,34 -32,20 -49,52 -49,94 0,33 10,59 31,76 20,17 48,26 84,26zm532 65l-230 -608 98 0 131 361c30,84 47,139 52,164l5 0c4,-20 17,-60 38,-122 22,-62 71,-196 146,-403l99 0 -231 608 -108 0zm626 11c-90,0 -161,-27 -213,-82 -52,-55 -78,-131 -78,-228 0,-98 25,-176 73,-234 48,-58 113,-86 194,-86 76,0 137,25 181,75 44,50 67,116 67,198l0 58 -419 0c2,72 20,126 54,163 34,37 82,56 145,56 65,0 130,-14 194,-42l0 83c-33,14 -64,24 -93,30 -29,6 -64,9 -105,9zm-25 -553c-49,0 -88,16 -117,48 -29,31 -46,75 -51,131l318 0c0,-58 -13,-102 -39,-133 -26,-31 -63,-46 -111,-46zm431 542l-92 0 0 -864 92 0 0 864z"/>
     <path class="fil9" d="M7503 25908l0 -396c0,-48 -11,-84 -31,-109 -21,-24 -53,-36 -97,-36 -57,0 -99,17 -127,49 -27,33 -41,84 -41,152l0 340 -92 0 0 -396c0,-48 -10,-84 -31,-109 -21,-24 -53,-36 -97,-36 -58,0 -100,17 -127,52 -27,34 -40,91 -40,170l0 319 -92 0 0 -608 75 0 15 83 4 0c17,-30 42,-53 74,-69 31,-17 67,-25 106,-25 95,0 157,34 186,103l5 0c18,-32 44,-57 78,-76 35,-18 74,-27 118,-27 69,0 120,17 154,53 35,35 52,91 52,169l0 397 -92 0zm739 -305c0,100 -25,177 -74,233 -50,55 -119,83 -207,83 -55,0 -103,-12 -145,-38 -42,-26 -75,-62 -98,-110 -23,-48 -34,-104 -34,-168 0,-99 24,-176 74,-231 50,-56 118,-83 206,-83 86,0 153,28 203,84 50,57 75,134 75,230zm-463 0c0,78 16,137 47,178 31,41 76,61 137,61 60,0 106,-20 137,-61 31,-40 47,-100 47,-178 0,-77 -16,-136 -47,-176 -31,-40 -77,-60 -138,-60 -61,0 -106,20 -137,59 -31,40 -46,99 -46,177zm974 305l0 -393c0,-50 -11,-87 -34,-111 -23,-25 -58,-37 -106,-37 -64,0 -110,17 -140,52 -30,34 -44,91 -44,170l0 319 -92 0 0 -608 74 0 15 83 5 0c19,-30 45,-53 79,-70 34,-16 72,-24 114,-24 73,0 129,17 165,53 38,35 56,91 56,169l0 397 -92 0zm471 11c-90,0 -161,-27 -213,-82 -52,-55 -78,-131 -78,-228 0,-98 24,-176 72,-234 49,-58 113,-86 195,-86 76,0 136,25 181,75 44,50 66,116 66,198l0 58 -419 0c2,72 20,126 54,163 35,37 83,56 145,56 65,0 130,-14 194,-42l0 83c-32,14 -63,24 -92,30 -29,6 -64,9 -105,9zm-25 -553c-49,0 -88,16 -117,48 -29,31 -46,75 -51,131l318 0c0,-58 -13,-102 -39,-133 -26,-31 -63,-46 -111,-46zm219 -66l99 0 133 347c29,79 47,136 54,171l5 0c4,-19 15,-51 30,-97 15,-46 65,-186 151,-421l98 0 -261 692c-26,68 -56,117 -91,146 -34,28 -77,43 -127,43 -28,0 -56,-4 -83,-10l0 -73c20,4 43,6 68,6 63,0 108,-35 135,-106l34 -87 -245 -611z"/>
    </g>
    <path class="fil8" d="M1381 26223l-13 0 0 -178 -62 0 0 -13 137 0 0 13 -62 0 0 178zm178 0l0 -92c0,-14 -3,-24 -9,-31 -6,-6 -16,-10 -28,-10 -17,0 -30,5 -37,13 -8,9 -12,23 -12,42l0 78 -13 0 0 -203 13 0 0 65 -1 18 1 0c5,-9 12,-15 20,-19 8,-3 18,-5 30,-5 32,0 48,17 48,51l0 93 -12 0zm107 3c-20,0 -36,-7 -48,-19 -11,-13 -17,-31 -17,-54 0,-22 5,-40 17,-54 11,-14 26,-20 45,-20 16,0 29,5 39,17 10,12 14,27 14,47l0 11 -102 0c1,19 5,34 14,44 9,11 22,16 38,16 8,0 15,-1 22,-2 6,-1 13,-3 23,-7l0 12c-8,3 -16,5 -22,7 -7,1 -14,2 -23,2zm-3 -136c-14,0 -25,4 -33,13 -9,9 -13,22 -15,39l88 0c0,-16 -4,-29 -11,-38 -7,-10 -17,-14 -29,-14zm295 133l-13 0 -113 -169 -1 0c1,20 2,35 2,45l0 124 -13 0 0 -191 13 0 113 169 1 0c-1,-15 -2,-30 -2,-44l0 -125 13 0 0 191zm100 3c-20,0 -36,-7 -48,-19 -11,-13 -17,-31 -17,-54 0,-22 5,-40 16,-54 12,-14 27,-20 45,-20 17,0 30,5 40,17 10,12 14,27 14,47l0 11 -102 0c0,19 5,34 14,44 9,11 22,16 38,16 8,0 15,-1 21,-2 7,-1 14,-3 24,-7l0 12c-8,3 -16,5 -22,7 -7,1 -15,2 -23,2zm-4 -136c-13,0 -24,4 -32,13 -9,9 -14,22 -15,39l88 0c0,-16 -4,-29 -11,-38 -7,-10 -17,-14 -30,-14zm115 60l-50 -69 15 0 42 60 42 -60 14 0 -48 69 52 73 -15 0 -45 -63 -44 63 -15 0 52 -73zm101 -69l0 92c0,14 3,25 9,31 6,7 15,10 28,10 17,0 29,-4 37,-13 8,-8 12,-22 12,-42l0 -78 13 0 0 142 -11 0 -3 -20 0 0c-10,15 -26,23 -50,23 -32,0 -48,-18 -48,-52l0 -93 13 0zm226 105c0,13 -5,23 -15,29 -9,7 -23,11 -41,11 -19,0 -34,-3 -45,-9l0 -14c14,7 29,11 45,11 14,0 25,-3 32,-7 7,-5 11,-11 11,-19 0,-7 -3,-13 -9,-18 -5,-5 -15,-10 -28,-14 -14,-5 -24,-10 -30,-13 -6,-4 -10,-8 -13,-13 -3,-5 -4,-10 -4,-17 0,-11 4,-19 13,-25 9,-6 21,-9 37,-9 16,0 30,2 44,8l-5 12c-14,-6 -27,-9 -39,-9 -11,0 -20,2 -27,6 -7,4 -10,9 -10,16 0,7 2,13 8,18 5,4 15,9 30,15 13,4 22,8 28,12 6,4 10,8 13,13 3,4 5,10 5,16zm214 -34c0,23 -5,41 -16,54 -12,13 -27,20 -47,20 -12,0 -23,-3 -33,-9 -9,-6 -16,-15 -21,-26 -5,-11 -8,-24 -8,-39 0,-23 6,-41 17,-54 11,-13 27,-19 46,-19 20,0 35,6 46,19 11,13 16,31 16,54zm-111 0c0,19 4,35 13,45 8,11 20,17 36,17 15,0 28,-6 36,-17 9,-10 13,-26 13,-45 0,-20 -4,-35 -13,-46 -9,-10 -21,-16 -36,-16 -16,0 -28,6 -37,16 -8,11 -12,26 -12,46zm195 -60l-33 0 0 131 -13 0 0 -131 -26 0 0 -7 26 -5 0 -11c0,-17 3,-30 10,-38 6,-8 16,-12 31,-12 8,0 16,1 23,3l-3 11c-7,-2 -14,-3 -20,-3 -10,0 -18,3 -22,9 -4,6 -6,16 -6,29l0 13 33 0 0 11zm142 131l-14 0 0 -178 -62 0 0 -13 138 0 0 13 -62 0 0 178zm177 -71c0,23 -6,41 -17,54 -11,13 -27,20 -46,20 -13,0 -24,-3 -33,-9 -10,-6 -17,-15 -22,-26 -5,-11 -7,-24 -7,-39 0,-23 5,-41 16,-54 12,-13 27,-19 47,-19 19,0 34,6 45,19 11,13 17,31 17,54zm-112 0c0,19 4,35 13,45 9,11 21,17 36,17 16,0 28,-6 37,-17 8,-10 12,-26 12,-45 0,-20 -4,-35 -13,-46 -8,-10 -20,-16 -36,-16 -16,0 -28,6 -36,16 -9,11 -13,26 -13,46zm154 -71l0 92c0,14 3,25 9,31 6,7 15,10 28,10 17,0 29,-4 37,-13 8,-8 12,-22 12,-42l0 -78 13 0 0 142 -11 0 -2 -20 -1 0c-9,15 -26,23 -49,23 -32,0 -49,-18 -49,-52l0 -93 13 0zm194 -2c6,0 12,0 19,1l-2 13c-6,-2 -12,-2 -19,-2 -12,0 -22,5 -29,15 -8,10 -12,23 -12,39l0 78 -13 0 0 -142 11 0 1 26 1 0c6,-11 12,-18 19,-22 7,-4 15,-6 24,-6zm53 144l-13 0 0 -142 13 0 0 142zm-15 -181c0,-8 3,-12 8,-12 3,0 5,1 7,3 1,2 2,5 2,9 0,4 -1,7 -2,9 -2,2 -4,4 -7,4 -5,0 -8,-5 -8,-13zm142 144c0,13 -5,23 -15,29 -9,7 -23,11 -41,11 -18,0 -34,-3 -45,-9l0 -14c15,7 30,11 45,11 14,0 25,-3 32,-7 8,-5 11,-11 11,-19 0,-7 -3,-13 -8,-18 -6,-5 -16,-10 -29,-14 -14,-5 -24,-10 -30,-13 -6,-4 -10,-8 -13,-13 -3,-5 -4,-10 -4,-17 0,-11 4,-19 13,-25 9,-6 22,-9 38,-9 15,0 29,2 43,8l-5 12c-14,-6 -27,-9 -38,-9 -12,0 -21,2 -28,6 -7,4 -10,9 -10,16 0,7 3,13 8,18 5,4 15,9 31,15 12,4 22,8 28,12 5,4 10,8 13,13 3,4 4,10 4,16zm205 37l0 -93c0,-14 -2,-24 -8,-30 -5,-7 -14,-10 -25,-10 -14,0 -25,4 -32,12 -7,8 -10,21 -10,38l0 83 -13 0 0 -97c0,-24 -11,-36 -33,-36 -15,0 -26,5 -33,13 -6,9 -10,23 -10,42l0 78 -13 0 0 -142 11 0 3 20 1 0c3,-7 9,-13 16,-17 7,-3 15,-5 24,-5 22,0 37,8 43,25l1 0c4,-8 10,-15 18,-19 8,-4 17,-6 27,-6 15,0 27,4 34,12 8,8 12,21 12,39l0 93 -13 0zm65 -31l2 3c-6,23 -14,44 -23,62l-8 0c7,-24 11,-45 14,-65l15 0zm121 31l-14 0 0 -191 105 0 0 13 -91 0 0 81 86 0 0 12 -86 0 0 85zm122 0l-13 0 0 -142 13 0 0 142zm-15 -181c0,-8 3,-12 8,-12 3,0 5,1 7,3 1,2 2,5 2,9 0,4 -1,7 -2,9 -2,2 -4,4 -7,4 -5,0 -8,-5 -8,-13zm153 181l0 -92c0,-14 -3,-24 -9,-31 -6,-6 -15,-10 -28,-10 -17,0 -29,5 -37,13 -8,9 -12,23 -12,42l0 78 -13 0 0 -142 11 0 3 20 0 0c10,-15 26,-22 50,-22 32,0 48,17 48,51l0 93 -13 0zm136 0l-3 -23 -1 0c-7,10 -14,16 -22,20 -7,4 -16,6 -26,6 -14,0 -25,-4 -33,-11 -8,-7 -12,-17 -12,-30 0,-14 6,-24 18,-32 11,-8 28,-12 50,-12l27 -1 0 -9c0,-14 -3,-24 -9,-31 -5,-7 -14,-10 -26,-10 -13,0 -27,4 -41,11l-5 -11c16,-7 31,-11 47,-11 15,0 27,4 34,12 8,8 12,21 12,38l0 94 -10 0zm-52 -9c15,0 27,-4 36,-13 9,-9 13,-21 13,-36l0 -14 -25 1c-19,1 -34,4 -42,9 -9,5 -13,14 -13,25 0,9 3,16 8,20 6,5 13,8 23,8zm198 9l0 -92c0,-14 -3,-24 -9,-31 -6,-6 -15,-10 -27,-10 -17,0 -30,5 -38,13 -8,9 -11,23 -11,42l0 78 -13 0 0 -142 11 0 2 20 1 0c9,-15 25,-22 49,-22 32,0 48,17 48,51l0 93 -13 0zm107 3c-20,0 -36,-7 -47,-20 -12,-12 -17,-30 -17,-53 0,-23 6,-42 18,-55 11,-13 28,-19 48,-19 13,0 24,2 35,6l-3 11c-12,-4 -23,-6 -32,-6 -17,0 -30,6 -39,16 -9,11 -14,27 -14,47 0,19 5,34 14,45 9,10 21,16 37,16 13,0 25,-2 36,-7l0 12c-9,4 -21,7 -36,7zm120 0c-21,0 -37,-7 -48,-19 -12,-13 -18,-31 -18,-54 0,-22 6,-40 17,-54 11,-14 26,-20 45,-20 17,0 30,5 39,17 10,12 15,27 15,47l0 11 -102 0c0,19 5,34 13,44 9,11 22,16 39,16 8,0 15,-1 21,-2 6,-1 14,-3 23,-7l0 12c-8,3 -15,5 -22,7 -7,1 -14,2 -22,2zm-4 -136c-14,0 -25,4 -33,13 -8,9 -13,22 -14,39l87 0c0,-16 -3,-29 -10,-38 -8,-10 -17,-14 -30,-14zm240 133l-3 -23 -1 0c-7,10 -15,16 -22,20 -8,4 -17,6 -27,6 -14,0 -24,-4 -32,-11 -8,-7 -12,-17 -12,-30 0,-14 6,-24 17,-32 12,-8 29,-12 50,-12l27 -1 0 -9c0,-14 -2,-24 -8,-31 -5,-7 -14,-10 -26,-10 -13,0 -27,4 -41,11l-5 -11c16,-7 31,-11 46,-11 16,0 27,4 35,12 8,8 12,21 12,38l0 94 -10 0zm-52 -9c15,0 27,-4 36,-13 8,-9 13,-21 13,-36l0 -14 -25 1c-20,1 -34,4 -42,9 -9,5 -13,14 -13,25 0,9 3,16 8,20 5,5 13,8 23,8zm198 9l0 -92c0,-14 -3,-24 -9,-31 -6,-6 -15,-10 -28,-10 -17,0 -29,5 -37,13 -8,9 -12,23 -12,42l0 78 -13 0 0 -142 11 0 3 20 1 0c9,-15 25,-22 49,-22 32,0 48,17 48,51l0 93 -13 0zm102 -144c11,0 19,1 27,5 7,4 14,10 20,19l1 0c-1,-11 -1,-21 -1,-32l0 -51 13 0 0 203 -9 0 -3 -22 -1 0c-11,16 -26,25 -46,25 -20,0 -35,-7 -45,-19 -10,-12 -16,-30 -16,-53 0,-24 5,-43 16,-56 10,-13 25,-19 44,-19zm0 11c-15,0 -27,6 -34,17 -8,11 -12,26 -12,47 0,40 16,60 47,60 16,0 27,-4 35,-14 7,-9 11,-24 11,-46l0 -2c0,-22 -4,-38 -11,-47 -7,-10 -19,-15 -36,-15zm221 133l-13 0 0 -178 -62 0 0 -13 137 0 0 13 -62 0 0 178zm118 3c-21,0 -37,-7 -48,-19 -12,-13 -18,-31 -18,-54 0,-22 6,-40 17,-54 11,-14 26,-20 45,-20 17,0 30,5 39,17 10,12 15,27 15,47l0 11 -102 0c0,19 5,34 14,44 8,11 21,16 38,16 8,0 15,-1 21,-2 6,-1 14,-3 23,-7l0 12c-8,3 -15,5 -22,7 -7,1 -14,2 -22,2zm-4 -136c-14,0 -25,4 -33,13 -8,9 -13,22 -14,39l87 0c0,-16 -3,-29 -10,-38 -8,-10 -17,-14 -30,-14zm141 136c-20,0 -36,-7 -47,-20 -12,-12 -17,-30 -17,-53 0,-23 6,-42 18,-55 11,-13 28,-19 48,-19 13,0 24,2 35,6l-3 11c-12,-4 -23,-6 -32,-6 -17,0 -30,6 -39,16 -9,11 -14,27 -14,47 0,19 5,34 14,45 9,10 21,16 37,16 13,0 25,-2 36,-7l0 12c-9,4 -21,7 -36,7zm161 -3l0 -92c0,-14 -3,-24 -9,-31 -6,-6 -15,-10 -28,-10 -17,0 -29,5 -37,13 -8,9 -12,23 -12,42l0 78 -12 0 0 -203 12 0 0 65 0 18 1 0c5,-9 12,-15 20,-19 8,-3 18,-5 30,-5 32,0 48,17 48,51l0 93 -13 0zm150 0l0 -92c0,-14 -3,-24 -10,-31 -5,-6 -15,-10 -27,-10 -17,0 -30,5 -38,13 -7,9 -11,23 -11,42l0 78 -13 0 0 -142 11 0 2 20 1 0c9,-15 26,-22 49,-22 32,0 48,17 48,51l0 93 -12 0zm167 -71c0,23 -6,41 -17,54 -11,13 -26,20 -46,20 -13,0 -23,-3 -33,-9 -9,-6 -17,-15 -22,-26 -5,-11 -7,-24 -7,-39 0,-23 5,-41 17,-54 11,-13 26,-19 46,-19 19,0 34,6 45,19 12,13 17,31 17,54zm-112 0c0,19 5,35 13,45 9,11 21,17 36,17 16,0 28,-6 37,-17 8,-10 13,-26 13,-45 0,-20 -5,-35 -13,-46 -9,-10 -21,-16 -37,-16 -15,0 -27,6 -36,16 -8,11 -13,26 -13,46zm156 71l-13 0 0 -203 13 0 0 203zm156 -71c0,23 -5,41 -16,54 -12,13 -27,20 -47,20 -12,0 -23,-3 -33,-9 -9,-6 -16,-15 -21,-26 -5,-11 -8,-24 -8,-39 0,-23 6,-41 17,-54 11,-13 27,-19 46,-19 20,0 35,6 46,19 11,13 16,31 16,54zm-111 0c0,19 4,35 13,45 8,11 20,17 36,17 15,0 28,-6 36,-17 9,-10 13,-26 13,-45 0,-20 -4,-35 -13,-46 -9,-10 -21,-16 -36,-16 -16,0 -28,6 -37,16 -8,11 -12,26 -12,46zm253 -71l0 9 -29 2c8,10 11,20 11,32 0,14 -4,25 -13,33 -9,9 -21,13 -37,13 -6,0 -11,0 -13,-1 -5,3 -9,6 -12,10 -3,3 -4,7 -4,11 0,5 2,8 5,10 4,2 9,3 17,3l25 0c16,0 27,4 35,10 9,6 13,15 13,27 0,15 -6,27 -18,35 -13,8 -30,12 -52,12 -18,0 -32,-4 -42,-10 -9,-7 -14,-17 -14,-29 0,-10 3,-18 9,-24 6,-7 14,-11 24,-13 -4,-2 -7,-5 -10,-8 -2,-3 -4,-7 -4,-12 0,-9 6,-17 18,-25 -8,-3 -14,-8 -19,-16 -5,-7 -7,-15 -7,-25 0,-14 5,-25 14,-34 9,-8 21,-12 36,-12 9,0 17,0 22,2l45 0zm-115 166c0,19 15,29 44,29 37,0 56,-12 56,-36 0,-8 -3,-14 -9,-18 -6,-4 -15,-6 -28,-6l-24 0c-26,0 -39,10 -39,31zm11 -122c0,11 4,20 10,26 7,6 16,9 27,9 12,0 21,-3 27,-9 6,-6 9,-15 9,-26 0,-12 -3,-21 -9,-27 -7,-6 -16,-9 -27,-9 -12,0 -21,3 -27,9 -7,7 -10,16 -10,27zm101 -44l14 0 30 80c9,24 14,41 17,49l1 0c3,-11 9,-28 17,-50l30 -79 14 0 -64 165c-5,13 -9,22 -13,27 -3,5 -7,8 -12,10 -4,3 -10,4 -17,4 -5,0 -10,-1 -16,-3l0 -11c5,1 10,2 16,2 5,0 8,-1 12,-3 3,-2 6,-5 9,-10 3,-4 6,-11 9,-21 4,-9 6,-15 7,-18l-54 -142z"/>
    <polygon class="fil9" points="10005,25076 6734,25076 6734,25053 10005,25053 "/>
    <polygon class="fil9" points="10005,25146 6734,25146 6734,25123 10005,25123 "/>
   </g>
   <path class="fil2" d="M18176 15015l0 0c801,335 1193,1391 750,2285l-4002 8076c-442,893 -1361,1401 -2162,1066l0 0c-801,-334 -1137,-1361 -750,-2284l4002 -8076c444,-896 1361,-1402 2162,-1067z"/>
   <path class="fil10" d="M14839 24906l-153 342c-913,2041 -3308,772 -2398,-1041l178 -355c346,-688 2588,573 2373,1054z"/>
  </g>
 </g>
</svg>
