<?xml version="1.0" encoding="UTF-8"?>
<!DOCTYPE svg PUBLIC "-//W3C//DTD SVG 1.1//EN" "http://www.w3.org/Graphics/SVG/1.1/DTD/svg11.dtd">
<!-- Creator: CorelDRAW X7 -->
<svg xmlns="http://www.w3.org/2000/svg" xml:space="preserve" width="319.571mm" height="31.399mm" version="1.1" style="shape-rendering:geometricPrecision; text-rendering:geometricPrecision; image-rendering:optimizeQuality; fill-rule:evenodd; clip-rule:evenodd"
viewBox="0 0 31957 3140"
 xmlns:xlink="http://www.w3.org/1999/xlink">
 <defs>
  <style type="text/css">
   <![CDATA[
    .fil0 {fill:#FEFEFE;fill-rule:nonzero}
    .fil1 {fill:#00414E;fill-rule:nonzero}
   ]]>
  </style>
 </defs>
 <g id="Layer_x0020_1">
  <metadata id="CorelCorpID_0Corel-Layer"/>
  <g id="_2511873123200">
   <path class="fil0" d="M9094 444l57 0c55,0 95,-11 122,-32 27,-21 40,-53 40,-94 0,-41 -11,-71 -33,-91 -23,-20 -58,-29 -106,-29l-80 0 0 246zm397 -132c0,90 -28,158 -84,205 -56,47 -135,71 -238,71l-75 0 0 295 -176 0 0 -830 265 0c100,0 177,22 229,65 53,44 79,108 79,194zm346 48c-37,0 -65,12 -86,35 -21,23 -33,56 -36,99l243 0c-1,-43 -12,-76 -34,-99 -21,-23 -50,-35 -87,-35zm24 535c-102,0 -182,-28 -239,-85 -58,-56 -86,-136 -86,-239 0,-106 26,-189 79,-247 53,-58 127,-87 221,-87 90,0 159,26 209,77 50,51 75,121 75,211l0 84 -409 0c2,49 16,88 43,115 28,28 66,42 115,42 39,0 75,-4 109,-12 34,-8 69,-21 107,-38l0 134c-31,15 -63,27 -98,34 -34,7 -76,11 -126,11zm694 -658c23,0 43,2 58,5l-13 162c-14,-3 -31,-5 -51,-5 -55,0 -98,14 -129,42 -31,29 -46,68 -46,120l0 322 -173 0 0 -634 131 0 26 107 8 0c20,-36 46,-64 80,-86 33,-22 70,-33 109,-33zm556 458c0,65 -22,115 -67,149 -45,34 -113,51 -203,51 -46,0 -86,-3 -118,-9 -33,-7 -63,-16 -92,-28l0 -143c33,15 69,28 109,38 40,10 76,15 106,15 63,0 95,-18 95,-54 0,-14 -4,-25 -13,-33 -8,-9 -22,-19 -43,-30 -20,-10 -47,-23 -82,-37 -48,-21 -84,-40 -107,-57 -23,-18 -40,-37 -50,-60 -11,-23 -16,-50 -16,-83 0,-56 22,-100 66,-131 44,-31 106,-46 186,-46 76,0 150,17 223,50l-52 124c-32,-13 -62,-24 -90,-33 -27,-9 -55,-13 -84,-13 -51,0 -77,14 -77,41 0,16 9,29 25,41 17,11 53,28 108,50 50,20 86,39 109,57 23,17 40,37 51,60 11,23 16,50 16,81zm68 -611c0,-56 32,-84 95,-84 62,0 94,28 94,84 0,27 -8,48 -24,63 -15,15 -39,23 -70,23 -63,0 -95,-29 -95,-86zm181 799l-173 0 0 -634 173 0 0 634zm525 0l-34 -86 -4 0c-30,37 -60,62 -91,77 -30,14 -70,21 -120,21 -61,0 -109,-17 -144,-52 -35,-35 -52,-85 -52,-149 0,-68 23,-117 70,-149 47,-32 118,-50 213,-53l110 -4 0 -28c0,-64 -33,-96 -98,-96 -51,0 -111,15 -179,46l-57 -117c73,-38 154,-57 243,-57 85,0 150,19 195,56 46,37 68,93 68,169l0 422 -120 0zm-52 -294l-66 3c-51,1 -88,10 -113,27 -25,17 -37,42 -37,76 0,49 28,73 84,73 40,0 72,-11 96,-34 24,-23 36,-54 36,-92l0 -53zm926 294l-176 0 0 -683 -225 0 0 -147 627 0 0 147 -226 0 0 683zm576 -646c23,0 43,2 59,5l-13 162c-15,-3 -31,-5 -52,-5 -55,0 -98,14 -129,42 -30,29 -46,68 -46,120l0 322 -173 0 0 -634 131 0 26 107 8 0c20,-36 46,-64 80,-86 33,-22 70,-33 109,-33zm494 646l-34 -86 -4 0c-29,37 -59,62 -90,77 -31,14 -71,21 -121,21 -61,0 -109,-17 -144,-52 -35,-35 -52,-85 -52,-149 0,-68 23,-117 71,-149 47,-32 118,-50 213,-53l110 -4 0 -28c0,-64 -33,-96 -99,-96 -51,0 -110,15 -179,46l-57 -117c73,-38 154,-57 243,-57 85,0 150,19 195,56 46,37 69,93 69,169l0 422 -121 0zm-51 -294l-67 3c-51,1 -88,10 -113,27 -24,17 -37,42 -37,76 0,49 29,73 85,73 40,0 72,-11 96,-34 24,-23 36,-54 36,-92l0 -53zm441 294l-242 -634 181 0 123 361c13,46 22,89 25,130l4 0c2,-36 10,-79 25,-130l123 -361 181 0 -242 634 -178 0zm713 -523c-37,0 -65,12 -86,35 -21,23 -33,56 -36,99l243 0c-1,-43 -12,-76 -33,-99 -22,-23 -51,-35 -88,-35zm25 535c-103,0 -182,-28 -240,-85 -58,-56 -86,-136 -86,-239 0,-106 26,-189 79,-247 54,-58 127,-87 221,-87 90,0 159,26 209,77 50,51 75,121 75,211l0 84 -409 0c2,49 17,88 44,115 27,28 65,42 115,42 38,0 74,-4 108,-12 34,-8 70,-21 107,-38l0 134c-31,15 -63,27 -97,34 -35,7 -77,11 -126,11zm512 -12l-173 0 0 -883 173 0 0 883zm789 0l-200 -651 -5 0c7,133 11,221 11,265l0 386 -157 0 0 -830 239 0 196 635 4 0 208 -635 240 0 0 830 -164 0 0 -393c0,-18 0,-39 1,-64 0,-24 3,-88 7,-193l-5 0 -214 650 -161 0zm809 -318c0,63 10,110 31,142 20,32 54,48 100,48 47,0 80,-15 100,-47 20,-32 30,-80 30,-143 0,-63 -10,-110 -30,-141 -21,-32 -54,-47 -101,-47 -46,0 -79,15 -100,46 -20,32 -30,79 -30,142zm438 0c0,103 -27,184 -81,243 -55,58 -131,87 -228,87 -61,0 -114,-13 -161,-40 -47,-27 -82,-65 -107,-115 -25,-50 -38,-108 -38,-175 0,-104 27,-184 81,-242 55,-57 131,-86 229,-86 60,0 114,13 161,40 46,26 82,64 107,114 25,49 37,108 37,174zm669 318l-173 0 0 -370c0,-46 -8,-80 -24,-103 -17,-23 -42,-35 -78,-35 -48,0 -83,16 -105,49 -21,32 -32,86 -32,161l0 298 -173 0 0 -634 132 0 23 81 10 0c19,-31 46,-54 80,-69 33,-16 72,-24 115,-24 74,0 130,20 168,60 38,40 57,97 57,173l0 413zm382 -523c-37,0 -66,12 -87,35 -21,23 -33,56 -36,99l243 0c0,-43 -11,-76 -33,-99 -22,-23 -51,-35 -87,-35zm24 535c-102,0 -182,-28 -240,-85 -57,-56 -86,-136 -86,-239 0,-106 27,-189 80,-247 53,-58 126,-87 220,-87 90,0 160,26 210,77 50,51 75,121 75,211l0 84 -410 0c2,49 17,88 44,115 27,28 66,42 115,42 38,0 74,-4 108,-12 34,-8 70,-21 107,-38l0 134c-30,15 -63,27 -97,34 -34,7 -76,11 -126,11zm225 -646l190 0 120 357c10,31 17,67 21,110l3 0c4,-39 13,-76 25,-110l117 -357 186 0 -269 715c-24,67 -59,116 -105,149 -46,33 -99,49 -160,49 -30,0 -59,-3 -88,-9l0 -138c21,5 44,8 68,8 31,0 58,-10 81,-28 23,-19 40,-47 53,-85l10 -31 -252 -630zm1097 316c16,-23 41,-53 74,-91l201 -212 112 0 -252 265 269 356 -114 0 -219 -294 -71 61 0 233 -93 0 0 -883 93 0 0 468c0,21 -2,53 -5,97l5 0zm839 318l-19 -88 -4 0c-31,39 -62,65 -93,79 -31,14 -69,21 -115,21 -62,0 -110,-16 -145,-48 -35,-32 -53,-77 -53,-136 0,-125 101,-191 301,-197l106 -4 0 -38c0,-49 -11,-85 -31,-108 -22,-23 -55,-35 -101,-35 -52,0 -111,16 -176,48l-29 -72c31,-17 64,-30 101,-40 36,-9 73,-14 109,-14 75,0 129,17 165,49 36,33 54,86 54,159l0 424 -70 0zm-213 -66c59,0 105,-16 138,-48 34,-32 51,-77 51,-135l0 -56 -95 4c-74,2 -128,14 -162,35 -33,20 -49,52 -49,96 0,34 10,60 31,77 20,18 49,27 86,27zm701 -567c27,0 52,2 74,7l-13 87c-26,-5 -48,-8 -68,-8 -50,0 -93,20 -129,61 -36,41 -54,92 -54,153l0 333 -94 0 0 -621 78 0 11 114 4 0c23,-40 51,-71 84,-93 32,-22 68,-33 107,-33zm332 567c16,0 32,-1 48,-4 15,-2 28,-5 37,-7l0 72c-10,5 -25,9 -45,12 -20,3 -38,5 -54,5 -120,0 -180,-63 -180,-190l0 -370 -89 0 0 -46 89 -39 39 -133 55 0 0 145 180 0 0 73 -180 0 0 366c0,37 9,66 27,86 17,20 42,30 73,30zm243 66l-94 0 0 -883 94 0 0 883zm523 0l-19 -88 -5 0c-31,39 -61,65 -92,79 -31,14 -70,21 -116,21 -61,0 -110,-16 -145,-48 -35,-32 -52,-77 -52,-136 0,-125 100,-191 301,-197l106 -4 0 -38c0,-49 -11,-85 -32,-108 -21,-23 -54,-35 -101,-35 -51,0 -110,16 -175,48l-29 -72c30,-17 64,-30 100,-40 37,-9 73,-14 110,-14 74,0 129,17 165,49 36,33 54,86 54,159l0 424 -70 0zm-213 -66c59,0 105,-16 138,-48 34,-32 50,-77 50,-135l0 -56 -94 4c-75,2 -129,14 -162,35 -33,20 -49,52 -49,96 0,34 10,60 31,77 20,18 49,27 86,27zm701 -567c27,0 52,2 74,7l-13 87c-26,-5 -49,-8 -68,-8 -51,0 -94,20 -129,61 -36,41 -54,92 -54,153l0 333 -94 0 0 -621 78 0 10 114 5 0c23,-40 51,-71 83,-93 33,-22 69,-33 108,-33zm225 633l-94 0 0 -621 94 0 0 621z"/>
   <path class="fil1" d="M12 3123l0 -1202 140 0 0 1202 -140 0zm-12 -1423c0,-31 8,-54 23,-68 15,-15 35,-22 58,-22 21,0 40,7 56,22 16,15 24,38 24,68 0,31 -8,54 -24,69 -16,15 -35,23 -56,23 -23,0 -43,-8 -58,-23 -15,-15 -23,-38 -23,-69zm534 923l0 500 -140 0 0 -1202 330 0c147,0 256,29 326,85 71,56 106,141 106,255 0,159 -80,266 -241,322l326 540 -165 0 -291 -500 -251 0zm0 -119l191 0c99,0 171,-20 217,-59 46,-39 69,-98 69,-176 0,-80 -23,-137 -70,-172 -47,-35 -122,-53 -225,-53l-182 0 0 460zm1570 619l-150 -382 -482 0 -148 382 -141 0 475 -1207 118 0 472 1207 -144 0zm-193 -508l-140 -372c-18,-48 -37,-105 -56,-174 -12,53 -29,110 -52,174l-141 372 389 0zm1354 508l-159 0 -657 -1008 -7 0c9,118 14,226 14,325l0 683 -129 0 0 -1202 157 0 656 1005 6 0c-1,-15 -3,-62 -7,-143 -4,-80 -6,-137 -5,-172l0 -690 131 0 0 1202zm340 -1202l-32 435 -87 0 -33 -435 152 0zm681 1081l-7 0c-63,92 -158,138 -283,138 -118,0 -210,-40 -275,-121 -66,-81 -98,-195 -98,-344 0,-148 32,-264 98,-346 66,-82 158,-123 275,-123 122,0 216,44 281,133l11 0 -6 -65 -3 -63 0 -367 136 0 0 1279 -111 0 -18 -121zm-273 23c93,0 161,-25 203,-76 42,-50 63,-132 63,-245l0 -29c0,-127 -22,-218 -64,-273 -43,-55 -110,-82 -204,-82 -80,0 -141,31 -183,94 -43,62 -64,149 -64,263 0,115 21,202 63,260 42,59 104,88 186,88zm1158 98l-27 -128 -7 0c-45,56 -89,95 -134,115 -45,20 -100,30 -167,30 -89,0 -159,-23 -210,-69 -50,-46 -76,-112 -76,-197 0,-182 146,-277 436,-286l153 -5 0 -56c0,-70 -15,-123 -45,-156 -31,-34 -79,-51 -146,-51 -75,0 -160,23 -255,69l-42 -104c45,-24 93,-43 146,-57 53,-14 106,-21 159,-21 107,0 187,24 239,72 51,48 77,124 77,229l0 615 -101 0zm-308 -96c85,0 152,-23 200,-70 49,-46 73,-111 73,-195l0 -82 -137 6c-108,4 -186,21 -234,51 -48,30 -72,76 -72,139 0,49 15,87 45,112 30,26 71,39 125,39zm1969 -1106l0 778c0,137 -41,245 -124,323 -83,79 -196,118 -341,118 -145,0 -257,-40 -336,-118 -79,-80 -119,-188 -119,-326l0 -775 140 0 0 784c0,101 28,178 82,232 55,53 136,80 242,80 101,0 179,-27 234,-81 55,-54 82,-131 82,-232l0 -783 140 0zm347 1202l-136 0 0 -1279 136 0 0 1279zm331 -900l0 584c0,73 17,128 50,164 34,36 86,54 158,54 94,0 163,-25 206,-77 44,-51 66,-135 66,-252l0 -473 136 0 0 900 -113 0 -19 -120 -8 0c-27,44 -66,78 -116,102 -50,23 -106,35 -170,35 -110,0 -191,-26 -246,-78 -55,-52 -82,-136 -82,-250l0 -589 138 0zm1399 655c0,83 -31,148 -93,194 -63,45 -150,68 -263,68 -120,0 -213,-19 -280,-57l0 -127c44,22 90,40 140,52 49,13 97,19 143,19 71,0 126,-11 164,-34 39,-23 58,-57 58,-104 0,-35 -15,-65 -46,-90 -30,-25 -89,-54 -178,-88 -84,-32 -143,-59 -178,-82 -36,-23 -62,-50 -79,-80 -18,-29 -26,-64 -26,-106 0,-73 30,-131 89,-174 60,-42 142,-63 246,-63 97,0 192,19 284,59l-48 111c-90,-37 -172,-56 -246,-56 -64,0 -113,10 -146,31 -33,20 -49,48 -49,83 0,25 6,45 18,62 12,17 32,33 60,49 27,15 80,37 158,66 106,39 178,78 216,118 38,39 56,89 56,149zm272 245l-136 0 0 -1279 136 0 0 1279zm757 0l-28 -128 -6 0c-45,56 -90,95 -134,115 -45,20 -101,30 -168,30 -89,0 -159,-23 -210,-69 -50,-46 -76,-112 -76,-197 0,-182 146,-277 436,-286l153 -5 0 -56c0,-70 -15,-123 -45,-156 -31,-34 -79,-51 -146,-51 -75,0 -160,23 -255,69l-42 -104c45,-24 93,-43 146,-57 53,-14 106,-21 159,-21 108,0 187,24 239,72 52,48 78,124 78,229l0 615 -101 0zm-309 -96c85,0 152,-23 200,-70 49,-46 73,-111 73,-195l0 -82 -136 6c-109,4 -187,21 -235,51 -48,30 -72,76 -72,139 0,49 15,87 45,112 30,26 72,39 125,39zm1015 -821c40,0 76,3 107,10l-18 127c-38,-8 -71,-13 -99,-13 -73,0 -135,30 -187,89 -52,59 -77,133 -77,221l0 483 -137 0 0 -900 113 0 15 166 7 0c33,-59 73,-104 120,-136 48,-31 99,-47 156,-47zm710 917l-28 -128 -6 0c-45,56 -90,95 -134,115 -45,20 -101,30 -168,30 -89,0 -159,-23 -210,-69 -50,-46 -76,-112 -76,-197 0,-182 146,-277 436,-286l153 -5 0 -56c0,-70 -15,-123 -45,-156 -31,-34 -79,-51 -146,-51 -75,0 -160,23 -255,69l-41 -104c44,-24 92,-43 145,-57 53,-14 106,-21 159,-21 108,0 187,24 239,72 52,48 78,124 78,229l0 615 -101 0zm-309 -96c85,0 152,-23 200,-70 49,-46 73,-111 73,-195l0 -82 -136 6c-109,4 -187,21 -235,51 -48,30 -72,76 -72,139 0,49 15,87 45,112 30,26 72,39 125,39zm1015 -821c40,0 76,3 107,10l-18 127c-38,-8 -71,-13 -99,-13 -73,0 -135,30 -187,89 -52,59 -77,133 -77,221l0 483 -137 0 0 -900 113 0 15 166 7 0c33,-59 73,-104 121,-136 47,-31 98,-47 155,-47zm710 917l-28 -128 -6 0c-45,56 -90,95 -134,115 -45,20 -101,30 -168,30 -89,0 -159,-23 -210,-69 -50,-46 -76,-112 -76,-197 0,-182 146,-277 436,-286l153 -5 0 -56c0,-70 -15,-123 -45,-156 -31,-34 -79,-51 -146,-51 -75,0 -160,23 -255,69l-41 -104c44,-24 92,-43 145,-57 53,-14 106,-21 159,-21 108,0 187,24 239,72 52,48 78,124 78,229l0 615 -101 0zm-309 -96c85,0 152,-23 200,-70 49,-46 73,-111 73,-195l0 -82 -136 6c-109,4 -187,21 -235,51 -48,30 -72,76 -72,139 0,49 15,87 45,112 30,26 72,39 125,39zm1185 -149c0,83 -31,148 -93,194 -63,45 -151,68 -264,68 -119,0 -212,-19 -279,-57l0 -127c44,22 90,40 139,52 50,13 98,19 144,19 71,0 126,-11 164,-34 39,-23 58,-57 58,-104 0,-35 -15,-65 -46,-90 -30,-25 -90,-54 -178,-88 -84,-32 -143,-59 -179,-82 -35,-23 -61,-50 -78,-80 -18,-29 -26,-64 -26,-106 0,-73 30,-131 89,-174 60,-42 142,-63 246,-63 97,0 192,19 284,59l-48 111c-91,-37 -173,-56 -246,-56 -65,0 -113,10 -146,31 -33,20 -50,48 -50,83 0,25 7,45 19,62 12,17 32,33 60,49 27,15 80,37 157,66 107,39 179,78 217,118 37,39 56,89 56,149zm272 245l-137 0 0 -900 137 0 0 900zm1030 0l-140 0 0 -1077 -380 0 0 -125 900 0 0 125 -380 0 0 1077zm499 -900l0 584c0,73 16,128 50,164 33,36 86,54 157,54 94,0 163,-25 207,-77 43,-51 65,-135 65,-252l0 -473 136 0 0 900 -112 0 -20 -120 -7 0c-28,44 -67,78 -117,102 -49,23 -106,35 -170,35 -109,0 -191,-26 -246,-78 -54,-52 -81,-136 -81,-250l0 -589 138 0zm1229 -17c39,0 75,3 107,10l-19 127c-37,-8 -70,-13 -99,-13 -72,0 -135,30 -186,89 -52,59 -78,133 -78,221l0 483 -136 0 0 -900 112 0 16 166 6 0c34,-59 74,-104 121,-136 47,-31 99,-47 156,-47zm325 917l-136 0 0 -900 136 0 0 900zm-147 -1145c0,-31 7,-54 23,-68 15,-15 34,-22 57,-22 22,0 41,7 57,22 16,15 24,37 24,68 0,31 -8,54 -24,69 -16,15 -35,22 -57,22 -23,0 -42,-7 -57,-22 -16,-15 -23,-38 -23,-69zm927 1145l-654 0 0 -93 492 -701 -462 0 0 -106 611 0 0 106 -485 688 498 0 0 106zm1272 0l0 -586c0,-71 -16,-125 -46,-161 -31,-36 -79,-54 -143,-54 -85,0 -148,24 -188,73 -41,49 -61,124 -61,225l0 503 -137 0 0 -586c0,-71 -15,-125 -46,-161 -30,-36 -78,-54 -144,-54 -85,0 -147,25 -187,77 -40,51 -60,135 -60,252l0 472 -136 0 0 -900 111 0 22 122 7 0c25,-43 62,-77 109,-102 46,-25 99,-37 157,-37 140,0 233,51 276,153l6 0c27,-47 66,-85 117,-112 51,-27 109,-41 174,-41 102,0 178,26 229,78 51,53 76,136 76,251l0 588 -136 0zm1832 -602c0,192 -49,343 -146,454 -97,110 -233,165 -406,165 -177,0 -313,-54 -409,-163 -97,-108 -145,-260 -145,-458 0,-195 48,-347 145,-455 96,-107 233,-161 411,-161 173,0 307,55 404,164 97,110 146,261 146,454zm-958 0c0,162 35,286 104,370 70,84 170,126 302,126 133,0 234,-42 302,-126 68,-84 102,-207 102,-370 0,-162 -34,-285 -102,-368 -67,-84 -167,-126 -300,-126 -133,0 -234,42 -304,127 -69,84 -104,206 -104,367zm178 -821c0,-28 8,-48 22,-61 15,-13 32,-19 52,-19 21,0 39,6 54,19 15,13 23,33 23,61 0,28 -8,48 -23,61 -15,14 -33,21 -54,21 -20,0 -37,-7 -52,-21 -14,-13 -22,-33 -22,-61zm313 0c0,-28 8,-48 22,-61 15,-13 32,-19 52,-19 21,0 38,6 53,19 15,13 23,33 23,61 0,28 -8,48 -23,61 -15,14 -32,21 -53,21 -20,0 -37,-7 -52,-21 -14,-13 -22,-33 -22,-61zm1241 1302l-8 0c-63,92 -157,138 -282,138 -118,0 -210,-40 -276,-121 -65,-81 -98,-195 -98,-344 0,-148 33,-264 99,-346 66,-82 157,-123 275,-123 122,0 215,44 281,133l10 0 -5 -65 -4 -63 0 -367 137 0 0 1279 -111 0 -18 -121zm-273 23c93,0 160,-25 202,-76 42,-50 63,-132 63,-245l0 -29c0,-127 -21,-218 -63,-273 -43,-55 -111,-82 -204,-82 -80,0 -141,31 -184,94 -42,62 -63,149 -63,263 0,115 21,202 63,260 42,59 104,88 186,88zm985 115c-134,0 -239,-41 -316,-122 -77,-81 -115,-194 -115,-338 0,-145 36,-260 107,-346 72,-86 168,-128 288,-128 113,0 202,37 268,111 66,74 99,172 99,294l0 86 -621 0c3,106 30,186 80,241 51,55 122,82 215,82 96,0 192,-20 287,-60l0 121c-48,21 -94,36 -137,45 -43,9 -95,14 -155,14zm-38 -820c-72,0 -129,24 -172,71 -44,47 -69,112 -76,195l470 0c0,-86 -19,-152 -57,-197 -39,-46 -93,-69 -165,-69zm1662 803l0 -586c0,-71 -15,-125 -46,-161 -30,-36 -78,-54 -143,-54 -85,0 -147,24 -188,73 -40,49 -61,124 -61,225l0 503 -136 0 0 -586c0,-71 -15,-125 -46,-161 -31,-36 -79,-54 -144,-54 -85,0 -148,25 -188,77 -39,51 -59,135 -59,252l0 472 -136 0 0 -900 110 0 23 122 6 0c26,-43 62,-77 109,-102 47,-25 100,-37 158,-37 140,0 232,51 276,153l6 0c27,-47 66,-85 117,-112 51,-27 109,-41 174,-41 102,0 178,26 229,78 50,53 76,136 76,251l0 588 -137 0zm712 17c-133,0 -238,-41 -315,-122 -77,-81 -116,-194 -116,-338 0,-145 36,-260 107,-346 72,-86 168,-128 289,-128 112,0 202,37 267,111 66,74 99,172 99,294l0 86 -620 0c3,106 29,186 80,241 50,55 122,82 214,82 97,0 193,-20 287,-60l0 121c-48,21 -93,36 -136,45 -43,9 -95,14 -156,14zm-37 -820c-72,0 -130,24 -173,71 -43,47 -68,112 -76,195l471 0c0,-86 -19,-152 -58,-197 -38,-46 -93,-69 -164,-69zm1088 803l-137 0 0 -900 137 0 0 900zm-148 -1145c0,-31 7,-54 23,-68 15,-15 34,-22 57,-22 22,0 41,7 57,22 16,15 24,37 24,68 0,31 -8,54 -24,69 -16,15 -35,22 -57,22 -23,0 -42,-7 -57,-22 -16,-15 -23,-38 -23,-69zm1498 1145l0 -586c0,-71 -15,-125 -46,-161 -30,-36 -78,-54 -143,-54 -85,0 -147,24 -188,73 -40,49 -61,124 -61,225l0 503 -136 0 0 -586c0,-71 -16,-125 -46,-161 -31,-36 -79,-54 -144,-54 -85,0 -148,25 -188,77 -39,51 -59,135 -59,252l0 472 -136 0 0 -900 110 0 23 122 6 0c26,-43 62,-77 109,-102 47,-25 99,-37 157,-37 141,0 233,51 276,153l7 0c27,-47 66,-85 117,-112 51,-27 109,-41 174,-41 102,0 178,26 229,78 50,53 76,136 76,251l0 588 -137 0zm466 -461c24,-33 60,-77 108,-131l291 -308 162 0 -365 383 390 517 -165 0 -318 -426 -103 89 0 337 -135 0 0 -1279 135 0 0 678c0,30 -2,77 -6,140l6 0zm1216 461l-27 -128 -7 0c-45,56 -90,95 -134,115 -45,20 -101,30 -167,30 -90,0 -160,-23 -211,-69 -50,-46 -76,-112 -76,-197 0,-182 146,-277 437,-286l153 -5 0 -56c0,-70 -16,-123 -46,-156 -30,-34 -79,-51 -146,-51 -75,0 -160,23 -254,69l-42 -104c44,-24 93,-43 145,-57 53,-14 106,-21 159,-21 108,0 187,24 239,72 52,48 78,124 78,229l0 615 -101 0zm-308 -96c85,0 151,-23 200,-70 48,-46 72,-111 72,-195l0 -82 -136 6c-108,4 -187,21 -235,51 -48,30 -71,76 -71,139 0,49 14,87 44,112 30,26 72,39 126,39zm1220 96l0 -583c0,-73 -17,-128 -50,-164 -34,-36 -86,-54 -157,-54 -95,0 -164,25 -207,76 -44,51 -66,135 -66,253l0 472 -137 0 0 -900 111 0 22 122 7 0c28,-44 67,-78 118,-103 50,-24 106,-36 168,-36 109,0 190,26 245,78 55,53 82,136 82,251l0 588 -136 0zm466 0l-136 0 0 -1279 136 0 0 1279zm757 0l-27 -128 -7 0c-45,56 -90,95 -134,115 -45,20 -101,30 -167,30 -90,0 -160,-23 -211,-69 -50,-46 -76,-112 -76,-197 0,-182 146,-277 437,-286l153 -5 0 -56c0,-70 -16,-123 -46,-156 -30,-34 -79,-51 -146,-51 -75,0 -160,23 -254,69l-42 -104c44,-24 93,-43 145,-57 53,-14 106,-21 159,-21 108,0 187,24 239,72 52,48 78,124 78,229l0 615 -101 0zm-308 -96c85,0 151,-23 200,-70 48,-46 72,-111 72,-195l0 -82 -136 6c-108,4 -187,21 -235,51 -48,30 -71,76 -71,139 0,49 14,87 44,112 30,26 72,39 126,39zm1014 -821c40,0 76,3 108,10l-19 127c-38,-8 -70,-13 -99,-13 -73,0 -135,30 -187,89 -51,59 -77,133 -77,221l0 483 -137 0 0 -900 113 0 15 166 7 0c33,-59 74,-104 121,-136 47,-31 98,-47 155,-47zm326 917l-136 0 0 -900 136 0 0 900z"/>
  </g>
 </g>
</svg>
