<?xml version="1.0" encoding="UTF-8"?>
<!DOCTYPE svg PUBLIC "-//W3C//DTD SVG 1.1//EN" "http://www.w3.org/Graphics/SVG/1.1/DTD/svg11.dtd">
<!-- Creator: CorelDRAW X7 -->
<svg xmlns="http://www.w3.org/2000/svg" xml:space="preserve" width="46mm" height="45.21mm" version="1.1" style="shape-rendering:geometricPrecision; text-rendering:geometricPrecision; image-rendering:optimizeQuality; fill-rule:evenodd; clip-rule:evenodd"
viewBox="0 0 4600 4521"
 xmlns:xlink="http://www.w3.org/1999/xlink">
 <defs>
  <style type="text/css">
   <![CDATA[
    .fil0 {fill:#D4F8FF}
    .fil17 {fill:#FFD35F;fill-rule:nonzero}
    .fil10 {fill:#FCC397;fill-rule:nonzero}
    .fil2 {fill:#F8FAEE;fill-rule:nonzero}
    .fil8 {fill:#F2A633;fill-rule:nonzero}
    .fil19 {fill:#E2AA85;fill-rule:nonzero}
    .fil16 {fill:#D1ECEE;fill-rule:nonzero}
    .fil13 {fill:#C5746A;fill-rule:nonzero}
    .fil1 {fill:#ABDDE0;fill-rule:nonzero}
    .fil18 {fill:#8F603D;fill-rule:nonzero}
    .fil4 {fill:#836940;fill-rule:nonzero}
    .fil14 {fill:#674646;fill-rule:nonzero}
    .fil5 {fill:#4E3D36;fill-rule:nonzero}
    .fil3 {fill:#473730;fill-rule:nonzero}
    .fil15 {fill:#54A3B7;fill-rule:nonzero}
    .fil11 {fill:#3E3D43;fill-rule:nonzero}
    .fil7 {fill:#475C6D;fill-rule:nonzero}
    .fil6 {fill:#3B4F63;fill-rule:nonzero}
    .fil9 {fill:#354453;fill-rule:nonzero}
    .fil12 {fill:#2E2E3E;fill-rule:nonzero}
   ]]>
  </style>
 </defs>
 <g id="Layer_x0020_1">
  <metadata id="CorelCorpID_0Corel-Layer"/>
  <g id="_2236361421920">
   <circle class="fil0" cx="2339" cy="2261" r="2261"/>
   <g>
    <path class="fil1" d="M2430 4050c-789,0 -1429,-59 -1429,-132 0,-73 640,-133 1429,-133 789,0 1429,60 1429,133 0,73 -640,132 -1429,132z"/>
    <path class="fil2" d="M3479 3838l123 21c0,0 58,8 58,100l-316 0c0,0 -3,-80 16,-140l119 19z"/>
    <path class="fil2" d="M2603 3645l-1 212c0,0 8,45 -27,61l-141 -320c0,0 82,-70 141,-57l28 104z"/>
    <path class="fil3" d="M3174 1006l-151 0c0,0 -89,9 -109,79 -20,70 -66,301 -66,301 0,0 -89,26 -111,122 -22,96 -83,538 -83,538 0,0 -13,52 59,63 72,11 264,26 264,26l197 -1129z"/>
    <path class="fil4" d="M2923 1402l48 -273c11,-64 65,-113 130,-115 2,0 4,0 5,0 8,0 16,0 24,2 3,0 6,-2 6,-5 0,-3 -1,-5 -4,-6 -9,-1 -18,-1 -26,-1 -2,0 -3,0 -5,0 -70,2 -128,54 -140,123l-49 274c0,2 2,5 5,5 2,1 5,-1 6,-4z"/>
    <path class="fil4" d="M2679 2048l84 -545c0,0 5,-49 54,-45 50,5 92,9 92,9 0,0 41,1 35,49 -6,48 -88,552 -88,552l-177 -20z"/>
    <path class="fil5" d="M3436 2163c0,0 100,793 43,1675l-128 0c0,0 67,-921 -14,-1375l-254 0c0,0 9,515 -17,655 -26,139 -463,538 -463,538l-61 -119c0,0 376,-320 405,-425 29,-105 8,-953 8,-953l481 4z"/>
    <path class="fil6" d="M3576 1072c0,0 62,504 327,575 265,72 405,-101 405,-101l23 126c0,0 -172,169 -459,106 -286,-62 -337,-414 -337,-414l41 -292z"/>
    <path class="fil7" d="M3324 934c0,0 -152,39 -194,118l-175 1107 265 17 216 -13 110 -635c0,0 71,-116 40,-227 -30,-111 -10,-229 -10,-229 0,0 -40,-116 -134,-129 -94,-13 -118,-9 -118,-9z"/>
    <path class="fil4" d="M3121 1050l1 0c3,1 22,2 41,12 9,5 18,12 26,21 8,10 14,22 16,39 1,4 2,12 2,20 0,29 -5,75 -11,127 -10,79 -25,173 -38,246 -6,37 -12,69 -16,92 -4,23 -6,36 -6,36l0 0 0 1 0 0c-1,1 -5,21 -17,40 -7,9 -15,18 -27,25 -11,7 -25,11 -43,11 -6,0 -10,5 -10,10 0,6 4,11 10,11 22,0 41,-6 55,-15 22,-14 35,-33 42,-50 8,-16 10,-28 10,-29l-10 -2 10 2c0,0 18,-96 36,-207 8,-56 17,-115 24,-168 7,-53 11,-99 11,-130 0,-9 0,-17 -1,-24 -4,-21 -12,-37 -23,-50 -16,-19 -36,-28 -52,-33 -17,-5 -29,-5 -29,-5 -6,0 -11,4 -11,10 0,5 4,10 10,10z"/>
    <path class="fil8" d="M4333 1223c0,0 14,311 71,660 0,0 60,29 102,-35 0,0 -57,-486 -48,-611 0,0 -34,-50 -125,-14z"/>
    <path class="fil9" d="M3140 1060c0,0 78,36 56,158 -15,80 -127,457 -80,650 58,243 320,406 320,406l-76 89c0,0 -332,-197 -365,-474 -33,-278 145,-829 145,-829z"/>
    <path class="fil7" d="M3130 1052c0,0 79,36 57,158 -15,80 -128,457 -81,650 59,243 321,406 321,406l-76 90c0,0 -333,-198 -366,-475 -32,-277 145,-829 145,-829z"/>
    <path class="fil10" d="M3423 2265c0,0 89,-6 109,19 19,24 -6,47 -6,47 0,0 45,53 25,128 -21,75 -99,49 -123,33 -23,-16 -79,-147 -79,-147l74 -80z"/>
    <polygon class="fil11" points="3387,1528 3443,1529 3437,1702 3380,1702 "/>
    <path class="fil12" d="M3259 957l-72 637c0,5 4,11 9,11 6,1 11,-3 12,-9l72 -637c0,-5 -4,-10 -9,-11 -6,-1 -11,3 -12,9z"/>
    <path class="fil12" d="M3503 1575l60 -553c0,-6 -4,-11 -10,-12 -5,0 -10,4 -11,10l-59 552c-1,6 3,11 9,12 5,0 11,-4 11,-9z"/>
    <path class="fil10" d="M3484 873l-25 104c0,0 -15,21 -62,21 -47,0 -56,-49 -56,-49l23 -114 120 38z"/>
    <path class="fil13" d="M3356 877c0,0 22,49 71,52 49,3 49,-26 49,-26l8 -30 -122 -25 -6 29z"/>
    <path class="fil10" d="M3713 281l-49 398c-4,34 -15,66 -33,95 -31,48 -73,114 -144,114 -131,0 -242,-126 -229,-229 13,-103 53,-400 53,-400 0,0 14,-135 232,-131 182,3 170,153 170,153z"/>
    <path class="fil13" d="M3699 303c0,0 -53,51 -162,64l68 -107c0,0 -130,177 -326,147l-3 -43 342 -169 81 108z"/>
    <path class="fil14" d="M3845 98c10,30 -25,304 -323,263 0,0 60,-71 60,-134 0,0 -79,121 -222,174 -21,8 -70,273 -94,277 -25,4 -25,-253 -53,-254 -20,-36 -96,-441 330,-296 194,65 302,-30 302,-30z"/>
    <path class="fil14" d="M3426 541l-1 0c-7,-1 -11,-6 -10,-13l4 -36c0,-6 6,-11 12,-10l2 0c6,0 11,6 10,13l-4 36c-1,6 -6,11 -13,10z"/>
    <path class="fil14" d="M3622 546l-2 0c-6,-1 -11,-7 -10,-13l4 -37c1,-7 7,-11 13,-10l2 0c6,0 11,6 10,13l-4 37c-1,6 -7,11 -13,10z"/>
    <path class="fil14" d="M3563 724l0 0c0,1 0,17 -8,32 -9,15 -24,29 -58,30 -30,-1 -44,-14 -52,-28 -8,-14 -8,-31 -8,-35l0 -1c0,-3 -2,-6 -5,-6 -3,0 -5,2 -6,5l0 2c0,5 1,23 10,40 9,17 28,33 61,33 37,0 57,-17 67,-35 10,-18 10,-35 10,-37l0 0c0,-3 -3,-6 -5,-6 -3,0 -6,3 -6,6z"/>
    <path class="fil10" d="M3293 430c0,0 -28,-60 -72,-44 -45,16 -54,136 47,195l25 -151z"/>
    <path class="fil10" d="M4303 1579c0,0 -19,-131 33,-181 0,0 9,-25 3,-44 0,0 40,3 27,42 -8,24 -14,58 -9,77 6,20 68,145 -26,199l-28 -93z"/>
    <path class="fil10" d="M4465 1389c0,0 -53,-3 -60,12 -8,15 -6,46 31,51 37,5 41,-24 40,-36 -2,-13 -11,-27 -11,-27z"/>
    <path class="fil10" d="M4474 1465l-64 0c0,0 -19,4 -16,19 3,14 17,24 37,27 20,3 44,-1 47,-4 3,-3 16,-36 -4,-42z"/>
    <path class="fil10" d="M4478 1513l-55 17c0,0 -25,10 -16,27 9,17 25,14 38,11 12,-3 43,-15 43,-15 0,0 12,-13 6,-26 -5,-13 -16,-14 -16,-14z"/>
    <path class="fil10" d="M4479 1561l-42 21c0,0 -20,14 -8,26 11,13 28,6 38,2 10,-4 27,-13 28,-26 1,-12 -6,-23 -16,-23z"/>
    <path class="fil13" d="M3282 460c0,0 -23,-40 -41,-37 -19,3 -22,100 31,121l10 -84z"/>
    <path class="fil12" d="M3412 1726l-200 0c0,0 -41,1 -37,-36 5,-37 21,-163 21,-163 0,0 1,-30 34,-30 34,0 83,0 83,0l36 -64 84 0 18 62 38 0c0,0 25,-2 22,22 -3,24 -21,182 -21,182 0,0 -5,25 -28,26 -23,2 -50,1 -50,1z"/>
    <path class="fil11" d="M3274 1514l-24 194 -31 0c0,0 -32,-5 -31,-28 4,-33 22,-149 22,-149 0,0 3,-17 19,-17 17,0 45,0 45,0z"/>
    <path class="fil11" d="M3513 1622c-4,48 -42,84 -84,80 -42,-4 -73,-45 -69,-93 4,-48 42,-84 84,-80 42,3 73,45 69,93z"/>
    <path class="fil11" d="M3461 1622c-4,48 -42,84 -84,80 -42,-4 -73,-45 -68,-93 4,-48 41,-84 83,-80 42,3 73,45 69,93z"/>
    <path class="fil15" d="M3506 1614c0,44 -31,79 -71,79 -39,0 -70,-35 -70,-79 0,-44 31,-79 70,-79 40,0 71,35 71,79z"/>
    <path class="fil16" d="M3459 1614c0,18 -15,33 -33,33 -18,0 -33,-15 -33,-33 0,-18 15,-33 33,-33 18,0 33,15 33,33z"/>
    <path class="fil3" d="M479 3864c0,28 -23,51 -51,51 -28,0 -51,-23 -51,-51 0,-28 23,-51 51,-51 28,0 51,23 51,51z"/>
    <path class="fil8" d="M2308 1179c0,0 -75,800 589,672l6 134c0,0 -335,90 -515,-163 -181,-253 -152,-416 -152,-416l72 -227z"/>
    <path class="fil17" d="M2182 1018c0,0 112,70 126,161 14,90 -156,1035 -156,1035l-546 -101 242 -1028c0,0 81,-93 208,-94l126 27z"/>
    <path class="fil8" d="M1791 1325c0,0 148,-65 142,-181 -7,-116 -85,-59 -85,-59l-57 240z"/>
    <path class="fil17" d="M1805 1307c0,0 -209,113 -323,340 -113,228 -116,492 -116,492l-143 -2c0,0 -100,-590 625,-1052 0,0 88,-49 74,65 -15,116 -117,157 -117,157z"/>
    <path class="fil10" d="M2200 943l-27 135c0,0 -20,22 -76,12 -47,-7 -67,-39 -67,-39l27 -155 143 47z"/>
    <path class="fil13" d="M2046 965c0,0 33,49 84,58 50,8 58,-21 58,-21l11 -57 -148 -14 -5 34z"/>
    <path class="fil5" d="M1606 2113c0,0 -120,356 223,420 316,58 323,-319 323,-319l-546 -101z"/>
    <path class="fil5" d="M1602 2358c0,0 340,624 288,1511l137 0c0,0 78,-711 -239,-1465l-186 -46z"/>
    <path class="fil5" d="M2123 2349c0,0 -67,521 -233,760 -166,239 -539,445 -539,445l-49 -90c0,0 436,-291 535,-474 99,-184 137,-519 137,-519l149 -122z"/>
    <path class="fil18" d="M2027 3869c0,0 135,13 142,137l-284 -12 5 -125 137 0z"/>
    <path class="fil18" d="M1351 3554c0,0 44,123 6,214l-150 -246 95 -58 49 90z"/>
    <path class="fil4" d="M39 3825c-31,0 -49,-34 -32,-60l647 -964c0,0 35,-50 120,-50 86,0 324,0 324,0 0,0 117,51 97,106 -20,54 -603,970 -603,970l-553 -2z"/>
    <path class="fil3" d="M247 3808l-199 2c-23,1 -38,-26 -25,-45l628 -957c19,-29 59,-38 89,-19l82 45c30,19 35,41 15,71l-590 903z"/>
    <path class="fil12" d="M831 2780c3,-2 3,-3 4,-3 1,-2 2,-3 3,-4 5,-6 13,-18 23,-33 74,-110 283,-429 283,-429l0 0 0 0 0 0c1,-2 11,-18 27,-33 9,-8 18,-15 28,-20 11,-5 21,-8 33,-8 80,0 113,0 113,0l1 0 0 0 0 -5 0 5 0 0 0 -5 0 5 4 1 1 0c0,1 1,1 1,4 0,4 -2,12 -8,25 -2,6 -10,19 -20,36 -34,60 -105,174 -166,273 -31,50 -59,96 -80,129 -21,33 -34,54 -34,54 -5,8 -3,17 5,22 7,4 16,2 21,-5 0,0 69,-110 141,-227 36,-58 73,-118 102,-167 15,-25 28,-46 38,-64 10,-17 18,-30 21,-38 7,-15 11,-27 11,-38 0,-7 -2,-14 -5,-19 -5,-9 -13,-13 -19,-15 -6,-2 -11,-2 -13,-2l-2 0 1 15 0 -15c0,0 -33,0 -113,0 -18,0 -34,5 -48,12 -21,11 -37,27 -49,40 -11,13 -17,23 -17,23l13 9 -13 -9c0,0 -5,7 -13,20 -29,44 -101,154 -166,253 -33,50 -64,97 -88,132 -11,17 -21,32 -28,42 -4,5 -7,9 -9,12l-2 3 0 0 0 0 9 8 -7 -10c-2,2 -2,2 -2,2l9 8 -7 -10c-7,5 -9,14 -4,21 5,8 14,10 21,5z"/>
    <path class="fil19" d="M2980 1797l111 -55c0,0 8,-5 14,6 6,11 -8,17 -8,17l-86 48 -31 -16z"/>
    <path class="fil19" d="M3023 1821l117 -36c0,0 16,-4 17,8 1,12 -14,15 -14,15l-102 40 -18 -27z"/>
    <path class="fil19" d="M3044 1861l106 -10c0,0 19,-2 19,11 1,13 -17,15 -17,15l-109 11 1 -27z"/>
    <path class="fil19" d="M3030 1911l104 -11c0,0 12,-4 12,10 0,15 -16,15 -16,15 0,0 -116,12 -113,12 3,0 13,-26 13,-26z"/>
    <path class="fil19" d="M2897 1851l82 -58c0,0 73,10 71,81 -3,97 -147,111 -147,111l-6 -134z"/>
    <path class="fil10" d="M2893 1853c0,0 14,-49 44,-70 31,-21 13,-53 13,-53 0,0 34,-7 33,37 -1,43 -17,57 -17,57 0,0 42,146 -63,161l-10 -132z"/>
    <path class="fil10" d="M2246 161c0,0 190,12 209,121 19,109 -40,494 -50,550 -12,65 -93,140 -221,140 -95,0 -255,-79 -258,-271 -3,-192 -9,-406 99,-477 108,-72 221,-63 221,-63z"/>
    <path class="fil13" d="M2456 297l-373 4 -9 142c0,0 1,44 -81,46l70 -219 392 12 1 15z"/>
    <path class="fil14" d="M1864 607l-22 -347c0,0 -10,-91 115,-99 0,0 6,-87 118,-93 112,-6 353,6 353,6 0,0 67,6 79,-41 0,0 49,52 -13,118 0,0 14,131 -39,131l-385 0 0 157c0,0 -4,50 -77,50l0 118 -129 0z"/>
    <path class="fil10" d="M1927 559c0,0 -3,-60 -70,-46 -67,14 -43,230 73,231l-3 -185z"/>
    <path class="fil14" d="M2184 591l-2 0c-7,0 -13,-6 -13,-13l0 -47c0,-7 6,-13 13,-13l2 0c7,0 13,6 13,13l0 47c0,7 -6,13 -13,13z"/>
    <path class="fil14" d="M2402 591l-1 0c-8,0 -13,-6 -13,-13l0 -47c0,-7 5,-13 13,-13l1 0c7,0 13,6 13,13l0 47c0,7 -6,13 -13,13z"/>
    <path class="fil14" d="M2354 783l0 0c0,1 0,17 -8,32 -9,16 -24,30 -58,30 -30,0 -44,-13 -52,-27 -8,-15 -8,-31 -8,-35l0 -2c0,-2 -2,-5 -5,-5 -3,0 -6,2 -6,5l0 2c0,5 1,23 10,40 9,17 28,33 61,33 37,0 57,-18 67,-36 9,-17 10,-35 10,-37l0 0c0,-3 -3,-5 -6,-5 -2,0 -5,2 -5,5z"/>
    <path class="fil13" d="M1927 600c0,0 -31,-56 -57,-52 -26,4 -17,128 57,158l0 -106z"/>
    <path class="fil10" d="M1223 2137c0,0 -20,65 -4,96 16,30 -21,66 -21,66 0,0 7,18 23,17 16,0 21,-7 21,-7 0,0 84,18 116,-38 31,-55 8,-132 8,-132l-143 -2z"/>
    <path class="fil4" d="M241 3869c0,29 -23,51 -51,51 -29,0 -51,-22 -51,-51 0,-28 22,-51 51,-51 28,0 51,23 51,51z"/>
   </g>
  </g>
 </g>
</svg>
