<?xml version="1.0" encoding="UTF-8"?>
<!DOCTYPE svg PUBLIC "-//W3C//DTD SVG 1.1//EN" "http://www.w3.org/Graphics/SVG/1.1/DTD/svg11.dtd">
<!-- Creator: CorelDRAW X7 -->
<svg xmlns="http://www.w3.org/2000/svg" xml:space="preserve" width="137.649mm" height="17.421mm" version="1.1" style="shape-rendering:geometricPrecision; text-rendering:geometricPrecision; image-rendering:optimizeQuality; fill-rule:evenodd; clip-rule:evenodd"
viewBox="0 0 13765 1742"
 xmlns:xlink="http://www.w3.org/1999/xlink">
 <defs>
  <style type="text/css">
   <![CDATA[
    .fil0 {fill:#00414E;fill-rule:nonzero}
   ]]>
  </style>
 </defs>
 <g id="Layer_x0020_1">
  <metadata id="CorelCorpID_0Corel-Layer"/>
  <path class="fil0" d="M472 478l-217 0 0 848 -84 0 0 -848 -171 0 0 -49 171 -31 0 -71c0,-113 21,-195 62,-248 42,-53 110,-79 204,-79 51,0 101,8 152,22l-19 72c-45,-14 -90,-21 -135,-21 -65,0 -112,19 -139,58 -27,39 -41,102 -41,189l0 86 217 0 0 72zm261 848l-84 0 0 -920 84 0 0 920zm-95 -1176c0,-54 17,-81 53,-81 17,0 31,7 41,21 10,15 15,35 15,60 0,26 -5,46 -15,60 -10,15 -24,22 -41,22 -36,0 -53,-27 -53,-82zm1045 1176l0 -597c0,-92 -20,-159 -59,-201 -39,-42 -99,-63 -181,-63 -110,0 -191,27 -241,83 -52,56 -77,146 -77,270l0 508 -84 0 0 -920 71 0 16 126 5 0c60,-96 166,-144 320,-144 208,0 313,112 313,336l0 602 -83 0zm939 0l-21 -146 -7 0c-46,60 -94,102 -142,126 -49,25 -107,37 -173,37 -91,0 -161,-23 -211,-69 -51,-46 -76,-110 -76,-192 0,-90 38,-160 113,-209 74,-50 182,-76 324,-79l175 -5 0 -61c0,-88 -17,-154 -53,-198 -35,-45 -93,-67 -172,-67 -85,0 -173,24 -265,71l-31 -73c101,-47 201,-71 300,-71 101,0 176,26 226,79 50,52 75,134 75,245l0 612 -62 0zm-339 -59c99,0 176,-28 233,-84 57,-56 85,-134 85,-234l0 -91 -161 7c-129,6 -221,26 -276,60 -55,34 -83,88 -83,160 0,58 18,102 53,134 35,32 85,48 149,48zm1341 59l0 -597c0,-92 -20,-159 -59,-201 -39,-42 -99,-63 -181,-63 -110,0 -191,27 -242,83 -51,56 -77,146 -77,270l0 508 -83 0 0 -920 71 0 16 126 5 0c60,-96 166,-144 319,-144 209,0 314,112 314,336l0 602 -83 0zm951 -239c0,82 -31,146 -94,190 -63,44 -152,66 -267,66 -123,0 -221,-19 -293,-57l0 -90c93,46 191,69 293,69 91,0 160,-15 207,-45 47,-30 71,-70 71,-120 0,-47 -19,-86 -56,-117 -38,-32 -100,-63 -185,-93 -92,-34 -157,-62 -194,-86 -38,-25 -66,-51 -84,-82 -19,-30 -29,-67 -29,-110 0,-69 29,-123 87,-164 58,-40 139,-60 242,-60 100,0 194,19 283,56l-31 76c-90,-37 -174,-55 -252,-55 -75,0 -134,12 -178,37 -44,25 -66,59 -66,103 0,48 17,86 51,115 34,29 101,61 200,97 83,30 144,57 181,81 38,24 67,51 86,81 18,31 28,67 28,108zm888 239l-355 -920 86 0 238 625c32,81 56,151 71,210l5 0c24,-76 47,-147 72,-211l237 -624 87 0 -356 920 -85 0zm966 17c-133,0 -238,-41 -312,-123 -75,-83 -113,-198 -113,-347 0,-146 37,-264 109,-352 72,-88 169,-133 292,-133 108,0 194,38 256,113 63,75 94,178 94,307l0 67 -663 0c1,128 31,225 89,292 58,67 141,100 248,100 53,0 99,-4 139,-11 40,-7 90,-23 151,-47l0 76c-52,23 -100,38 -144,46 -44,8 -92,12 -146,12zm-24 -882c-89,0 -160,29 -214,88 -53,59 -85,143 -93,254l568 0c0,-108 -23,-191 -69,-251 -46,-61 -110,-91 -192,-91zm1297 810c54,0 100,-5 139,-14l0 66c-40,14 -87,20 -140,20 -82,0 -141,-21 -180,-65 -39,-43 -58,-112 -58,-205l0 -595 -136 0 0 -49 136 -38 42 -207 43 0 0 222 271 0 0 72 -271 0 0 585c0,70 13,123 38,157 24,34 63,51 116,51zm710 72c-134,0 -238,-41 -313,-123 -75,-83 -112,-198 -112,-347 0,-146 36,-264 108,-352 72,-88 170,-133 292,-133 109,0 194,38 257,113 63,75 94,178 94,307l0 67 -663 0c1,128 30,225 88,292 58,67 141,100 249,100 52,0 98,-4 138,-11 40,-7 90,-23 151,-47l0 76c-52,23 -100,38 -143,46 -44,8 -93,12 -146,12zm-25 -882c-88,0 -159,29 -213,88 -54,59 -85,143 -94,254l569 0c0,-108 -23,-191 -70,-251 -46,-61 -110,-91 -192,-91zm687 461l470 -516 101 0 -362 393 393 527 -100 0 -350 -465 -151 137 0 328 -84 0 0 -1317 84 0 0 660 -6 253 5 0zm1398 404l0 -597c0,-92 -20,-159 -59,-201 -38,-42 -99,-63 -181,-63 -110,0 -190,27 -241,83 -51,56 -77,146 -77,270l0 508 -84 0 0 -920 71 0 16 126 6 0c59,-96 166,-144 319,-144 208,0 313,112 313,336l0 602 -83 0zm1142 -461c0,150 -37,268 -110,352 -73,84 -173,126 -301,126 -81,0 -152,-19 -213,-58 -62,-39 -109,-95 -142,-168 -32,-73 -49,-157 -49,-252 0,-150 37,-267 110,-351 72,-84 172,-126 299,-126 126,0 226,43 298,128 72,85 108,201 108,349zm-727 0c0,127 28,225 84,296 55,71 134,106 235,106 102,0 181,-35 236,-106 56,-71 84,-169 84,-296 0,-127 -29,-225 -85,-296 -56,-69 -135,-104 -236,-104 -102,0 -180,35 -235,104 -55,70 -83,169 -83,296zm1065 461l-84 0 0 -1317 84 0 0 1317zm1069 -461c0,150 -36,268 -109,352 -73,84 -173,126 -302,126 -80,0 -151,-19 -213,-58 -61,-39 -108,-95 -141,-168 -33,-73 -49,-157 -49,-252 0,-150 36,-267 109,-351 73,-84 173,-126 300,-126 126,0 225,43 297,128 72,85 108,201 108,349zm-726 0c0,127 28,225 83,296 56,71 134,106 236,106 102,0 180,-35 236,-106 55,-71 83,-169 83,-296 0,-127 -28,-225 -84,-296 -56,-69 -135,-104 -237,-104 -101,0 -179,35 -235,104 -55,70 -82,169 -82,296zm858 877c-45,0 -83,-7 -114,-21l0 -72c39,11 75,17 109,17 85,0 128,-50 128,-149l0 -1111 84 0 0 1098c0,76 -18,135 -54,176 -36,42 -87,62 -153,62zm111 -1592c0,-54 18,-81 53,-81 18,0 31,7 41,21 10,15 15,35 15,60 0,26 -5,46 -15,60 -10,15 -23,22 -41,22 -35,0 -53,-27 -53,-82zm487 1176l-83 0 0 -920 83 0 0 920zm-95 -1176c0,-54 18,-81 53,-81 18,0 31,7 41,21 10,15 15,35 15,60 0,26 -5,46 -15,60 -10,15 -23,22 -41,22 -35,0 -53,-27 -53,-82z"/>
 </g>
</svg>
