<?xml version="1.0" encoding="UTF-8"?>
<!DOCTYPE svg PUBLIC "-//W3C//DTD SVG 1.1//EN" "http://www.w3.org/Graphics/SVG/1.1/DTD/svg11.dtd">
<!-- Creator: CorelDRAW X7 -->
<svg xmlns="http://www.w3.org/2000/svg" xml:space="preserve" width="45.21mm" height="45.21mm" version="1.1" style="shape-rendering:geometricPrecision; text-rendering:geometricPrecision; image-rendering:optimizeQuality; fill-rule:evenodd; clip-rule:evenodd"
viewBox="0 0 4521 4521"
 xmlns:xlink="http://www.w3.org/1999/xlink">
 <defs>
  <style type="text/css">
   <![CDATA[
    .str0 {stroke:#282828;stroke-width:7.26}
    .fil7 {fill:none}
    .fil5 {fill:#FEFEFE}
    .fil8 {fill:#FBAF30}
    .fil6 {fill:#F0574C}
    .fil3 {fill:#EE6960}
    .fil10 {fill:#94BEE2}
    .fil4 {fill:#717B79}
    .fil16 {fill:#5F99CD}
    .fil15 {fill:#5989A4}
    .fil14 {fill:#4A81B1}
    .fil13 {fill:#27587E}
    .fil2 {fill:#2A4863}
    .fil0 {fill:#D4F8FF}
    .fil9 {fill:white}
    .fil11 {fill:#CDE3F5;fill-rule:nonzero}
    .fil1 {fill:#4A81B1;fill-rule:nonzero}
    .fil12 {fill:#2F5B7D;fill-rule:nonzero}
   ]]>
  </style>
 </defs>
 <g id="Layer_x0020_1">
  <metadata id="CorelCorpID_0Corel-Layer"/>
  <g id="_2236458994304">
   <circle class="fil0" cx="2261" cy="2261" r="2261"/>
   <path class="fil1" d="M772 1564l-33 -62 131 -70 33 62c40,-12 81,-19 123,-19l0 107c-129,0 -248,83 -287,213 -49,159 41,326 200,375l0 0c29,9 58,13 87,13l0 106c-15,0 -30,-1 -45,-2l-21 67 -142 -43 21 -68c-52,-26 -96,-63 -131,-107l-62 33 -70 -131 62 -33c-17,-53 -23,-110 -16,-168l-68 -21 43 -142 68 21c27,-52 63,-96 107,-131zm254 -89c15,0 30,1 45,3l21 -68 142 44 -20 67c51,27 95,63 130,107l62 -33 70 131 -62 33c17,54 23,111 17,169l67 20 -43 142 -68 -20c-26,51 -63,95 -107,130l33 62 -131 70 -33 -62c-39,13 -81,19 -123,19l0 -106c129,0 248,-84 288,-213 48,-159 -42,-327 -200,-375 -30,-9 -59,-13 -88,-13l0 -107z"/>
   <path class="fil2" d="M999 1782l2514 0c51,0 93,42 93,93l0 1588c0,51 -42,94 -93,94l-2514 0c-51,0 -93,-43 -93,-94l0 -1588c0,-51 42,-93 93,-93z"/>
   <polygon class="fil3" points="1046,3266 3466,3266 3466,1967 1046,1967 "/>
   <path class="fil4" d="M2256 1912c19,0 34,-16 34,-34 0,-19 -15,-34 -34,-34 -18,0 -34,15 -34,34 0,18 16,34 34,34z"/>
   <polygon class="fil4" points="2199,3462 2314,3462 2314,3347 2199,3347 "/>
   <polygon class="fil4" points="906,3557 3606,3557 4075,3756 437,3756 "/>
   <path class="fil2" d="M437 3756l3638 0 0 52c0,38 -30,68 -67,68l-3503 0c-38,0 -68,-30 -68,-68l0 -52z"/>
   <polygon class="fil3" points="1889,3840 2624,3840 2624,3793 1889,3793 "/>
   <path class="fil5" d="M971 3572c84,0 168,0 252,0 -13,8 -25,16 -38,24 -87,0 -174,0 -261,0 15,-8 31,-16 47,-24z"/>
   <path class="fil5" d="M1434 3572c84,0 168,0 252,0 -7,8 -14,16 -21,24 -87,0 -174,0 -262,0 11,-8 21,-16 31,-24z"/>
   <path class="fil5" d="M1897 3572c84,0 168,0 252,0 -1,8 -2,16 -3,24 -88,0 -175,0 -262,0 4,-8 8,-16 13,-24z"/>
   <path class="fil5" d="M2360 3572c84,0 168,0 252,0 5,8 10,16 14,24 -87,0 -175,0 -262,0 -1,-8 -3,-16 -4,-24z"/>
   <path class="fil5" d="M2823 3572c84,0 168,0 252,0 11,8 21,16 31,24 -87,0 -175,0 -262,0 -7,-8 -14,-16 -21,-24z"/>
   <path class="fil5" d="M3286 3572c84,0 169,0 253,0 16,8 32,16 48,24 -88,0 -175,0 -262,0 -13,-8 -26,-16 -39,-24z"/>
   <path class="fil5" d="M890 3613c89,0 178,0 268,0 -13,7 -26,15 -38,23 -93,0 -186,0 -278,0 16,-8 32,-16 48,-23z"/>
   <path class="fil5" d="M1382 3613c89,0 179,0 268,0 -6,7 -14,15 -20,23 -93,0 -186,0 -278,0 9,-8 20,-16 30,-23z"/>
   <path class="fil5" d="M1875 3613c89,0 179,0 268,0 -1,7 -2,15 -3,23 -93,0 -186,0 -279,0 5,-8 9,-16 14,-23z"/>
   <path class="fil5" d="M2367 3613c90,0 179,0 269,0 4,7 9,15 13,23 -92,0 -185,0 -278,0 -1,-8 -3,-16 -4,-23z"/>
   <path class="fil5" d="M2860 3613c89,0 179,0 268,0 10,7 21,15 31,23 -93,0 -186,0 -278,0 -7,-8 -14,-16 -21,-23z"/>
   <path class="fil5" d="M3352 3613c90,0 180,0 269,0 16,7 32,15 48,23 -93,0 -185,0 -278,0 -13,-8 -26,-16 -39,-23z"/>
   <path class="fil5" d="M808 3653c94,0 189,0 284,0 -13,7 -25,15 -38,23 -98,0 -196,0 -294,0 16,-8 32,-16 48,-23z"/>
   <path class="fil5" d="M1330 3653c95,0 190,0 285,0 -8,7 -14,15 -21,23 -98,0 -197,0 -294,0 10,-8 20,-16 30,-23z"/>
   <path class="fil5" d="M1852 3653c95,0 190,0 285,0 -2,7 -3,15 -4,23 -98,0 -196,0 -294,0 4,-8 8,-16 13,-23z"/>
   <path class="fil5" d="M2374 3653c95,0 190,0 285,0 4,7 9,15 13,23 -98,0 -196,0 -294,0 -1,-8 -3,-16 -4,-23z"/>
   <path class="fil5" d="M2896 3653c95,0 190,0 285,0 10,7 20,15 31,23 -99,0 -197,0 -294,0 -7,-8 -15,-16 -22,-23z"/>
   <path class="fil5" d="M3419 3653c95,0 190,0 285,0 16,7 32,15 47,23 -98,0 -196,0 -294,0 -13,-8 -26,-16 -38,-23z"/>
   <path class="fil5" d="M726 3693c510,0 1020,0 1530,0 509,0 1020,0 1530,0 16,7 32,15 48,23 -526,0 -1052,0 -1578,0 -526,0 -1052,0 -1577,0 16,-8 32,-16 47,-23z"/>
   <polygon class="fil6" points="3466,1967 1046,3266 3466,3266 "/>
   <path class="fil5" d="M3113 3163c143,0 259,-116 259,-259 0,-142 -116,-258 -259,-258 -142,0 -258,116 -258,258 0,143 116,259 258,259z"/>
   <path class="fil7 str0" d="M3113 3163c143,0 259,-116 259,-259 0,-142 -116,-258 -259,-258 -142,0 -258,116 -258,258 0,143 116,259 258,259z"/>
   <path class="fil8" d="M3113 2670l0 0 0 -53 0 0c-158,0 -287,129 -287,287 0,159 129,288 287,288l0 0 0 -54 0 0c-129,0 -233,-105 -233,-234 0,-129 104,-234 233,-234zm0 0c130,0 234,105 234,234 0,129 -104,234 -234,234l0 54c159,0 288,-129 288,-288 0,-158 -129,-287 -288,-287l0 53z"/>
   <path class="fil8" d="M3113 2734l0 0c8,0 14,6 14,13l0 144c0,7 -6,13 -14,13l0 0c-7,0 -13,-6 -13,-13l0 -144c0,-7 6,-13 13,-13z"/>
   <path class="fil8" d="M3006 2809l0 0c5,-6 14,-6 19,-1l87 77c6,5 6,14 1,19l0 0c-4,6 -13,6 -18,1l-88 -77c-5,-5 -6,-14 -1,-19z"/>
   <path class="fil8" d="M3113 2720c9,0 15,-7 15,-15 0,-8 -6,-15 -15,-15 -8,0 -14,7 -14,15 0,8 6,15 14,15z"/>
   <path class="fil8" d="M3335 2910c0,8 -7,15 -15,15 -8,0 -15,-7 -15,-15 0,-8 7,-15 15,-15 8,0 15,7 15,15z"/>
   <path class="fil8" d="M3115 3132c-8,0 -14,-7 -14,-15 0,-8 6,-15 14,-15 9,0 15,7 15,15 0,8 -6,15 -15,15z"/>
   <path class="fil8" d="M2894 2912c0,-8 7,-15 15,-15 8,0 15,7 15,15 0,8 -7,15 -15,15 -8,0 -15,-7 -15,-15z"/>
   <path class="fil8" d="M3113 2939c20,0 35,-16 35,-35 0,-19 -15,-34 -35,-34 -19,0 -34,15 -34,34 0,19 15,35 34,35z"/>
   <path class="fil9" d="M2818 938c111,22 194,107 194,207l0 0c0,102 -86,209 -203,209l-515 0c-126,0 -222,-101 -222,-209l0 0c0,-100 83,-185 193,-207 0,-2 0,-4 0,-6 0,-129 124,-233 277,-233 153,0 277,104 277,233 0,2 -1,4 -1,6z"/>
   <path class="fil10" d="M2406 853c77,16 135,75 135,145l0 0c0,72 -60,146 -142,146l-360 0c-87,0 -155,-71 -155,-146l0 0c0,-70 58,-129 135,-145 0,-1 0,-3 0,-4 0,-90 87,-162 194,-162 106,0 193,72 193,162 0,1 0,3 0,4z"/>
   <path class="fil1" d="M381 2368l-20 -38 79 -42 21 37c23,-7 48,-11 74,-11l0 65c-78,-1 -150,50 -174,129 -30,96 25,198 121,227l0 0c18,6 36,8 53,8l0 65c-9,0 -18,-1 -27,-2l-13 41 -86 -26 12 -41c-31,-16 -58,-39 -79,-65l-38 20 -42 -80 38 -20c-11,-32 -14,-67 -10,-102l-41 -12 26 -86 41 12c16,-31 38,-58 65,-79zm154 -54c9,0 18,0 28,2l12 -41 86 26 -12 41c31,16 58,38 79,65l38 -20 42 79 -38 20c11,33 14,67 10,102l41 13 -26 86 -41 -12c-16,31 -38,58 -65,79l20 37 -79 43 -20 -38c-24,8 -49,12 -75,12l0 -65c78,0 151,-50 174,-129 30,-96 -25,-198 -121,-228 -18,-5 -35,-7 -53,-7l0 -65z"/>
   <path class="fil11" d="M2474 2767c3,0 6,-1 9,-3 14,-11 6,-33 -12,-32l-2 0 -6 1 -7 0 -7 1 -6 0 -6 0c-3,0 -7,1 -10,3 -13,10 -6,32 11,32l6 0 7 0 7 -1 7 0 7 -1 2 0z"/>
   <path class="fil11" d="M2682 2718c19,-6 14,-34 -6,-34 -2,0 -4,1 -5,1l-4 2 -9 3 -9 3 -8 2 -3 1c-18,6 -16,33 4,34 3,1 4,0 6,0l4 -1 8 -3 9 -3 9 -3 4 -2z"/>
   <path class="fil11" d="M2877 2634c18,-10 8,-38 -13,-32 -1,0 -2,0 -3,1l-7 3 -10 5 -10 5 -4 2c-18,9 -10,35 10,33 2,0 3,0 5,-1l5 -3 10 -4 10 -5 7 -4z"/>
   <path class="fil11" d="M3061 2530c16,-11 6,-35 -12,-33 -3,1 -5,2 -7,3l-5 3 -11 7 -10 6 -3 2c-18,11 -6,38 14,32 1,-1 2,-1 4,-2l3 -2 11 -6 10 -7 6 -3z"/>
   <path class="fil11" d="M3235 2410c6,-4 9,-12 6,-19 -3,-12 -17,-16 -27,-9l-9 7 -11 8 -8 6c-14,10 -6,33 12,31 3,0 6,-1 9,-3l8 -6 10 -8 10 -7z"/>
   <path class="fil11" d="M3400 2278c15,-13 -1,-38 -20,-28 -1,0 -2,1 -3,2l-3 3 -11 9 -10 9 -2 1c-15,12 -3,36 16,30 2,0 4,-1 6,-3l2 -2 11 -9 10 -9 4 -3z"/>
   <path class="fil12" d="M3555 2135c15,-14 -3,-37 -21,-27 -1,1 -2,1 -3,2l-2 2 -10 10 -10 10 -3 3c-5,5 -7,12 -4,19 5,11 19,14 28,6l3 -3 10 -10 11 -10 1 -2z"/>
   <path class="fil12" d="M3700 1982c3,-3 5,-7 5,-11 0,-17 -20,-24 -31,-12l-5 6 -10 11 -8 9c-12,13 2,35 20,28 2,-2 4,-3 6,-5l8 -9 10 -11 5 -6z"/>
   <path class="fil12" d="M3834 1818c12,-15 -7,-35 -23,-25 -2,1 -4,3 -5,4l-6 9 -10 12 -5 7c-12,16 7,36 23,25 2,-1 3,-2 5,-4l5 -7 9 -12 7 -9z"/>
   <path class="fil12" d="M3955 1645c4,-8 3,-18 -4,-23 -9,-7 -20,-5 -26,4l-6 10 -8 12 -5 7c-3,4 -3,10 -2,15 4,14 23,17 31,4l5 -7 8 -13 7 -9z"/>
   <path class="fil12" d="M4060 1462c9,-17 -13,-34 -27,-21 -2,1 -3,3 -4,5l-5 9 -7 13 -4 8c-9,17 10,33 25,23 3,-2 4,-4 6,-6l4 -8 7 -14 5 -9z"/>
   <path class="fil12" d="M4148 1269c4,-10 -1,-21 -12,-23 -8,-2 -17,2 -20,10l-3 9 -6 14 -4 9c-8,18 14,33 28,20 2,-2 3,-4 4,-6l4 -10 6 -14 3 -9z"/>
   <path class="fil12" d="M4217 1069c5,-20 -22,-32 -33,-13 0,1 -1,2 -1,3l-2 8 -4 14 -4 12c-5,17 17,31 30,16 2,-2 3,-4 4,-6l3 -12 5 -15 2 -7z"/>
   <path class="fil12" d="M4262 862c3,-18 -21,-28 -32,-13 -2,3 -2,5 -3,7l-1 5 -2 15 -3 15c-3,19 23,28 33,11 1,-2 2,-3 2,-5l3 -15 2 -16 1 -4z"/>
   <polygon class="fil12" points="4117,796 4281,569 4384,829 "/>
   <path class="fil11" d="M2272 2661c-9,-16 -34,-10 -33,9 0,3 1,5 2,7l2 5 3 5 3 4 3 5 4 4 3 4 4 5 0 0c13,14 37,1 30,-18 -1,-2 -2,-4 -4,-5l0 -1 -3 -3 -3 -3 -2 -4 -3 -3 -2 -4 -2 -3 -2 -4z"/>
   <path class="fil11" d="M2502 2674c19,-5 17,-32 -3,-34 -2,0 -4,0 -6,0l-7 2 -9 3 -8 2 -8 2 -1 0c-19,5 -17,32 2,34 2,1 4,0 6,0l1 0 9 -2 8 -3 9 -2 7 -2z"/>
   <path class="fil11" d="M2700 2594c18,-10 8,-38 -13,-33 -1,1 -2,1 -3,2l-5 2 -10 5 -9 5 -7 3c-17,8 -11,35 9,33 2,0 4,0 6,-1l7 -4 10 -5 9 -4 6 -3z"/>
   <path class="fil11" d="M2882 2485c15,-10 7,-33 -11,-31 -3,0 -6,1 -8,2l-3 2 -10 7 -10 6 -6 5c-16,9 -7,34 11,32 3,-1 5,-2 8,-3l6 -4 10 -7 10 -7 3 -2z"/>
   <path class="fil11" d="M3052 2359c5,-4 7,-10 6,-17 -3,-13 -18,-18 -28,-10l-4 3 -9 8 -10 7 -4 4c-16,12 -2,37 17,30 1,-1 3,-2 4,-3l4 -3 10 -8 10 -8 4 -3z"/>
   <path class="fil12" d="M3210 2219c13,-12 1,-33 -16,-30 -3,1 -6,3 -8,5l-3 3 -10 9 -10 9 -2 3c-14,13 -1,35 17,29 3,-1 4,-2 6,-4l3 -2 10 -10 10 -9 3 -3z"/>
   <path class="fil12" d="M3357 2068c13,-15 -4,-37 -22,-27 -1,1 -2,2 -4,3l-6 8 -9 10 -8 8c-13,14 2,35 20,28 2,-1 4,-2 5,-4l8 -9 10 -10 6 -7z"/>
   <path class="fil12" d="M3493 1906c9,-12 0,-30 -16,-28 -5,1 -8,3 -12,7l-6 8 -9 11 -6 8c-13,16 7,37 24,25 1,-1 2,-2 3,-3l7 -8 8 -12 7 -8z"/>
   <path class="fil12" d="M3616 1734c4,-5 4,-12 1,-18 -7,-11 -23,-12 -30,-1l-5 8 -8 12 -6 9c-11,16 7,35 24,24 2,-1 3,-3 5,-4l6 -10 8 -11 5 -9z"/>
   <path class="fil12" d="M3725 1553c9,-17 -12,-34 -27,-21 -2,1 -3,3 -4,4l-4 9 -7 12 -6 10c-9,15 9,33 25,23 3,-2 4,-3 6,-6l6 -10 6 -13 5 -8z"/>
   <path class="fil12" d="M3816 1362c7,-17 -14,-33 -29,-19 -1,2 -2,3 -3,5l-5 11 -5 13 -4 8c-3,8 -1,16 5,21 9,7 23,4 27,-7l4 -8 5 -13 5 -11z"/>
   <path class="fil12" d="M3885 1162c6,-18 -18,-31 -30,-16 -1,2 -3,4 -3,6l-2 5 -3 13 -4 13 -1 3c-6,18 19,31 31,15 1,-2 2,-3 3,-5l1 -3 3 -13 4 -13 1 -5z"/>
   <path class="fil12" d="M3928 954c3,-19 -22,-28 -32,-12 -1,3 -2,5 -3,7l0 4 -2 13 -2 13 0 4c-3,19 21,29 32,12 1,-2 2,-4 2,-6l1 -5 2 -13 2 -13 0 -4z"/>
   <path class="fil12" d="M3937 741c0,-17 -24,-23 -33,-7 -1,3 -2,6 -2,9l1 6 0 13 0 13 0 2c0,4 2,8 4,11 11,13 31,5 31,-11l0 -3 0 -13 0 -13 -1 -7z"/>
   <path class="fil12" d="M3907 531c-5,-19 -31,-18 -34,1 -1,2 -1,4 0,7l2 10 3 12 3 11c1,8 8,14 16,14 11,1 20,-10 18,-21l-3 -11 -3 -13 -2 -10z"/>
   <polygon class="fil12" points="3725,504 3762,217 3984,402 "/>
   <path class="fil11" d="M2261 2652c-5,-1 -9,0 -14,2 -13,8 -10,27 4,32l7 2 6 1 7 2 7 1 7 2 2 0c6,1 12,-1 16,-5 10,-11 4,-27 -10,-29l-2 -1 -6 -1 -6 -1 -6 -2 -6 -1 -6 -2z"/>
   <g>
    <path class="fil13" d="M3498 2531l444 0c86,0 156,71 156,156l0 1179c0,86 -70,156 -156,156l-444 0c-86,0 -156,-70 -156,-156l0 -1179c0,-85 70,-156 156,-156z"/>
    <path class="fil14" d="M3411 2656l619 0c1,0 2,1 2,2l0 1224c0,2 -1,3 -2,3l-619 0c-2,0 -3,-1 -3,-3l0 -1224c0,-1 1,-2 3,-2z"/>
    <path class="fil15" d="M3605 2568l230 0c6,0 11,5 11,11l0 0c0,7 -5,12 -11,12l-230 0c-6,0 -11,-5 -11,-12l0 0c0,-6 5,-11 11,-11z"/>
    <path class="fil15" d="M3720 3989c21,0 38,-17 38,-38 0,-21 -17,-38 -38,-38 -21,0 -38,17 -38,38 0,21 17,38 38,38z"/>
    <polygon class="fil16" points="4032,2658 3411,3885 3408,2658 "/>
   </g>
  </g>
 </g>
</svg>
