<?xml version="1.0" encoding="UTF-8"?>
<!DOCTYPE svg PUBLIC "-//W3C//DTD SVG 1.1//EN" "http://www.w3.org/Graphics/SVG/1.1/DTD/svg11.dtd">
<!-- Creator: CorelDRAW X7 -->
<svg xmlns="http://www.w3.org/2000/svg" xml:space="preserve" width="93.722mm" height="13.871mm" version="1.1" style="shape-rendering:geometricPrecision; text-rendering:geometricPrecision; image-rendering:optimizeQuality; fill-rule:evenodd; clip-rule:evenodd"
viewBox="0 0 9372 1387"
 xmlns:xlink="http://www.w3.org/1999/xlink">
 <defs>
  <style type="text/css">
   <![CDATA[
    .fil0 {fill:#FEFEFE;fill-rule:nonzero}
   ]]>
  </style>
 </defs>
 <g id="Layer_x0020_1">
  <metadata id="CorelCorpID_0Corel-Layer"/>
  <path class="fil0" d="M479 1054l-210 0 0 -815 -269 0 0 -175 748 0 0 175 -269 0 0 815zm872 0l-28 -97 -11 0c-22,36 -53,63 -94,82 -40,19 -87,29 -138,29 -89,0 -156,-24 -202,-71 -45,-48 -67,-117 -67,-206l0 -494 206 0 0 442c0,55 10,96 30,123 19,27 50,41 92,41 58,0 100,-19 125,-58 26,-39 39,-102 39,-192l0 -356 206 0 0 757 -158 0zm798 -771c28,0 51,2 70,6l-16 194c-17,-5 -37,-7 -61,-7 -66,0 -117,17 -154,51 -37,34 -55,81 -55,142l0 385 -207 0 0 -757 157 0 30 127 10 0c24,-42 56,-76 96,-102 39,-26 83,-39 130,-39zm199 -182c0,-67 37,-101 112,-101 75,0 112,34 112,101 0,32 -9,57 -28,75 -18,18 -47,27 -84,27 -75,0 -112,-34 -112,-102zm215 953l-207 0 0 -757 207 0 0 757zm744 0l-598 0 0 -122 351 -477 -330 0 0 -158 565 0 0 134 -342 465 354 0 0 158zm827 0l-206 0 0 -442c0,-55 -9,-96 -28,-123 -18,-27 -47,-41 -86,-41 -53,0 -91,19 -115,58 -24,39 -36,103 -36,192l0 356 -207 0 0 -757 158 0 28 97 11 0c21,-35 50,-62 88,-82 39,-19 83,-29 133,-29 113,0 190,37 230,111l18 0c21,-35 50,-62 90,-82 39,-19 84,-29 134,-29 86,0 151,22 194,66 45,44 67,115 67,212l0 493 -208 0 0 -442c0,-55 -9,-96 -27,-123 -19,-27 -47,-41 -87,-41 -50,0 -88,18 -113,54 -25,36 -38,94 -38,172l0 380zm1401 -754c98,0 174,33 228,99 54,67 81,162 81,283 0,123 -28,217 -82,285 -55,67 -130,101 -227,101 -48,0 -92,-9 -132,-27 -40,-18 -74,-45 -101,-82l-8 0 -24 95 -80 0 0 -1054 112 0 0 256c0,57 -2,109 -5,155l5 0c53,-74 130,-111 233,-111zm-16 94c-77,0 -132,22 -166,66 -34,44 -51,118 -51,222 0,105 18,179 52,224 35,45 91,68 168,68 69,0 121,-25 154,-76 34,-50 51,-122 51,-217 0,-97 -17,-168 -51,-216 -33,-47 -86,-71 -157,-71zm977 660l-22 -105 -6 0c-37,46 -73,78 -110,94 -37,17 -83,25 -138,25 -74,0 -131,-19 -173,-57 -42,-38 -63,-92 -63,-162 0,-150 120,-229 360,-236l126 -4 0 -46c0,-58 -13,-101 -38,-129 -25,-28 -65,-41 -120,-41 -62,0 -132,19 -210,56l-34 -86c36,-19 76,-35 120,-47 43,-11 87,-16 131,-16 88,0 154,19 196,59 43,39 65,102 65,188l0 507 -84 0zm-254 -79c70,0 125,-19 165,-57 40,-39 60,-92 60,-162l0 -67 -112 5c-90,3 -154,17 -194,42 -39,24 -59,63 -59,115 0,40 12,71 37,92 25,22 59,32 103,32zm1177 -663l0 71 -137 16c12,16 23,37 33,62 10,26 15,55 15,87 0,72 -25,130 -74,174 -50,43 -118,64 -205,64 -22,0 -43,-1 -62,-5 -48,25 -72,57 -72,96 0,20 8,35 25,45 17,9 46,14 86,14l132 0c80,0 142,17 185,51 43,34 64,83 64,148 0,82 -32,144 -98,187 -66,44 -163,65 -289,65 -97,0 -172,-18 -224,-54 -53,-36 -80,-87 -80,-153 0,-45 15,-84 44,-117 29,-33 69,-55 122,-67 -19,-9 -35,-22 -48,-40 -13,-18 -19,-39 -19,-63 0,-27 7,-51 21,-71 15,-20 38,-40 69,-59 -39,-16 -70,-43 -94,-81 -24,-38 -36,-81 -36,-130 0,-81 24,-144 73,-188 49,-44 118,-66 207,-66 39,0 74,5 105,14l257 0zm-592 867c0,40 17,70 51,91 33,21 82,31 145,31 95,0 165,-14 210,-42 45,-28 68,-67 68,-115 0,-40 -12,-68 -37,-83 -25,-16 -72,-23 -140,-23l-135 0c-51,0 -91,12 -119,36 -29,24 -43,59 -43,105zm61 -629c0,52 14,91 44,117 29,27 70,40 123,40 109,0 164,-53 164,-160 0,-111 -55,-167 -166,-167 -53,0 -94,14 -123,43 -28,28 -42,71 -42,127zm176 -336c-63,0 -113,-16 -148,-47 -35,-31 -55,-76 -59,-135l71 0c2,22 8,39 18,52 9,13 22,22 38,28 17,6 44,9 83,9 45,0 79,-7 101,-22 21,-14 34,-37 39,-67l70 0c-4,57 -25,101 -63,134 -38,32 -88,48 -150,48zm620 840l-113 0 0 -1054 113 0 0 1054zm695 0l-23 -105 -5 0c-37,46 -74,78 -111,94 -37,17 -83,25 -138,25 -73,0 -131,-19 -173,-57 -41,-38 -62,-92 -62,-162 0,-150 120,-229 359,-236l126 -4 0 -46c0,-58 -12,-101 -37,-129 -26,-28 -66,-41 -121,-41 -62,0 -131,19 -210,56l-34 -86c37,-19 77,-35 120,-47 44,-11 87,-16 131,-16 89,0 154,19 197,59 43,39 64,102 64,188l0 507 -83 0zm-254 -79c70,0 125,-19 164,-57 40,-39 60,-92 60,-162l0 -67 -112 5c-89,3 -154,17 -193,42 -40,24 -60,63 -60,115 0,40 13,71 37,92 25,22 59,32 104,32zm907 -677c33,0 63,3 89,8l-16 105c-31,-7 -58,-10 -81,-10 -60,0 -111,24 -154,73 -43,49 -64,110 -64,182l0 398 -113 0 0 -742 93 0 13 137 6 0c27,-48 60,-85 99,-111 39,-27 81,-40 128,-40zm340 756l-112 0 0 -742 112 0 0 742z"/>
 </g>
</svg>
