<?xml version="1.0" encoding="UTF-8"?>
<!DOCTYPE svg PUBLIC "-//W3C//DTD SVG 1.1//EN" "http://www.w3.org/Graphics/SVG/1.1/DTD/svg11.dtd">
<!-- Creator: CorelDRAW X7 -->
<svg xmlns="http://www.w3.org/2000/svg" xml:space="preserve" width="48.21mm" height="27.44mm" version="1.1" style="shape-rendering:geometricPrecision; text-rendering:geometricPrecision; image-rendering:optimizeQuality; fill-rule:evenodd; clip-rule:evenodd"
viewBox="0 0 4821 2744"
 xmlns:xlink="http://www.w3.org/1999/xlink">
 <defs>
  <style type="text/css">
   <![CDATA[
    .fil0 {fill:#0998B5;fill-rule:nonzero}
   ]]>
  </style>
 </defs>
 <g id="Layer_x0020_1">
  <metadata id="CorelCorpID_0Corel-Layer"/>
  <path class="fil0" d="M4278 1539c21,-92 33,-189 33,-288 0,-691 -560,-1251 -1252,-1251 -666,0 -1210,520 -1249,1176 -138,-132 -325,-213 -531,-213 -358,0 -659,245 -745,576 0,0 -534,120 -534,602 0,482 186,603 266,603l4289 0c80,0 266,-121 266,-603 0,-482 -543,-602 -543,-602z"/>
 </g>
</svg>
