<?xml version="1.0" encoding="UTF-8"?>
<!DOCTYPE svg PUBLIC "-//W3C//DTD SVG 1.1//EN" "http://www.w3.org/Graphics/SVG/1.1/DTD/svg11.dtd">
<!-- Creator: CorelDRAW X7 -->
<svg xmlns="http://www.w3.org/2000/svg" xml:space="preserve" width="83.85mm" height="49.64mm" version="1.1" style="shape-rendering:geometricPrecision; text-rendering:geometricPrecision; image-rendering:optimizeQuality; fill-rule:evenodd; clip-rule:evenodd"
viewBox="0 0 8385 4964"
 xmlns:xlink="http://www.w3.org/1999/xlink">
 <defs>
  <style type="text/css">
   <![CDATA[
    .fil0 {fill:#0998B5;fill-rule:nonzero}
   ]]>
  </style>
 </defs>
 <g id="Layer_x0020_1">
  <metadata id="CorelCorpID_0Corel-Layer"/>
  <path class="fil0" d="M6860 1911l-4 0c-68,-1067 -955,-1911 -2038,-1911l0 0c-1000,0 -1832,719 -2008,1667 -23,-1 -47,-1 -69,-1 -745,0 -1374,493 -1579,1171 -32,-3 -64,-5 -96,-5 -589,0 -1066,477 -1066,1066 0,589 477,1066 1065,1066l5794 0c843,0 1526,-684 1526,-1526 0,-842 -682,-1527 -1525,-1527z"/>
 </g>
</svg>
