<?xml version="1.0" encoding="UTF-8"?>
<!DOCTYPE svg PUBLIC "-//W3C//DTD SVG 1.1//EN" "http://www.w3.org/Graphics/SVG/1.1/DTD/svg11.dtd">
<!-- Creator: CorelDRAW X7 -->
<svg xmlns="http://www.w3.org/2000/svg" xml:space="preserve" width="45.21mm" height="45.21mm" version="1.1" style="shape-rendering:geometricPrecision; text-rendering:geometricPrecision; image-rendering:optimizeQuality; fill-rule:evenodd; clip-rule:evenodd"
viewBox="0 0 4521 4521"
 xmlns:xlink="http://www.w3.org/1999/xlink">
 <defs>
  <style type="text/css">
   <![CDATA[
    .fil0 {fill:#D4F8FF}
    .fil5 {fill:#006B57;fill-rule:nonzero}
    .fil1 {fill:#04332A;fill-rule:nonzero}
    .fil3 {fill:#045748;fill-rule:nonzero}
    .fil2 {fill:#4B9587;fill-rule:nonzero}
    .fil4 {fill:#53A697;fill-rule:nonzero}
    .fil6 {fill:#81CEC0;fill-rule:nonzero}
   ]]>
  </style>
 </defs>
 <g id="Layer_x0020_1">
  <metadata id="CorelCorpID_0Corel-Layer"/>
  <g id="_2236467712496">
   <circle class="fil0" cx="2261" cy="2261" r="2261"/>
   <g>
    <path class="fil1" d="M1104 1353l1262 -249c37,-7 72,18 80,52l494 2355c7,37 -18,72 -53,80l-1264 249c-38,8 -73,-17 -80,-52l-491 -2355c-1,-4 -2,-9 -2,-13l0 -2c1,-31 22,-58 54,-65z"/>
    <path class="fil2" d="M2433 1825l-114 -561c-3,-18 -23,-30 -40,-28l-1068 212c-17,3 -30,23 -27,40l115 561c2,18 22,30 39,28 18,-3 30,-23 28,-40l-107 -529 1000 -199 107 528c3,18 23,30 40,28 17,-5 30,-23 27,-40z"/>
    <path class="fil3" d="M1426 962l1282 -125c37,-2 70,23 75,60l306 2514c3,38 -22,70 -59,73l-1283 124c-37,3 -69,-22 -74,-60l-307 -2514c-3,-35 25,-70 60,-72z"/>
    <path class="fil4" d="M2645 992c-2,-18 -17,-33 -37,-30l-1082 105c-18,2 -33,17 -30,37l57 571c2,18 17,33 37,30 18,-2 33,-17 30,-37l-52 -537 1015 -97 52 536c3,18 18,33 38,30 17,-2 32,-17 30,-37l-58 -571z"/>
    <path class="fil5" d="M1867 648l1310 0c37,0 70,30 70,69l0 2607c0,37 -30,70 -70,70l-1310 0c-37,0 -70,-30 -70,-70l0 -2607c0,-39 30,-69 70,-69z"/>
    <path class="fil6" d="M2022 2019c0,277 224,499 499,499 274,0 499,-224 499,-499 0,-274 -225,-498 -499,-498 -275,0 -499,224 -499,498zm232 -12l37 0c8,-62 43,-110 80,-130 5,-2 13,-5 18,-5 19,0 34,15 34,33 0,15 -7,22 -15,27 -27,28 -49,60 -49,105 0,57 20,85 59,85 98,0 53,-232 212,-232 60,0 110,35 120,117l38 0c17,0 32,12 32,30 0,17 -15,30 -32,30l-38 0c-7,50 -27,92 -60,115 -5,5 -12,7 -22,7 -20,0 -35,-15 -35,-35 0,-10 5,-17 15,-27 20,-20 35,-53 35,-90 0,-52 -25,-72 -53,-72 -87,0 -47,232 -212,232 -72,0 -119,-45 -129,-130l-38 0c-17,0 -32,-13 -32,-30 2,-18 17,-30 35,-30zm828 761c-20,0 -37,17 -37,37l0 387 -1048 0 0 -387c0,-20 -18,-37 -38,-37 -19,0 -37,17 -37,37l0 424c0,20 18,38 37,38l1123 0c20,0 37,-18 37,-38l0 -424c0,-20 -17,-37 -37,-37zm0 -1996l-1122 0c-20,0 -38,18 -38,38l0 424c0,20 18,37 38,37 19,0 37,-17 37,-37l0 -387 1048 0 0 387c0,20 17,37 37,37 20,0 37,-17 37,-37l0 -424c0,-20 -17,-38 -37,-38zm-636 2096c0,42 32,74 75,74 42,0 75,-32 75,-74 0,-43 -33,-75 -75,-75 -43,0 -75,35 -75,75zm150 -1697c0,-42 -33,-74 -75,-74 -43,0 -75,32 -75,74 0,43 32,75 75,75 42,0 75,-32 75,-75z"/>
   </g>
  </g>
 </g>
</svg>
