<?xml version="1.0" encoding="UTF-8"?>
<!DOCTYPE svg PUBLIC "-//W3C//DTD SVG 1.1//EN" "http://www.w3.org/Graphics/SVG/1.1/DTD/svg11.dtd">
<!-- Creator: CorelDRAW X7 -->
<svg xmlns="http://www.w3.org/2000/svg" xml:space="preserve" width="183.712mm" height="106.065mm" version="1.1" style="shape-rendering:geometricPrecision; text-rendering:geometricPrecision; image-rendering:optimizeQuality; fill-rule:evenodd; clip-rule:evenodd"
viewBox="0 0 18371 10606"
 xmlns:xlink="http://www.w3.org/1999/xlink">
 <defs>
  <style type="text/css">
   <![CDATA[
    .fil14 {fill:#4B4B4D}
    .fil13 {fill:#4B4B4D;fill-rule:nonzero}
    .fil9 {fill:#FBB24A;fill-rule:nonzero}
    .fil10 {fill:#E33439;fill-rule:nonzero}
    .fil2 {fill:#D3EDEF;fill-rule:nonzero}
    .fil6 {fill:#AD3436;fill-rule:nonzero}
    .fil5 {fill:#BE883D;fill-rule:nonzero}
    .fil8 {fill:#22A958;fill-rule:nonzero}
    .fil4 {fill:#24834B;fill-rule:nonzero}
    .fil7 {fill:#2F5B7D;fill-rule:nonzero}
    .fil11 {fill:#006F85;fill-rule:nonzero}
    .fil1 {fill:#1C5268;fill-rule:nonzero}
    .fil3 {fill:#242933;fill-rule:nonzero}
    .fil0 {fill:#D4F8FF;fill-rule:nonzero}
    .fil12 {fill:white;fill-rule:nonzero}
   ]]>
  </style>
 </defs>
 <g id="Layer_x0020_1">
  <metadata id="CorelCorpID_0Corel-Layer"/>
  <g id="_2313509738784">
   <path class="fil0" d="M0 8546l18368 0 0 -7961c37,-421 -237,-606 -784,-583l-16789 0c-544,-22 -775,184 -795,545l0 7999z"/>
   <path class="fil1" d="M0 7993l7944 0c257,0 465,-209 465,-465l0 -6508c0,-257 -208,-465 -465,-465l-7944 0 0 7438z"/>
   <path class="fil2" d="M7426 7513l-3475 0c-104,0 -189,-85 -189,-189l0 -6101c0,-104 85,-188 189,-188l3475 0c105,0 189,84 189,188l0 6101c0,104 -84,189 -189,189z"/>
   <path class="fil3" d="M10348 2686c0,69 -57,126 -126,126l-1303 0c-69,0 -126,-57 -126,-126l0 -1525c0,-70 57,-126 126,-126l1303 0c69,0 126,56 126,126l0 1525z"/>
   <path class="fil3" d="M10348 5037c0,69 -57,126 -126,126l-1303 0c-69,0 -126,-57 -126,-126l0 -1526c0,-69 57,-126 126,-126l1303 0c69,0 126,57 126,126l0 1526z"/>
   <path class="fil3" d="M10348 7387c0,69 -57,126 -126,126l-1303 0c-69,0 -126,-57 -126,-126l0 -1526c0,-69 57,-126 126,-126l1303 0c69,0 126,57 126,126l0 1526z"/>
   <path class="fil3" d="M12602 2686c0,69 -57,126 -126,126l-1303 0c-70,0 -126,-57 -126,-126l0 -1525c0,-70 56,-126 126,-126l1303 0c69,0 126,56 126,126l0 1525z"/>
   <path class="fil3" d="M12602 5037c0,69 -57,126 -126,126l-1303 0c-70,0 -126,-57 -126,-126l0 -1526c0,-69 56,-126 126,-126l1303 0c69,0 126,57 126,126l0 1526z"/>
   <path class="fil3" d="M12602 7387c0,69 -57,126 -126,126l-1303 0c-70,0 -126,-57 -126,-126l0 -1526c0,-69 56,-126 126,-126l1303 0c69,0 126,57 126,126l0 1526z"/>
   <path class="fil3" d="M14855 2686c0,69 -57,126 -126,126l-1303 0c-69,0 -126,-57 -126,-126l0 -1525c0,-70 57,-126 126,-126l1303 0c69,0 126,56 126,126l0 1525z"/>
   <path class="fil3" d="M14855 5037c0,69 -57,126 -126,126l-1303 0c-69,0 -126,-57 -126,-126l0 -1526c0,-69 57,-126 126,-126l1303 0c69,0 126,57 126,126l0 1526z"/>
   <path class="fil3" d="M14855 7387c0,69 -57,126 -126,126l-1303 0c-69,0 -126,-57 -126,-126l0 -1526c0,-69 57,-126 126,-126l1303 0c69,0 126,57 126,126l0 1526z"/>
   <path class="fil4" d="M17109 2686c0,69 -57,126 -126,126l-1303 0c-70,0 -126,-57 -126,-126l0 -1525c0,-70 56,-126 126,-126l1303 0c69,0 126,56 126,126l0 1525z"/>
   <path class="fil5" d="M17109 5037c0,69 -57,126 -126,126l-1303 0c-70,0 -126,-57 -126,-126l0 -1526c0,-69 56,-126 126,-126l1303 0c69,0 126,57 126,126l0 1526z"/>
   <path class="fil6" d="M17109 7387c0,69 -57,126 -126,126l-1303 0c-70,0 -126,-57 -126,-126l0 -1526c0,-69 56,-126 126,-126l1303 0c69,0 126,57 126,126l0 1526z"/>
   <path class="fil7" d="M10348 2519c0,70 -57,126 -126,126l-1303 0c-69,0 -126,-56 -126,-126l0 -1525c0,-70 57,-126 126,-126l1303 0c69,0 126,56 126,126l0 1525z"/>
   <path class="fil7" d="M10348 4870c0,69 -57,126 -126,126l-1303 0c-69,0 -126,-57 -126,-126l0 -1526c0,-69 57,-126 126,-126l1303 0c69,0 126,57 126,126l0 1526z"/>
   <path class="fil7" d="M10348 7220c0,70 -57,126 -126,126l-1303 0c-69,0 -126,-56 -126,-126l0 -1526c0,-69 57,-126 126,-126l1303 0c69,0 126,57 126,126l0 1526z"/>
   <path class="fil7" d="M12602 2519c0,70 -57,126 -126,126l-1303 0c-70,0 -126,-56 -126,-126l0 -1525c0,-70 56,-126 126,-126l1303 0c69,0 126,56 126,126l0 1525z"/>
   <path class="fil7" d="M12602 4870c0,69 -57,126 -126,126l-1303 0c-70,0 -126,-57 -126,-126l0 -1526c0,-69 56,-126 126,-126l1303 0c69,0 126,57 126,126l0 1526z"/>
   <path class="fil7" d="M12602 7220c0,70 -57,126 -126,126l-1303 0c-70,0 -126,-56 -126,-126l0 -1526c0,-69 56,-126 126,-126l1303 0c69,0 126,57 126,126l0 1526z"/>
   <path class="fil7" d="M14855 2519c0,70 -57,126 -126,126l-1303 0c-69,0 -126,-56 -126,-126l0 -1525c0,-70 57,-126 126,-126l1303 0c69,0 126,56 126,126l0 1525z"/>
   <path class="fil7" d="M14855 4870c0,69 -57,126 -126,126l-1303 0c-69,0 -126,-57 -126,-126l0 -1526c0,-69 57,-126 126,-126l1303 0c69,0 126,57 126,126l0 1526z"/>
   <path class="fil7" d="M14855 7220c0,70 -57,126 -126,126l-1303 0c-69,0 -126,-56 -126,-126l0 -1526c0,-69 57,-126 126,-126l1303 0c69,0 126,57 126,126l0 1526z"/>
   <path class="fil8" d="M17109 2519c0,70 -57,126 -126,126l-1303 0c-70,0 -126,-56 -126,-126l0 -1525c0,-70 56,-126 126,-126l1303 0c69,0 126,56 126,126l0 1525z"/>
   <path class="fil9" d="M17109 4870c0,69 -57,126 -126,126l-1303 0c-70,0 -126,-57 -126,-126l0 -1526c0,-69 56,-126 126,-126l1303 0c69,0 126,57 126,126l0 1526z"/>
   <path class="fil10" d="M17109 7220c0,70 -57,126 -126,126l-1303 0c-70,0 -126,-56 -126,-126l0 -1526c0,-69 56,-126 126,-126l1303 0c69,0 126,57 126,126l0 1526z"/>
   <path class="fil11" d="M1451 10598l15653 0c710,83 1316,-457 1264,-1220l0 -832 -18368 0c0,340 0,680 0,1019 96,683 547,1055 1451,1033z"/>
   <path class="fil3" d="M2515 7513l-50 0c-129,0 -233,-104 -233,-233l0 -6013c0,-128 104,-233 233,-233l50 0c129,0 233,105 233,233l0 6013c0,129 -104,233 -233,233z"/>
   <path class="fil12" d="M9923 6372l0 134 -505 0c46,48 80,106 102,172l-122 0c-12,-35 -33,-73 -65,-114 -32,-40 -69,-68 -112,-84l0 -108 702 0z"/>
   <path class="fil12" d="M9799 3909l124 0 0 469c-47,-5 -92,-20 -134,-46 -42,-25 -98,-75 -167,-150 -56,-60 -95,-97 -115,-111 -27,-18 -54,-27 -82,-27 -29,0 -52,8 -68,24 -17,16 -24,38 -24,66 0,28 8,50 25,66 17,17 45,26 84,29l-14 133c-73,-8 -126,-32 -158,-74 -32,-42 -49,-95 -49,-157 0,-69 19,-123 56,-163 37,-39 84,-59 139,-59 32,0 62,6 90,17 29,11 58,29 89,54 21,16 51,45 90,87 39,43 64,70 77,81 13,11 25,20 37,27l0 -266z"/>
   <path class="fil12" d="M9736 1978l-15 -129c33,-5 58,-16 76,-34 17,-18 26,-39 26,-65 0,-27 -11,-50 -31,-69 -21,-19 -50,-28 -85,-28 -34,0 -61,9 -80,27 -20,18 -30,40 -30,66 0,17 3,37 10,61l-108 -15c1,-36 -7,-64 -24,-83 -17,-19 -39,-28 -67,-28 -23,0 -42,7 -56,21 -14,14 -21,32 -21,56 0,23 8,42 24,58 16,16 39,26 70,30l-21 122c-43,-8 -77,-21 -102,-38 -26,-18 -46,-42 -60,-73 -15,-31 -22,-65 -22,-104 0,-65 21,-118 63,-157 34,-33 73,-49 117,-49 61,0 110,33 147,100 8,-40 28,-72 57,-96 30,-24 66,-36 109,-36 61,0 113,23 156,67 44,45 65,101 65,167 0,63 -18,115 -55,157 -36,41 -84,65 -143,72z"/>
   <path class="fil12" d="M12163 6452l-141 0 0 284 -116 0 -444 -301 0 -113 444 0 0 -86 116 0 0 86 141 0 0 130zm-257 0l-239 0 239 159 0 -159z"/>
   <path class="fil12" d="M11984 4359l-14 -133c30,-4 54,-15 72,-34 17,-19 26,-40 26,-65 0,-28 -11,-51 -34,-71 -23,-19 -57,-29 -103,-29 -43,0 -76,10 -97,29 -22,19 -33,44 -33,75 0,39 17,73 51,104l-16 108 -362 -68 0 -354 125 0 0 252 118 21c-14,-29 -22,-60 -22,-91 0,-60 22,-110 65,-151 43,-42 99,-62 169,-62 57,0 109,17 154,50 62,45 92,108 92,189 0,64 -17,117 -52,158 -34,40 -81,64 -139,72z"/>
   <path class="fil12" d="M11634 1521l15 130c-27,3 -47,11 -59,24 -13,14 -19,31 -19,52 0,28 12,52 38,72 25,19 78,32 158,37 -39,-34 -59,-75 -59,-125 0,-55 21,-103 64,-143 43,-40 98,-59 165,-59 71,0 129,20 172,62 43,42 65,96 65,162 0,70 -28,128 -82,173 -55,45 -145,68 -270,68 -128,0 -221,-23 -277,-71 -57,-47 -85,-108 -85,-184 0,-53 15,-97 45,-131 29,-35 73,-57 129,-67zm292 303c44,0 78,-10 101,-30 24,-20 36,-43 36,-68 0,-25 -10,-46 -29,-62 -20,-17 -52,-25 -96,-25 -45,0 -78,9 -100,27 -21,18 -31,40 -31,66 0,26 10,48 30,66 20,17 50,26 89,26z"/>
   <path class="fil12" d="M13805 6714l-124 0 0 -458 98 0c37,38 90,76 160,115 69,39 143,69 221,90 79,20 149,30 210,30l0 129c-97,-3 -195,-23 -296,-60 -100,-38 -190,-88 -269,-151l0 305z"/>
   <path class="fil12" d="M13993 4246c-15,35 -35,60 -60,75 -26,16 -54,24 -84,24 -52,0 -96,-18 -129,-55 -34,-36 -51,-87 -51,-154 0,-66 17,-118 51,-154 33,-37 77,-55 129,-55 32,0 61,8 86,25 25,17 45,41 58,71 15,-39 38,-68 68,-88 30,-20 65,-31 104,-31 64,0 117,21 157,62 41,41 61,95 61,164 0,63 -17,116 -50,158 -40,50 -94,74 -163,74 -38,0 -72,-9 -104,-28 -32,-18 -56,-48 -73,-88zm-135 -28c27,0 48,-7 63,-22 15,-15 22,-35 22,-60 0,-26 -7,-46 -22,-61 -16,-15 -36,-22 -63,-22 -25,0 -45,7 -61,22 -15,15 -22,35 -22,59 0,26 7,46 23,61 15,16 35,23 60,23zm300 13c37,0 66,-10 86,-28 21,-19 32,-43 32,-71 0,-27 -11,-50 -30,-68 -20,-18 -49,-27 -87,-27 -33,0 -59,9 -79,27 -20,19 -30,42 -30,70 0,33 11,57 34,73 22,16 47,24 74,24z"/>
   <path class="fil12" d="M14207 1969l-15 -129c27,-3 46,-12 59,-25 13,-13 19,-30 19,-52 0,-27 -13,-51 -38,-70 -26,-19 -79,-31 -159,-37 39,34 59,76 59,126 0,55 -21,103 -64,142 -42,40 -97,60 -165,60 -71,0 -128,-21 -171,-63 -43,-42 -65,-96 -65,-161 0,-70 28,-128 82,-174 55,-45 145,-68 271,-68 128,0 220,24 276,71 57,47 85,108 85,184 0,54 -14,98 -44,132 -29,33 -72,55 -130,64zm-293 -301c-43,0 -77,10 -100,30 -24,20 -36,43 -36,69 0,24 10,45 29,61 20,16 52,24 96,24 45,0 78,-8 99,-26 21,-18 31,-40 31,-67 0,-25 -10,-47 -30,-64 -20,-18 -50,-27 -89,-27z"/>
   <polygon class="fil13" points="16676,6754 16312,6514 15978,6732 15978,6568 16186,6430 15978,6293 15978,6128 16312,6347 16676,6107 16676,6276 16439,6430 16676,6585 "/>
   <path class="fil12" d="M15974 4135c0,-68 24,-120 73,-159 57,-45 152,-68 284,-68 133,0 228,23 286,69 47,38 71,90 71,158 0,68 -26,122 -78,164 -52,42 -146,62 -280,62 -132,0 -226,-23 -284,-68 -48,-38 -72,-91 -72,-158zm111 0c0,16 5,30 16,42 10,13 29,23 55,29 35,10 93,14 175,14 83,0 139,-4 170,-12 30,-8 51,-18 61,-31 10,-12 15,-26 15,-42 0,-16 -5,-30 -15,-43 -11,-12 -29,-22 -56,-29 -34,-9 -92,-13 -175,-13 -82,0 -138,4 -169,12 -30,8 -51,18 -61,30 -11,13 -16,27 -16,43z"/>
   <g>
    <polygon class="fil14" points="16055,2196 16055,2060 16490,2060 16490,2196 "/>
    <polygon class="fil14" points="16354,1572 16490,1572 16490,2196 16354,2196 "/>
    <polygon class="fil14" points="16422,1317 16515,1460 16607,1602 16422,1602 16237,1602 16329,1460 "/>
   </g>
  </g>
 </g>
</svg>
