<?xml version="1.0" encoding="UTF-8"?>
<!DOCTYPE svg PUBLIC "-//W3C//DTD SVG 1.1//EN" "http://www.w3.org/Graphics/SVG/1.1/DTD/svg11.dtd">
<!-- Creator: CorelDRAW X7 -->
<svg xmlns="http://www.w3.org/2000/svg" xml:space="preserve" width="95.183mm" height="12.881mm" version="1.1" style="shape-rendering:geometricPrecision; text-rendering:geometricPrecision; image-rendering:optimizeQuality; fill-rule:evenodd; clip-rule:evenodd"
viewBox="0 0 9518 1288"
 xmlns:xlink="http://www.w3.org/1999/xlink">
 <defs>
  <style type="text/css">
   <![CDATA[
    .fil0 {fill:white;fill-rule:nonzero}
   ]]>
  </style>
 </defs>
 <g id="Layer_x0020_1">
  <metadata id="CorelCorpID_0Corel-Layer"/>
  <path class="fil0" d="M469 1271l-83 0 0 -1108 -386 0 0 -78 855 0 0 78 -386 0 0 1108zm1063 0l0 -572c0,-88 -18,-153 -56,-193 -37,-40 -95,-61 -173,-61 -106,0 -183,27 -232,80 -49,54 -74,140 -74,260l0 486 -80 0 0 -1263 80 0 0 402 -4 113 6 0c33,-53 75,-91 125,-115 50,-24 113,-36 188,-36 200,0 300,108 300,322l0 577 -80 0zm628 17c-128,0 -228,-40 -300,-118 -72,-79 -107,-190 -107,-333 0,-140 34,-253 104,-338 69,-84 162,-127 280,-127 104,0 186,36 246,109 60,72 90,170 90,294l0 64 -636 0c1,122 29,215 85,280 55,64 135,96 238,96 51,0 95,-4 133,-11 38,-6 86,-22 145,-45l0 73c-50,22 -96,36 -138,44 -42,8 -89,12 -140,12zm-23 -846c-85,0 -154,28 -205,84 -51,57 -82,138 -90,244l545 0c0,-103 -22,-183 -66,-241 -44,-58 -106,-87 -184,-87zm6790 387c0,144 -35,257 -105,338 -70,81 -166,121 -289,121 -77,0 -145,-18 -204,-56 -59,-37 -104,-91 -136,-161 -31,-70 -47,-150 -47,-242 0,-144 35,-256 105,-336 70,-81 165,-121 287,-121 121,0 217,41 286,122 69,82 103,194 103,335zm-697 0c0,122 27,216 81,284 53,68 128,102 226,102 97,0 172,-34 226,-102 53,-68 80,-162 80,-284 0,-121 -27,-216 -81,-283 -54,-67 -130,-101 -227,-101 -97,0 -172,34 -225,101 -53,66 -80,161 -80,283zm1176 -370l-208 0 0 812 -81 0 0 -812 -164 0 0 -47 164 -30 0 -68c0,-108 20,-188 60,-238 40,-51 105,-76 195,-76 49,0 98,7 146,21l-18 69c-43,-14 -87,-20 -129,-20 -63,0 -108,18 -134,55 -26,38 -39,98 -39,182l0 82 208 0 0 70zm-5298 812l-319 0 -517 -897 -7 0c10,158 16,271 16,339l0 558 -225 0 0 -1186 317 0 515 889 6 0c-8,-155 -12,-264 -12,-327l0 -562 226 0 0 1186zm562 -747c-53,0 -94,16 -124,49 -29,34 -46,81 -51,142l348 0c-1,-61 -17,-108 -48,-142 -31,-33 -73,-49 -125,-49zm35 764c-146,0 -261,-40 -343,-121 -82,-81 -123,-195 -123,-342 0,-152 38,-270 114,-353 76,-83 181,-125 315,-125 129,0 228,37 300,110 71,73 107,173 107,302l0 120 -585 0c2,71 23,126 62,165 39,40 94,60 164,60 55,0 107,-6 155,-18 49,-11 100,-29 153,-54l0 192c-44,21 -90,38 -139,48 -49,11 -109,16 -180,16zm630 -480l-292 -444 281 0 176 289 177 -289 281 0 -295 444 309 463 -282 0 -190 -310 -192 310 -281 0 308 -463zm1324 463l-33 -116 -13 0c-27,43 -65,75 -113,98 -49,23 -104,35 -166,35 -107,0 -187,-28 -241,-85 -54,-58 -81,-140 -81,-247l0 -592 247 0 0 530c0,65 12,115 35,147 23,33 60,49 111,49 69,0 119,-23 150,-69 31,-46 46,-123 46,-230l0 -427 248 0 0 907 -190 0zm989 -269c0,93 -32,164 -97,213 -65,49 -161,73 -290,73 -66,0 -122,-4 -169,-13 -46,-9 -90,-22 -131,-40l0 -204c46,21 98,39 156,54 57,15 108,22 152,22 90,0 135,-26 135,-78 0,-20 -6,-35 -18,-48 -12,-12 -33,-26 -62,-41 -29,-15 -68,-33 -117,-54 -69,-29 -121,-56 -153,-81 -33,-25 -57,-54 -72,-86 -15,-32 -22,-72 -22,-119 0,-80 31,-143 94,-187 62,-44 151,-66 265,-66 110,0 216,24 319,72l-74 178c-46,-20 -88,-36 -128,-48 -39,-13 -80,-19 -121,-19 -73,0 -109,20 -109,59 0,23 12,42 35,58 24,16 75,41 155,72 70,29 123,56 155,81 33,25 58,53 74,86 15,33 23,71 23,116z"/>
 </g>
</svg>
