<?xml version="1.0" encoding="UTF-8"?>
<!DOCTYPE svg PUBLIC "-//W3C//DTD SVG 1.1//EN" "http://www.w3.org/Graphics/SVG/1.1/DTD/svg11.dtd">
<!-- Creator: CorelDRAW X7 -->
<svg xmlns="http://www.w3.org/2000/svg" xml:space="preserve" width="178.082mm" height="144.751mm" version="1.1" style="shape-rendering:geometricPrecision; text-rendering:geometricPrecision; image-rendering:optimizeQuality; fill-rule:evenodd; clip-rule:evenodd"
viewBox="0 0 17808 14475"
 xmlns:xlink="http://www.w3.org/1999/xlink">
 <defs>
  <style type="text/css">
   <![CDATA[
    .fil6 {fill:#234370}
    .fil2 {fill:#FEFEFE;fill-rule:nonzero}
    .fil3 {fill:#BDBFC1;fill-rule:nonzero}
    .fil8 {fill:#042757;fill-rule:nonzero}
    .fil5 {fill:#042757;fill-rule:nonzero}
    .fil7 {fill:#234370;fill-rule:nonzero}
    .fil9 {fill:#ED1C24;fill-rule:nonzero}
    .fil4 {fill:#ED1C24;fill-rule:nonzero}
    .fil0 {fill:#F0F0F0;fill-rule:nonzero}
    .fil1 {fill:#FEFEFE;fill-rule:nonzero}
   ]]>
  </style>
 </defs>
 <g id="Layer_x0020_1">
  <metadata id="CorelCorpID_0Corel-Layer"/>
  <path class="fil0" d="M13810 14430l-13213 -4547c-457,-158 -711,-622 -569,-1036l2865 -8321c142,-414 628,-623 1085,-468l13213 4549c455,158 709,620 566,1037l-2865 8318c-142,417 -627,625 -1082,468z"/>
  <path class="fil1" d="M473 7554c0,0 8194,2362 15163,-3483l-11658 -4013c0,0 -115,-45 -277,-51 -269,-7 -663,82 -821,552l-2407 6995z"/>
  <polygon class="fil2" points="899,6296 15763,11415 15748,11455 884,6340 "/>
  <path class="fil3" d="M4803 4201l87 -249 -8 -2 -168 -59c5,97 31,186 69,269 5,16 15,28 20,41z"/>
  <path class="fil3" d="M5067 2776l206 71 114 -325c-12,5 -22,8 -33,10 -116,59 -213,142 -287,244z"/>
  <path class="fil3" d="M4692 4366c-105,-152 -158,-335 -161,-521 -2,-5 0,-12 0,-17l-236 -79c3,134 41,264 109,376 64,112 158,203 275,272 15,12 30,25 48,35l5 -18c-13,-17 -28,-33 -40,-48z"/>
  <path class="fil3" d="M6114 4376l-48 -18 -82 232 -61 172c127,5 252,-17 369,-71 30,-18 58,-35 84,-53 53,-36 104,-76 147,-122l-61 -20 -348 -120z"/>
  <path class="fil3" d="M5225 4069l-53 -18 -140 407c5,0 7,5 13,7 15,10 30,23 45,33 46,26 92,48 143,66l251 87 150 -440 -356 -122 -53 -20z"/>
  <path class="fil3" d="M5174 2433c33,-20 64,-46 99,-61 59,-28 114,-48 173,-66 -71,-13 -142,-18 -211,-10 -229,20 -444,140 -577,338l232 81c73,-114 170,-208 284,-282z"/>
  <path class="fil3" d="M6571 3609l-221 -76 -190 546 109 36 348 124 61 20c2,-5 5,-7 7,-12l99 -287 84 -249 -297 -102z"/>
  <path class="fil3" d="M6911 3414c3,-36 3,-66 0,-102 -12,-234 -132,-455 -325,-592 -12,-2 -25,-10 -38,-15l-556 -191 -46 -15c-2,-2 -5,-2 -7,-2 -71,-23 -145,-33 -216,-36l-455 1311 79 25 53 20 333 115 284 -828 140 48 706 244 48 18z"/>
  <path class="fil3" d="M4752 3576c0,5 -2,10 0,15l237 82 188 -546 -239 -82 -186 531z"/>
  <path class="fil3" d="M4582 3518l183 -534 -228 -78 -191 546 234 81c2,-5 0,-10 2,-15z"/>
  <path class="fil4" d="M3089 8111l108 -316c5,-12 12,-23 28,-30 13,-5 25,-8 38,-3l165 57c15,5 25,12 30,28 8,13 8,25 3,41l-108 313c-5,13 -15,23 -28,31 -13,5 -26,7 -41,2l-162 -56c-15,-5 -25,-13 -31,-28 -7,-13 -7,-26 -2,-39zm213 69l105 -308 -159 -56 -105 311 159 53zm200 70l80 28 107 -311 -79 -28c-8,-2 -13,-5 -16,-13 -2,-7 -5,-15 -2,-20 2,-8 8,-13 15,-18 8,-3 13,-3 21,0l131 43 -124 365 52 18 38 -110c3,-6 8,-11 13,-16 8,-2 16,-2 23,0 5,3 10,5 16,13 2,8 2,15 0,20l-47 136c-2,8 -7,13 -12,16 -8,5 -16,5 -24,2l-210 -71c-8,-3 -13,-8 -15,-16 -3,-7 -5,-15 -3,-20 3,-8 8,-13 15,-16 6,-5 13,-5 21,-2zm583 259l-242 -82 64 -182c6,-16 13,-26 29,-31 13,-8 28,-8 43,-3l159 54 44 -128 -187 -64c-8,-3 -13,-8 -18,-16 -3,-5 -3,-13 0,-20 2,-8 7,-13 13,-16 7,-5 15,-5 23,-2l187 66c15,6 26,13 33,29 6,13 8,28 3,41l-44 128c-5,15 -15,26 -30,33 -13,6 -29,8 -42,3l-161 -56 -44 130 188 65c7,2 12,5 15,12 2,8 5,16 2,21 -2,8 -7,13 -15,18 -8,2 -13,2 -20,0zm539 -221l-36 100c-8,21 -21,39 -41,46 10,24 10,44 5,62l-36 103c-5,15 -16,25 -29,31 -12,7 -28,7 -43,2l-185 -61c-8,-3 -13,-8 -15,-16 -5,-8 -5,-13 -3,-20 3,-8 8,-13 16,-16 5,-5 12,-5 20,-2l185 64 36 -103c2,-8 2,-15 -3,-23 -2,-5 -8,-10 -15,-13l-105 -36c-8,-2 -13,-7 -16,-15 -2,-5 -5,-13 -2,-21 2,-7 7,-13 15,-15 8,-5 13,-5 21,-3l105 36c7,3 15,3 23,0 5,-5 10,-10 13,-15l36 -103 -188 -64c-7,-2 -13,-8 -15,-15 -5,-5 -5,-13 -3,-21 3,-8 8,-13 16,-15 5,-3 13,-5 20,-3l188 67c15,5 25,13 33,28 5,13 8,28 3,41zm1337 837l38 -108 -159 -56 87 -252c3,-8 8,-13 16,-15 5,-5 12,-5 20,-3 8,3 13,8 16,16 2,5 5,12 2,20l-69 200 105 36 51 -154c3,-8 8,-13 16,-15 7,-5 13,-5 20,-3 8,3 13,8 16,16 5,5 5,12 2,20l-54 154c8,3 13,8 16,16 5,5 5,12 2,20 -2,8 -7,13 -15,15 -5,6 -13,6 -21,3l-38 108c-3,8 -5,13 -13,18 -8,2 -15,2 -20,0 -8,-3 -13,-8 -18,-13 -3,-8 -3,-15 0,-23zm320 82l121 41 44 -128 -157 -57 80 -233 184 64c8,2 13,8 16,15 5,5 5,13 2,21 -2,7 -7,13 -15,15 -5,3 -13,5 -21,3l-130 -46 -47 128 106 36c15,5 25,15 33,28 5,15 8,28 3,44l-44 128c-5,15 -15,26 -28,33 -16,5 -29,8 -44,3l-121 -44c-12,-2 -23,-10 -33,-18l-33 -30c-11,-8 -13,-18 -8,-31 3,-8 8,-13 13,-16 8,-5 15,-5 20,-2 6,2 11,5 18,10l29 28c5,3 7,5 12,8zm442 -254l25 8c8,2 13,7 16,15 5,8 5,13 2,21 -2,7 -7,12 -15,15 -5,5 -13,5 -20,2l-60 175 185 64c8,3 13,5 16,13 5,8 5,15 2,23l-46 136c-3,5 -8,10 -15,16 -8,2 -16,2 -21,0l-213 -72c-5,-3 -13,-8 -15,-16 -3,-5 -3,-13 -3,-20l126 -362c2,-8 8,-13 15,-18 5,-3 13,-3 21,0zm-69 287l-31 85 159 54 28 -82 -156 -57zm410 -115l8 -23c2,-8 8,-13 15,-16 8,-2 13,-2 21,0l238 82 -56 162c-3,8 -8,13 -15,18l-126 49 -44 123c-2,8 -5,13 -13,15 -7,3 -15,6 -20,3 -8,-3 -13,-8 -18,-15 -3,-8 -3,-13 0,-21l44 -133c5,-11 10,-16 17,-21l126 -49 34 -97 -160 -54c-7,13 -20,18 -33,13 -8,-3 -13,-8 -15,-16 -3,-5 -5,-12 -3,-20zm1440 847l44 -129c5,-15 15,-25 28,-33 15,-5 28,-8 43,-2l54 -154c3,-8 8,-13 13,-16 8,-5 16,-5 23,-2l105 35c8,3 13,8 16,16 5,8 5,13 2,20l-54 157c16,5 26,13 31,26 8,15 8,28 3,43l-44 129c-5,15 -15,25 -28,33 -13,5 -28,8 -41,3l-159 -54c-16,-6 -26,-16 -34,-31 -5,-13 -7,-28 -2,-41zm213 -275l-44 128 54 21 44 -131 -54 -18zm-116 164l-43 129 159 54 44 -129 -160 -54zm511 378l-26 -11c-7,0 -12,-5 -15,-12 -5,-8 -5,-13 -3,-21 3,-8 8,-13 16,-15 5,-6 13,-6 20,-3l59 -172 -184 -64c-8,-3 -13,-8 -16,-15 -2,-6 -5,-13 -2,-21l48 -136c3,-8 6,-13 13,-15 8,-6 16,-6 21,-3l213 74c8,3 13,6 15,13 3,8 3,16 0,21l-123 362c-3,7 -8,13 -15,15 -5,5 -13,5 -21,3zm69 -288l29 -82 -157 -56 -31 84 159 54zm124 295l79 29 108 -311 -80 -28c-7,-3 -12,-5 -15,-13 -5,-8 -5,-13 -3,-21 3,-7 8,-12 16,-18 5,-2 13,-2 20,0l131 47 -126 362 54 18 36 -111c3,-5 8,-10 16,-15 7,-3 13,-3 20,0 8,2 13,7 16,13 5,7 5,15 2,23l-46 133c-3,8 -8,13 -15,18 -6,3 -13,3 -21,0l-210 -72c-8,-2 -13,-7 -18,-15 -3,-8 -3,-13 0,-21 2,-7 7,-13 13,-15 7,-5 15,-5 23,-3zm580 260l-239 -83 64 -182c3,-13 13,-25 28,-31 13,-7 29,-7 41,-2l160 54 46 -129 -190 -64c-8,-2 -13,-7 -16,-15 -2,-5 -2,-13 0,-21 3,-7 6,-12 13,-15 8,-3 13,-5 21,-3l190 67c12,5 25,13 30,28 8,13 8,29 3,41l-44 129c-5,15 -12,25 -28,33 -13,5 -28,8 -43,3l-160 -57 -43 131 185 64c7,3 12,8 18,13 2,8 2,15 0,23 -3,5 -8,10 -13,16 -8,2 -16,2 -23,0zm1935 667l-239 -82 62 -183c5,-15 15,-25 28,-33 15,-8 28,-8 43,-2l160 53 43 -125 -187 -67c-8,-3 -13,-8 -16,-13 -5,-8 -5,-15 -2,-20 2,-8 8,-13 15,-18 5,-3 13,-3 21,0l187 64c16,5 26,15 34,28 5,15 7,28 2,44l-44 128c-5,13 -15,26 -28,31 -15,7 -28,7 -43,2l-160 -54 -46 129 188 64c7,2 12,8 15,15 5,5 5,13 3,21 -3,8 -8,13 -16,15 -5,3 -13,5 -20,3zm328 82l39 -108 -159 -56 87 -252c2,-8 7,-13 15,-15 8,-5 16,-5 21,-3 7,3 13,8 15,16 5,5 5,12 3,20l-70 200 106 36 54 -154c2,-7 7,-13 12,-15 8,-5 16,-5 23,-3 6,3 11,8 16,16 2,5 2,13 0,20l-51 154c5,3 10,8 15,16 2,5 2,12 0,20 -3,8 -8,13 -13,16 -8,5 -15,5 -23,2l-36 108c-3,8 -8,13 -15,18 -5,2 -13,2 -21,0 -8,-3 -13,-8 -15,-13 -5,-8 -5,-15 -3,-23zm321 82l123 41 44 -128 -159 -57 79 -233 185 64c8,3 13,8 18,15 3,6 3,13 0,21 -3,8 -8,13 -13,15 -8,3 -15,5 -23,3l-131 -46 -43 128 105 36c13,5 25,15 31,28 7,16 7,28 2,44l-44 128c-5,15 -15,26 -28,33 -13,6 -28,8 -43,3l-121 -44c-10,-2 -21,-10 -31,-18l-36 -30c-7,-8 -10,-18 -7,-31 2,-8 7,-13 15,-16 5,-5 13,-5 20,-2 6,2 11,5 16,10l31 28c2,3 5,6 10,8zm441 -254l29 8c5,2 10,7 15,15 3,8 3,13 0,21 -3,7 -8,12 -13,15 -8,5 -15,5 -23,3l-59 174 185 64c8,3 13,5 18,13 2,8 2,15 0,23l-46 136c-3,5 -8,10 -16,16 -5,2 -13,2 -20,0l-211 -72c-7,-3 -13,-8 -15,-16 -5,-5 -5,-12 -3,-20l126 -362c3,-8 5,-13 13,-18 8,-3 15,-3 20,0zm-69 287l-28 85 159 54 28 -82 -159 -57z"/>
  <path class="fil5" d="M2681 9244l79 28 107 -307 -79 -26c-8,-2 -13,-7 -15,-15 -3,-8 -6,-13 -3,-20 3,-8 8,-13 15,-15 8,-6 13,-6 21,-3l129 46 -122 358 51 18 38 -107c3,-8 8,-13 13,-18 7,-2 15,-2 23,0 5,3 10,8 15,13 2,8 2,15 0,23l-46 134c-2,5 -7,11 -13,16 -7,2 -15,2 -22,0l-209 -72c-7,-2 -12,-7 -15,-15 -2,-5 -5,-12 -2,-20 2,-8 7,-13 15,-15 5,-3 12,-5 20,-3zm356 127l106 -312c5,-13 16,-23 28,-31 13,-5 28,-7 41,-2l163 56c12,5 22,12 27,28 8,12 8,25 3,40l-107 310c-5,13 -12,23 -25,31 -13,7 -28,7 -41,2l-162 -56c-13,-5 -23,-13 -31,-28 -5,-12 -7,-25 -2,-38zm211 69l106 -305 -157 -56 -107 307 158 54zm543 -163l-335 285c-5,5 -10,5 -18,2 -8,-2 -13,-7 -15,-13 -5,-7 -5,-15 -3,-22 0,-5 5,-11 13,-18l333 -285c5,-5 12,-5 20,-2 5,2 13,7 15,13 5,7 5,12 3,20 0,7 -5,13 -13,20zm38 363l79 28 107 -307 -79 -28c-8,-2 -13,-8 -15,-13 -3,-7 -3,-15 0,-23 2,-5 5,-10 12,-15 8,-2 13,-2 21,0l132 43 -125 361 51 18 38 -109c3,-8 8,-13 13,-16 7,-2 15,-2 23,0 7,0 12,6 15,13 3,8 3,13 0,20l-46 135c-2,8 -7,13 -12,15 -8,5 -16,5 -21,3l-211 -71c-7,-3 -12,-8 -15,-16 -2,-7 -2,-15 -2,-20 2,-7 7,-13 15,-18 7,-2 13,-2 20,0zm727 -94l-33 99c-8,23 -23,39 -41,46 8,23 10,43 3,61l-36 102c-3,15 -13,25 -28,33 -13,5 -28,5 -41,0l-185 -61c-5,-3 -13,-8 -15,-15 -3,-8 -3,-13 0,-21 2,-7 5,-12 12,-15 8,-5 16,-5 21,-3l183 64 35 -102c3,-7 3,-15 0,-22 -2,-6 -7,-11 -15,-13l-104 -36c-8,-2 -13,-7 -18,-15 -3,-5 -3,-13 0,-20 3,-8 8,-13 13,-16 7,-5 15,-5 23,-2l104 35c7,3 12,3 20,0 8,-5 13,-10 13,-15l35 -101 -185 -64c-8,-2 -13,-7 -15,-15 -3,-5 -3,-13 0,-20 2,-8 5,-13 12,-16 8,-2 13,-5 21,-2l188 66c12,5 22,13 30,28 8,12 8,28 3,40z"/>
  <path class="fil5" d="M10818 12047l81 28 104 -307 -76 -28c-7,-3 -12,-8 -18,-13 -2,-8 -2,-15 0,-23 3,-7 8,-13 13,-15 8,-3 15,-3 23,0l130 43 -125 361 53 18 36 -110c3,-7 8,-12 15,-15 5,-2 13,-5 21,-2 7,2 12,7 15,15 2,7 5,12 2,20l-48 135c-2,7 -5,12 -13,15 -7,5 -12,5 -20,3l-211 -74c-5,-3 -12,-8 -15,-13 -3,-7 -3,-15 0,-23 3,-5 8,-10 13,-15 7,-2 15,-2 20,0zm358 125l107 -310c5,-16 13,-26 25,-31 15,-7 28,-7 41,-2l162 55c13,3 23,13 31,26 5,13 8,28 2,41l-106 309c-5,16 -15,26 -28,31 -13,8 -26,8 -41,2l-160 -55c-15,-3 -25,-13 -30,-26 -8,-13 -8,-28 -3,-40zm211 71l104 -308 -157 -53 -107 305 160 56zm541 -165l-333 284c-5,5 -12,5 -18,3 -7,-3 -12,-6 -17,-13 -5,-8 -5,-13 -3,-20 3,-8 8,-13 13,-18l335 -287c5,-3 10,-5 18,-3 8,3 13,8 18,13 2,8 5,15 2,23 -2,5 -7,12 -15,18zm41 365l78 26 104 -308 -76 -25c-7,-3 -12,-8 -17,-15 -3,-5 -3,-13 0,-21 2,-7 7,-12 12,-15 8,-5 15,-5 23,-2l130 45 -125 358 53 18 36 -106c3,-8 8,-13 15,-16 8,-5 13,-5 21,-2 7,2 12,7 15,12 5,8 5,16 2,23l-45 135c-3,5 -8,13 -16,15 -7,3 -12,3 -20,0l-211 -71c-5,-2 -10,-8 -15,-15 -2,-5 -2,-13 0,-20 3,-8 8,-13 13,-16 7,-2 15,-2 23,0zm462 -190l8 -21c2,-7 7,-12 15,-17 5,-3 12,-3 20,0l236 81 -56 160c-2,8 -7,15 -17,18l-122 48 -43 122c-3,8 -8,13 -13,15 -8,5 -15,5 -23,3 -5,-3 -13,-8 -15,-16 -3,-5 -5,-12 -3,-20l46 -132c5,-10 10,-15 18,-18l124 -50 33 -97 -157 -53c-8,12 -21,17 -33,12 -8,-2 -13,-7 -16,-12 -5,-8 -5,-16 -2,-23z"/>
  <path class="fil6" d="M2145 4500l419 -76 422 -76c87,-7 122,47 97,120l-145 400 -145 404c-37,79 -101,82 -152,24l-274 -325 -277 -328c-50,-71 -21,-129 55,-143z"/>
  <path class="fil7" d="M3254 4460l-328 935c-22,49 -82,15 -71,-24l328 -936c15,-56 86,-33 71,25z"/>
  <g id="_2519856038656">
   <g>
    <path class="fil8" d="M8282 4613c-64,-22 -107,-63 -127,-122l-8 -3c-10,48 -17,75 -20,82l-76 222 -149 -52 272 -788 121 42 -3 79 7 2c54,-42 115,-51 183,-28 65,23 107,65 126,128 19,62 14,138 -17,227 -20,58 -46,106 -79,143 -32,37 -67,62 -107,73 -39,12 -80,10 -123,-5zm111 -463c-37,-13 -68,-11 -93,6 -24,17 -46,51 -65,103l-6 16c-20,59 -26,104 -17,136 9,31 32,53 70,67 67,23 119,-21 157,-131 19,-54 25,-97 18,-130 -8,-32 -29,-55 -64,-67zm550 176c-32,-11 -60,-10 -85,4 -25,14 -45,39 -61,75l210 72c12,-37 12,-69 1,-95 -12,-27 -34,-45 -65,-56zm-139 468c-88,-30 -148,-79 -181,-144 -33,-66 -34,-144 -3,-233 32,-91 79,-154 142,-189 63,-34 135,-37 216,-9 78,27 130,70 158,129 28,59 29,127 2,204l-25 73 -353 -122c-13,43 -12,80 3,112 15,32 44,56 87,70 32,12 65,19 97,22 31,3 66,3 103,-1l-40 116c-31,4 -62,4 -94,0 -32,-4 -69,-13 -112,-28zm787 -363c20,7 37,14 49,22l-60 136c-11,-7 -25,-14 -42,-20 -48,-17 -89,-17 -124,-2 -35,15 -60,45 -76,89l-96 278 -149 -51 189 -548 113 40 -10 99 8 3c27,-25 59,-42 94,-50 35,-9 70,-8 104,4zm336 558c-20,56 -54,93 -103,108 -49,16 -113,11 -190,-16 -40,-14 -73,-28 -99,-43 -26,-15 -50,-32 -71,-51l43 -124c23,23 50,45 82,65 32,21 61,36 87,45 55,19 87,13 98,-19 4,-11 4,-22 -1,-32 -5,-10 -14,-22 -28,-38 -15,-15 -35,-34 -60,-57 -36,-32 -61,-59 -75,-81 -15,-22 -23,-44 -26,-66 -2,-23 2,-48 12,-77 17,-48 48,-79 95,-93 47,-13 105,-8 174,16 66,23 125,59 178,109l-82 92c-24,-21 -46,-40 -67,-55 -21,-16 -45,-28 -69,-37 -44,-15 -71,-11 -79,13 -4,14 -1,28 10,42 10,15 36,40 78,76 36,32 62,59 77,81 14,22 23,44 26,67 2,23 -1,48 -10,75zm233 -509c17,-48 52,-63 106,-44 54,18 73,52 56,101 -8,23 -21,39 -39,47 -18,8 -40,7 -67,-2 -54,-19 -73,-53 -56,-102zm-83 743l-149 -51 189 -548 149 52 -189 547zm445 154l-3 -84 -4 -2c-36,23 -70,37 -100,40 -31,3 -68,-3 -111,-18 -52,-18 -88,-48 -108,-88 -20,-41 -20,-89 -1,-144 20,-58 55,-94 105,-108 50,-13 117,-7 200,18l96 30 8 -24c19,-55 1,-93 -56,-113 -44,-15 -100,-19 -168,-13l-15 -118c75,-11 150,-3 227,23 73,25 124,61 152,106 28,46 31,101 8,167l-126 364 -104 -36zm44 -269l-59 -18c-44,-13 -79,-17 -105,-10 -26,7 -44,26 -54,55 -15,42 2,71 50,88 35,12 66,12 94,-1 27,-13 47,-36 58,-69l16 -45zm356 343c14,5 28,9 42,12 14,2 26,3 34,4l-21 62c-10,1 -25,0 -43,-3 -18,-3 -34,-7 -47,-12 -104,-36 -137,-108 -99,-217l110 -320 -77 -26 14 -39 88 -8 74 -102 47 16 -43 124 156 54 -22 63 -156 -53 -109 315c-11,33 -12,60 -3,83 10,22 28,38 55,47zm535 -362c23,8 44,17 62,28l-38 72c-20,-13 -39,-22 -56,-28 -43,-15 -86,-10 -129,14 -43,25 -74,63 -92,116l-100 288 -81 -29 186 -536 67 23 -25 103 4 1c32,-28 65,-47 99,-56 35,-9 69,-8 103,4zm226 690l10 -82 -4 -2c-38,25 -73,38 -104,41 -30,3 -65,-3 -105,-16 -54,-19 -90,-47 -111,-85 -21,-38 -22,-82 -5,-133 38,-108 144,-135 319,-80l92 28 11 -33c15,-42 17,-76 6,-102 -12,-27 -37,-47 -77,-61 -45,-15 -100,-19 -166,-11l-3 -71c31,-5 64,-6 98,-4 35,3 68,10 99,21 64,22 107,53 128,92 21,39 20,90 -1,152l-127 366 -60 -20zm-164 -121c51,17 95,17 134,0 38,-18 66,-52 83,-102l17 -48 -83 -25c-65,-20 -115,-26 -150,-18 -34,8 -58,31 -71,68 -10,29 -9,55 3,76 13,22 35,38 67,49zm450 220l-18 -607 87 30 5 358c1,83 -1,137 -4,161l4 1c10,-16 33,-48 71,-96 38,-47 122,-151 252,-311l87 31 -389 465 -95 -32zm548 201c-79,-28 -133,-74 -162,-138 -29,-64 -29,-139 1,-225 30,-87 75,-148 135,-184 60,-36 126,-42 198,-17 67,23 113,64 136,121 24,58 24,123 -1,196l-18 51 -370 -128c-20,64 -20,117 -2,160 19,43 56,74 111,93 58,20 119,28 184,23l-25 73c-33,2 -64,2 -91,-1 -28,-4 -59,-12 -96,-24zm147 -496c-43,-15 -82,-13 -117,6 -36,19 -64,53 -86,101l281 97c17,-51 19,-94 6,-130 -14,-35 -41,-60 -84,-74zm215 609l-82 -28 264 -762 81 28 -263 762z"/>
    <path class="fil9" d="M13675 6468l121 -349c15,-43 17,-78 6,-106 -11,-27 -36,-48 -74,-61 -51,-18 -93,-16 -127,5 -35,20 -62,61 -83,121l-104 300 -81 -28 121 -349c15,-43 17,-78 6,-106 -11,-28 -36,-48 -75,-62 -51,-17 -93,-15 -127,7 -35,23 -64,69 -88,138l-97 281 -81 -28 185 -536 66 23 -12 78 4 1c24,-21 53,-34 86,-39 33,-5 67,-1 101,11 84,29 129,78 133,148l4 1c26,-23 57,-37 93,-43 36,-5 73,-2 112,12 61,21 101,52 120,94 19,41 17,96 -6,165l-121 350 -82 -28zm746 -43c-31,87 -76,148 -137,182 -61,34 -131,37 -208,11 -48,-17 -87,-43 -116,-78 -30,-36 -47,-78 -53,-127 -6,-49 1,-102 21,-159 30,-87 76,-148 136,-181 61,-34 130,-37 208,-11 75,26 126,72 153,137 27,65 25,141 -4,226zm-409 -141c-24,68 -28,125 -13,171 15,45 49,77 102,95 53,19 100,15 140,-12 40,-26 72,-73 96,-142 23,-68 27,-125 12,-170 -15,-45 -50,-77 -104,-95 -53,-19 -99,-15 -138,10 -39,26 -71,73 -95,143zm766 565l120 -347c15,-43 17,-79 4,-108 -12,-28 -40,-50 -82,-64 -56,-20 -103,-19 -139,2 -37,22 -67,67 -91,137l-98 281 -81 -28 186 -536 66 23 -13 78 4 1c26,-21 57,-33 92,-37 35,-4 71,0 108,13 64,22 108,55 129,97 22,42 21,98 -2,166l-122 350 -81 -28zm412 154c-79,-27 -133,-73 -162,-137 -30,-64 -29,-140 0,-225 30,-87 75,-148 136,-184 60,-37 126,-42 198,-17 67,23 112,63 136,121 24,58 23,123 -2,195l-17 52 -370 -128c-20,63 -21,117 -2,160 19,43 56,74 111,93 57,20 119,28 184,23l-26 72c-33,3 -63,3 -90,-1 -28,-3 -60,-11 -96,-24zm147 -496c-43,-15 -82,-12 -118,7 -35,19 -63,52 -85,100l280 97c18,-51 20,-94 7,-129 -14,-35 -42,-60 -84,-75zm213 9l87 30 12 347c2,78 0,134 -4,167l4 2c10,-15 29,-41 56,-76 28,-36 115,-144 262,-326l87 30 -442 531c-44,52 -85,86 -125,101 -39,14 -81,14 -125,-1 -25,-9 -48,-20 -71,-34l23 -65c16,10 36,19 58,27 56,19 107,2 152,-53l56 -66 -30 -614z"/>
   </g>
   <path class="fil8" d="M8178 4878l-11 -5 54 -156 -55 -19 4 -11 121 41 -4 12 -54 -19 -55 157zm157 54l28 -81c4,-13 5,-23 2,-30 -4,-8 -11,-14 -22,-17 -15,-6 -27,-6 -37,0 -9,5 -17,16 -23,33l-24 69 -11 -4 62 -179 11 4 -20 57 -6 15 1 1c7,-6 15,-10 24,-10 8,-1 17,0 28,4 28,9 37,30 27,60l-29 82 -11 -4zm94 35c-18,-6 -30,-17 -36,-31 -7,-15 -6,-33 1,-53 7,-20 17,-34 31,-43 14,-8 29,-10 46,-4 14,5 24,14 29,28 5,13 5,28 -1,46l-4 9 -90 -31c-5,17 -6,31 -1,43 5,12 14,21 29,26 7,2 13,4 19,5 6,1 13,1 23,0l-4 11c-8,0 -15,0 -21,-1 -7,-1 -14,-3 -21,-5zm38 -121c-12,-4 -23,-3 -33,2 -10,5 -18,15 -24,30l77 27c5,-15 6,-27 2,-38 -3,-10 -11,-17 -22,-21zm221 208l-12 -4 -48 -184 -1 0c-5,18 -9,31 -12,40l-38 109 -11 -3 58 -169 11 5 48 183 1 0c4,-14 8,-27 13,-40l37 -109 12 4 -58 168zm87 33c-18,-7 -30,-17 -37,-32 -6,-15 -6,-32 1,-52 7,-20 18,-34 32,-43 14,-9 29,-10 45,-4 15,5 25,14 30,27 5,13 4,29 -2,46l-3 9 -90 -31c-6,18 -6,32 -1,44 4,12 14,20 29,25 7,3 13,4 19,5 6,1 13,1 23,1l-4 10c-8,1 -15,1 -22,0 -6,-1 -13,-3 -20,-5zm38 -121c-12,-5 -23,-4 -33,2 -10,5 -18,15 -25,30l78 26c5,-14 5,-27 2,-37 -4,-10 -11,-18 -22,-21zm82 88l-22 -76 13 4 19 66 55 -40 13 4 -64 46 24 80 -14 -4 -20 -69 -58 42 -13 -5 67 -48zm111 -30l-28 81c-5,12 -5,22 -2,30 4,8 11,13 22,17 15,5 27,5 37,0 9,-5 17,-16 23,-33l24 -69 11 4 -43 125 -10 -3 4 -18 -1 -1c-12,11 -29,12 -50,5 -28,-10 -37,-30 -27,-60l29 -82 11 4zm167 161c-4,11 -11,19 -22,22 -10,3 -23,2 -39,-4 -17,-6 -29,-13 -37,-21l4 -13c11,11 23,19 37,24 12,4 22,5 30,3 8,-2 13,-6 15,-13 2,-6 2,-12 -2,-18 -4,-6 -11,-14 -21,-22 -11,-9 -18,-15 -22,-20 -4,-6 -6,-10 -8,-16 -1,-4 0,-10 2,-16 3,-9 9,-15 19,-18 10,-3 22,-2 36,3 13,5 25,12 36,21l-8 9c-11,-9 -21,-16 -32,-19 -10,-4 -19,-5 -26,-4 -7,2 -11,5 -13,11 -3,7 -2,13 1,18 3,6 11,13 23,23 10,8 17,14 21,19 4,5 6,10 7,15 1,5 1,11 -1,16zm200 36c-7,20 -18,34 -31,42 -14,8 -30,9 -47,3 -11,-3 -20,-9 -27,-18 -6,-8 -10,-18 -11,-29 -1,-11 1,-24 5,-37 7,-20 18,-34 32,-42 13,-8 29,-9 46,-3 17,6 29,16 35,31 5,15 5,33 -2,53zm-99 -34c-6,17 -6,31 -2,44 4,12 13,20 27,25 14,5 26,4 37,-3 11,-7 19,-19 25,-36 6,-18 7,-32 2,-45 -4,-12 -13,-20 -27,-25 -14,-5 -26,-4 -37,3 -10,7 -19,19 -25,37zm191 7l-29 -10 -40 115 -12 -4 40 -115 -23 -8 2 -7 25 4 3 -10c6,-15 12,-25 20,-31 8,-5 19,-5 32,-1 7,3 13,6 19,10l-6 9c-5,-4 -11,-7 -17,-9 -9,-3 -16,-3 -22,1 -5,4 -10,12 -14,24l-4 12 29 10 -3 10zm85 158l-12 -4 54 -157 -54 -19 4 -11 121 42 -4 11 -55 -19 -54 157zm178 -8c-7,20 -18,34 -31,42 -14,8 -30,9 -47,3 -11,-4 -20,-10 -26,-18 -7,-8 -11,-18 -12,-29 -1,-12 1,-24 5,-37 7,-20 18,-34 32,-42 14,-8 29,-9 46,-3 17,6 29,16 35,31 5,15 5,32 -2,53zm-99 -35c-6,18 -6,32 -2,44 4,13 13,21 27,26 14,5 26,4 37,-3 11,-7 19,-19 25,-37 6,-17 7,-32 2,-44 -4,-12 -13,-20 -27,-25 -14,-5 -26,-4 -37,3 -10,7 -19,19 -25,36zm158 -15l-28 81c-5,13 -5,23 -2,30 4,8 11,13 22,17 15,5 27,5 37,0 9,-5 17,-16 23,-33l24 -69 11 4 -43 125 -10 -3 4 -18 -1 0c-12,10 -29,11 -50,4 -28,-10 -37,-30 -27,-60l29 -82 11 4zm172 57c5,2 10,4 16,7l-6 11c-5,-4 -10,-6 -15,-8 -11,-4 -21,-2 -31,4 -10,7 -18,17 -22,31l-24 69 -12 -4 44 -125 9 4 -6 23 0 0c9,-8 16,-12 24,-14 7,-2 14,-1 23,2zm2 143l-11 -4 43 -125 11 4 -43 125zm42 -164c3,-7 7,-10 11,-8 3,1 4,2 5,4 1,3 0,6 -1,9 -1,4 -3,6 -5,8 -2,1 -4,2 -6,1 -5,-2 -6,-6 -4,-14zm82 171c-4,11 -12,18 -22,21 -11,3 -24,2 -39,-4 -17,-5 -30,-12 -38,-21l5 -12c10,10 22,18 36,23 13,4 23,5 30,3 8,-1 13,-6 16,-13 2,-6 1,-12 -2,-18 -4,-6 -11,-13 -21,-21 -11,-9 -19,-16 -22,-21 -4,-5 -7,-10 -8,-15 -1,-5 -1,-11 1,-16 3,-10 10,-16 20,-19 9,-2 21,-1 35,4 14,4 26,11 36,21l-8 8c-10,-9 -21,-15 -31,-19 -10,-4 -19,-5 -26,-3 -7,1 -12,5 -14,11 -2,6 -2,12 2,18 3,5 10,13 22,22 10,8 17,15 21,20 4,5 7,10 8,15 1,5 1,10 -1,16zm169 95l29 -82c4,-12 5,-22 2,-29 -3,-8 -9,-13 -19,-16 -13,-5 -24,-4 -32,0 -9,5 -16,15 -21,31l-25 73 -12 -4 30 -86c7,-21 1,-35 -18,-41 -13,-5 -24,-4 -33,1 -8,6 -16,17 -21,34l-24 69 -12 -4 44 -125 9 3 -4 18 1 0c6,-5 12,-8 20,-9 7,-1 15,-1 23,2 19,7 29,19 30,35l0 1c7,-6 14,-10 22,-11 9,-2 17,-1 26,2 13,5 22,12 27,22 4,9 3,22 -2,38l-28 82 -12 -4zm67 -8l1 3c-13,19 -26,35 -39,49l-8 -3c14,-19 24,-37 33,-53l13 4zm97 64l-12 -4 58 -168 93 32 -4 11 -81 -28 -24 71 76 27 -4 11 -76 -27 -26 75zm108 38l-12 -4 44 -125 11 4 -43 125zm42 -164c3,-8 6,-11 11,-9 3,1 4,2 5,5 0,2 0,5 -1,9 -1,3 -3,6 -5,7 -2,2 -4,2 -6,1 -5,-2 -6,-6 -4,-13zm80 206l28 -81c4,-13 5,-23 1,-30 -3,-8 -10,-14 -21,-17 -15,-6 -28,-6 -37,0 -10,5 -17,16 -23,33l-24 69 -11 -4 43 -125 9 3 -3 18 0 0c13,-10 30,-12 50,-4 29,9 38,30 27,60l-28 82 -11 -4zm120 41l4 -20 -1 -1c-9,6 -17,10 -25,11 -8,1 -16,0 -25,-3 -13,-5 -21,-11 -26,-20 -4,-8 -5,-18 -1,-29 4,-13 13,-20 25,-23 13,-4 28,-2 48,4l24 8 3 -9c4,-12 5,-21 2,-29 -3,-8 -10,-13 -20,-17 -12,-4 -25,-5 -40,-3l-1 -11c16,-2 31,-1 44,4 14,5 23,12 28,21 4,10 3,22 -2,37l-29 83 -8 -3zm-43 -24c13,5 25,5 35,0 11,-5 18,-14 23,-28l4 -12 -22 -7c-18,-5 -31,-7 -40,-5 -9,3 -16,8 -19,18 -3,8 -2,15 1,21 3,6 9,10 18,13zm172 69l28 -81c4,-13 5,-23 1,-30 -3,-8 -10,-13 -21,-17 -15,-5 -27,-5 -37,0 -9,5 -17,16 -23,33l-24 69 -11 -4 43 -125 10 3 -4 18 1 0c12,-10 29,-11 50,-4 28,10 37,30 26,60l-28 82 -11 -4zm93 35c-17,-6 -29,-17 -36,-31 -6,-15 -5,-33 1,-53 8,-20 18,-35 33,-43 14,-8 31,-8 49,-2 11,4 20,9 29,16l-7 9c-9,-7 -18,-12 -26,-15 -15,-5 -28,-4 -40,2 -11,7 -19,19 -25,37 -6,17 -7,32 -2,44 4,12 14,21 28,26 11,3 22,5 33,4l-3 11c-9,1 -21,-1 -34,-5zm106 36c-18,-6 -31,-16 -37,-31 -6,-15 -6,-32 1,-52 7,-20 17,-35 31,-43 14,-9 30,-10 46,-4 15,5 25,14 30,27 5,13 4,28 -2,46l-3 9 -90 -31c-6,17 -6,32 -2,44 5,12 15,20 29,25 7,2 14,4 20,5 5,1 13,1 22,1l-3 10c-8,1 -16,0 -22,0 -6,-1 -13,-3 -20,-6zm38 -121c-12,-4 -23,-3 -33,2 -10,6 -19,16 -25,30l77 27c5,-14 6,-27 3,-37 -4,-11 -11,-18 -22,-22zm171 191l4 -21 -1 0c-9,6 -17,9 -25,10 -8,2 -16,1 -25,-3 -13,-4 -21,-10 -26,-19 -4,-9 -5,-18 -1,-30 4,-12 13,-19 25,-23 13,-3 29,-1 48,5l24 7 3 -8c4,-12 5,-22 2,-29 -3,-8 -10,-14 -20,-17 -12,-4 -25,-5 -40,-3l-1 -12c16,-1 31,0 45,5 13,5 22,12 27,21 4,10 3,22 -2,37l-29 83 -8 -3zm-43 -24c13,5 25,5 35,0 11,-5 18,-14 23,-28l4 -12 -22 -7c-18,-5 -31,-7 -40,-5 -9,2 -16,8 -19,18 -3,8 -2,15 1,21 3,6 9,10 18,13zm172 69l28 -81c4,-13 5,-23 1,-30 -3,-8 -10,-14 -21,-17 -15,-6 -27,-6 -37,-1 -9,6 -17,17 -23,34l-24 69 -11 -4 43 -125 10 3 -4 18 1 0c12,-10 29,-12 50,-4 28,9 37,30 26,60l-28 82 -11 -4zm134 -96c9,3 16,7 22,13 5,5 9,13 12,23l0 0c3,-10 6,-19 10,-29l15 -45 11 4 -62 179 -7 -3 4 -20 -1 0c-15,11 -31,14 -48,7 -18,-6 -29,-16 -34,-29 -6,-14 -5,-31 2,-52 8,-22 18,-37 31,-45 13,-8 28,-9 45,-3zm-3 10c-14,-5 -26,-3 -36,4 -10,7 -19,20 -25,38 -12,36 -5,58 23,67 14,5 26,5 35,-1 10,-6 18,-18 24,-37l1 -2c7,-20 8,-35 5,-45 -4,-11 -13,-19 -27,-24zm154 184l-12 -4 55 -157 -55 -19 4 -11 121 42 -4 11 -55 -19 -54 157zm103 39c-18,-7 -31,-17 -37,-32 -6,-15 -6,-32 1,-52 7,-20 18,-34 32,-43 13,-9 29,-10 45,-4 15,5 25,14 30,27 5,13 4,29 -2,46l-3 9 -90 -31c-6,18 -6,32 -2,44 5,12 15,20 29,25 8,3 14,4 20,5 5,1 13,1 22,1l-3 10c-8,1 -15,1 -22,0 -6,-1 -13,-3 -20,-5zm38 -121c-12,-5 -23,-4 -33,2 -10,5 -18,15 -25,30l77 26c5,-14 6,-27 3,-37 -4,-10 -11,-18 -22,-21zm83 163c-18,-7 -30,-17 -36,-32 -6,-15 -6,-32 1,-52 7,-21 18,-35 33,-43 14,-8 31,-9 49,-3 11,4 20,10 29,17l-7 9c-9,-7 -18,-12 -26,-15 -15,-6 -29,-5 -40,2 -11,7 -20,19 -26,37 -5,17 -6,31 -2,43 5,13 14,21 29,26 11,4 22,6 33,5l-3 11c-10,1 -21,-1 -34,-5zm143 46l28 -81c4,-12 5,-22 2,-30 -4,-7 -11,-13 -22,-17 -15,-5 -27,-5 -37,0 -9,5 -17,16 -23,33l-24 69 -11 -4 62 -179 11 4 -20 57 -6 16 1 0c7,-6 15,-9 24,-10 8,-1 17,1 28,4 28,10 37,30 27,61l-29 81 -11 -4zm132 46l28 -81c4,-13 5,-23 1,-30 -3,-8 -10,-14 -21,-17 -15,-6 -28,-6 -37,0 -10,5 -17,16 -23,33l-24 69 -11 -4 43 -125 9 3 -3 18 0 0c13,-10 30,-11 50,-4 29,10 38,30 27,60l-28 82 -11 -4zm169 -12c-7,21 -17,35 -31,43 -14,8 -30,9 -47,3 -11,-4 -20,-10 -26,-18 -7,-8 -11,-18 -12,-29 -1,-12 1,-24 6,-37 7,-20 17,-34 31,-42 14,-8 29,-9 47,-3 17,6 28,16 34,31 6,15 5,32 -2,52zm-98 -34c-6,17 -7,32 -3,44 4,13 13,21 27,26 14,5 26,4 37,-3 11,-7 19,-20 25,-37 6,-17 7,-32 3,-44 -5,-12 -14,-20 -28,-25 -13,-5 -26,-4 -36,3 -11,7 -19,19 -25,36zm115 110l-11 -4 62 -178 11 4 -62 178zm160 -14c-7,20 -18,34 -31,42 -14,8 -30,9 -47,3 -11,-4 -20,-10 -26,-18 -7,-8 -11,-18 -12,-29 -1,-12 1,-24 5,-37 7,-20 18,-34 32,-42 14,-8 29,-9 46,-3 17,6 29,16 35,31 5,15 5,32 -2,53zm-99 -35c-6,18 -6,32 -2,45 4,12 13,20 27,25 14,5 26,4 37,-3 11,-7 19,-19 25,-37 6,-17 7,-31 2,-44 -4,-12 -13,-20 -27,-25 -14,-5 -26,-4 -37,3 -10,7 -19,19 -25,36zm245 15l-2 8 -27 -7c4,11 4,22 1,32 -4,12 -12,20 -22,25 -11,5 -23,5 -36,0 -6,-2 -10,-3 -12,-5 -6,1 -10,3 -13,5 -4,2 -6,5 -8,9 -1,4 0,7 2,10 2,3 7,6 14,8l22 8c14,5 23,11 28,19 6,8 7,17 3,28 -5,13 -14,21 -27,25 -13,3 -29,2 -49,-5 -16,-6 -27,-13 -33,-22 -7,-9 -8,-19 -5,-30 3,-8 8,-14 16,-18 7,-4 16,-5 25,-4 -3,-3 -5,-7 -6,-10 -2,-4 -1,-8 0,-12 3,-8 11,-13 23,-16 -6,-6 -10,-12 -12,-20 -2,-8 -1,-16 2,-24 4,-13 12,-21 22,-26 11,-5 23,-5 36,0 8,2 14,5 18,9l40 13zm-151 111c-6,18 4,31 29,39 33,12 53,7 60,-14 3,-7 2,-14 -2,-19 -4,-5 -12,-10 -23,-14l-21 -7c-22,-8 -37,-3 -43,15zm46 -103c-3,9 -3,18 1,25 4,8 11,13 21,16 11,4 19,4 27,1 7,-4 13,-10 16,-20 4,-11 4,-20 0,-27 -4,-8 -11,-13 -21,-17 -10,-3 -19,-3 -27,1 -8,4 -13,11 -17,21zm103 -8l12 4 2 79c0,24 1,40 0,49l1 0c6,-9 17,-22 31,-39l50 -60 12 4 -106 126c-9,10 -15,17 -20,20 -4,3 -9,5 -14,5 -5,1 -10,0 -16,-2 -4,-1 -9,-4 -13,-7l3 -10c4,3 8,5 14,7 4,1 7,1 11,1 4,-1 7,-3 11,-6 4,-3 9,-8 15,-16 6,-7 10,-12 12,-14l-5 -141z"/>
   <polygon class="fil9" points="16139,6499 13251,5499 13258,5479 16146,6478 "/>
   <polygon class="fil9" points="16118,6561 13229,5561 13236,5541 16125,6540 "/>
  </g>
 </g>
</svg>
