<?xml version="1.0" encoding="UTF-8"?>
<!DOCTYPE svg PUBLIC "-//W3C//DTD SVG 1.1//EN" "http://www.w3.org/Graphics/SVG/1.1/DTD/svg11.dtd">
<!-- Creator: CorelDRAW X7 -->
<svg xmlns="http://www.w3.org/2000/svg" xml:space="preserve" width="333.954mm" height="35.987mm" version="1.1" style="shape-rendering:geometricPrecision; text-rendering:geometricPrecision; image-rendering:optimizeQuality; fill-rule:evenodd; clip-rule:evenodd"
viewBox="0 0 33395 3599"
 xmlns:xlink="http://www.w3.org/1999/xlink">
 <defs>
  <style type="text/css">
   <![CDATA[
    .fil1 {fill:#00414E;fill-rule:nonzero}
    .fil0 {fill:white;fill-rule:nonzero}
   ]]>
  </style>
 </defs>
 <g id="Layer_x0020_1">
  <metadata id="CorelCorpID_0Corel-Layer"/>
  <g id="_2519561595616">
   <path class="fil0" d="M10100 1263l-252 0 0 -977 -322 0 0 -210 896 0 0 210 -322 0 0 977zm815 -924c34,0 62,3 84,7l-19 232c-20,-5 -44,-8 -73,-8 -79,0 -140,21 -184,61 -44,41 -67,98 -67,171l0 461 -247 0 0 -907 188 0 36 153 12 0c28,-51 66,-92 114,-123 48,-31 100,-47 156,-47zm698 924l-48 -123 -6 0c-42,53 -85,89 -129,109 -44,21 -101,31 -172,31 -87,0 -156,-25 -206,-75 -50,-50 -75,-121 -75,-213 0,-96 34,-167 101,-213 67,-46 169,-71 305,-76l157 -5 0 -40c0,-92 -47,-138 -141,-138 -73,0 -158,22 -256,66l-82 -167c105,-54 221,-82 348,-82 121,0 215,27 280,80 65,53 97,133 97,242l0 604 -173 0zm-73 -420l-96 3c-72,2 -125,15 -160,39 -36,24 -53,60 -53,109 0,70 40,105 120,105 57,0 103,-17 138,-50 34,-33 51,-77 51,-132l0 -74zm623 420l-346 -907 259 0 176 517c19,65 31,127 36,186l5 0c3,-52 15,-114 37,-186l174 -517 259 0 -346 907 -254 0zm1012 -748c-53,0 -94,17 -124,50 -29,33 -46,80 -51,141l348 0c-1,-61 -17,-108 -48,-141 -31,-33 -73,-50 -125,-50zm35 765c-146,0 -260,-41 -343,-121 -82,-81 -123,-195 -123,-343 0,-152 38,-269 114,-352 76,-83 181,-125 315,-125 129,0 228,37 300,109 71,74 107,174 107,303l0 120 -585 0c2,70 23,125 62,165 39,40 94,59 164,59 55,0 107,-6 155,-17 49,-11 100,-29 153,-54l0 192c-43,21 -90,37 -139,48 -49,11 -109,16 -180,16zm725 -17l-247 0 0 -1263 247 0 0 1263zm1120 0l-286 -931 -7 0c10,190 15,316 15,379l0 552 -225 0 0 -1187 343 0 281 908 5 0 298 -908 342 0 0 1187 -235 0 0 -562c0,-26 1,-57 2,-91 1,-35 4,-127 11,-276l-8 0 -306 929 -230 0zm1149 -455c0,90 14,157 44,203 29,46 77,69 144,69 66,0 113,-22 142,-68 29,-46 43,-114 43,-204 0,-90 -14,-157 -43,-202 -29,-45 -77,-67 -144,-67 -66,0 -113,22 -143,67 -29,44 -43,111 -43,202zm627 0c0,148 -39,263 -117,347 -78,83 -186,125 -326,125 -87,0 -163,-19 -230,-58 -67,-38 -117,-92 -153,-164 -36,-71 -54,-155 -54,-250 0,-148 39,-263 116,-346 78,-82 186,-123 326,-123 87,0 164,19 231,57 66,38 117,92 153,163 36,71 54,154 54,249zm948 455l-248 0 0 -530c0,-65 -11,-114 -34,-147 -24,-33 -61,-49 -112,-49 -69,0 -119,23 -149,69 -31,46 -47,123 -47,230l0 427 -247 0 0 -907 189 0 33 116 14 0c28,-44 66,-77 114,-99 48,-23 103,-34 165,-34 105,0 186,29 240,86 55,57 82,139 82,247l0 591zm537 -748c-52,0 -93,17 -123,50 -30,33 -47,80 -51,141l347 0c-1,-61 -17,-108 -48,-141 -30,-33 -72,-50 -125,-50zm35 765c-146,0 -260,-41 -342,-121 -83,-81 -124,-195 -124,-343 0,-152 38,-269 114,-352 76,-83 181,-125 316,-125 128,0 228,37 299,109 72,74 107,174 107,303l0 120 -585 0c3,70 24,125 62,165 40,40 94,59 165,59 54,0 106,-6 155,-17 48,-11 99,-29 153,-54l0 192c-44,21 -90,37 -140,48 -49,11 -109,16 -180,16zm315 -924l271 0 171 510c15,45 25,97 30,158l5 0c6,-56 18,-109 35,-158l168 -510 266 0 -384 1023c-36,95 -86,166 -151,212 -65,48 -141,71 -229,71 -42,0 -84,-5 -125,-14l0 -196c30,7 62,11 97,11 44,0 82,-14 115,-41 33,-26 58,-67 77,-121l14 -44 -360 -901zm1958 -223c-149,0 -266,48 -351,143 -86,95 -129,226 -129,392 0,169 41,301 121,395 81,94 196,140 346,140 99,0 191,-12 274,-38l0 73c-78,28 -176,42 -294,42 -166,0 -297,-54 -393,-162 -96,-107 -144,-258 -144,-451 0,-121 23,-227 69,-319 45,-92 111,-163 197,-213 86,-50 185,-75 299,-75 116,0 219,21 311,64l-34 74c-86,-43 -177,-65 -272,-65zm948 1130l-20 -139 -7 0c-44,57 -90,97 -137,120 -47,24 -102,36 -166,36 -86,0 -154,-22 -202,-67 -48,-44 -72,-106 -72,-184 0,-86 36,-153 108,-201 71,-47 175,-73 311,-75l168 -5 0 -59c0,-83 -17,-147 -51,-190 -34,-42 -89,-64 -165,-64 -82,0 -166,23 -254,69l-30 -70c97,-46 192,-68 287,-68 97,0 169,25 217,75 48,50 72,129 72,235l0 587 -59 0zm-325 -56c94,0 169,-27 223,-81 54,-54 82,-129 82,-225l0 -87 -155 7c-124,6 -212,25 -265,58 -53,33 -79,84 -79,153 0,55 17,98 51,129 34,30 82,46 143,46zm923 -843c38,0 78,4 120,11l-15 78c-37,-10 -75,-14 -115,-14 -75,0 -136,32 -184,96 -49,63 -73,144 -73,241l0 487 -80 0 0 -882 68 0 8 159 6 0c36,-65 75,-110 116,-137 41,-26 91,-39 149,-39zm496 0c64,0 119,12 165,35 47,23 88,63 125,119l5 0c-3,-68 -5,-135 -5,-200l0 -318 80 0 0 1263 -53 0 -20 -134 -7 0c-67,100 -163,151 -289,151 -121,0 -214,-38 -279,-114 -64,-76 -96,-186 -96,-331 0,-153 32,-269 96,-350 63,-81 156,-121 278,-121zm0 73c-96,0 -169,34 -217,102 -48,68 -73,166 -73,295 0,251 97,376 291,376 100,0 173,-29 219,-87 47,-58 70,-154 70,-287l0 -14c0,-137 -23,-235 -68,-295 -46,-60 -120,-90 -222,-90zm1120 597c0,79 -30,140 -90,182 -60,42 -145,64 -256,64 -118,0 -212,-18 -281,-55l0 -86c89,44 183,66 281,66 87,0 153,-14 199,-43 45,-29 67,-68 67,-116 0,-44 -18,-82 -54,-112 -36,-30 -95,-60 -177,-89 -88,-32 -150,-60 -186,-83 -36,-23 -63,-49 -81,-78 -18,-29 -27,-64 -27,-106 0,-66 28,-118 83,-156 56,-39 133,-58 233,-58 95,0 186,18 271,54l-30 73c-87,-36 -167,-54 -241,-54 -72,0 -129,12 -171,36 -43,24 -64,57 -64,99 0,46 16,83 49,110 33,28 97,59 192,93 80,29 138,54 174,77 36,23 64,49 82,79 18,29 27,63 27,103z"/>
   <path class="fil1" d="M84 3193l-84 0 0 -1207 661 0 0 78 -577 0 0 512 545 0 0 78 -545 0 0 539zm1194 0l-21 -142 -7 0c-45,58 -91,99 -139,123 -47,24 -104,36 -168,36 -89,0 -157,-23 -206,-68 -49,-45 -74,-107 -74,-187 0,-88 37,-156 110,-204 73,-49 178,-74 317,-77l170 -5 0 -59c0,-86 -17,-150 -52,-193 -34,-44 -90,-66 -167,-66 -83,0 -169,24 -259,70l-30 -71c98,-46 196,-70 292,-70 99,0 172,26 221,77 48,51 73,131 73,240l0 596 -60 0zm-331 -57c96,0 172,-28 227,-83 55,-54 83,-130 83,-228l0 -88 -157 6c-126,6 -216,26 -269,59 -54,34 -81,86 -81,156 0,56 17,100 52,131 34,31 83,47 145,47zm944 74c-128,0 -229,-41 -301,-121 -73,-81 -109,-194 -109,-339 0,-148 38,-264 113,-347 75,-83 179,-124 309,-124 78,0 152,13 223,40l-22 73c-78,-26 -145,-39 -202,-39 -110,0 -194,34 -250,102 -57,68 -85,166 -85,294 0,120 28,215 85,284 56,68 136,103 238,103 81,0 156,-15 226,-44l0 76c-57,28 -132,42 -225,42zm431 -17l-81 0 0 -897 81 0 0 897zm-93 -1146c0,-53 18,-79 52,-79 17,0 31,7 40,20 10,14 15,34 15,59 0,24 -5,44 -15,58 -9,15 -23,22 -40,22 -34,0 -52,-27 -52,-80zm380 1146l-81 0 0 -1284 81 0 0 1284zm287 0l-82 0 0 -897 82 0 0 897zm-93 -1146c0,-53 17,-79 52,-79 17,0 30,7 40,20 9,14 14,34 14,59 0,24 -5,44 -14,58 -10,15 -23,22 -40,22 -35,0 -52,-27 -52,-80zm535 1092c52,0 97,-4 135,-13l0 65c-39,13 -85,19 -137,19 -79,0 -137,-21 -175,-64 -38,-42 -57,-109 -57,-199l0 -580 -132 0 0 -48 132 -37 42 -203 42 0 0 217 263 0 0 71 -263 0 0 569c0,69 12,120 36,153 24,33 62,50 114,50zm316 54l-82 0 0 -897 82 0 0 897zm-93 -1146c0,-53 17,-79 52,-79 17,0 30,7 40,20 9,14 14,34 14,59 0,24 -5,44 -14,58 -10,15 -23,22 -40,22 -35,0 -52,-27 -52,-80zm660 1163c-130,0 -232,-40 -305,-121 -73,-80 -109,-192 -109,-337 0,-143 35,-258 106,-344 70,-86 165,-129 284,-129 106,0 189,36 251,110 61,73 91,173 91,299l0 66 -646 0c1,124 30,218 86,284 56,65 137,98 242,98 52,0 96,-4 135,-11 39,-7 88,-23 148,-46l0 74c-51,22 -98,37 -141,45 -42,8 -90,12 -142,12zm-24 -860c-86,0 -155,28 -208,85 -52,58 -83,140 -91,248l554 0c0,-105 -22,-186 -67,-245 -45,-59 -108,-88 -188,-88zm1051 610c0,80 -31,142 -92,185 -61,43 -148,65 -260,65 -120,0 -215,-19 -286,-55l0 -89c91,45 186,68 286,68 89,0 156,-15 202,-44 46,-30 69,-69 69,-118 0,-45 -18,-83 -55,-114 -37,-30 -97,-61 -180,-90 -90,-33 -153,-61 -189,-84 -37,-24 -64,-50 -82,-80 -19,-29 -28,-65 -28,-107 0,-68 28,-120 84,-160 57,-39 136,-58 237,-58 97,0 189,18 276,54l-31 75c-88,-37 -170,-55 -245,-55 -73,0 -131,12 -174,36 -43,25 -65,58 -65,101 0,47 17,84 50,112 34,29 99,60 196,95 80,29 139,55 176,78 37,24 65,50 83,80 19,30 28,65 28,105zm1321 -627c0,117 -39,206 -118,268 -80,63 -192,94 -337,94l-187 0 0 498 -84 0 0 -1207 296 0c287,0 430,116 430,347zm-642 289l166 0c136,0 234,-23 295,-67 60,-46 91,-118 91,-220 0,-93 -29,-162 -86,-207 -57,-45 -146,-67 -266,-67l-200 0 0 561zm1334 571l-21 -142 -6 0c-45,58 -92,99 -139,123 -48,24 -104,36 -169,36 -88,0 -157,-23 -206,-68 -49,-45 -73,-107 -73,-187 0,-88 36,-156 109,-204 73,-49 179,-74 317,-77l171 -5 0 -59c0,-86 -18,-150 -52,-193 -35,-44 -91,-66 -168,-66 -83,0 -169,24 -258,70l-31 -71c99,-46 196,-70 292,-70 99,0 172,26 221,77 49,51 73,131 73,240l0 596 -60 0zm-330 -57c95,0 171,-28 226,-83 56,-54 83,-130 83,-228l0 -88 -156 6c-127,6 -216,26 -270,59 -54,34 -81,86 -81,156 0,56 18,100 52,131 34,31 83,47 146,47zm435 -840l84 0 190 503c58,155 95,259 110,313l5 0c23,-71 61,-177 113,-318l190 -498 84 0 -402 1042c-32,85 -60,142 -82,172 -22,29 -47,52 -77,66 -29,15 -65,23 -107,23 -31,0 -66,-6 -105,-17l0 -71c32,9 67,13 104,13 28,0 52,-6 74,-19 21,-14 41,-34 58,-62 17,-28 37,-72 60,-132 23,-60 38,-100 44,-118l-343 -897zm1952 897l0 -588c0,-88 -17,-152 -51,-192 -34,-40 -87,-60 -157,-60 -92,0 -160,26 -204,76 -44,51 -66,130 -66,239l0 525 -84 0 0 -613c0,-151 -69,-227 -207,-227 -94,0 -163,27 -206,82 -43,55 -65,143 -65,263l0 495 -81 0 0 -897 68 0 17 123 5 0c25,-44 60,-79 106,-104 45,-24 96,-36 151,-36 141,0 232,53 272,159l3 0c29,-51 69,-90 118,-118 49,-27 105,-41 168,-41 98,0 171,26 220,78 49,52 74,136 74,249l0 587 -81 0zm638 17c-130,0 -232,-40 -305,-121 -73,-80 -109,-192 -109,-337 0,-143 35,-258 105,-344 71,-86 166,-129 285,-129 106,0 189,36 250,110 61,73 92,173 92,299l0 66 -647 0c2,124 30,218 87,284 56,65 137,98 242,98 51,0 96,-4 135,-11 39,-7 88,-23 147,-46l0 74c-50,22 -97,37 -140,45 -43,8 -90,12 -142,12zm-24 -860c-86,0 -156,28 -208,85 -52,58 -83,140 -91,248l554 0c0,-105 -22,-186 -67,-245 -46,-59 -108,-88 -188,-88zm1120 843l0 -582c0,-90 -19,-155 -57,-196 -38,-41 -97,-62 -177,-62 -107,0 -186,27 -235,82 -50,54 -75,142 -75,263l0 495 -82 0 0 -897 69 0 16 123 5 0c58,-93 162,-140 311,-140 204,0 306,109 306,327l0 587 -81 0zm513 -54c51,0 96,-4 135,-13l0 65c-40,13 -85,19 -137,19 -79,0 -138,-21 -175,-64 -38,-42 -57,-109 -57,-199l0 -580 -133 0 0 -48 133 -37 41 -203 42 0 0 217 264 0 0 71 -264 0 0 569c0,69 13,120 37,153 24,33 62,50 114,50zm1415 -395c0,146 -36,260 -107,343 -71,82 -168,123 -294,123 -78,0 -147,-19 -207,-57 -60,-38 -106,-92 -138,-164 -32,-71 -48,-152 -48,-245 0,-147 35,-261 106,-343 71,-81 169,-122 293,-122 123,0 220,41 290,124 70,83 105,196 105,341zm-708 0c0,123 27,219 81,288 54,69 131,104 230,104 99,0 176,-35 230,-104 54,-69 81,-165 81,-288 0,-124 -27,-220 -82,-289 -55,-68 -132,-102 -231,-102 -99,0 -175,34 -229,102 -53,68 -80,164 -80,289zm1195 -377l-212 0 0 826 -81 0 0 -826 -167 0 0 -48 167 -31 0 -69c0,-110 20,-190 60,-242 41,-51 107,-77 199,-77 49,0 99,8 148,22l-19 70c-44,-14 -88,-21 -131,-21 -64,0 -109,19 -136,57 -26,38 -40,99 -40,184l0 84 212 0 0 71zm538 826l0 -1207 83 0 0 1207 -83 0zm935 0l0 -582c0,-90 -19,-155 -57,-196 -38,-41 -97,-62 -177,-62 -107,0 -185,27 -235,82 -50,54 -75,142 -75,263l0 495 -82 0 0 -897 70 0 15 123 6 0c58,-93 161,-140 311,-140 203,0 305,109 305,327l0 587 -81 0zm513 -54c52,0 97,-4 135,-13l0 65c-39,13 -85,19 -137,19 -79,0 -137,-21 -175,-64 -38,-42 -57,-109 -57,-199l0 -580 -133 0 0 -48 133 -37 42 -203 42 0 0 217 263 0 0 71 -263 0 0 569c0,69 12,120 36,153 24,33 62,50 114,50zm597 71c-131,0 -233,-40 -305,-121 -73,-80 -110,-192 -110,-337 0,-143 35,-258 106,-344 70,-86 165,-129 285,-129 105,0 189,36 250,110 61,73 91,173 91,299l0 66 -646 0c1,124 30,218 86,284 57,65 138,98 243,98 51,0 96,-4 134,-11 39,-7 88,-23 148,-46l0 74c-51,22 -98,37 -140,45 -43,8 -91,12 -142,12zm-24 -860c-87,0 -156,28 -209,85 -52,58 -82,140 -91,248l555 0c0,-105 -23,-186 -68,-245 -45,-59 -108,-88 -187,-88zm846 -71c38,0 79,4 123,11l-16 79c-38,-9 -76,-14 -116,-14 -77,0 -140,32 -188,97 -49,65 -74,147 -74,246l0 495 -82 0 0 -897 70 0 8 162 6 0c37,-66 76,-112 118,-139 42,-27 92,-40 151,-40zm836 914l0 -582c0,-90 -19,-155 -57,-196 -38,-41 -97,-62 -177,-62 -107,0 -186,27 -235,82 -50,54 -75,142 -75,263l0 495 -82 0 0 -897 69 0 16 123 5 0c58,-93 162,-140 311,-140 204,0 306,109 306,327l0 587 -81 0zm821 0l-21 -142 -7 0c-45,58 -91,99 -139,123 -47,24 -104,36 -169,36 -88,0 -156,-23 -205,-68 -49,-45 -74,-107 -74,-187 0,-88 37,-156 110,-204 73,-49 178,-74 317,-77l170 -5 0 -59c0,-86 -17,-150 -52,-193 -34,-44 -90,-66 -167,-66 -83,0 -169,24 -259,70l-30 -71c98,-46 196,-70 292,-70 98,0 172,26 221,77 48,51 73,131 73,240l0 596 -60 0zm-331 -57c96,0 172,-28 227,-83 55,-54 83,-130 83,-228l0 -88 -157 6c-126,6 -216,26 -269,59 -54,34 -81,86 -81,156 0,56 17,100 52,131 34,31 83,47 145,47zm823 3c52,0 97,-4 135,-13l0 65c-39,13 -85,19 -137,19 -79,0 -137,-21 -175,-64 -38,-42 -57,-109 -57,-199l0 -580 -133 0 0 -48 133 -37 41 -203 43 0 0 217 263 0 0 71 -263 0 0 569c0,69 12,120 36,153 24,33 62,50 114,50zm316 54l-82 0 0 -897 82 0 0 897zm-94 -1146c0,-53 18,-79 52,-79 17,0 31,7 40,20 10,14 15,34 15,59 0,24 -5,44 -15,58 -9,15 -23,22 -40,22 -34,0 -52,-27 -52,-80zm1041 697c0,146 -36,260 -107,343 -71,82 -169,123 -294,123 -78,0 -148,-19 -208,-57 -60,-38 -105,-92 -137,-164 -32,-71 -48,-152 -48,-245 0,-147 35,-261 106,-343 71,-81 168,-122 292,-122 123,0 220,41 291,124 70,83 105,196 105,341zm-709 0c0,123 28,219 82,288 54,69 131,104 230,104 99,0 175,-35 230,-104 54,-69 81,-165 81,-288 0,-124 -28,-220 -82,-289 -55,-68 -132,-102 -231,-102 -99,0 -175,34 -229,102 -54,68 -81,164 -81,289zm1488 449l0 -582c0,-90 -19,-155 -57,-196 -38,-41 -97,-62 -177,-62 -107,0 -186,27 -236,82 -49,54 -74,142 -74,263l0 495 -82 0 0 -897 69 0 16 123 5 0c58,-93 162,-140 311,-140 204,0 306,109 306,327l0 587 -81 0zm821 0l-21 -142 -7 0c-45,58 -91,99 -139,123 -48,24 -104,36 -169,36 -88,0 -156,-23 -205,-68 -49,-45 -74,-107 -74,-187 0,-88 37,-156 110,-204 73,-49 178,-74 316,-77l171 -5 0 -59c0,-86 -17,-150 -52,-193 -34,-44 -90,-66 -167,-66 -83,0 -170,24 -259,70l-30 -71c98,-46 195,-70 292,-70 98,0 172,26 221,77 48,51 73,131 73,240l0 596 -60 0zm-331 -57c96,0 172,-28 227,-83 55,-54 83,-130 83,-228l0 -88 -157 6c-126,6 -216,26 -269,59 -54,34 -81,86 -81,156 0,56 17,100 52,131 34,31 83,47 145,47zm667 57l-81 0 0 -1284 81 0 0 1284zm980 0l-85 0 0 -1127 -392 0 0 -80 869 0 0 80 -392 0 0 1127zm1079 -449c0,146 -35,260 -106,343 -71,82 -169,123 -294,123 -79,0 -148,-19 -208,-57 -60,-38 -106,-92 -138,-164 -32,-71 -48,-152 -48,-245 0,-147 36,-261 107,-343 71,-81 168,-122 292,-122 123,0 220,41 290,124 70,83 105,196 105,341zm-708 0c0,123 27,219 81,288 54,69 131,104 230,104 99,0 176,-35 230,-104 54,-69 81,-165 81,-288 0,-124 -27,-220 -82,-289 -55,-68 -131,-102 -231,-102 -98,0 -175,34 -229,102 -53,68 -80,164 -80,289zm932 -448l0 581c0,90 19,156 57,197 38,41 97,62 177,62 107,0 185,-27 236,-81 50,-54 75,-142 75,-264l0 -495 81 0 0 897 -69 0 -15 -124 -5 0c-58,94 -162,141 -311,141 -204,0 -307,-109 -307,-328l0 -586 81 0zm1184 -17c38,0 79,4 122,11l-16 79c-37,-9 -76,-14 -116,-14 -76,0 -139,32 -188,97 -49,65 -73,147 -73,246l0 495 -82 0 0 -897 69 0 8 162 6 0c37,-66 76,-112 118,-139 42,-27 93,-40 152,-40zm291 914l-82 0 0 -897 82 0 0 897zm-93 -1146c0,-53 17,-79 52,-79 17,0 30,7 40,20 10,14 14,34 14,59 0,24 -4,44 -14,58 -10,15 -23,22 -40,22 -35,0 -52,-27 -52,-80zm855 913c0,80 -31,142 -92,185 -61,43 -148,65 -260,65 -120,0 -215,-19 -286,-55l0 -89c91,45 186,68 286,68 89,0 156,-15 202,-44 46,-30 69,-69 69,-118 0,-45 -18,-83 -55,-114 -37,-30 -97,-61 -181,-90 -89,-33 -152,-61 -189,-84 -36,-24 -63,-50 -81,-80 -19,-29 -28,-65 -28,-107 0,-68 28,-120 84,-160 57,-39 136,-58 237,-58 97,0 189,18 276,54l-31 75c-88,-37 -170,-55 -245,-55 -73,0 -132,12 -174,36 -43,25 -65,58 -65,101 0,47 17,84 50,112 34,29 99,60 196,95 80,29 139,55 176,78 37,24 65,50 83,80 19,30 28,65 28,105zm1256 233l0 -588c0,-88 -17,-152 -51,-192 -34,-40 -86,-60 -157,-60 -92,0 -159,26 -204,76 -44,51 -66,130 -66,239l0 525 -83 0 0 -613c0,-151 -69,-227 -208,-227 -94,0 -163,27 -205,82 -43,55 -65,143 -65,263l0 495 -82 0 0 -897 68 0 17 123 5 0c25,-44 60,-79 106,-104 46,-24 96,-36 151,-36 141,0 232,53 272,159l4 0c29,-51 68,-90 117,-118 50,-27 106,-41 168,-41 98,0 172,26 221,78 49,52 73,136 73,249l0 587 -81 0zm797 0l-82 0 0 -897 82 0 0 897zm-93 -1146c0,-53 17,-79 52,-79 17,0 30,7 40,20 9,14 14,34 14,59 0,24 -5,44 -14,58 -10,15 -23,22 -40,22 -35,0 -52,-27 -52,-80zm924 1146l0 -582c0,-90 -19,-155 -57,-196 -38,-41 -97,-62 -177,-62 -107,0 -186,27 -235,82 -50,54 -75,142 -75,263l0 495 -82 0 0 -897 69 0 16 123 5 0c59,-93 162,-140 311,-140 204,0 306,109 306,327l0 587 -81 0zm736 0l0 -1207 84 0 0 1207 -84 0zm414 -525l0 525 -84 0 0 -1207 287 0c150,0 260,28 332,84 71,55 107,138 107,249 0,81 -21,149 -64,205 -42,55 -107,95 -194,120l327 549 -100 0 -311 -525 -300 0zm0 -73l230 0c102,0 181,-23 237,-69 56,-45 84,-112 84,-201 0,-92 -27,-159 -82,-201 -55,-42 -145,-63 -269,-63l-200 0 0 534zm1406 171l-490 0 -168 427 -94 0 485 -1212 54 0 475 1212 -94 0 -168 -427zm-459 -75l431 0 -164 -435c-14,-34 -30,-81 -50,-142 -15,53 -31,101 -48,144l-169 433zm1674 502l-85 0 -714 -1071 -7 0c7,128 10,224 10,289l0 782 -81 0 0 -1207 84 0 714 1070 5 0c-5,-99 -7,-193 -7,-282l0 -788 81 0 0 1207z"/>
  </g>
 </g>
</svg>
