<?xml version="1.0" encoding="UTF-8"?>
<!DOCTYPE svg PUBLIC "-//W3C//DTD SVG 1.1//EN" "http://www.w3.org/Graphics/SVG/1.1/DTD/svg11.dtd">
<!-- Creator: CorelDRAW X7 -->
<svg xmlns="http://www.w3.org/2000/svg" xml:space="preserve" width="200.354mm" height="25.688mm" version="1.1" style="shape-rendering:geometricPrecision; text-rendering:geometricPrecision; image-rendering:optimizeQuality; fill-rule:evenodd; clip-rule:evenodd"
viewBox="0 0 20035 2569"
 xmlns:xlink="http://www.w3.org/1999/xlink">
 <defs>
  <style type="text/css">
   <![CDATA[
    .fil0 {fill:#00414E;fill-rule:nonzero}
    .fil1 {fill:white;fill-rule:nonzero}
   ]]>
  </style>
 </defs>
 <g id="Layer_x0020_1">
  <metadata id="CorelCorpID_0Corel-Layer"/>
  <g id="_2519563199968">
   <path class="fil0" d="M1975 1322c0,392 -111,692 -334,900 -224,209 -546,313 -967,313l-674 0 0 -2382 747 0c389,0 691,103 906,309 215,205 322,492 322,860zm-524 12c0,-511 -226,-767 -678,-767l-268 0 0 1551 217 0c486,0 729,-261 729,-784zm770 -1092c0,-161 90,-242 271,-242 180,0 270,81 270,242 0,78 -22,138 -68,181 -45,42 -112,64 -202,64 -181,0 -271,-82 -271,-245zm518 2293l-497 0 0 -1821 497 0 0 1821zm1604 -540c0,187 -65,329 -195,427 -130,98 -324,147 -582,147 -133,0 -245,-9 -339,-27 -93,-18 -180,-44 -262,-79l0 -411c92,44 196,80 312,109 115,30 217,44 305,44 181,0 271,-52 271,-157 0,-39 -13,-70 -36,-95 -24,-24 -65,-52 -124,-83 -59,-31 -137,-67 -234,-109 -141,-58 -243,-112 -309,-162 -66,-50 -113,-108 -144,-172 -30,-65 -44,-145 -44,-239 0,-162 62,-287 188,-375 125,-88 303,-132 533,-132 220,0 433,47 640,142l-149 358c-92,-39 -177,-71 -256,-96 -79,-25 -160,-37 -243,-37 -146,0 -220,39 -220,119 0,44 24,83 71,115 48,33 151,81 311,145 141,58 246,112 312,162 66,50 115,107 147,172 31,66 47,144 47,234zm939 574c-567,0 -850,-312 -850,-934 0,-309 77,-546 231,-709 154,-164 375,-245 663,-245 210,0 399,41 567,123l-147 384c-78,-31 -151,-57 -218,-77 -67,-20 -135,-30 -202,-30 -258,0 -387,183 -387,550 0,356 129,534 387,534 95,0 184,-13 265,-38 82,-26 163,-66 245,-120l0 426c-81,51 -162,87 -244,106 -82,20 -185,30 -310,30zm1184 -948c0,180 30,317 88,409 60,92 156,138 290,138 132,0 227,-45 285,-137 58,-92 87,-228 87,-410 0,-180 -29,-315 -88,-405 -58,-90 -154,-135 -288,-135 -132,0 -228,45 -286,134 -59,90 -88,225 -88,406zm1258 1c0,297 -77,529 -234,696 -156,167 -374,251 -653,251 -175,0 -329,-39 -463,-115 -133,-76 -235,-187 -307,-330 -72,-143 -107,-311 -107,-502 0,-298 77,-529 232,-694 156,-165 374,-247 655,-247 175,0 329,37 463,114 133,76 235,185 307,327 72,142 107,309 107,500zm591 913l-695 -1821 520 0 352 1038c39,131 64,256 74,373l9 0c6,-104 30,-229 73,-373l351 -1038 520 0 -694 1821 -510 0zm2030 -1501c-105,0 -187,34 -247,100 -60,67 -94,162 -103,284l697 0c-2,-122 -33,-217 -96,-284 -61,-66 -145,-100 -251,-100zm71 1535c-294,0 -523,-81 -688,-243 -165,-162 -248,-391 -248,-687 0,-306 77,-541 229,-708 153,-167 363,-250 633,-250 258,0 458,73 601,219 144,147 215,349 215,607l0 241 -1174 0c5,141 47,252 125,331 78,80 188,119 329,119 110,0 214,-11 312,-34 97,-23 199,-59 306,-109l0 385c-87,43 -180,76 -279,97 -98,21 -219,32 -361,32zm1974 -1888c67,0 123,5 168,14l-37 466c-41,-11 -89,-16 -147,-16 -159,0 -282,40 -370,122 -89,81 -133,195 -133,342l0 926 -497 0 0 -1821 377 0 72 307 25 0c57,-102 133,-184 229,-247 96,-62 200,-93 313,-93z"/>
   <path class="fil1" d="M13635 2535l0 -2382 277 0 0 2382 -277 0zm1019 -990l0 990 -277 0 0 -2382 653 0c293,0 508,57 647,168 140,112 210,281 210,505 0,316 -160,528 -479,639l647 1070 -328 0 -576 -990 -497 0zm0 -237l379 0c196,0 339,-39 430,-117 91,-77 137,-194 137,-349 0,-158 -46,-271 -139,-340 -93,-70 -242,-105 -447,-105l-360 0 0 911zm3095 1227l-296 -757 -956 0 -293 757 -280 0 942 -2392 233 0 937 2392 -287 0zm-383 -1007l-277 -738c-36,-93 -73,-208 -111,-344 -24,104 -57,219 -102,344l-281 738 771 0zm2669 1007l-315 0 -1302 -1998 -13 0c17,234 26,449 26,645l0 1353 -256 0 0 -2382 312 0 1299 1992 13 0c-2,-30 -7,-124 -14,-283 -8,-159 -11,-273 -9,-342l0 -1367 259 0 0 2382z"/>
  </g>
 </g>
</svg>
