<?xml version="1.0" encoding="UTF-8"?>
<!DOCTYPE svg PUBLIC "-//W3C//DTD SVG 1.1//EN" "http://www.w3.org/Graphics/SVG/1.1/DTD/svg11.dtd">
<!-- Creator: CorelDRAW X7 -->
<svg xmlns="http://www.w3.org/2000/svg" xml:space="preserve" width="218.801mm" height="16.985mm" version="1.1" style="shape-rendering:geometricPrecision; text-rendering:geometricPrecision; image-rendering:optimizeQuality; fill-rule:evenodd; clip-rule:evenodd"
viewBox="0 0 21880 1698"
 xmlns:xlink="http://www.w3.org/1999/xlink">
 <defs>
  <style type="text/css">
   <![CDATA[
    .fil0 {fill:#00414E;fill-rule:nonzero}
   ]]>
  </style>
 </defs>
 <g id="Layer_x0020_1">
  <metadata id="CorelCorpID_0Corel-Layer"/>
  <path class="fil0" d="M477 1293l-85 0 0 -1127 -392 0 0 -80 869 0 0 80 -392 0 0 1127zm10244 22c-133,0 -236,-41 -310,-122 -74,-82 -111,-196 -111,-343 0,-145 36,-261 108,-349 71,-87 167,-131 288,-131 108,0 192,37 254,112 62,74 93,175 93,303l0 67 -656 0c1,126 31,222 88,288 57,66 139,99 246,99 52,0 97,-3 137,-10 39,-8 89,-23 149,-47l0 75c-51,22 -99,38 -142,46 -44,8 -92,12 -144,12zm-25 -873c-87,0 -158,29 -211,87 -53,58 -84,142 -93,251l563 0c0,-106 -23,-189 -69,-248 -45,-60 -109,-90 -190,-90zm-9140 401c0,147 -35,261 -106,343 -71,83 -169,124 -294,124 -79,0 -148,-19 -208,-57 -60,-38 -106,-93 -138,-164 -32,-71 -47,-153 -47,-246 0,-146 35,-260 106,-342 71,-82 168,-122 292,-122 123,0 220,41 290,124 70,83 105,196 105,340zm-708 0c0,124 27,220 82,289 54,69 130,103 229,103 100,0 176,-34 230,-103 54,-69 82,-165 82,-289 0,-123 -28,-219 -83,-288 -54,-68 -131,-102 -230,-102 -99,0 -176,34 -229,102 -54,68 -81,164 -81,288zm933 -448l0 582c0,90 19,156 56,197 38,41 97,61 177,61 107,0 186,-27 236,-80 50,-54 76,-142 76,-264l0 -496 80 0 0 898 -69 0 -15 -124 -5 0c-58,94 -162,141 -311,141 -204,0 -306,-110 -306,-328l0 -587 81 0zm1183 -16c38,0 79,4 122,11l-15 79c-38,-10 -76,-14 -117,-14 -76,0 -139,32 -188,97 -49,65 -73,147 -73,246l0 495 -82 0 0 -898 69 0 9 163 6 0c36,-66 76,-113 118,-139 41,-27 92,-40 151,-40zm291 914l-81 0 0 -898 81 0 0 898zm-93 -1147c0,-52 18,-78 52,-78 17,0 30,6 40,20 10,14 15,33 15,58 0,25 -5,45 -15,59 -10,14 -23,21 -40,21 -34,0 -52,-26 -52,-80zm855 914c0,80 -31,142 -92,185 -61,43 -147,65 -260,65 -120,0 -215,-19 -285,-56l0 -88c90,45 185,68 285,68 89,0 156,-15 202,-44 46,-30 69,-69 69,-118 0,-45 -18,-83 -55,-114 -36,-31 -97,-61 -180,-91 -90,-32 -153,-60 -189,-83 -37,-24 -64,-50 -82,-80 -19,-29 -28,-65 -28,-107 0,-68 28,-121 85,-160 56,-39 135,-58 236,-58 97,0 189,18 276,54l-31 74c-88,-36 -169,-54 -245,-54 -73,0 -131,12 -174,36 -43,25 -65,58 -65,101 0,47 17,84 51,112 33,28 98,60 195,94 81,30 139,56 176,79 37,24 65,50 83,80 19,29 28,64 28,105zm1257 233l0 -589c0,-87 -18,-151 -52,-191 -34,-40 -86,-60 -156,-60 -92,0 -160,25 -204,76 -44,50 -66,130 -66,238l0 526 -84 0 0 -613c0,-151 -69,-227 -208,-227 -94,0 -162,27 -205,82 -43,55 -65,142 -65,263l0 495 -81 0 0 -898 67 0 18 124 5 0c25,-45 60,-79 105,-104 46,-24 96,-36 151,-36 142,0 232,53 273,159l3 0c29,-51 69,-91 118,-118 49,-28 105,-41 168,-41 97,0 171,26 220,78 49,52 74,135 74,249l0 587 -81 0zm369 -196l10 17c-41,146 -89,278 -144,397l-54 0c43,-151 73,-289 91,-414l97 0zm947 -631l-211 0 0 827 -82 0 0 -827 -167 0 0 -47 167 -31 0 -69c0,-110 20,-191 61,-242 40,-51 106,-77 198,-77 50,0 99,7 149,22l-19 70c-44,-14 -88,-21 -132,-21 -63,0 -109,19 -135,57 -27,38 -40,99 -40,184l0 83 211 0 0 71zm255 827l-82 0 0 -898 82 0 0 898zm-93 -1147c0,-52 17,-78 52,-78 17,0 30,6 40,20 10,14 14,33 14,58 0,25 -4,45 -14,59 -10,14 -23,21 -40,21 -35,0 -52,-26 -52,-80zm924 1147l0 -582c0,-90 -19,-156 -57,-197 -38,-41 -97,-61 -177,-61 -107,0 -186,27 -235,81 -50,54 -75,142 -75,264l0 495 -82 0 0 -898 69 0 16 124 5 0c58,-94 162,-140 311,-140 204,0 306,109 306,327l0 587 -81 0zm821 0l-21 -142 -7 0c-45,58 -91,99 -139,123 -47,24 -104,36 -169,36 -88,0 -156,-23 -205,-68 -49,-45 -74,-107 -74,-187 0,-88 37,-156 110,-204 73,-49 178,-74 317,-77l170 -5 0 -59c0,-86 -17,-150 -52,-194 -34,-43 -90,-65 -167,-65 -83,0 -169,23 -259,70l-30 -71c98,-47 196,-70 292,-70 98,0 172,26 221,77 48,51 73,131 73,239l0 597 -60 0zm-331 -58c96,0 172,-27 227,-82 55,-54 83,-131 83,-228l0 -88 -157 6c-126,6 -216,26 -269,59 -54,33 -81,86 -81,156 0,56 17,100 52,131 34,31 83,46 145,46zm1212 58l0 -582c0,-90 -19,-156 -57,-197 -38,-41 -97,-61 -177,-61 -107,0 -186,27 -235,81 -50,54 -75,142 -75,264l0 495 -82 0 0 -898 69 0 16 124 5 0c58,-94 162,-140 311,-140 204,0 306,109 306,327l0 587 -81 0zm634 17c-129,0 -229,-41 -302,-122 -72,-80 -108,-193 -108,-338 0,-149 37,-264 113,-347 75,-83 178,-124 309,-124 78,0 152,13 223,40l-22 73c-78,-26 -146,-39 -203,-39 -110,0 -193,34 -250,102 -56,68 -85,166 -85,293 0,121 29,216 85,285 57,68 136,102 238,102 82,0 157,-14 227,-43l0 76c-57,28 -132,42 -225,42zm2055 -17l-20 -142 -7 0c-45,58 -92,99 -139,123 -48,24 -104,36 -169,36 -295,0 -374,-323 -169,-459 73,-49 178,-73 316,-77l171 -5 0 -59c0,-86 -17,-150 -52,-194 -35,-43 -91,-65 -168,-65 -83,0 -169,23 -258,70 -57,-134 154,-141 262,-141 98,0 172,26 220,77 49,51 74,131 74,239l0 597 -61 0zm-330 -58c96,0 171,-27 227,-82 55,-55 83,-131 83,-228l0 -88 -157 6c-126,5 -216,26 -270,59 -95,59 -110,213 -29,287 35,31 83,46 146,46zm1211 58l0 -582c0,-90 -19,-156 -57,-197 -37,-40 -96,-61 -176,-61 -108,0 -186,27 -236,81 -50,55 -75,142 -75,264l0 495 -81 0 0 -898 69 0 16 124 5 0c58,-94 162,-140 311,-140 203,0 305,109 305,327l0 587 -81 0zm605 -914c64,0 121,11 168,35 47,24 89,64 127,121l5 0c-3,-69 -5,-137 -5,-203l0 -324 81 0 0 1285 -54 0 -21 -137 -6 0c-68,103 -166,154 -294,154 -124,0 -218,-39 -284,-116 -65,-77 -98,-189 -98,-337 0,-155 33,-273 98,-355 64,-82 159,-123 283,-123zm0 74c-98,0 -172,34 -221,103 -49,69 -74,169 -74,301 0,254 99,382 296,382 101,0 176,-30 223,-89 47,-59 71,-156 71,-292l0 -14c0,-139 -24,-239 -70,-300 -46,-61 -121,-91 -225,-91zm1258 786c52,0 97,-5 135,-13l0 64c-39,13 -85,20 -137,20 -79,0 -137,-21 -175,-64 -38,-42 -57,-109 -57,-200l0 -580 -133 0 0 -47 133 -38 42 -202 42 0 0 216 263 0 0 71 -263 0 0 570c0,69 12,120 36,153 24,33 62,50 114,50zm597 71c-131,0 -233,-41 -306,-121 -72,-80 -109,-193 -109,-337 0,-144 36,-258 106,-344 70,-86 165,-129 285,-129 105,0 189,36 250,110 61,73 91,173 91,299l0 65 -646 0c1,124 30,219 86,284 57,66 137,98 243,98 51,0 96,-3 134,-10 39,-7 88,-23 148,-46l0 74c-51,22 -98,37 -140,45 -43,8 -91,12 -142,12zm-24 -860c-87,0 -156,28 -209,85 -52,57 -82,140 -91,247l555 0c0,-104 -23,-185 -68,-244 -45,-59 -108,-88 -187,-88zm851 860c-128,0 -228,-41 -301,-122 -72,-80 -108,-193 -108,-338 0,-149 37,-264 113,-347 75,-83 178,-124 309,-124 78,0 152,13 223,40l-23 73c-77,-26 -145,-39 -202,-39 -110,0 -193,34 -250,102 -56,68 -85,166 -85,293 0,121 29,216 85,285 57,68 136,102 238,102 81,0 157,-14 227,-43l0 76c-57,28 -133,42 -226,42zm976 -17l0 -582c0,-90 -19,-156 -57,-197 -38,-40 -97,-61 -177,-61 -107,0 -185,27 -235,81 -50,55 -75,142 -75,264l0 495 -82 0 0 -1285 82 0 0 409 -4 115 6 0c33,-54 76,-93 127,-117 51,-24 115,-36 191,-36 203,0 305,109 305,327l0 587 -81 0zm902 0l0 -582c0,-90 -19,-156 -57,-197 -38,-40 -97,-61 -177,-61 -107,0 -186,27 -235,81 -50,55 -75,142 -75,264l0 495 -82 0 0 -898 69 0 16 124 5 0c58,-94 162,-140 311,-140 204,0 306,109 306,327l0 587 -81 0zm1018 -450c0,147 -36,261 -107,343 -71,83 -169,124 -294,124 -78,0 -148,-19 -208,-57 -60,-38 -105,-93 -137,-164 -32,-71 -48,-153 -48,-246 0,-146 35,-260 106,-342 71,-82 168,-122 292,-122 123,0 220,41 291,124 70,83 105,196 105,340zm-709 0c0,124 28,220 82,289 54,69 131,103 230,103 99,0 175,-34 230,-103 54,-69 81,-165 81,-289 0,-123 -28,-219 -82,-288 -55,-68 -132,-102 -231,-102 -99,0 -175,34 -229,102 -54,68 -81,164 -81,288zm944 450l-82 0 0 -1285 82 0 0 1285zm947 -450c0,147 -36,261 -107,343 -71,83 -169,124 -294,124 -78,0 -148,-19 -208,-57 -60,-38 -105,-93 -137,-164 -32,-71 -48,-153 -48,-246 0,-146 35,-260 106,-342 71,-82 168,-122 292,-122 123,0 220,41 290,124 71,83 106,196 106,340zm-709 0c0,124 28,220 82,289 54,69 131,103 230,103 99,0 175,-34 229,-103 55,-69 82,-165 82,-289 0,-123 -28,-219 -82,-288 -55,-68 -132,-102 -231,-102 -99,0 -175,34 -229,102 -54,68 -81,164 -81,288zm1562 -448l0 57 -186 11c49,62 74,130 74,205 0,86 -29,156 -86,210 -57,53 -135,80 -232,80 -40,0 -69,-1 -85,-5 -33,17 -58,37 -75,60 -17,24 -25,48 -25,74 0,29 11,50 33,63 21,13 58,20 109,20l157 0c97,0 172,19 223,58 52,40 78,98 78,175 0,94 -39,167 -115,218 -77,52 -186,77 -328,77 -113,0 -201,-21 -262,-65 -62,-43 -93,-104 -93,-181 0,-62 19,-113 57,-153 38,-41 90,-69 156,-84 -27,-11 -49,-28 -65,-49 -16,-21 -25,-45 -25,-73 0,-60 39,-112 115,-158 -52,-21 -93,-55 -122,-101 -29,-46 -43,-99 -43,-158 0,-90 28,-162 85,-216 57,-54 134,-81 231,-81 58,0 104,5 136,16l288 0zm-726 1049c0,124 91,185 274,185 236,0 353,-75 353,-225 0,-54 -18,-93 -55,-117 -37,-24 -96,-36 -179,-36l-147 0c-164,0 -246,64 -246,193zm68 -769c0,70 21,123 63,162 42,38 98,57 169,57 75,0 132,-19 172,-57 40,-38 60,-93 60,-165 0,-76 -21,-134 -62,-172 -41,-38 -98,-57 -172,-57 -71,0 -128,20 -169,61 -41,41 -61,98 -61,171zm596 -280l85 0 189 504c59,155 95,259 110,313l5 0c23,-71 60,-177 113,-318l190 -499 84 0 -402 1043c-32,84 -60,142 -82,171 -21,30 -47,52 -77,67 -29,15 -65,22 -106,22 -32,0 -67,-5 -105,-17l0 -70c32,9 66,13 103,13 28,0 53,-6 74,-20 22,-13 41,-33 58,-61 18,-28 38,-72 61,-132 22,-61 37,-100 44,-118l-344 -898z"/>
 </g>
</svg>
