<?xml version="1.0" encoding="UTF-8"?>
<!DOCTYPE svg PUBLIC "-//W3C//DTD SVG 1.1//EN" "http://www.w3.org/Graphics/SVG/1.1/DTD/svg11.dtd">
<!-- Creator: CorelDRAW X7 -->
<svg xmlns="http://www.w3.org/2000/svg" xml:space="preserve" width="144.786mm" height="42.864mm" version="1.1" style="shape-rendering:geometricPrecision; text-rendering:geometricPrecision; image-rendering:optimizeQuality; fill-rule:evenodd; clip-rule:evenodd"
viewBox="0 0 14479 4286"
 xmlns:xlink="http://www.w3.org/1999/xlink">
 <defs>
  <style type="text/css">
   <![CDATA[
    .str0 {stroke:white;stroke-width:17.63}
    .fil2 {fill:none}
    .fil1 {fill:white}
    .fil0 {fill:white;fill-rule:nonzero}
    .fil3 {fill:white}
   ]]>
  </style>
 </defs>
 <g id="Layer_x0020_1">
  <metadata id="CorelCorpID_0Corel-Layer"/>
  <g id="_1838695598512">
   <path class="fil0" d="M11424 1574l4 -495c0,-7 7,-7 7,0l4 495 -15 0z"/>
   <path class="fil0" d="M11428 1109c-73,-10 -141,-5 -178,66 -38,79 -112,91 -185,96 -92,7 -188,28 -207,151 0,0 0,0 0,0 0,1 2,2 6,3 13,3 55,-2 66,-8 81,-51 153,-27 219,-5 51,16 98,32 141,7 42,-24 72,-40 117,-40 6,0 12,0 18,-1l0 26c-6,0 -12,0 -18,0 -43,1 -72,1 -112,24 -47,27 -96,11 -149,-6 -177,-78 -149,11 -256,13 -8,0 -15,-1 -21,-2 -7,-2 -12,-5 -14,-10 -1,-2 -1,-4 -1,-6 25,-123 118,-137 210,-151 72,-12 143,-23 177,-87 21,-40 51,-61 85,-71 32,-10 68,-9 102,-4l0 5z"/>
   <path class="fil0" d="M12338 2955c-207,53 -680,45 -922,46l-13 -2c244,-1 743,-7 950,-60l-15 16z"/>
   <path class="fil0" d="M10445 1883c0,41 7,169 -4,199 -5,2 1,-44 0,-93 -2,-45 -12,-94 -12,-106l0 0c1,-11 16,-9 16,0z"/>
   <path class="fil0" d="M10043 1883c-1,41 -8,169 4,199 5,2 -2,-44 0,-93 2,-45 11,-94 11,-106l0 0c0,-11 -15,-9 -15,0z"/>
   <path class="fil0" d="M10340 1883c0,41 7,169 -4,199 -5,2 -9,-43 -11,-92 -2,-45 -1,-95 -1,-107l0 0c1,-11 16,-9 16,0z"/>
   <path class="fil0" d="M10154 1883c0,41 7,169 -4,199 -5,2 -9,-43 -11,-92 -1,-45 -1,-95 -1,-107l0 0c1,-11 16,-9 16,0z"/>
   <path class="fil0" d="M10420 3074c-8,0 -141,13 -220,12 -22,-1 -55,-1 -61,-4 0,-1 49,1 53,1 83,3 197,-17 228,-24l5 7 -5 8z"/>
   <path class="fil0" d="M10336 3725c-68,4 -231,18 -295,1l14 -9c69,18 200,9 274,5l7 3z"/>
   <path class="fil0" d="M10453 4187c2,-17 4,-37 5,-58 1,-23 1,-49 0,-76l0 0 -17 -327 -11 0 -6 0 0 -6c-1,-57 -2,-117 -3,-181 -1,-63 -2,-130 -4,-200l0 -1c3,-14 9,-25 18,-35 4,-5 8,-9 13,-13l-8 0 -6 0 0 -6 -14 -211 0 -6 2 0 -2 -1 -4 -1 0 -5c-3,-116 -6,-238 -11,-364 -5,-130 -22,-247 -27,-377l14 -16 27 -25 5 -2 29 1 0 -53 2 -4 20 -23 -1 -46 0 -3 3 -2 18 -13 14 -125 -8 -3 -4 -1 0 -5 -9 -135 13 -7 37 -15 0 -66 -84 -23 -100 -8 -21 0 -14 -520 0 -5 5 -1 8 -3c2,-35 -4,-67 -17,-92 -14,-27 -36,-48 -68,-63l-3 -2 -1 -3 -2 -35 -3 35 0 3 -3 2c-32,15 -54,36 -68,63 -14,25 -19,57 -17,92l8 3 5 1 0 5 -18 520 -17 0 -101 8 -83 23 0 66 36 15 16 7 -12 135 0 5 -4 1 -7 3 16 127 16 11 2 2 0 3 -1 46 21 23 1 4 0 53 30 -1 4 2 42 40c-5,130 -23,248 -27,378 -5,126 -9,248 -12,364l0 5 -4 1 -2 1 3 0 0 6 -14 211 0 6 -6 0 -8 0c4,4 9,8 13,13 8,10 15,21 17,35l0 1c-1,70 -2,137 -3,200 -2,64 -2,124 -3,181l0 6 -7 0 -10 0 -17 327 0 0c-1,27 -1,53 0,76 0,21 2,41 5,58l-11 12 -1 -5c-3,-19 -5,-40 -6,-64 -1,-24 -1,-50 0,-78l0 0 18 -332 0 -7 6 0 10 0c1,-55 2,-113 3,-174 1,-63 2,-130 4,-199 -3,-11 -8,-21 -15,-29 -7,-8 -16,-16 -26,-23l4 -11 21 0 12 -199 -12 -3 -1 -12 18 -7c3,-115 6,-236 11,-361 4,-125 9,-254 15,-384l-23 -22 -34 0 -6 0 0 -6 0 -56 -21 -24 -1 -4 0 -45 -31 -23 -3 -2 0 -3 0 -122 0 -4 4 -2 7 -3 0 -128 -36 -15 -4 -2 0 -4 0 -75 0 -4 5 -2 89 -25 1 0 96 -26 28 -484 -8 -3 -4 -1 -1 -4c-11,-82 13,-144 90,-172l3 -17c-10,-2 -18,-9 -23,-17 -3,-4 -5,-10 -6,-15 -1,-6 0,-12 2,-17 4,-10 13,-19 28,-23 0,-1 1,-2 1,-3 1,-2 3,-3 2,-3 -12,-7 -20,-13 -24,-20 -2,-4 -3,-8 -3,-12 0,-4 1,-8 3,-12 4,-6 11,-13 22,-20 0,-1 1,-3 1,-5 1,-1 1,-3 1,-4 0,-1 0,-1 0,-2 0,0 0,-1 0,-1 -10,-9 -15,-18 -14,-27 0,-9 5,-17 14,-24 0,-1 0,-2 -1,-2 -1,-4 -2,-8 -2,-11 -11,-6 -16,-13 -16,-21l0 0c1,-8 6,-15 15,-22l3 -3 1 -101c1,-11 13,-10 13,0l1 101 4 3c9,7 14,14 14,22l0 0c1,8 -5,15 -16,21 0,3 -1,7 -2,11 0,0 0,1 0,2 9,7 14,15 14,24 0,9 -4,18 -15,27 0,0 0,1 0,1 0,1 0,1 0,2 1,1 1,3 1,4 1,2 1,4 2,5 10,7 18,14 21,20 3,4 4,8 4,12 -1,4 -2,8 -4,12 -4,7 -12,13 -24,20 -1,0 2,1 3,3 0,1 0,2 0,3 15,4 24,13 28,23 3,5 3,11 3,17 -1,5 -3,11 -6,15 -5,8 -13,15 -24,17l4 17c77,30 101,92 89,172l0 4 -4 1 -8 3 27 486 97 24 1 0 89 25 5 2 0 4 0 75 0 4 -4 2 -37 15 0 128 8 3 4 2 0 4 0 122 0 3 -3 2 -32 23 1 45 -1 4 -21 24 0 56 0 6 -6 0 -34 0 -23 22c5,130 10,259 15,384 4,125 8,246 11,361l18 7 -1 12 -13 3 13 199 21 0 4 11c-10,7 -20,15 -27,23 -7,8 -12,18 -14,29 1,69 3,136 4,199 1,61 2,119 3,174l10 0 6 0 0 7 17 332 0 0c2,28 2,54 1,78 -1,24 -3,45 -7,64l0 5 -6 0 -5 -12zm-216 -3166l8 0c8,-1 15,-5 19,-12 2,-3 3,-6 4,-10 0,-3 0,-7 -2,-11 -2,-6 -10,-13 -23,-15l-2 -29 -3 29c-13,2 -20,9 -23,15 -1,4 -2,8 -1,11 0,4 2,7 4,10 4,7 10,11 19,12zm4 -77l0 -1c10,-5 16,-10 19,-15 1,-2 2,-3 2,-5 0,-2 -1,-4 -2,-5 -2,-5 -8,-11 -18,-16 0,-1 -1,-34 -1,-34 -1,0 -1,34 -2,34 -9,5 -15,11 -18,16 -1,1 -1,3 -1,5 0,2 0,3 1,5 3,5 10,10 19,15l1 1zm0 -76c6,-6 9,-11 8,-16 0,-3 -2,-7 -6,-12 -1,0 -2,-34 -2,-35 -1,1 -1,35 -2,35 -4,5 -7,9 -7,12 0,5 3,10 9,16zm0 -63c9,-3 13,-7 13,-11l0 0c-1,-4 -5,-9 -13,-14 -8,5 -13,10 -13,14l0 0c0,4 4,8 13,11z"/>
   <path class="fil0" d="M12262 4197l2 -14c54,-314 63,-756 58,-1236l0 -8 8 0 23 0c3,-95 0,-185 -12,-266 -12,-75 -31,-143 -59,-200 -163,-326 -664,-503 -820,-543 -89,-23 80,-93 -25,-121 -5,-3 -5,-21 -1,-25 14,-9 19,-16 18,-23 0,-6 0,-14 -12,-20 -12,-13 18,-32 17,-39 0,-5 -8,-8 -15,-13 -12,-9 -6,-28 -5,-34 0,-2 -3,-42 -2,-64 0,-2 -1,-4 -4,-7l-1 -3 -1 -1 0 1 -1 3c-3,3 -4,5 -4,7 1,22 -2,62 -2,64 1,6 7,23 -5,32 -7,6 -13,11 -13,16 -1,9 31,27 13,38 -12,7 -10,14 -10,20 -1,7 2,14 16,22 3,5 3,22 0,25 -121,18 73,63 -47,117 -540,243 -911,472 -868,1014l31 0c-2,413 2,827 39,1245 4,2 -69,2 -95,2 24,-3 38,-18 40,-49l0 -1182 -23 0 -7 0 -1 -8c-3,-98 0,-192 13,-276 63,-423 533,-620 881,-780 71,-32 -98,-41 28,-94l0 -3c-17,-11 -24,-22 -23,-34 1,-11 9,-20 23,-29l0 -2c-11,-8 -15,-17 -15,-26 1,-9 6,-17 15,-25l0 -5c-5,-5 -7,-11 -8,-17 0,-6 2,-12 8,-18l0 -9c-4,-4 -5,-9 -6,-14 0,-5 2,-11 6,-16l8 -26 15 0 8 26c4,5 6,11 6,16 -1,5 -3,10 -6,14l0 9c6,6 8,12 8,18 -1,6 -4,12 -8,17l0 5c9,8 14,16 15,25 0,9 -4,18 -15,26l0 2c14,9 22,18 23,29 1,12 -6,23 -23,34l0 3c79,32 30,50 12,76 -9,13 -1,25 10,29 360,140 861,302 887,769 14,94 7,189 3,284l-21 0 0 1187c-1,41 34,51 81,49l-89 8 -61 9 -7 -11z"/>
   <path class="fil0" d="M8545 4230c0,-13 32,-17 33,-29 2,-48 3,-83 -35,-119 -44,-42 -28,-388 -10,-460 16,-59 69,-61 89,-70 7,-3 13,-5 13,-8 4,-18 12,-27 19,-34 7,-8 13,-15 12,-30 -2,-59 -4,-93 -14,-124 -10,-30 -27,-58 -60,-105 -22,-32 -47,-43 -71,-53 -24,-10 -48,-20 -67,-51l-1 -2c-1,-14 16,-40 39,-64 22,-24 49,-46 67,-52 9,-3 14,-6 17,-10 2,-3 2,-6 2,-9 0,-3 -2,-6 -4,-9 -3,-5 -8,-9 -10,-9 -97,-44 -101,-158 -14,-166 -2,-2 -4,-4 -6,-7 -95,-116 -54,-208 80,-182 3,0 -4,-1 -4,-2 0,-21 -3,-85 -6,-146 -2,-54 -4,-105 -4,-120 0,-21 1,-37 1,-48 1,-14 1,-21 0,-24 -1,-2 -3,-2 -8,-3 -6,-1 -13,-2 -24,-6 -32,-12 -54,-24 -64,-42 -10,-17 -9,-39 4,-70 -10,-7 -9,-17 -3,-28 4,-8 11,-16 18,-25 10,-12 20,-23 16,-26 -39,-39 -39,-72 -39,-114 0,-2 0,-4 0,-7 -31,1 -47,4 -56,6 -6,2 -9,3 -13,1 -3,-2 -4,-6 -6,-13 -41,-130 -88,-58 -26,-171 13,-38 43,-65 73,-91 10,-10 17,-15 26,-25 -7,-8 -3,-45 -3,-72 -1,-14 -1,-26 -2,-32 -3,-24 -3,-38 -4,-49 -1,-21 -1,-29 -18,-81 -11,-35 -27,-55 -41,-71 -17,-20 -30,-36 -26,-65 0,-7 -5,-5 -11,-1 -10,7 -22,19 -27,24 -22,21 -45,31 -57,28 -10,-1 -16,-9 -19,-18 -3,-9 4,-23 7,-31 2,-3 3,-6 5,-8 -1,0 -3,-1 -5,-1 -20,-5 -37,-17 -50,-32 -13,-15 -20,-33 -20,-50 0,-5 0,-10 2,-15l0 -3c15,-5 56,34 71,21 37,-33 58,-40 87,-36 22,10 48,30 98,-13 50,-38 83,-85 120,-92 109,-21 236,55 277,287 1,-1 1,-18 2,-20 6,-7 12,-14 14,-16 39,-25 50,-67 62,-110 28,-154 175,-351 350,-332 23,1 43,2 80,-25 16,-12 32,-31 46,-48 19,-22 61,-66 61,-3 0,28 -19,67 -36,89 -10,11 -21,20 -31,26 6,15 67,25 67,25 28,-20 66,-17 103,-13 29,2 58,5 81,-3 26,-9 35,-21 50,-43l4 -5c14,-20 26,-29 34,-31 5,-1 9,-1 12,0 3,2 5,5 7,8 2,6 2,15 -1,23 -5,12 -9,24 -14,37 -23,64 -48,133 -120,126 1,1 2,1 3,1 4,2 8,3 16,4 4,1 8,2 14,3 30,6 56,9 54,16 -1,4 -6,7 -14,12 -9,5 -38,15 -49,27 -20,25 -63,10 -97,-1 -19,-7 -35,-12 -37,-9 -5,7 -9,13 -13,18 -11,16 -13,31 -13,47 1,7 -3,9 -8,13 -7,4 -24,7 -31,40 -2,7 -11,17 -17,31 -12,31 -30,74 -28,103 0,1 -1,2 -1,5 -3,10 -1,42 -1,55 0,44 -11,44 -26,44 -4,0 -10,-3 -17,-5 -9,-2 -14,2 -29,2 0,50 12,74 18,88 2,5 4,9 4,13 1,11 -6,27 -8,37 -41,140 239,90 113,260 -11,53 -22,100 -100,54 -1,-1 -41,-2 -69,3 -8,2 -14,4 -19,6 -3,2 -5,5 -4,7 2,12 50,17 52,78 1,41 -25,58 -53,82 -5,3 -8,6 -10,8l4 3 1 1c36,21 62,78 57,111 -5,51 -80,90 -121,90 0,3 -1,9 -2,16 -5,22 -13,143 -15,232 0,27 0,51 1,69 1,14 2,23 2,24 30,-4 60,-6 83,4 52,23 42,86 4,123 -11,11 -22,22 -24,29l0 0c-1,4 2,8 11,10 108,17 85,134 -1,187 -12,7 -21,12 -23,16l0 0c-3,6 10,15 52,37 14,8 13,20 13,31 -1,2 -1,5 -1,7 1,7 4,13 26,12 12,-1 20,2 24,8 3,4 4,9 3,14 0,5 -3,11 -6,16 -12,18 -36,36 -63,41 -33,5 -60,30 -80,63 -28,44 -44,102 -49,144 -1,4 -2,8 -2,13 -4,18 -7,39 5,51l2 1 -1 2c-5,35 6,42 16,48 11,7 21,13 14,41 11,9 22,15 33,21 33,17 78,10 87,101 9,89 18,302 -14,379 -9,24 -25,35 -47,26 -5,-2 -9,-2 -13,-1 -6,3 -11,10 -14,21 -4,11 -7,26 -8,41 -5,46 -1,97 -1,97l1 5c-1,-1 -14,-55 -9,-102 1,-16 4,-32 8,-44 5,-13 11,-23 20,-26 5,-3 12,-3 19,0 17,7 28,-1 36,-20 29,-70 6,-267 -2,-335 -1,-8 -2,-14 -2,-18 -9,-86 -34,-100 -66,-117 -11,-6 -23,-12 -36,-22l-2 -2 1 -3c7,-24 -1,-29 -10,-34 -12,-7 -26,-16 -20,-55 -14,-15 -10,-37 -6,-57 1,-4 1,-8 2,-12 5,-43 22,-103 50,-148 22,-35 50,-61 86,-67 25,-4 47,-21 57,-37 3,-4 5,-8 6,-12 0,-3 0,-6 -2,-8 -2,-3 -8,-4 -17,-4 -29,1 -34,-8 -35,-21 0,-2 0,-5 1,-8 0,-8 1,-17 -9,-22 -47,-26 -62,-36 -55,-49l0 0c4,-6 13,-12 26,-20 9,-5 20,-12 32,-20 10,-7 17,-18 20,-31l0 0c31,-62 1,-123 -49,-119 -15,-4 -19,-12 -17,-21l0 0c-5,7 108,-125 -53,-145l0 0c-1,0 -1,0 -1,0l0 0c-6,-1 -10,-13 -11,-33 -1,-17 -1,-42 -1,-69 2,-90 10,-212 15,-234 1,-7 -1,-22 10,-23 2,0 5,0 13,-3 49,-21 72,-47 76,-78 5,-31 -8,-66 -31,-105l-6 -4c-3,-2 -4,-5 -1,-9 2,-3 7,-7 13,-12 4,-4 8,-7 12,-11 2,-2 4,-4 6,-6 12,-15 16,-38 15,-60 -2,-22 -8,-42 -18,-52 0,-1 -1,-2 -2,-3 -10,-7 -14,-14 -15,-19 -1,-7 2,-12 9,-16 5,-3 12,-6 21,-7 29,-6 73,-4 75,-4 59,25 72,-10 87,-49 6,-15 12,-30 21,-44 68,-104 -179,-95 -129,-220 2,-10 4,-19 3,-29 0,-2 -1,-5 -3,-9 -7,-15 -19,-42 -19,-97l0 -4 4 0c19,0 25,-8 35,-5 6,1 10,2 14,2 7,0 16,2 16,-35 0,-14 6,-39 9,-49 0,-2 0,-2 0,-3 -1,-31 17,-75 30,-106 5,-14 10,-26 11,-32 8,-37 21,-45 29,-50 3,-2 5,-3 5,-5 -1,-19 7,-31 20,-48 4,-5 8,-11 12,-18 7,-9 25,-3 48,5 31,11 71,24 88,5 11,-14 25,-22 35,-28 6,-3 10,-6 10,-6 0,-1 -8,-2 -32,-7 -5,-1 -9,-2 -13,-3 -9,-2 -14,-2 -18,-4 -5,-2 -9,-4 -18,-9 -5,-2 -11,-6 -18,-9l4 -8c108,38 133,-77 163,-150 2,-5 0,-20 -4,-22 -9,-5 -34,25 -38,30l-3 5c-17,24 -26,36 -55,46 -25,9 -55,6 -84,3 -36,-3 -69,3 -94,21 -8,2 -152,1 -100,-44 1,0 2,0 3,0 14,0 31,-12 45,-29 15,-18 26,-42 28,-65 0,-3 0,-5 0,-7 0,-25 -2,-34 -6,-34 -7,0 -19,15 -33,32 -14,17 -31,36 -48,49 -40,29 -48,28 -72,27 -21,-1 -59,-20 -133,20 -227,138 -188,378 -287,421 -1,1 -7,7 -12,14 -4,6 -8,12 -9,14l-1 3c-9,0 -8,-3 -8,-12 -2,-73 -74,-178 -134,-214 -55,-32 -97,-40 -131,-33 -35,7 -68,31 -118,68 -39,30 -69,25 -97,21 -27,-5 -53,-9 -87,22 -12,10 -32,2 -49,-6 -8,-4 -16,-8 -20,-8 -1,3 -1,6 -1,10 0,15 6,31 18,44 11,14 27,24 46,29 5,2 11,3 17,3 2,0 3,0 4,0l0 9c-15,0 -29,30 -26,38 7,32 54,2 64,-17 6,-6 18,-18 29,-25 15,-10 27,-13 24,9 -3,25 9,40 24,58 15,17 32,38 44,75 16,52 17,61 18,83 1,10 1,24 4,48 1,6 1,19 2,32 0,27 0,61 3,61l5 0 10 0 -7 7c-11,13 -24,24 -37,36 -29,26 -58,52 -71,88 -6,17 -12,26 -17,33 -9,15 -11,18 16,69 18,34 24,54 28,64 1,5 2,7 2,7 0,0 2,0 6,-1 10,-2 27,-7 63,-7l4 0 0 5c0,1 0,6 0,11 0,40 0,71 36,108 10,9 -2,23 -15,38 -7,8 -14,16 -18,24 -3,7 -4,13 4,17l4 2 -2 4c-13,30 -15,50 -6,65 9,16 29,27 60,38 9,4 16,5 21,6 9,2 13,2 15,9 2,4 2,12 1,27 0,11 -1,26 -1,48 0,15 2,66 4,120 3,61 6,125 6,146 0,7 -2,11 -5,11 -23,0 -43,2 -59,8 -17,5 -30,13 -38,25 -9,11 -14,26 -14,44 0,15 3,32 10,52 4,12 18,27 27,38 6,6 10,11 11,13l0 0c1,3 0,6 -3,7l0 0c-74,15 -80,120 9,150 4,1 10,7 15,13 2,4 4,9 5,13 1,6 -1,11 -4,16 -4,4 -11,9 -21,12 -17,6 -43,27 -64,50 -20,22 -36,45 -36,56 18,28 40,37 63,47 25,10 51,21 75,56 33,47 50,76 61,107 10,32 12,66 14,126 1,19 -6,28 -14,37 -7,7 -14,14 -17,30 -2,7 -9,10 -19,15 -69,28 -88,152 -93,220 -1,8 -2,17 -3,28 -7,79 -20,229 20,266 80,97 32,166 -4,162 -5,0 0,11 0,16l0 -23z"/>
   <path class="fil0" d="M9212 1299c41,48 41,83 42,106 -2,29 -3,41 62,40 4,0 5,5 0,5 -70,0 -70,-14 -71,-44 0,-23 -7,-58 -45,-103 -7,-14 6,-11 12,-4z"/>
   <path class="fil0" d="M9163 1077c-11,34 -34,141 5,165 8,5 -1,12 -12,5 -15,-9 -19,-31 -18,-58 1,-43 17,-96 23,-113 1,-2 3,-1 2,1z"/>
   <path class="fil0" d="M9289 964c22,18 41,30 70,39 30,9 72,14 100,4 0,52 -156,125 -226,12l2 -1c46,75 163,69 209,2 -66,15 -112,-5 -157,-54l2 -2z"/>
   <path class="fil0" d="M9263 1109c59,-8 65,2 71,14 3,5 6,11 32,11l13 4c-34,0 -52,1 -57,-8 -7,-8 -29,-10 -78,-3l19 -18z"/>
   <path class="fil0" d="M9342 1136c-9,12 -18,21 -27,23 -16,4 -39,-9 -45,-25 -2,-6 -3,-13 -4,-19l15 -1c0,5 7,-3 9,2 1,32 10,20 21,1 4,-4 9,14 17,13l14 6z"/>
   <path class="fil0" d="M9366 1416c-2,-8 -7,-14 -10,-18 -25,-29 -24,33 9,33l0 1c-52,8 -31,-51 -25,-52 8,-1 23,24 27,35l-1 1z"/>
   <path class="fil0" d="M8989 1226c-10,94 74,118 88,147 1,2 -1,3 -1,1 -1,-2 -30,-20 -58,-47 -21,-20 -36,-41 -49,-64l20 -37z"/>
   <path class="fil0" d="M9028 1575c20,14 44,27 70,42 63,34 143,63 151,111 7,45 -2,88 -14,116 -12,27 -39,45 -92,56 -54,11 -78,-2 -101,-14 -27,-20 -51,-36 -122,4 -4,2 -52,9 -93,7 -16,-1 -42,-10 -53,-14 -15,-6 -14,-23 -9,-36 1,-4 4,-12 7,-22 12,-41 33,-92 100,-71 8,4 22,7 77,24 40,12 72,24 73,23l8 5c-3,4 -40,-6 -83,-19 -56,-18 -84,-8 -91,-12 -25,-5 -45,6 -51,17 -12,27 -35,44 -31,74 1,8 12,13 22,17 10,4 17,4 32,5 40,2 85,-4 88,-6 75,-32 101,-18 130,-4 22,12 46,28 97,18 49,-10 73,-31 84,-56 11,-25 8,-59 1,-103 -10,-61 -153,-125 -207,-163l7 1z"/>
   <path class="fil0" d="M8490 1211c1,0 5,-1 9,-1 4,0 8,1 10,1 3,2 6,3 10,5 33,15 61,35 78,61 17,27 22,59 6,97 -1,1 -1,3 -2,5 25,-77 -10,-139 -111,-168z"/>
   <path class="fil0" d="M8588 1725c5,8 20,35 15,46 -8,7 -48,26 -55,31l0 0c-11,7 -64,38 -53,49 -1,-1 -2,-1 -2,-2 -3,-3 -2,-7 1,-11 3,-3 6,-7 10,-10 14,-14 36,-32 39,-34l0 0c9,-5 16,-10 22,-14l0 0c14,-9 21,-13 23,-16 2,-3 1,-6 0,-13 -1,-5 -3,-12 -4,-22l4 -4z"/>
   <path class="fil0" d="M9509 1052c2,10 1,24 -3,40 -3,15 -11,33 -19,44 -9,12 -22,19 -39,19 -4,-1 -8,-1 -12,-2 2,-5 8,-4 19,-3 39,-5 58,-77 54,-98l0 0z"/>
   <polygon class="fil0" points="8907,3085 8896,2949 8885,2016 8891,1963 "/>
   <path class="fil0" d="M9212 3700c0,57 9,231 -6,273 -7,3 2,-60 -1,-128 -2,-61 -15,-128 -15,-144l0 -1c0,-15 21,-12 22,0z"/>
   <path class="fil0" d="M8660 3700c0,57 -10,231 6,273 6,3 -2,-60 0,-128 2,-61 16,-128 16,-144l0 -1c-1,-15 -22,-12 -22,0z"/>
   <path class="fil0" d="M9068 3700c0,57 9,231 -6,273 -7,3 -13,-59 -15,-127 -2,-62 -1,-129 -1,-145l0 -1c0,-15 21,-12 22,0z"/>
   <path class="fil0" d="M8813 3700c0,57 10,231 -6,273 -7,3 -13,-59 -15,-127 -2,-62 -1,-129 -1,-145l0 -1c1,-15 21,-12 22,0z"/>
   <g>
    <path class="fil1" d="M9155 2167c146,-166 198,162 50,105 -114,-45 84,-191 48,-48 -19,77 -105,-33 -32,-28 16,1 5,48 -13,35 18,12 25,-33 13,-33 -61,-2 4,86 25,27 38,-108 -119,-13 -42,30 109,60 83,-208 -27,-72 -5,6 -13,7 -19,3 -6,-5 -7,-13 -3,-19z"/>
   </g>
   <path class="fil2" d="M9166 2175c72,-100 165,16 102,76 -32,31 -101,20 -85,-46 11,-43 85,-64 67,18 -8,38 -91,19 -41,-21 31,-25 18,45 -1,29"/>
   <g>
    <path class="fil1" d="M8645 2246c86,-105 -139,-97 -78,-16 57,75 113,-81 28,-49 -60,23 26,90 28,31 1,-35 -31,-10 -27,-3 -6,-10 34,-34 29,8 -10,72 -105,-30 -20,-45 99,-18 20,151 -48,67 -91,-110 220,-128 106,22 -4,5 -11,6 -17,1 -5,-4 -5,-11 -1,-16z"/>
   </g>
   <path class="fil2" d="M8654 2253c16,-19 28,-34 22,-60 -4,-19 -51,-35 -71,-34 -36,0 -53,12 -52,51 1,27 23,41 47,41 70,0 58,-96 -6,-73 -21,8 -33,72 16,56 25,-7 13,-67 -14,-28 -1,2 -1,2 0,3"/>
   <g>
    <path class="fil1" d="M8584 2734c52,-62 -84,-57 -46,-9 33,45 67,-48 16,-29 -36,14 16,54 17,18 1,-21 -19,-6 -16,-1 -4,-7 20,-21 17,4 -6,43 -63,-18 -12,-27 59,-11 12,90 -29,40 -55,-66 132,-76 64,13 -2,4 -7,4 -10,1 -3,-2 -4,-7 -1,-10z"/>
   </g>
   <path class="fil2" d="M8590 2739c9,-11 16,-20 13,-36 -3,-12 -31,-21 -43,-21 -21,1 -32,8 -31,31 1,16 13,25 28,25 42,0 35,-58 -4,-44 -12,5 -19,43 10,34 15,-5 8,-41 -8,-17 -1,1 -1,1 0,2"/>
   <path class="fil2" d="M9048 2734c-5,-10 -6,-16 -4,-27 5,-28 66,-32 62,6 -2,29 -48,40 -51,3 -2,-25 45,-26 40,3 -3,20 -34,15 -30,-8 2,-10 24,-9 23,5 0,2 -5,4 -8,2"/>
   <path class="fil2" d="M9217 2685c44,-60 100,10 62,46 -19,19 -61,12 -51,-27 6,-27 51,-39 40,10 -5,23 -55,12 -25,-13 19,-14 11,28 -1,18"/>
   <path class="fil2" d="M9038 2734c-5,-10 -6,-16 -4,-27 5,-28 66,-32 62,6 -3,29 -48,40 -51,3 -3,-25 45,-26 40,3 -3,20 -35,15 -30,-8 2,-10 24,-9 23,5 -1,2 -5,4 -8,2"/>
   <g>
    <path class="fil1" d="M9288 2748c-88,100 -120,-98 -30,-63 69,27 -51,115 -29,28 11,-46 63,20 19,18 -9,-1 -3,-30 8,-22 -11,-7 -15,20 -8,20 37,1 -3,-52 -15,-16 -23,65 72,8 25,-18 -66,-36 -49,125 17,44 2,-4 8,-5 11,-2 4,2 5,7 2,11z"/>
   </g>
   <path class="fil2" d="M9281 2743c-43,60 -99,-10 -61,-46 19,-19 61,-12 51,28 -7,26 -51,38 -40,-11 5,-23 55,-11 24,13 -18,15 -11,-28 1,-18"/>
   <path class="fil0" d="M8407 1255c-12,6 -34,18 -40,23 -16,13 -17,21 0,22 -14,3 -16,-7 -13,-12 8,-13 70,-52 53,-33z"/>
   <g>
    <path class="fil0" d="M2338 902l5 -2c46,14 85,72 150,84 201,70 374,99 504,308 22,34 36,42 52,50 12,6 24,12 39,26 72,63 153,81 227,96 111,24 209,56 255,210 24,79 25,133 25,205 1,22 1,44 2,68l60 25 17 6 -6 17 -13 35 -8 9 -42 26 0 50 0 12 -11 5 -6 2 -1 28 -1 11 -9 5 -5 2 0 9 26 5 17 2 -2 17 -5 79 -2 5 0 1 10 2 0 16 0 102 -5 12 -14 15 0 11 0 80 -3 9 -16 27 0 85 -3 10 -8 11 55 1545 -37 2 -55 -1551 3 -11 8 -12 0 -84 3 -10 16 -27 0 -60 -15 -23 6 -7 28 -30 0 -78 -1 0 -24 -3 9 -22 8 -21 4 -59 -26 -4 -16 -3 1 -16 2 -37 1 -11 9 -4 5 -3 1 -28 1 -12 11 -4 4 -2 0 -48 0 -11 9 -5 46 -28 4 -12 -55 -22 -11 -4 -1 -12c-1,-29 -1,-56 -1,-82 -1,-69 -1,-132 -24,-206 -40,-133 -128,-151 -228,-173 -78,-16 -164,-34 -243,-105 -12,-10 -22,-15 -32,-20 -20,-11 -39,-21 -66,-63 -106,-216 -327,-283 -479,-311 -96,-33 -78,-67 -149,-93l0 -6z"/>
    <path class="fil0" d="M2914 1757l1 -2c29,-158 32,-263 -27,-367 -21,-38 -76,-29 -113,-29 -15,5 -47,-6 -52,-29 -19,-57 -55,-81 -81,-96 -3,-1 -12,-5 -15,-9 -27,-38 -1,-153 -111,-219 8,-10 -13,-6 -11,-19 37,27 68,62 91,101 25,44 32,127 53,136 38,15 101,69 111,105 46,-1 114,-3 146,54 64,115 37,252 16,374l-8 0z"/>
    <polygon class="fil0" points="3574,1978 2942,1817 2945,1805 3583,1942 "/>
    <polygon class="fil0" points="2884,1822 2344,1827 2190,1800 2884,1804 "/>
    <polygon class="fil0" points="3451,2215 3025,2127 3024,2086 3459,2179 "/>
    <polygon class="fil0" points="3451,2215 3299,2236 3297,2199 3411,2195 "/>
    <polygon class="fil0" points="3062,2109 3062,2190 3062,2204 3049,2208 3009,2220 3009,2303 3007,2311 2998,2333 2998,2442 2998,2450 2992,2455 2965,2480 2965,2564 2963,2573 2954,2590 3014,4214 2977,4215 2917,2586 2919,2576 2928,2560 2928,2472 2928,2464 2934,2458 2961,2434 2961,2329 2962,2321 2972,2299 2972,2206 2972,2193 2985,2189 3025,2176 3025,2109 "/>
    <polygon class="fil0" points="2773,2070 2773,2146 2837,2176 2847,2181 2847,2192 2847,2286 2872,2300 2913,2272 2916,2276 2883,2337 2874,2343 2864,2338 2820,2312 2810,2307 2810,2296 2810,2204 2747,2174 2736,2169 2736,2158 2736,2070 "/>
    <polygon class="fil0" points="2891,2322 2891,2428 2891,2436 2885,2442 2855,2469 2843,2481 2821,2416 2827,2417 2843,2431 2854,2420 2854,2322 "/>
    <polygon class="fil0" points="2769,2211 2769,2318 2788,2336 2794,2341 2794,2349 2794,2435 2813,2458 2817,2470 2817,2557 2824,2567 2827,2577 2817,4230 2780,4230 2791,2583 2784,2572 2780,2562 2780,2476 2762,2454 2757,2442 2757,2358 2738,2340 2732,2334 2732,2326 2732,2211 "/>
    <polygon class="fil0" points="3500,2200 3500,2281 3500,2289 3493,2295 3466,2327 3466,2389 3505,2419 3482,2448 3436,2413 3429,2407 3429,2398 3429,2318 3429,2310 3435,2304 3477,2268 3477,2200 "/>
    <polygon class="fil0" points="3550,2321 3550,2396 3545,2409 3512,2441 3512,2529 3483,2529 3483,2434 3480,2421 3513,2388 3513,2321 "/>
    <polygon class="fil0" points="3388,2398 3431,2423 3440,2428 3440,2439 3440,2515 3468,2543 3473,2548 3473,2556 3473,2614 3457,2613 3457,2563 3424,2530 3424,2440 3384,2406 "/>
    <polygon class="fil0" points="3402,2464 3402,2533 3428,2556 3434,2562 3434,2570 3434,2643 3444,2659 3446,2668 3441,4227 3405,4227 3409,2673 3400,2657 3397,2648 3397,2578 3371,2555 3365,2549 3365,2541 3365,2464 "/>
    <polygon class="fil0" points="3299,2236 3124,2176 3126,2167 3302,2200 "/>
    <polygon class="fil0" points="3214,2424 3013,2460 3007,2424 3208,2388 "/>
    <polygon class="fil0" points="2755,2088 2212,2088 2773,2070 "/>
    <polygon class="fil0" points="3229,2406 3229,2457 3249,2470 3256,2476 3257,2485 3261,2552 3286,2570 3294,2576 3294,2585 3294,2670 3314,2697 3317,2708 3313,4201 3276,4201 3280,2714 3261,2686 3257,2675 3257,2595 3233,2577 3225,2572 3225,2563 3221,2496 3201,2483 3192,2477 3192,2467 3192,2406 "/>
    <polygon class="fil0" points="2825,2870 2806,2930 2822,3455 2785,3456 2770,2928 2770,2922 2790,2859 "/>
    <polygon class="fil0" points="2567,2429 2650,2559 2659,2575 2662,2584 2662,2649 2669,2655 2676,2661 2676,2670 2676,2755 2689,2771 2693,2783 2693,2846 2702,2867 2703,2872 2710,2925 2710,2928 2693,3994 2680,4158 2674,2928 2667,2879 2658,2857 2656,2850 2656,2789 2643,2772 2639,2761 2639,2678 2632,2672 2625,2667 2625,2658 2625,2589 2567,2429 "/>
    <polygon class="fil0" points="3346,2377 3346,2466 3346,2494 3320,2483 3261,2458 3250,2453 3250,2441 3250,2386 3287,2386 3287,2429 3309,2438 3309,2377 "/>
    <polygon class="fil0" points="3331,2616 3309,2466 3346,2466 3345,2515 "/>
    <polygon class="fil0" points="3347,2574 3367,2533 3400,2550 3380,2590 "/>
    <polygon class="fil0" points="3523,2563 3495,2539 3465,2571 3448,2544 3483,2513 3496,2504 3526,2550 "/>
    <polygon class="fil0" points="3465,2412 3437,2448 3407,2426 3432,2388 "/>
    <polygon class="fil0" points="3547,2386 3581,2443 3556,2464 3516,2405 "/>
    <polygon class="fil0" points="3517,2332 3475,2290 3497,2257 3550,2321 "/>
    <path class="fil0" d="M2347 902l-4 -2c-47,14 -86,72 -150,84 -202,70 -374,99 -505,308 -21,34 -36,42 -52,50 -11,6 -23,12 -38,26 -73,63 -153,81 -227,96 -111,24 -209,56 -256,210 -24,79 -24,133 -25,205 0,22 0,44 -1,68l-61 25 -16 6 6 17 12 35 8 9 42 26 0 50 0 12 11 5 6 2 2 28 0 11 10 5 4 2 1 9 -26 5 -17 2 1 17 6 79 1 5 1 1 -10 2 0 16 0 102 5 12 14 15 0 11 0 80 2 9 17 27 0 85 3 10 7 11 -54 1545 37 2 54 -1551 -3 -11 -7 -12 0 -84 -3 -10 -16 -27 0 -60 15 -23 -7 -7 -27 -30 0 -78 1 0 23 -3 -8 -22 -9 -21 -4 -59 26 -4 17 -3 -1 -16 -3 -37 0 -11 -10 -4 -4 -3 -2 -28 0 -12 -11 -4 -5 -2 0 -48 0 -11 -9 -5 -45 -28 -4 -12 55 -22 11 -4 0 -12c1,-29 2,-56 2,-82 0,-69 1,-132 23,-206 41,-133 128,-151 228,-173 79,-16 164,-34 244,-105 12,-10 22,-15 31,-20 21,-11 40,-21 66,-63 106,-216 328,-283 479,-311 96,-33 78,-67 149,-93l0 -6z"/>
    <path class="fil0" d="M1771 1757l0 -2c-30,-158 -32,-263 26,-367 22,-38 77,-29 113,-29 16,5 47,-6 52,-29 20,-57 56,-81 81,-96 3,-1 13,-5 15,-9 28,-38 2,-153 112,-219 -9,-10 12,-6 11,-19 -38,27 -69,62 -91,101 -25,44 -33,127 -54,136 -38,15 -100,69 -110,105 -46,-1 -114,-3 -146,54 -64,115 -37,252 -16,374l7 0z"/>
    <polygon class="fil0" points="1111,1978 1743,1817 1740,1805 1102,1942 "/>
    <polygon class="fil0" points="1801,1822 2342,1827 2417,1801 2369,1798 1801,1804 "/>
    <polygon class="fil0" points="1234,2215 1660,2127 1662,2086 1226,2179 "/>
    <polygon class="fil0" points="1234,2215 1387,2236 1388,2199 1275,2195 "/>
    <polygon class="fil0" points="1623,2109 1623,2190 1623,2204 1636,2208 1676,2220 1676,2303 1678,2311 1688,2333 1688,2442 1688,2450 1694,2455 1720,2480 1720,2564 1723,2573 1732,2590 1672,4214 1709,4215 1769,2586 1766,2576 1757,2560 1757,2472 1757,2464 1751,2458 1725,2434 1725,2329 1723,2321 1713,2299 1713,2206 1713,2193 1700,2189 1660,2176 1660,2109 "/>
    <polygon class="fil0" points="1912,2070 1912,2146 1849,2176 1838,2181 1838,2192 1838,2286 1814,2300 1772,2272 1769,2276 1802,2337 1812,2343 1822,2338 1866,2312 1875,2307 1875,2296 1875,2204 1938,2174 1949,2169 1949,2158 1949,2070 "/>
    <polygon class="fil0" points="1794,2322 1794,2428 1794,2436 1800,2442 1830,2469 1843,2481 1865,2416 1858,2417 1843,2431 1831,2420 1831,2322 "/>
    <polygon class="fil0" points="1917,2211 1917,2318 1897,2336 1891,2341 1891,2349 1891,2435 1873,2458 1868,2470 1868,2557 1861,2567 1858,2577 1868,4230 1905,4230 1895,2583 1902,2572 1905,2562 1905,2476 1924,2454 1928,2442 1928,2358 1948,2340 1954,2334 1954,2326 1954,2211 "/>
    <polygon class="fil0" points="1185,2200 1186,2281 1186,2289 1192,2295 1220,2327 1220,2389 1181,2419 1203,2448 1250,2413 1257,2407 1257,2398 1257,2318 1257,2310 1250,2304 1208,2268 1208,2200 "/>
    <polygon class="fil0" points="1135,2321 1135,2396 1141,2409 1174,2441 1174,2529 1203,2529 1203,2434 1205,2421 1172,2388 1172,2321 "/>
    <polygon class="fil0" points="1297,2398 1255,2423 1246,2428 1246,2439 1246,2515 1218,2543 1213,2548 1213,2556 1213,2614 1228,2613 1228,2563 1262,2530 1262,2440 1302,2406 "/>
    <polygon class="fil0" points="1283,2464 1283,2533 1257,2556 1251,2562 1251,2570 1251,2643 1242,2659 1240,2668 1244,4227 1281,4227 1276,2673 1286,2657 1288,2648 1288,2578 1314,2555 1320,2549 1320,2541 1320,2464 "/>
    <polygon class="fil0" points="1387,2236 1561,2176 1559,2167 1383,2200 "/>
    <polygon class="fil0" points="1471,2424 1673,2460 1679,2424 1478,2388 "/>
    <polygon class="fil0" points="1931,2088 2341,2088 1912,2070 "/>
    <polygon class="fil0" points="1456,2406 1456,2457 1437,2470 1429,2476 1428,2485 1424,2552 1399,2570 1391,2576 1391,2585 1391,2670 1372,2697 1368,2708 1373,4201 1410,4201 1405,2714 1425,2686 1428,2675 1428,2595 1453,2577 1460,2572 1461,2563 1465,2496 1485,2483 1493,2477 1493,2467 1493,2406 "/>
    <polygon class="fil0" points="1861,2870 1879,2930 1864,3455 1900,3456 1916,2928 1915,2922 1896,2859 "/>
    <polygon class="fil0" points="2035,2477 2035,2559 2026,2575 2024,2584 2024,2649 2016,2655 2010,2661 2010,2670 2010,2755 1996,2771 1992,2783 1992,2846 1983,2867 1982,2872 1975,2925 1975,2928 1992,3994 2029,3994 2012,2928 2018,2879 2028,2857 2029,2850 2029,2789 2043,2772 2047,2761 2047,2678 2054,2672 2061,2667 2061,2658 2061,2589 2035,2477 "/>
    <polygon class="fil0" points="1885,4016 2587,4013 1885,3979 "/>
    <polygon class="fil0" points="1339,2377 1339,2466 1339,2494 1365,2483 1424,2458 1435,2453 1435,2441 1435,2386 1398,2386 1398,2429 1376,2438 1376,2377 "/>
    <polygon class="fil0" points="1355,2616 1376,2466 1339,2466 1340,2515 "/>
    <polygon class="fil0" points="1339,2574 1318,2533 1285,2550 1306,2590 "/>
    <polygon class="fil0" points="1163,2563 1190,2539 1220,2571 1237,2544 1203,2513 1190,2504 1159,2550 "/>
    <polygon class="fil0" points="1221,2412 1249,2448 1278,2426 1254,2388 "/>
    <polygon class="fil0" points="1138,2386 1105,2443 1129,2464 1170,2405 "/>
    <polygon class="fil0" points="1168,2332 1211,2290 1189,2257 1135,2321 "/>
   </g>
   <path class="fil0 str0" d="M8545 4230c0,-13 32,-17 33,-29 2,-48 3,-83 -35,-119 -44,-42 -28,-388 -10,-460 16,-59 69,-61 89,-70 7,-3 13,-5 13,-8 4,-18 12,-27 19,-34 7,-8 13,-15 12,-30 -2,-59 -4,-93 -14,-124 -10,-30 -27,-58 -60,-105 -22,-32 -47,-43 -71,-53 -24,-10 -48,-20 -67,-51l-1 -2c-1,-14 16,-40 39,-64 22,-24 49,-46 67,-52 9,-3 14,-6 17,-10 2,-3 2,-6 2,-9 0,-3 -2,-6 -4,-9 -3,-5 -8,-9 -10,-9 -97,-44 -101,-158 -14,-166 -2,-2 -4,-4 -6,-7 -95,-116 -54,-208 80,-182 3,0 -4,-1 -4,-2 0,-21 -3,-85 -6,-146 -2,-54 -4,-105 -4,-120 0,-21 1,-37 1,-48 1,-14 1,-21 0,-24 -1,-2 -3,-2 -8,-3 -6,-1 -13,-2 -24,-6 -32,-12 -54,-24 -64,-42 -10,-17 -9,-39 4,-70 -10,-7 -9,-17 -3,-28 4,-8 11,-16 18,-25 10,-12 20,-23 16,-26 -39,-39 -39,-72 -39,-114 0,-2 0,-4 0,-7 -31,1 -47,4 -56,6 -6,2 -9,3 -13,1 -3,-2 -4,-6 -6,-13 -41,-130 -88,-58 -26,-171 13,-38 43,-65 73,-91 10,-10 17,-15 26,-25 -7,-8 -3,-45 -3,-72 -1,-14 -1,-26 -2,-32 -3,-24 -3,-38 -4,-49 -1,-21 -1,-29 -18,-81 -11,-35 -27,-55 -41,-71 -17,-20 -30,-36 -26,-65 0,-7 -5,-5 -11,-1 -10,7 -22,19 -27,24 -22,21 -45,31 -57,28 -10,-1 -16,-9 -19,-18 -3,-9 4,-23 7,-31 2,-3 3,-6 5,-8 -1,0 -3,-1 -5,-1 -20,-5 -37,-17 -50,-32 -13,-15 -20,-33 -20,-50 0,-5 0,-10 2,-15l0 -3c15,-5 56,34 71,21 37,-33 58,-40 87,-36 22,10 48,30 98,-13 50,-38 83,-85 120,-92 109,-21 236,55 277,287 1,-1 1,-18 2,-20 6,-7 12,-14 14,-16 39,-25 50,-67 62,-110 28,-154 175,-351 350,-332 23,1 43,2 80,-25 16,-12 32,-31 46,-48 19,-22 61,-66 61,-3 0,28 -19,67 -36,89 -10,11 -21,20 -31,26 6,15 67,25 67,25 28,-20 66,-17 103,-13 29,2 58,5 81,-3 26,-9 35,-21 50,-43l4 -5c14,-20 26,-29 34,-31 5,-1 9,-1 12,0 3,2 5,5 7,8 2,6 2,15 -1,23 -5,12 -9,24 -14,37 -23,64 -48,133 -120,126 1,1 2,1 3,1 4,2 8,3 16,4 4,1 8,2 14,3 30,6 56,9 54,16 -1,4 -6,7 -14,12 -9,5 -38,15 -49,27 -20,25 -63,10 -97,-1 -19,-7 -35,-12 -37,-9 -5,7 -9,13 -13,18 -11,16 -13,31 -13,47 1,7 -3,9 -8,13 -7,4 -24,7 -31,40 -2,7 -11,17 -17,31 -12,31 -30,74 -28,103 0,1 -1,2 -1,5 -3,10 -1,42 -1,55 0,44 -11,44 -26,44 -4,0 -10,-3 -17,-5 -9,-2 -14,2 -29,2 0,50 12,74 18,88 2,5 4,9 4,13 1,11 -6,27 -8,37 -41,140 239,90 113,260 -11,53 -22,100 -100,54 -1,-1 -41,-2 -69,3 -8,2 -14,4 -19,6 -3,2 -5,5 -4,7 2,12 50,17 52,78 1,41 -25,58 -53,82 -5,3 -8,6 -10,8l4 3 1 1c36,21 62,78 57,111 -5,51 -80,90 -121,90 0,3 -1,9 -2,16 -5,22 -13,143 -15,232 0,27 0,51 1,69 1,14 2,23 2,24 30,-4 60,-6 83,4 52,23 42,86 4,123 -11,11 -22,22 -24,29l0 0c-1,4 2,8 11,10 108,17 85,134 -1,187 -12,7 -21,12 -23,16l0 0c-3,6 10,15 52,37 14,8 13,20 13,31 -1,2 -1,5 -1,7 1,7 4,13 26,12 12,-1 20,2 24,8 3,4 4,9 3,14 0,5 -3,11 -6,16 -12,18 -36,36 -63,41 -33,5 -60,30 -80,63 -28,44 -44,102 -49,144 -1,4 -2,8 -2,13 -4,18 -7,39 5,51l2 1 -1 2c-5,35 6,42 16,48 11,7 21,13 14,41 11,9 22,15 33,21 33,17 78,10 87,101 9,89 18,302 -14,379 -9,24 -25,35 -47,26 -5,-2 -9,-2 -13,-1 -6,3 -11,10 -14,21 -4,11 -7,26 -8,41 -5,46 -1,97 -1,97l1 5c-1,-1 -14,-55 -9,-102 1,-16 4,-32 8,-44 5,-13 11,-23 20,-26 5,-3 12,-3 19,0 17,7 28,-1 36,-20 29,-70 6,-267 -2,-335 -1,-8 -2,-14 -2,-18 -9,-86 -34,-100 -66,-117 -11,-6 -23,-12 -36,-22l-2 -2 1 -3c7,-24 -1,-29 -10,-34 -12,-7 -26,-16 -20,-55 -14,-15 -10,-37 -6,-57 1,-4 1,-8 2,-12 5,-43 22,-103 50,-148 22,-35 50,-61 86,-67 25,-4 47,-21 57,-37 3,-4 5,-8 6,-12 0,-3 0,-6 -2,-8 -2,-3 -8,-4 -17,-4 -29,1 -34,-8 -35,-21 0,-2 0,-5 1,-8 0,-8 1,-17 -9,-22 -47,-26 -62,-36 -55,-49l0 0c4,-6 13,-12 26,-20 9,-5 20,-12 32,-20 10,-7 17,-18 20,-31l0 0c31,-62 1,-123 -49,-119 -15,-4 -19,-12 -17,-21l0 0c-5,7 108,-125 -53,-145l0 0c-1,0 -1,0 -1,0l0 0c-6,-1 -10,-13 -11,-33 -1,-17 -1,-42 -1,-69 2,-90 10,-212 15,-234 1,-7 -1,-22 10,-23 2,0 5,0 13,-3 49,-21 72,-47 76,-78 5,-31 -8,-66 -31,-105l-6 -4c-3,-2 -4,-5 -1,-9 2,-3 7,-7 13,-12 4,-4 8,-7 12,-11 2,-2 4,-4 6,-6 12,-15 16,-38 15,-60 -2,-22 -8,-42 -18,-52 0,-1 -1,-2 -2,-3 -10,-7 -14,-14 -15,-19 -1,-7 2,-12 9,-16 5,-3 12,-6 21,-7 29,-6 73,-4 75,-4 59,25 72,-10 87,-49 6,-15 12,-30 21,-44 68,-104 -179,-95 -129,-220 2,-10 4,-19 3,-29 0,-2 -1,-5 -3,-9 -7,-15 -19,-42 -19,-97l0 -4 4 0c19,0 25,-8 35,-5 6,1 10,2 14,2 7,0 16,2 16,-35 0,-14 6,-39 9,-49 0,-2 0,-2 0,-3 -1,-31 17,-75 30,-106 5,-14 10,-26 11,-32 8,-37 21,-45 29,-50 3,-2 5,-3 5,-5 -1,-19 7,-31 20,-48 4,-5 8,-11 12,-18 7,-9 25,-3 48,5 31,11 71,24 88,5 11,-14 25,-22 35,-28 6,-3 10,-6 10,-6 0,-1 -8,-2 -32,-7 -5,-1 -9,-2 -13,-3 -9,-2 -14,-2 -18,-4 -5,-2 -9,-4 -18,-9 -5,-2 -11,-6 -18,-9l4 -8c108,38 133,-77 163,-150 2,-5 0,-20 -4,-22 -9,-5 -34,25 -38,30l-3 5c-17,24 -26,36 -55,46 -25,9 -55,6 -84,3 -36,-3 -69,3 -94,21 -8,2 -152,1 -100,-44 1,0 2,0 3,0 14,0 31,-12 45,-29 15,-18 26,-42 28,-65 0,-3 0,-5 0,-7 0,-25 -2,-34 -6,-34 -7,0 -19,15 -33,32 -14,17 -31,36 -48,49 -40,29 -48,28 -72,27 -21,-1 -59,-20 -133,20 -227,138 -188,378 -287,421 -1,1 -7,7 -12,14 -4,6 -8,12 -9,14l-1 3c-9,0 -8,-3 -8,-12 -2,-73 -74,-178 -134,-214 -55,-32 -97,-40 -131,-33 -35,7 -68,31 -118,68 -39,30 -69,25 -97,21 -27,-5 -53,-9 -87,22 -12,10 -32,2 -49,-6 -8,-4 -16,-8 -20,-8 -1,3 -1,6 -1,10 0,15 6,31 18,44 11,14 27,24 46,29 5,2 11,3 17,3 2,0 3,0 4,0l0 9c-15,0 -29,30 -26,38 7,32 54,2 64,-17 6,-6 18,-18 29,-25 15,-10 27,-13 24,9 -3,25 9,40 24,58 15,17 32,38 44,75 16,52 17,61 18,83 1,10 1,24 4,48 1,6 1,19 2,32 0,27 0,61 3,61l5 0 10 0 -7 7c-11,13 -24,24 -37,36 -29,26 -58,52 -71,88 -6,17 -12,26 -17,33 -9,15 -11,18 16,69 18,34 24,54 28,64 1,5 2,7 2,7 0,0 2,0 6,-1 10,-2 27,-7 63,-7l4 0 0 5c0,1 0,6 0,11 0,40 0,71 36,108 10,9 -2,23 -15,38 -7,8 -14,16 -18,24 -3,7 -4,13 4,17l4 2 -2 4c-13,30 -15,50 -6,65 9,16 29,27 60,38 9,4 16,5 21,6 9,2 13,2 15,9 2,4 2,12 1,27 0,11 -1,26 -1,48 0,15 2,66 4,120 3,61 6,125 6,146 0,7 -2,11 -5,11 -23,0 -43,2 -59,8 -17,5 -30,13 -38,25 -9,11 -14,26 -14,44 0,15 3,32 10,52 4,12 18,27 27,38 6,6 10,11 11,13l0 0c1,3 0,6 -3,7l0 0c-74,15 -80,120 9,150 4,1 10,7 15,13 2,4 4,9 5,13 1,6 -1,11 -4,16 -4,4 -11,9 -21,12 -17,6 -43,27 -64,50 -20,22 -36,45 -36,56 18,28 40,37 63,47 25,10 51,21 75,56 33,47 50,76 61,107 10,32 12,66 14,126 1,19 -6,28 -14,37 -7,7 -14,14 -17,30 -2,7 -9,10 -19,15 -69,28 -88,152 -93,220 -1,8 -2,17 -3,28 -7,79 -20,229 20,266 80,97 32,166 -4,162 -5,0 0,11 0,16l0 -23z"/>
   <path class="fil0" d="M11434 1575l4 -494c1,-7 7,-7 7,0l4 494 -15 0z"/>
   <path class="fil0" d="M11424 1575l4 -495 0 0c0,-6 3,-11 7,-13l0 0c2,-2 5,-2 7,-2 3,0 5,1 7,2l0 0c4,3 7,7 7,13l0 0 4 495 0 11 -11 0 -15 0 -10 0 0 -11z"/>
   <path class="fil0" d="M11438 1111c-73,-10 -140,-5 -178,65 -38,79 -112,92 -185,97 -92,7 -188,28 -207,150 0,1 0,1 0,1 1,1 3,2 7,3 13,3 54,-2 65,-8 82,-51 154,-27 219,-6 51,17 98,33 141,8 42,-24 73,-40 117,-41 6,0 12,0 19,0l0 26c-7,0 -13,0 -19,0 -43,1 -72,1 -112,24 -46,27 -96,11 -149,-7 -177,-78 -149,12 -256,13 -8,0 -15,0 -21,-2 -7,-1 -12,-4 -14,-9 0,-2 0,-4 0,-6 25,-123 118,-137 210,-152 71,-11 142,-22 177,-86 21,-40 51,-61 84,-71 33,-10 69,-9 103,-5l-1 6z"/>
   <path class="fil0" d="M11437 1121c-35,-5 -69,-6 -98,3 -28,8 -52,25 -69,57 -21,42 -50,67 -85,81l0 0c-34,14 -71,19 -109,21l0 0c-45,4 -90,11 -127,31 -33,19 -59,50 -69,103 6,1 17,0 28,-1 12,-2 23,-4 26,-7 44,-26 84,-33 122,-31 38,3 73,14 107,25l0 0c49,16 93,31 132,9 21,-13 40,-23 59,-30 20,-8 39,-12 63,-12l9 0 10 -1 11 0 -1 11 0 26 0 10 -10 0 -9 1 0 0 -10 0c-21,0 -38,0 -55,3 -17,3 -33,9 -51,19 -51,30 -102,13 -158,-5l-1 -1 0 0c-107,-47 -135,-31 -166,-12 -21,12 -44,25 -86,26 -4,0 -9,0 -12,0 -4,-1 -8,-1 -11,-2l0 0c-5,-1 -9,-3 -13,-6 -4,-2 -7,-6 -9,-11l0 0c0,-2 -1,-4 -1,-6 0,-1 0,-3 1,-5 13,-65 44,-102 84,-124l0 0c40,-22 87,-29 134,-36 69,-11 137,-22 169,-81 12,-21 25,-38 41,-50 15,-13 32,-21 50,-27 17,-5 36,-7 54,-8 18,0 36,1 53,4l11 1 -2 11 0 5 -2 11 -10 -2zm-19 270c-16,0 -29,2 -42,6 13,-1 26,-1 41,-1l8 -1 0 -4 -7 0z"/>
   <path class="fil0" d="M12349 2956c-207,54 -681,46 -922,46l-13 -2c243,0 742,-6 949,-60l-14 16z"/>
   <path class="fil0" d="M12351 2967c-185,48 -582,47 -838,46 -31,0 -60,0 -86,0l-2 0 -13 -2 2 -21c121,0 307,-2 488,-10 180,-8 356,-23 459,-50l10 18 -14 16 -6 3z"/>
   <path class="fil0" d="M10456 1885c0,41 7,168 -5,199 -5,2 2,-44 0,-93 -1,-45 -11,-94 -11,-106l0 0c0,-11 15,-9 16,0z"/>
   <path class="fil0" d="M10466 1885c0,8 1,22 1,37 2,56 4,140 -6,166l-2 4 -4 2c-8,3 -13,0 -15,-8l0 0c-2,-5 -1,-16 -1,-33 1,-16 2,-39 1,-62 -1,-28 -5,-58 -8,-79 -2,-12 -3,-22 -3,-27l0 0 0 -1c0,-8 5,-13 11,-16 2,-1 5,-1 7,-1l0 0c3,0 5,0 8,1 6,3 11,8 11,16l0 1z"/>
   <path class="fil0" d="M10053 1885c0,41 -7,168 4,199 5,2 -1,-44 1,-93 1,-45 11,-94 11,-106l0 0c0,-11 -16,-9 -16,0z"/>
   <path class="fil0" d="M10042 1922c0,-15 0,-29 0,-37l0 -1c1,-8 6,-13 12,-16l0 0c2,-1 5,-1 7,-1l0 0c3,0 5,0 8,1 6,3 10,8 11,16l0 1 0 0c0,5 -2,15 -4,27 -3,21 -7,51 -8,79 -1,23 0,45 1,62 1,17 1,28 0,33l0 0c-3,8 -8,11 -15,8l-5 -2 -2 -4c-9,-26 -7,-110 -5,-166z"/>
   <path class="fil0" d="M10351 1885c0,41 7,168 -5,199 -5,2 -9,-43 -11,-93 -1,-45 0,-94 0,-106l0 0c0,-11 15,-9 16,0z"/>
   <path class="fil0" d="M10361 1885c0,8 1,22 1,37 2,56 4,140 -6,166l-2 5 -6 1 0 0 -1 1c-7,0 -11,-4 -14,-13 -1,-3 -2,-8 -3,-15 -2,-17 -4,-46 -5,-75 -1,-37 -1,-78 -1,-97l0 -10 0 0 0 0 0 -1c0,-8 5,-13 11,-16 2,-1 5,-1 7,-1l0 0c3,0 5,0 8,1l0 0c6,3 11,8 11,16l0 1z"/>
   <path class="fil0" d="M10165 1885c0,41 7,168 -5,199 -4,2 -9,-43 -10,-93 -2,-45 -1,-94 -1,-106l0 0c0,-11 15,-9 16,0z"/>
   <path class="fil0" d="M10175 1885c0,8 1,22 1,37 2,56 4,140 -6,166l-2 5 -5 1 -1 0 0 1c-8,0 -12,-4 -15,-13 -1,-3 -2,-8 -3,-15 -2,-17 -4,-46 -5,-75 -1,-37 -1,-78 -1,-97l0 -10 0 0 0 -1c1,-8 5,-13 11,-16l0 0c2,-1 5,-1 8,-1l0 0c2,0 5,0 7,1 6,3 11,8 11,16l0 1z"/>
   <path class="fil0" d="M10431 3076c-9,-1 -141,13 -220,12 -23,-1 -55,-1 -62,-5 0,0 49,1 54,1 82,4 197,-17 227,-23l6 6 -5 9z"/>
   <path class="fil0" d="M10430 3087c-2,0 -14,0 -32,2 -46,4 -130,10 -188,9l-7 0c-23,0 -51,-1 -59,-5l-5 -4 0 -6c0,-8 6,-10 15,-10l0 0 12 0 0 0c15,0 34,1 37,1l0 0c31,1 66,-1 100,-4 56,-6 106,-16 125,-20l6 -1 4 5 6 6 5 6 -4 7 -5 8 -3 6 -7 0z"/>
   <path class="fil0" d="M10347 3727c-68,4 -232,17 -295,1l14 -9c69,17 199,9 273,5l8 3z"/>
   <path class="fil0" d="M10348 3737l-31 2c-79,5 -211,14 -268,-1l-23 -6 20 -13 14 -9 4 -3 5 1c65,17 189,10 263,6l0 0 7 -1 4 1 8 3 -3 20z"/>
   <path class="fil0" d="M10463 4189c3,-18 5,-37 6,-58 0,-23 0,-49 -1,-76l0 0 -17 -327 -10 0 -7 0 0 -6c0,-58 -1,-118 -2,-181 -2,-63 -3,-130 -4,-200l0 -2c2,-13 9,-24 17,-34 4,-5 9,-9 14,-14l-9 0 -6 0 0 -6 -13 -210 -1 -6 3 0 -2 -1 -4 -2 0 -4c-3,-116 -7,-238 -11,-364 -5,-131 -22,-247 -28,-378l15 -15 27 -25 4 -2 30 0 0 -52 1 -4 21 -24 -1 -45 0 -3 3 -2 17 -13 14 -125 -7 -3 -4 -2 0 -4 -9 -135 13 -7 36 -16 0 -65 -83 -24 -101 -7 -20 0 -14 -520 -1 -5 5 -1 8 -3c2,-36 -3,-67 -17,-93 -13,-26 -36,-47 -68,-63l-3 -1 0 -3 -3 -36 -2 36 -1 3 -3 1c-31,16 -54,37 -68,63 -13,26 -19,57 -17,93l9 3 4 1 0 5 -18 519 -17 1 -100 7 -84 24 0 65 37 16 16 6 -12 136 0 4 -4 2 -8 3 16 126 16 12 3 2 0 3 -1 45 20 24 2 4 0 52 30 0 4 2 41 40c-5,130 -22,247 -27,378 -4,126 -8,248 -11,364l0 4 -4 2 -2 1 2 0 0 6 -13 210 -1 6 -6 0 -8 0c5,5 10,9 14,14 8,10 14,21 17,34l0 2c-2,70 -3,137 -4,200 -1,63 -2,123 -3,181l0 6 -6 0 -10 0 -17 327 0 0c-2,27 -2,53 -1,76 1,21 3,40 5,58l-10 12 -1 -5c-4,-19 -6,-41 -7,-65 -1,-23 0,-49 1,-77l0 0 17 -333 0 -6 7 0 10 0c0,-55 1,-113 2,-174 1,-64 3,-130 4,-200 -2,-11 -7,-20 -14,-28 -7,-8 -17,-16 -26,-23l3 -12 21 0 13 -199 -13 -2 -1 -13 18 -7c3,-115 7,-235 11,-360 5,-125 10,-254 15,-385l-23 -21 -33 0 -7 0 0 -6 0 -57 -20 -23 -2 -5 1 -44 -32 -23 -3 -2 0 -3 0 -122 0 -4 4 -2 8 -3 0 -128 -37 -16 -4 -1 0 -4 0 -75 0 -5 5 -1 89 -25 1 0 97 -26 27 -485 -8 -2 -4 -1 0 -5c-12,-82 13,-143 89,-171l4 -18c-10,-2 -19,-8 -24,-16 -3,-5 -5,-10 -5,-16 -1,-5 0,-11 2,-17 4,-9 13,-18 28,-22 0,-1 0,-2 1,-3 0,-2 3,-3 2,-4 -12,-6 -20,-13 -24,-20 -2,-4 -3,-7 -3,-11 0,-4 1,-8 3,-12 3,-7 11,-13 21,-20 1,-2 1,-4 2,-5 0,-2 1,-3 1,-4 0,-1 0,-2 0,-2 0,-1 0,-1 0,-1 -10,-9 -15,-18 -15,-27 0,-9 5,-17 14,-24 0,-1 0,-2 0,-3 -1,-3 -2,-7 -2,-10 -11,-6 -17,-13 -16,-22l0 0c0,-7 5,-14 14,-21l4 -3 1 -101c1,-11 12,-10 13,0l1 101 4 3c9,7 13,14 14,21l0 0c0,9 -5,16 -16,22 0,3 -1,7 -2,10 0,1 -1,2 -1,3 10,7 14,15 15,24 0,9 -5,18 -15,27 0,0 0,0 0,1 0,0 0,1 0,2 0,1 0,2 1,4 0,1 1,3 1,5 11,7 18,13 22,20 2,4 3,8 3,12 0,4 -1,7 -3,11 -4,7 -12,14 -24,20 -1,1 2,2 2,4 0,1 1,2 1,3 15,4 24,13 28,22 2,6 3,12 2,17 -1,6 -3,11 -6,16 -5,8 -13,14 -23,16l4 18c76,30 101,91 89,171l0 5 -5 1 -7 2 27 486 96 25 2 0 88 25 5 1 0 5 0 75 0 4 -4 1 -36 16 0 128 7 3 4 2 0 4 0 122 0 3 -2 2 -32 23 1 44 -2 5 -20 23 0 57 0 6 -7 0 -33 0 -23 21c5,131 10,260 14,385 5,125 9,245 11,360l19 7 -1 13 -13 2 12 199 21 0 4 12c-10,7 -19,15 -26,23 -7,8 -12,17 -15,28 2,70 3,136 4,200 1,61 2,119 3,174l10 0 6 0 1 6 17 333 0 0c1,28 1,54 0,77 -1,24 -3,46 -6,65l-1 5 -5 0 -6 -12zm-216 -3167l8 0c9,0 16,-5 20,-11 2,-3 3,-7 3,-10 1,-4 0,-7 -1,-11 -3,-7 -10,-13 -23,-16l-3 -29 -2 29c-13,3 -20,9 -23,16 -2,4 -2,7 -2,11 1,3 2,7 4,10 4,6 11,11 19,11zm4 -77l1 0c10,-5 16,-10 19,-15 1,-2 1,-4 1,-5 0,-2 0,-4 -1,-6 -3,-5 -9,-10 -18,-16 -1,0 -1,-33 -2,-34 -1,1 -1,34 -2,35 -8,5 -14,10 -17,15 -1,2 -2,4 -2,6 0,1 1,3 2,5 3,5 9,10 19,15l0 0zm0 -76c6,-5 9,-10 9,-15 0,-4 -3,-8 -7,-12 0,0 -1,-34 -2,-35 0,1 -1,35 -1,35 -5,4 -7,8 -7,12 0,5 2,10 8,15zm0 -62c9,-4 13,-8 13,-11l0 0c0,-4 -5,-9 -13,-15 -8,6 -12,11 -12,15l0 0c-1,3 4,7 12,11z"/>
   <path class="fil0" d="M10453 4187c1,-9 2,-17 3,-27 1,-9 2,-19 2,-29 0,-12 1,-24 0,-37 0,-12 0,-25 -1,-39l-16 -316 0 0 -7 0 -10 0 0 -11 0 -6 -2 -88 -1 -93 -2 -97c0,-33 -1,-68 -2,-103l0 -1 0 -1 0 -2c2,-7 4,-15 8,-21 3,-5 6,-10 9,-15l0 -9 -1 -6 -13 -211 0 0 -4 -1 0 -8 0 -4c-1,-58 -3,-117 -5,-178 -2,-61 -4,-123 -6,-186 -2,-67 -8,-130 -14,-193 -5,-60 -11,-121 -13,-184l0 -5 3 -3 14 -15 0 -1 27 -25 4 -2 4 -2 4 -1 19 0 0 -41 1 -4 1 -4 2 -3 18 -21 -1 -41 0 0 0 -3 0 -6 5 -3 2 -2 14 -10 13 -112 0 0 -4 -2 -7 -3 0 -7 0 -4 -9 -134 0 -7 6 -4 13 -6 1 -1 30 -13 0 -50 -75 -21 -99 -8 -20 1 -11 0 0 -11 -14 -519 0 0 0 -5 -1 -9 8 -2 5 -2 1 0c0,-14 -1,-28 -3,-40 -2,-15 -7,-28 -13,-40 -6,-12 -15,-23 -25,-33l0 0c-11,-10 -24,-18 -38,-25l-2 -1 -1 1c-15,7 -28,15 -38,25l0 0c-10,10 -19,21 -25,33l0 0c-7,12 -11,25 -14,40 -2,12 -3,26 -2,40l1 0 4 2 8 2 0 9 0 5 0 0 -18 519 -1 10 -10 0 -16 0 0 0 -99 8 -75 21 0 50 30 13 0 0 16 7 7 3 -1 7 -12 135 0 4 0 7 -6 3 -4 2 0 0 14 113 12 9 3 2 5 3 -1 6 0 3 0 41 17 21 2 3 2 4 1 4 0 41 18 0 4 1 5 2 3 2 42 40 3 3 0 5c-3,63 -8,124 -13,184l0 0c-6,64 -12,127 -14,194 -3,63 -5,126 -6,186 -2,61 -4,120 -5,178l-1 4 0 8 -3 1 0 0 -14 211 0 6 -1 9c4,5 7,10 10,15 3,6 6,14 7,21l1 2 0 1 0 1 -2 103 -2 97c-1,32 -1,63 -2,93 0,30 -1,59 -1,88l0 6 0 11 -11 0 -6 0 0 0 -17 316 0 2c0,13 -1,26 -1,37 0,13 0,25 1,37l0 0c0,10 1,20 2,29 1,10 2,19 3,27l1 5 -4 4 -10 12 -15 16 -4 -21 -1 -5c-2,-10 -3,-20 -4,-32 -1,-10 -2,-22 -2,-34 -1,-12 -1,-25 -1,-38 0,-13 1,-26 1,-40l0 0 0 0 0 -1 18 -332 0 -6 0 -11 10 0 6 0 1 -74c1,-29 1,-59 2,-90l1 -97 0 0 3 -101c-1,-4 -3,-7 -5,-11 -2,-4 -4,-8 -7,-11 -3,-4 -7,-7 -11,-11 -4,-3 -9,-7 -14,-10l-6 -5 2 -7 4 -12 3 -7 7 0 11 0 12 -180 -4 -1 -8 -2 0 -7 -2 -13 0 -8 7 -2 12 -5c1,-55 3,-112 5,-170 1,-60 3,-121 6,-183 2,-63 4,-127 7,-191 2,-63 5,-126 7,-189l-16 -16 -29 1 -7 0 -11 0 0 -11 0 -6 0 -53 -17 -20 -2 -4 -2 -4 -1 -4 1 -39 -27 -19 0 0 -3 -2 -4 -3 0 -6 0 -3 0 -122 0 -4 0 -8 6 -2 4 -2 1 0 0 -114 -30 -13 0 0 -4 -1 -6 -3 0 -7 0 -4 0 -75 0 -5 0 -8 8 -2 4 -1 89 -25 1 -1 1 0 89 -23 26 -469 -4 -1 -7 -2 -1 -8 0 -4c-6,-44 -2,-83 14,-114l0 0c15,-29 40,-51 77,-66l0 -3c-2,-1 -4,-2 -7,-4 -5,-3 -9,-8 -13,-13l0 0c-2,-3 -3,-7 -4,-10 -2,-3 -3,-7 -3,-11 0,-3 0,-7 0,-11l0 0c1,-4 2,-7 3,-11l0 0c3,-6 7,-13 14,-18l0 0c2,-2 5,-4 9,-6 -2,0 -3,-1 -4,-2 -5,-5 -9,-9 -11,-14l0 0c-2,-2 -3,-5 -4,-8l0 0c-1,-2 -1,-5 -1,-8l0 0c0,-6 1,-12 4,-17 3,-4 6,-9 11,-13 3,-3 7,-6 11,-9l0 -1 1 0 0 0 0 0c-4,-4 -8,-8 -10,-13 -3,-6 -5,-12 -5,-19 1,-6 2,-12 6,-17l0 0c2,-4 4,-7 7,-10 0,-1 0,-2 0,-3 -5,-3 -8,-6 -11,-10l0 0c-4,-5 -6,-12 -6,-18l1 -10 2 0c0,-2 2,-4 3,-6 3,-5 7,-9 12,-14l0 0 1 -95 0 -1c1,-8 5,-13 9,-16l0 0c3,-1 6,-2 9,-2 3,0 5,1 8,3l0 0c4,2 8,8 8,15l0 1 1 95 0 0c6,5 10,9 13,14l0 0c3,5 5,10 5,16 1,6 -1,13 -5,18 -3,4 -7,7 -11,10l-1 3c3,3 6,6 8,10 3,5 5,11 5,17 1,7 -1,13 -4,19 -3,5 -6,9 -10,13l0 0 0 0 0 1c5,3 9,6 12,9 4,4 8,9 10,13l0 0c2,3 3,5 4,8l0 0c0,3 1,6 1,9 0,3 -1,6 -2,8l0 0c0,3 -2,6 -3,8l0 0c-3,5 -7,9 -11,14 -1,1 -3,2 -4,2 3,2 6,4 9,6l0 0c6,5 11,12 14,18l0 0c1,4 2,7 3,11l0 0c0,4 0,8 0,11 -1,4 -2,8 -3,11l0 0c-1,3 -3,7 -5,10l0 0c-3,5 -8,10 -13,13 -2,2 -4,3 -7,4l1 3c37,16 62,39 77,67 16,32 20,70 13,114l0 3 0 8 -7 2 -4 1 26 470 89 22 0 0 1 1 89 25 5 1 8 2 0 8 0 5 0 75 0 4 0 7 -7 3 -4 1 0 0 -30 13 0 114 1 0 4 2 7 2 0 8 0 4 0 122 0 3 0 6 -4 3 -3 2 -28 19 1 39 0 4 -2 4 -2 4 -18 20 0 53 0 6 0 11 -11 0 -6 0 -29 -1 -17 16c3,63 6,126 8,189 2,65 5,128 7,191 2,62 4,123 6,183 2,58 3,115 5,170l11 5 8 2 -1 8 -1 13 -1 7 -7 2 -4 1 11 180 11 0 8 0 2 7 4 12 3 7 -7 5c-4,3 -9,7 -13,10 -4,4 -8,7 -11,11l0 0c-3,3 -6,7 -8,11 -1,4 -3,7 -4,11l2 101 0 0 2 97 1 90 0 0 2 74 5 0 10 0 1 11 0 6 17 332 1 1 0 0 -1 0c1,14 1,27 1,40 1,13 0,26 0,38l0 0c-1,12 -1,24 -2,34 -1,12 -3,22 -5,32l0 5 -2 8 -8 0 -5 1 -8 0 -3 -6 -5 -13 -1 -6zm9 -898l0 2 3 -2 -3 0zm-26 -220l3 0 -3 -1 0 1zm-37 -745c2,49 6,95 10,141 -2,-47 -4,-96 -6,-145l-4 4zm123 -239l-5 44 5 -3 0 -41zm-12 -213l0 3 0 -3 0 0zm-145 -136l51 4 -49 -12 -7 -2 -1 -8 -11 -200 6 218 10 0 1 0zm-220 0l4 -114 -6 95 0 7 -7 2 -53 14 55 -4 0 0 7 0zm-150 136l-2 -1 0 33 2 -32zm-7 259l-7 -53 0 48 7 5zm116 193l-5 -4c-2,49 -4,98 -5,147 4,-47 7,-94 10,-143zm-37 745l0 -1 -3 1 3 0zm-27 222l1 -2 -3 0 2 2zm207 -2279l8 0 0 0c2,-1 4,-1 6,-2 2,-1 3,-3 5,-5 0,-1 1,-2 1,-3 0,0 1,-1 1,-2l0 0c0,-2 0,-2 0,-3 0,-1 -1,-2 -1,-3l0 0c-1,-2 -2,-3 -4,-5 -3,-2 -7,-3 -11,-4l-1 0 0 0c-5,1 -8,2 -11,4 -2,2 -4,3 -4,5l0 0c-1,1 -1,2 -1,3 0,1 0,1 0,3l0 0c0,1 0,2 1,2 0,1 0,2 1,3 1,2 3,4 5,5 1,1 3,1 5,2l0 0zm4 -79c3,-1 5,-3 6,-4 2,-2 4,-3 4,-4l0 0 0 -1 0 0 0 0c0,-1 -2,-3 -4,-4 -1,-2 -3,-3 -6,-5 -2,2 -4,3 -6,5l0 0c-2,1 -3,3 -4,4l0 0 0 1 0 0c1,1 2,2 5,4l0 0c1,1 3,3 5,4zm11 -9l0 0 0 0 0 0zm-21 0c0,0 0,0 0,0l0 0z"/>
   <path class="fil0" d="M12272 4199l2 -14c55,-314 64,-756 59,-1237l0 -8 8 0 22 0c4,-94 0,-184 -12,-265 -11,-76 -30,-143 -58,-200 -163,-326 -664,-504 -820,-544 -90,-23 80,-93 -25,-120 -5,-3 -5,-21 -1,-26 13,-8 18,-16 18,-22 -1,-6 -1,-14 -12,-21 -13,-12 17,-32 17,-39 0,-4 -8,-7 -15,-13 -12,-9 -6,-28 -6,-33 0,-3 -3,-43 -2,-64 0,-2 -1,-4 -3,-7l-2 -3 0 -1 0 1 -2 3c-2,3 -3,5 -3,7 1,22 -2,61 -2,64 0,5 7,23 -5,32 -7,5 -13,11 -14,15 0,9 32,28 13,39 -11,7 -9,14 -10,20 0,6 3,13 16,22 3,4 3,21 0,25 -120,18 73,63 -46,117 -541,243 -911,472 -869,1013l31 0c-1,414 3,828 40,1245 4,2 -69,3 -96,3 25,-3 39,-18 40,-49l0 -1183 -22 0 -8 0 0 -7c-4,-99 0,-192 12,-276 64,-424 533,-621 881,-780 71,-33 -97,-42 28,-94l0 -3c-16,-11 -23,-23 -23,-34 1,-11 9,-21 23,-30l0 -1c-10,-9 -15,-18 -14,-27 0,-8 5,-17 14,-24l0 -6c-4,-5 -7,-10 -7,-16 -1,-6 2,-12 7,-19l0 -8c-3,-4 -5,-9 -5,-14 0,-5 1,-11 6,-17l7 -25 16 0 7 25c5,6 6,12 6,17 0,5 -2,10 -5,14l0 8c5,7 7,13 7,19 0,6 -3,11 -7,16l0 6c9,7 14,16 14,24 1,9 -4,18 -14,27l0 1c14,9 22,19 23,30 0,11 -7,23 -23,34l0 3c78,31 30,49 12,75 -9,13 -1,25 9,29 360,141 861,302 888,770 14,94 7,189 3,283l-21 0 0 1187c-1,41 33,52 81,50l-89 8 -62 9 -7 -11z"/>
   <path class="fil0" d="M12262 4197l2 -14 0 0c27,-156 43,-345 51,-554 9,-210 10,-441 7,-681l0 0 0 -8 0 -10 11 0 8 0 12 0c1,-45 1,-88 -1,-130 -2,-43 -6,-84 -11,-123 -6,-39 -14,-75 -24,-108 -9,-32 -20,-62 -34,-89 -62,-124 -173,-226 -296,-307 -196,-131 -421,-207 -517,-231 -29,-8 -37,-21 -35,-36 -7,10 -20,20 -42,31 -269,120 -496,238 -650,392 -150,151 -231,339 -213,601l21 0 11 0 0 10c-1,207 0,414 5,621 6,206 16,414 34,621 4,9 -1,14 -13,15 -2,0 -6,0 -11,0 -22,1 -63,1 -82,1l-1 -21c9,-1 17,-4 22,-10 5,-6 8,-16 9,-28l-1 0 0 -1172 -11 0 -8 0 -10 0 0 -10 -1 -8c-2,-51 -2,-100 0,-148 2,-45 6,-89 13,-130 61,-412 498,-611 843,-768l44 -20c9,-4 12,-5 12,-5 -1,-3 -7,-7 -13,-11 -9,-6 -19,-13 -24,-23 -6,-14 1,-30 39,-49 -3,-3 -6,-7 -9,-10 -5,-8 -7,-16 -6,-23 0,-8 3,-15 8,-22 3,-3 6,-7 10,-10 -2,-2 -4,-5 -6,-7 -3,-6 -4,-13 -4,-19 0,-6 2,-12 6,-18l0 0c2,-3 4,-7 7,-10 -1,-2 -2,-3 -3,-5 -1,-4 -2,-8 -3,-12l0 0c0,-5 1,-9 2,-14 1,-3 3,-6 5,-9l0 -2c-1,-2 -2,-4 -3,-6l0 0c-1,-3 -2,-7 -2,-10 0,-4 1,-9 2,-13l0 0c1,-3 3,-6 5,-9l7 -24 2 -8 8 0 16 0 8 0 2 8 7 24c2,3 4,6 5,9l0 0c1,5 2,9 2,13 0,3 -1,7 -3,10l0 0c0,2 -1,4 -2,6l0 2c2,3 4,6 5,9l0 0c1,5 2,9 2,14l0 0c-1,4 -2,8 -3,12l0 0c-1,2 -2,3 -3,5 3,3 5,7 7,10 4,6 6,12 6,18 0,6 -1,13 -5,19 -1,2 -3,5 -5,7 4,3 7,7 10,10 5,7 8,14 8,22 1,7 -1,15 -7,23 -2,3 -5,7 -8,10 35,17 40,32 34,48 -4,8 -11,16 -18,23 -5,5 -10,10 -13,14 -1,1 -2,2 -2,3 -1,2 0,4 0,5l0 0c1,1 2,3 4,4 0,1 1,1 2,2 29,11 49,19 70,27 355,136 799,307 824,750 12,81 9,162 5,243 0,14 -1,29 -1,43l-1 10 -10 0 -11 0 0 1176 0 0c0,16 6,26 17,32 13,6 31,8 53,7l1 22 -88 8 -61 8 -7 1 -3 -6 -8 -10 -1 -8zm23 -10l-2 9 2 2 54 -8 1 0 18 -1c-13,-10 -20,-25 -20,-46l0 0 0 -556 -1 42c-9,211 -25,400 -52,558l0 0zm53 -1624c3,12 7,25 10,38 -49,-275 -277,-432 -524,-547 58,29 118,63 175,101 125,83 239,188 303,315 14,29 26,60 36,93zm-863 -642c23,6 53,14 88,26l-17 -6c-27,-11 -54,-21 -70,-28 -3,-1 -5,-2 -7,-3 -4,-3 -7,-6 -10,-10 -1,3 -2,5 -3,7 -1,5 3,10 19,14zm-35 -30c4,-7 10,-15 15,-22 8,-10 15,-19 17,-27 2,-8 -3,-15 -27,-21l-3 -1 0 -1 -1 0 -1 0 -3 2c-25,3 -33,6 -32,8 0,3 6,9 12,16 7,7 15,16 20,26l0 0c2,7 4,13 3,20zm1 -115c6,-3 9,-6 11,-9 2,-2 2,-3 2,-3l0 -1 0 0c0,-4 0,-8 -7,-11l-2 -2c-1,-1 -2,-3 -3,-4 -2,2 -4,4 -7,6 -5,3 -5,6 -5,9l0 0 0 2 0 1c0,1 0,2 1,3l0 0c2,2 5,5 10,9l0 0zm1 -53c3,-6 8,-11 13,-16l-1 0c3,-3 5,-1 5,-3l0 0c0,-3 -1,1 -4,0l0 0c-2,-2 -4,-3 -7,-5 -2,-2 -5,-5 -6,-7 -2,2 -4,4 -6,5l0 0c-3,3 -6,5 -8,7l0 0c-1,1 -1,0 -1,1l0 0c0,1 3,2 5,5l0 0c4,4 7,8 10,12l0 1zm-58 194c18,-8 28,-15 32,-22 -4,3 -8,5 -13,8l-44 20c-332,151 -750,341 -826,722 34,-129 102,-237 195,-331 156,-156 385,-275 656,-397zm-838 1645l0 -6 0 583 0 0c-1,16 -5,28 -11,38 15,0 30,0 41,-1l3 0c-18,-206 -28,-410 -33,-614z"/>
   <g>
    <path class="fil0" d="M8504 3992c-193,-361 -373,-716 -524,-1022 -151,-307 -298,-628 -477,-1052 -93,-222 -122,-463 -151,-702 -1,-10 -2,-20 -3,-30 -21,-174 -41,-347 -55,-527 -14,-180 -23,-367 -21,-567l3 0c-2,200 7,387 21,567 14,179 34,352 55,526 1,10 2,21 3,31 29,238 57,480 151,701 178,423 326,745 477,1051 151,306 305,597 499,958l22 66z"/>
    <path class="fil0" d="M7369 251l191 0 1 0 0 1c16,193 47,364 84,520 38,155 81,296 124,428 34,104 71,200 111,284 40,85 106,172 153,233l-25 -12c-47,-61 -91,-135 -131,-220 -40,-84 -77,-180 -111,-285 -42,-131 -86,-272 -123,-428 -38,-155 -68,-326 -85,-518l-188 6 -1 -9z"/>
    <path class="fil0" d="M7369 250l191 0 1 -1 1 0 0 2 0 1c8,96 20,187 34,274 15,86 32,168 50,245 19,78 39,152 60,223 21,71 43,139 64,205 17,53 35,103 53,150 19,48 38,92 58,135 20,42 46,85 74,125 27,39 55,76 79,107l3 4 -5 -2 -24 -12 -1 0 0 0c-23,-31 -46,-65 -68,-102 -22,-36 -43,-76 -63,-118 -20,-42 -39,-87 -58,-135 -18,-48 -36,-98 -53,-150 -21,-66 -43,-134 -64,-205 -21,-71 -41,-145 -60,-223 -18,-78 -35,-160 -50,-246 -14,-86 -26,-176 -34,-272l-187 6 -1 0 0 -1 -1 -9 0 -1 1 0zm191 2l-190 0 1 7 187 -7 1 0 0 1c9,97 20,187 35,274 14,86 31,167 50,245 18,78 39,152 60,223 21,71 42,139 63,205 17,53 35,103 54,150 18,48 37,93 57,135 20,42 41,82 63,118 22,37 44,70 68,101l20 10c-23,-30 -50,-66 -76,-104 -28,-40 -54,-83 -74,-125 -20,-43 -39,-88 -58,-135 -18,-48 -36,-98 -53,-150 -21,-66 -43,-134 -64,-205 -21,-71 -41,-145 -60,-223 -18,-78 -35,-160 -50,-246 -14,-86 -26,-177 -34,-274l0 0 0 0 0 0z"/>
    <path class="fil0" d="M7319 1c-6,290 -1,552 41,785 42,234 112,440 218,620 168,287 475,449 792,616 8,5 16,9 24,13l13 14c-299,-158 -654,-339 -831,-641 -106,-181 -176,-388 -218,-621 -42,-234 -56,-495 -50,-785l11 -1z"/>
    <path class="fil0" d="M7320 1c-3,145 -3,283 3,414 6,131 18,254 39,371 20,117 48,226 84,330 36,103 80,200 133,290 84,143 203,255 340,352 137,97 293,180 451,263l25 13 0 1 0 0 12 13 5 5 -6 -3 -28 -15c-293,-154 -631,-333 -803,-627 -53,-90 -97,-187 -133,-291 -36,-103 -64,-213 -85,-330 -21,-117 -35,-241 -43,-371 -8,-131 -10,-269 -7,-414l0 -1 1 0 11 -1 1 0 0 1zm1 414c-6,-131 -6,-268 -3,-413l-9 1c-3,145 -1,282 7,412 8,131 22,255 43,371 21,117 49,227 85,331 36,103 80,200 133,290 171,293 510,472 802,626l23 12 -8 -9 -25 -13c-158,-83 -314,-166 -451,-263 -138,-97 -257,-210 -341,-353 -53,-90 -97,-187 -133,-291 -36,-103 -64,-213 -85,-330 -21,-116 -33,-240 -38,-371z"/>
    <polygon class="fil0" points="7404,257 7472,1038 7471,1033 7401,258 "/>
    <path class="fil0" d="M7446 256c36,330 68,671 108,991l-6 -9 -105 -982 3 0z"/>
    <path class="fil0" d="M7492 254c18,113 33,232 48,349 9,77 19,152 29,226 6,46 12,93 18,141 20,164 41,346 94,461l-9 -7c-48,-122 -68,-290 -88,-454 -6,-48 -12,-95 -18,-141 -10,-73 -20,-149 -29,-225 -15,-118 -30,-236 -48,-349l3 -1z"/>
    <path class="fil0" d="M7524 253c10,60 19,121 29,183 69,432 148,932 287,1147l-24 -16c-127,-258 -197,-699 -266,-1131 -9,-61 -19,-122 -29,-182l3 -1z"/>
    <path class="fil0" d="M6897 515l33 -4 2 -1 0 2 0 51 0 1 -2 1 -33 4 -1 0 0 -2 0 -51 0 -1 1 0zm32 -1l-31 3 0 49 31 -4 0 -48z"/>
    <path class="fil0" d="M6896 332l17 -28 1 -1 1 1 16 23 1 1 0 0 0 169 0 1 -2 0 -33 4 -1 0 0 -1 0 -169 0 0 0 0zm18 -19l-16 20 0 166 31 -4 0 -166 -15 -16z"/>
    <path class="fil0" d="M6977 506l33 -4 2 0 0 2 0 51 0 1 -2 0 -33 4 -1 0 0 -1 0 -52 0 -1 1 0zm32 -1l-31 4 0 48 31 -3 0 -49z"/>
    <path class="fil0" d="M6976 322l17 -28 1 -1 1 1 16 23 1 1 0 0 0 169 0 1 -2 0 -33 4 -1 0 0 -1 0 -169 0 0 0 0zm19 -21l-17 22 0 166 31 -4 0 -166 -14 -18z"/>
    <path class="fil0" d="M7057 500l33 -5 2 0 0 2 0 51 0 1 -2 0 -33 5 -2 0 0 -2 0 -51 0 -1 2 0zm32 -2l-31 4 0 49 31 -4 0 -49z"/>
    <path class="fil0" d="M7056 314l17 -28 1 -1 1 1 16 24 1 0 0 0 0 169 0 1 -2 0 -33 4 -2 0 0 -1 0 -169 0 0 1 0zm18 -19l-16 20 0 166 31 -3 0 -167 -15 -16z"/>
    <path class="fil0" d="M7137 492l33 -4 1 0 0 2 0 51 0 1 -1 0 -33 4 -2 0 0 -1 0 -52 0 -1 2 0zm32 -1l-31 4 0 48 31 -3 0 -49z"/>
    <path class="fil0" d="M7136 308l17 -27 1 -2 1 2 16 23 0 0 0 1 0 168 0 1 -1 0 -33 4 -2 1 0 -2 0 -168 0 -1 1 0zm18 -20l-16 21 0 166 31 -3 0 -167 -15 -17z"/>
    <path class="fil0" d="M7217 484l33 -4 1 0 0 1 0 51 0 2 -1 0 -33 4 -2 0 0 -2 0 -51 0 -1 2 0zm32 -1l-31 3 0 49 31 -4 0 -48z"/>
    <path class="fil0" d="M7216 300l17 -27 1 -2 1 2 16 23 0 1 0 0 0 169 0 1 -1 0 -33 4 -2 0 0 -1 0 -169 0 0 1 -1zm18 -21l-16 23 0 166 31 -4 0 -166 -15 -19z"/>
    <path class="fil0" d="M7276 91c4,56 8,110 12,163 23,324 42,597 84,896l2 14c15,110 34,244 75,355 107,294 254,590 435,887 182,298 397,596 639,896l9 13c-243,-300 -469,-610 -650,-907 -182,-298 -329,-594 -436,-888 -41,-112 -59,-245 -75,-355l-2 -14c-42,-300 -61,-573 -84,-897 -4,-53 -8,-107 -12,-162l3 -1z"/>
    <path class="fil0" d="M6856 2673c85,20 173,60 245,122 63,53 116,124 150,214 68,180 132,369 197,572 65,202 130,419 199,653l-29 -49c-69,-234 -108,-401 -173,-604 -64,-202 -129,-391 -196,-571 -34,-89 -87,-160 -149,-213 -73,-61 -159,-100 -244,-119l0 -5z"/>
    <path class="fil0" d="M7820 4273c-20,-98 -29,-190 -28,-276 1,-86 13,-165 36,-238l1 -2 1 1c89,65 162,139 222,222 61,83 109,175 146,273l2 10c-38,-98 -90,-198 -150,-281 -60,-83 -122,-129 -210,-192 -22,71 -44,122 -45,207 -1,85 9,192 29,289l-4 -13z"/>
    <path class="fil0" d="M8445 3822c-177,-310 -354,-651 -509,-974 -156,-323 -304,-650 -452,-978l3 -1c148,328 296,655 451,978 156,323 318,641 495,952l12 23z"/>
    <g>
     <path class="fil0" d="M8444 3823c-87,-152 -174,-312 -258,-473 -87,-168 -172,-337 -251,-502 -78,-161 -154,-324 -229,-487 -75,-163 -149,-327 -223,-490l0 -1 1 -1 2 -1 1 0 1 1c74,164 148,328 223,490 75,163 151,326 228,487 78,162 157,322 239,481 83,159 167,316 256,471l0 0 12 24 -2 1zm-507 -976c42,88 85,176 130,264l-130 -264zm-229 -487c75,163 151,326 229,487l-229 -487zm-222 -489c74,163 148,327 222,489l-222 -489zm0 0l0 0 0 0zm223 489c-75,-163 -149,-326 -223,-489l223 489zm228 487c-77,-161 -153,-324 -228,-487l228 487z"/>
    </g>
    <path class="fil0" d="M8536 3243c-200,-251 -398,-502 -574,-763 -176,-262 -331,-533 -445,-823 -87,-223 -96,-266 -117,-367 -7,-36 -16,-78 -31,-139l3 -1c14,61 23,104 31,140 21,100 30,143 117,366 114,290 268,561 444,822 176,261 411,552 611,803l-39 -38z"/>
    <path class="fil0" d="M8475 2169c-307,-171 -577,-358 -769,-558 -138,-144 -242,-296 -306,-458 17,50 37,97 60,144 50,104 114,200 194,294 97,113 215,220 347,319 139,102 293,196 456,277l10 14c-163,-82 -329,-186 -467,-289 -133,-99 -251,-206 -348,-319 -80,-94 -144,-191 -195,-295 -35,-73 -64,-150 -87,-233 -10,-36 -19,-72 -25,-109l0 0 0 -1 2 0c8,38 16,74 26,109 57,196 172,376 335,545 192,200 450,383 757,553l10 7z"/>
    <path class="fil0" d="M8472 2448c-303,-193 -555,-409 -737,-636 -183,-228 -307,-472 -375,-733l2 0c69,260 193,504 375,731 182,227 423,437 725,630l10 8z"/>
    <path class="fil0" d="M8516 2545c-358,-250 -636,-507 -811,-729 -175,-221 -274,-431 -328,-634l2 -1c55,203 153,412 328,634 175,221 426,455 785,705l24 25z"/>
    <path class="fil0" d="M8451 2740c-389,-404 -629,-692 -783,-912 -153,-220 -220,-372 -261,-505l3 -1c41,133 107,285 261,505 153,219 400,516 789,920l-9 -7z"/>
    <path class="fil0" d="M8526 2861c-296,-292 -559,-596 -739,-829 -181,-234 -300,-437 -354,-607l3 -1c53,170 173,373 353,606 180,233 420,497 716,788l21 43z"/>
    <path class="fil3" d="M6856 2660l0 0c-14,-11 -29,-22 -43,-31 13,-6 28,-12 43,-17l0 0c14,5 30,11 43,17 -14,9 -29,20 -43,31l0 0 0 0 0 0zm-58 -24c-15,7 -30,14 -44,22 18,4 37,10 55,17 10,-4 20,-7 31,-11 -14,-10 -28,-20 -42,-28zm-58 30c-23,14 -44,29 -65,44 16,0 31,0 46,2 23,-11 46,-21 70,-30 -17,-7 -34,-12 -51,-16zm-76 53c-19,14 -37,29 -54,44 -11,9 -21,18 -31,28 16,-8 32,-14 48,-20 26,-20 53,-37 82,-52 -15,-1 -30,-1 -45,0zm-125 114c-32,36 -61,76 -87,118 16,-13 32,-26 48,-38 15,-22 30,-42 46,-62 14,-17 28,-33 43,-47 -16,8 -33,18 -50,29zm-111 158c-27,48 -52,99 -75,152 16,-18 31,-36 47,-53 23,-50 48,-96 75,-140 -15,13 -31,27 -47,41zm-107 229c-13,33 -25,66 -37,99 19,-30 38,-59 57,-87 8,-23 17,-45 26,-67 -15,18 -30,36 -46,55zm-89 243c-22,65 -45,130 -69,194l108 -210c10,-34 19,-66 29,-98 -22,36 -45,75 -68,114zm-531 -406c51,-97 98,-194 143,-289 54,-38 108,-73 161,-106 -30,65 -61,133 -93,206 -69,57 -140,120 -211,189zm178 -362c33,-72 65,-143 97,-212 49,-25 98,-46 145,-64 -29,58 -57,117 -86,179 -51,29 -103,61 -156,97zm125 -274c30,-67 60,-133 89,-197 49,-16 97,-28 144,-35 -29,57 -58,113 -86,170 -49,17 -98,38 -147,62zm108 -237c30,-64 60,-126 90,-186 46,-3 91,-3 135,-1 -2,3 -4,6 -5,9 -27,52 -53,102 -78,150 -47,6 -94,15 -142,28zm103 -213c35,-68 69,-132 105,-193 44,10 90,24 137,42 -49,52 -82,106 -108,154 -44,-4 -89,-5 -134,-3zm124 -224c6,-10 12,-20 18,-30 29,-46 63,-87 99,-124 55,22 112,48 171,78 -51,39 -101,81 -144,123 -51,-20 -99,-36 -144,-47zm144 -181c57,-53 120,-98 181,-135l156 108c-52,33 -108,70 -163,110 -56,-30 -114,-57 -174,-83zm213 -154c55,-33 113,-58 160,-83l0 0 0 0 0 0 0 0c47,25 105,50 160,83l-160 109 0 1 0 0 0 0 0 -1 -160 -109zm-889 1742c37,-78 75,-158 113,-236 55,-45 110,-87 164,-125 -34,69 -67,138 -101,207 -58,49 -117,101 -176,154zm156 -327c33,-67 64,-133 96,-197 49,-29 97,-54 145,-76 -27,52 -54,105 -81,159 -53,34 -106,72 -160,114zm125 -258c28,-58 55,-114 81,-168 48,-17 96,-30 142,-39 -27,46 -54,93 -80,141 -46,18 -94,40 -143,66zm108 -225c27,-57 52,-110 77,-161 53,-6 105,-8 155,-4 -30,44 -60,89 -88,135 -48,6 -96,16 -144,30zm92 -191c26,-55 53,-106 81,-154 61,5 120,16 175,32 -6,7 -12,14 -18,21 -28,33 -55,67 -80,103 -52,-6 -105,-6 -158,-2zm94 -177c6,-10 13,-20 19,-30 25,-40 57,-77 92,-112 53,22 109,48 167,77 -34,31 -67,64 -98,99 -57,-16 -118,-27 -180,-34zm137 -168c46,-42 96,-81 146,-117 52,28 105,60 161,95 -49,30 -95,64 -139,102 -59,-31 -115,-58 -168,-80zm176 -138c58,-41 116,-74 161,-104l0 -1 0 0 0 0 0 1c45,30 103,63 161,104 -55,30 -110,66 -161,102l0 0 0 0 0 0 0 0c-51,-36 -106,-72 -161,-102zm161 314l0 0c50,-30 98,-58 144,-83 -47,-39 -96,-73 -144,-98l0 0 0 0 0 0 0 0c-48,25 -97,59 -144,98 46,25 94,53 144,83l0 0 0 0 0 0zm-170 -59c-32,28 -63,60 -94,95 43,13 85,30 124,51 35,-29 70,-53 105,-71 -46,-27 -91,-52 -135,-75zm-112 115c-32,37 -64,77 -95,120 40,6 78,15 117,28 32,-36 64,-69 95,-97 -37,-20 -76,-37 -117,-51zm-112 143c-29,40 -58,83 -87,127 41,-3 81,-3 121,1 27,-37 55,-71 82,-103 -38,-12 -77,-20 -116,-25zm-115 172c-27,43 -54,89 -81,135 44,-16 88,-28 131,-35 25,-39 49,-75 74,-110 -41,0 -82,3 -124,10zm-109 183c-28,51 -56,103 -84,156 48,-29 95,-54 142,-75 26,-44 52,-87 77,-128 -44,12 -89,28 -135,47zm-124 234c-34,66 -67,133 -100,202 51,-43 102,-83 153,-119 31,-60 62,-117 92,-172 -48,26 -96,56 -145,89zm-141 287c-28,59 -55,119 -83,180 55,-57 111,-111 166,-163 25,-52 50,-102 75,-152 -51,42 -104,87 -158,135zm883 -891l0 -67 0 67c35,-33 74,-60 116,-84 -37,-28 -74,-51 -111,-67l-5 -2 0 0 0 0 0 0 0 0 -5 2c-37,16 -74,39 -111,67 42,24 81,51 116,84zm-142 -64c-32,27 -64,57 -95,92 43,15 85,34 126,58 26,-23 53,-44 81,-64 -34,-33 -72,-61 -112,-86zm-113 112c-27,30 -54,62 -80,97 43,6 85,16 127,30 24,-24 49,-48 75,-70 -40,-24 -81,-43 -122,-57zm-104 130c-25,33 -49,68 -73,104 45,-6 88,-8 130,-5 23,-27 47,-54 72,-79 -42,-12 -85,-18 -129,-20zm-95 138c-26,39 -51,81 -77,123 45,-18 89,-31 131,-40 23,-30 48,-60 73,-91 2,-3 4,-5 6,-8 -43,0 -88,6 -133,16zm-112 184c-31,53 -62,109 -93,165 43,-30 87,-57 130,-81 30,-49 62,-94 95,-140 -43,14 -87,33 -132,56zm-130 233c-26,50 -52,101 -79,152 47,-43 94,-84 141,-121 24,-46 48,-88 72,-128 -44,29 -88,62 -134,97zm-122 237c-33,65 -67,132 -100,199l83 -73c27,-29 53,-57 80,-84 31,-68 60,-129 88,-185 -49,44 -100,92 -151,143zm818 -808l0 0c27,-21 56,-43 84,-60 -26,-19 -57,-41 -84,-58l0 -1 0 0 0 0 0 1c-27,17 -58,39 -84,58 28,17 57,39 84,60l0 0 0 0 0 0zm-107 -41c-26,20 -51,41 -75,64 28,11 56,24 84,40 22,-17 45,-33 68,-48 -25,-21 -51,-40 -77,-56zm-97 84c-25,24 -49,49 -72,75 29,4 58,11 86,21 23,-21 47,-41 71,-60 -28,-14 -56,-26 -85,-36zm-91 96c-26,30 -51,61 -75,93 31,-5 61,-7 91,-6 24,-25 48,-49 72,-72 -28,-8 -58,-13 -88,-15zm-105 133c-30,41 -58,83 -86,126 33,-16 66,-31 98,-43 27,-35 55,-68 83,-101 -31,3 -63,10 -95,18zm-114 172c-24,39 -47,78 -69,118 33,-24 66,-47 98,-68 23,-36 47,-71 72,-105 -33,16 -67,34 -101,55zm-100 175c-32,60 -63,121 -93,182 33,-34 67,-66 100,-96 30,-57 61,-112 94,-166 -33,25 -67,51 -101,80zm-137 274c-26,54 -51,108 -76,163 36,-42 72,-83 107,-122 23,-50 47,-100 71,-148 -34,34 -68,70 -102,107zm751 -854l0 0 0 0 0 0c-23,12 -47,26 -70,41 24,14 48,36 70,48l0 -5 0 5c22,-12 46,-34 69,-48 -22,-15 -46,-29 -69,-41l0 0zm-91 55c-24,17 -48,36 -71,55 25,11 49,24 72,39 22,-16 44,-33 67,-48 -22,-17 -45,-32 -68,-46zm-87 69c-22,20 -45,42 -67,65 30,3 58,8 87,17 17,-16 36,-31 54,-46 -24,-15 -48,-27 -74,-36zm-89 89c-26,28 -50,57 -74,88 35,-10 70,-17 105,-20 19,-21 40,-41 61,-60 -30,-6 -61,-9 -92,-8zm-95 115c-22,30 -44,61 -65,93 38,-22 76,-39 113,-53 20,-24 41,-48 63,-72 -36,7 -73,17 -111,32zm-89 129c-29,46 -58,95 -86,145 42,-37 83,-69 123,-98 26,-39 53,-77 82,-114 -38,17 -78,40 -119,67zm-125 217c-24,46 -47,92 -69,140 40,-43 80,-84 119,-122 24,-44 48,-87 74,-129 -40,33 -81,70 -124,111zm-96 198c-38,82 -74,168 -109,254 41,-56 83,-111 123,-163 34,-74 69,-148 106,-221 -39,41 -79,84 -120,130zm672 -647l0 -1c17,-17 37,-35 55,-49 -17,-10 -37,-20 -55,-29l0 0 0 0 0 0 0 0c-19,9 -38,19 -55,29 18,14 38,32 55,49l0 1 0 -1 0 1zm-69 -42c-19,11 -37,23 -55,35 23,9 45,20 67,33 13,-7 27,-14 41,-21 -17,-18 -35,-33 -53,-47zm-71 47c-22,15 -42,32 -62,49 28,-1 55,1 82,6 16,-9 32,-17 48,-26 -22,-12 -45,-22 -68,-29zm-77 62c-25,21 -48,44 -70,67 28,-8 55,-14 81,-16 23,-19 47,-34 71,-49 -27,-4 -54,-4 -82,-2zm-87 86c-32,36 -61,73 -89,111 32,-22 64,-41 94,-56 27,-32 53,-58 79,-79 -27,4 -55,13 -84,24zm-127 168c-27,41 -52,84 -75,127 23,-21 45,-42 67,-61 33,-50 68,-92 106,-138 -32,21 -65,45 -98,72zm-99 173c-31,62 -58,125 -83,188 21,-27 42,-53 63,-78 26,-60 53,-118 83,-171 -20,19 -41,40 -63,61zm-116 273c-23,62 -43,122 -62,180 18,-30 36,-60 54,-90l28 -58c13,-37 27,-74 42,-112 -20,26 -41,52 -62,80zm704 -725c15,7 30,14 44,22 -18,4 -37,10 -55,17 -10,-4 -20,-7 -31,-11 14,-10 28,-20 42,-28zm58 30c23,14 44,29 65,44 -16,0 -31,0 -47,2 -22,-11 -45,-21 -69,-30 17,-7 34,-12 51,-16zm76 53c19,14 37,29 54,44 11,9 21,18 31,28 -16,-8 -32,-14 -48,-20 -26,-20 -53,-37 -82,-52 15,-1 30,-1 45,0zm125 114c32,36 61,76 87,118 -16,-13 -32,-26 -48,-38 -15,-22 -30,-42 -46,-62 -14,-17 -28,-33 -43,-47 16,8 33,18 50,29zm111 158c27,48 52,99 75,152 -16,-18 -31,-36 -47,-53 -23,-50 -48,-96 -76,-140 16,13 32,27 48,41zm107 229c13,33 25,66 37,99 -19,-30 -38,-59 -57,-87 -8,-23 -17,-45 -26,-67 15,18 30,36 46,55zm89 243c22,65 45,130 69,194l-108 -210c-10,-34 -19,-66 -29,-98 22,36 45,75 68,114zm531 -406c-51,-97 -98,-194 -143,-289 -54,-38 -108,-73 -161,-106 30,65 61,133 93,206 69,57 139,120 211,189zm-178 -362c-33,-72 -65,-143 -97,-212 -49,-25 -98,-46 -145,-64 29,58 57,117 86,179 51,29 103,61 156,97zm-125 -274c-30,-67 -60,-133 -89,-197 -49,-16 -97,-28 -144,-35 29,57 58,113 86,170 49,17 98,38 147,62zm-108 -237c-30,-64 -60,-126 -90,-186 -46,-3 -91,-3 -135,-1 2,3 4,6 5,9 27,52 53,102 78,150 47,6 94,15 142,28zm-103 -213c-35,-68 -70,-132 -106,-193 -43,10 -89,24 -136,42 49,52 82,106 108,154 44,-4 89,-5 134,-3zm-124 -224c-6,-10 -12,-20 -18,-30 -29,-46 -63,-87 -99,-124 -55,22 -112,48 -171,78 51,39 101,81 144,123 51,-20 99,-36 144,-47zm-144 -181c-57,-53 -120,-98 -181,-135l-156 108c51,33 108,70 163,110 56,-30 114,-57 174,-83zm676 1588c-37,-78 -75,-158 -113,-236 -55,-45 -110,-87 -164,-125 34,69 67,138 101,207 58,49 117,101 176,154zm-156 -327c-33,-67 -65,-133 -96,-197 -49,-29 -98,-54 -145,-76 27,52 54,105 81,159 52,34 106,72 160,114zm-125 -258c-28,-58 -55,-114 -81,-168 -49,-17 -96,-30 -142,-39 27,46 54,93 80,141 46,18 94,40 143,66zm-108 -225c-27,-57 -53,-110 -77,-161 -53,-6 -105,-8 -155,-4 30,44 60,89 88,135 48,6 96,16 144,30zm-92 -191c-27,-55 -53,-106 -81,-154 -61,5 -120,16 -175,32 6,7 12,14 18,21 28,33 55,67 80,103 52,-6 104,-6 158,-2zm-94 -177c-6,-10 -13,-20 -19,-30 -25,-40 -57,-77 -92,-112 -53,22 -109,48 -167,77 34,31 67,64 98,99 57,-16 118,-27 180,-34zm-137 -168c-46,-42 -96,-81 -146,-117 -52,28 -106,60 -161,95 49,30 95,64 139,102 59,-31 115,-58 168,-80zm-167 117c32,28 63,60 94,95 -43,13 -85,30 -124,51 -35,-29 -70,-53 -105,-71 46,-27 91,-52 135,-75zm112 115c32,37 64,77 95,120 -40,6 -79,15 -117,28 -32,-36 -64,-69 -95,-97 37,-20 76,-37 117,-51zm112 143c29,40 58,83 87,127 -41,-3 -81,-3 -121,1 -27,-37 -55,-71 -82,-103 38,-12 77,-20 116,-25zm115 172c27,43 54,89 81,135 -45,-16 -88,-28 -131,-35 -25,-39 -49,-75 -74,-110 41,0 82,3 124,10zm109 183c28,51 56,103 84,156 -48,-29 -95,-54 -142,-75 -26,-44 -52,-87 -78,-128 45,12 90,28 136,47zm124 234c34,66 67,133 100,202 -51,-43 -102,-83 -153,-119 -31,-60 -62,-117 -92,-172 47,26 96,56 145,89zm141 287c28,59 55,119 83,180 -55,-57 -111,-111 -166,-163 -25,-52 -50,-102 -75,-152 51,42 104,87 158,135zm-741 -955c32,27 63,57 95,92 -43,15 -85,34 -126,58 -26,-23 -53,-44 -81,-64 34,-33 72,-61 112,-86zm113 112c27,30 54,62 80,97 -43,6 -85,16 -127,30 -24,-24 -49,-48 -75,-70 40,-24 81,-43 122,-57zm104 130c25,33 49,68 73,104 -45,-6 -88,-8 -130,-5 -23,-27 -47,-54 -72,-79 42,-12 85,-18 129,-20zm95 138c26,39 51,81 77,123 -45,-18 -89,-31 -131,-40 -24,-30 -48,-60 -73,-91 -2,-3 -4,-5 -6,-8 43,0 88,6 133,16zm112 184c31,53 62,109 93,165 -43,-30 -87,-57 -130,-81 -31,-49 -62,-94 -95,-140 43,14 87,33 132,56zm129 233c27,50 53,101 80,152 -47,-43 -94,-84 -141,-121 -24,-46 -48,-88 -72,-128 44,29 88,62 133,97zm123 237c33,65 66,132 100,199l-83 -73c-27,-29 -53,-57 -80,-84 -31,-68 -60,-129 -88,-185 49,44 100,92 151,143zm-711 -849c26,20 51,41 75,64 -28,11 -56,24 -84,40 -22,-17 -45,-33 -68,-48 25,-21 51,-40 77,-56zm97 84c25,24 49,49 72,75 -29,4 -58,11 -86,21 -23,-21 -47,-41 -71,-60 28,-14 56,-26 85,-36zm91 96c26,30 51,61 75,93 -31,-5 -61,-7 -91,-6 -24,-25 -48,-49 -72,-72 28,-8 58,-13 88,-15zm105 133c30,41 58,83 86,126 -33,-16 -66,-31 -98,-43 -27,-35 -55,-68 -83,-101 31,3 63,10 95,18zm114 172c24,39 47,78 69,118 -33,-24 -66,-47 -98,-68 -23,-36 -47,-71 -72,-105 33,16 67,34 101,55zm100 175c32,60 63,121 93,182 -33,-34 -67,-66 -100,-96 -30,-57 -61,-112 -94,-166 33,25 67,51 101,80zm137 274c26,54 51,108 76,163 -36,-42 -72,-83 -107,-122 -23,-50 -47,-100 -71,-148 34,34 68,70 102,107zm-660 -799c24,17 48,36 71,55 -25,11 -49,24 -72,39 -22,-16 -44,-33 -67,-48 22,-17 45,-32 68,-46zm87 69c22,20 45,42 67,65 -30,3 -58,8 -87,17 -17,-16 -36,-31 -54,-46 24,-15 48,-27 74,-36zm89 89c25,28 50,57 74,88 -35,-10 -70,-17 -105,-20 -19,-21 -40,-41 -61,-60 30,-6 61,-9 92,-8zm95 115c22,30 44,61 65,93 -38,-22 -76,-39 -113,-53 -20,-24 -41,-48 -63,-72 36,7 73,17 111,32zm89 129c29,46 58,95 86,145 -42,-37 -83,-69 -123,-98 -26,-39 -53,-77 -82,-114 38,17 78,40 119,67zm125 217c23,46 47,92 69,140 -40,-43 -80,-84 -119,-122 -24,-44 -48,-87 -75,-129 41,33 82,70 125,111zm96 198c38,82 74,168 109,254 -41,-56 -83,-111 -123,-163 -34,-74 -69,-148 -106,-221 39,41 79,84 120,130zm-603 -689c19,11 37,23 55,35 -23,9 -45,20 -67,33 -13,-7 -27,-14 -41,-21 17,-18 35,-33 53,-47zm71 47c22,15 42,32 62,49 -28,-1 -55,1 -82,6 -16,-9 -32,-17 -48,-26 22,-12 45,-22 68,-29zm77 62c25,21 47,44 69,67 -27,-8 -54,-14 -80,-16 -23,-19 -47,-34 -71,-49 27,-4 54,-4 82,-2zm87 86c32,36 61,73 89,111 -32,-22 -64,-41 -94,-56 -27,-32 -53,-58 -79,-79 27,4 55,13 84,24zm127 168c27,41 52,84 75,127 -23,-21 -45,-42 -67,-61 -33,-50 -68,-92 -106,-138 32,21 65,45 98,72zm99 173c30,62 58,125 83,188 -21,-27 -43,-53 -63,-78 -26,-60 -53,-118 -83,-171 20,19 41,40 63,61zm116 273c22,62 43,122 62,180 -18,-30 -36,-60 -54,-90l-28 -58c-13,-37 -27,-74 -42,-112 20,26 41,52 62,80z"/>
    <path class="fil0" d="M8337 2765l46 12 16 5 -62 -14 -35 40 40 146 -19 17 -1 -2 19 -15 -42 -145 -94 -41 -24 17 -1 -2 24 -18 -14 -113 -82 -44 -30 35 -3 -2 31 -35 -24 -111 -73 -16 -25 30 -2 -2 25 -30 -31 -84 -70 -35 -10 18 -3 -2 11 -18 -25 -61 -1 0 1 -1 18 -23 -68 -117 20 32 51 84 59 23 16 -33 2 1 -15 34 31 78 88 31 12 -11 2 2 -12 11 19 65 92 56 9 -14 3 1 -10 15 27 89 79 45 24 -23 2 2 -24 23 33 100zm-61 658l123 60 39 23 -164 -81 -34 25 -1 -2 34 -25 9 -110 -125 -75 -21 11 -2 -2 22 -12 18 -124 -98 -70 -34 22 -1 -3 34 -22 13 -113 -94 -59 -33 23 -1 -2 32 -24 1 -110 -65 -50 -42 29 -2 -3 42 -29 -19 -91 -62 -26 -18 23 -3 -1 20 -24 -8 -85 -48 -32 -22 20 -2 -2 22 -20 1 -72 -41 -24 -24 23 -2 -2 25 -23 -9 -58 -37 -24 -18 18 -2 -2 18 -18 -11 -63 -37 -27 -11 14 -3 -2 13 -14 -17 -88 -37 -38 -12 19 -3 -2 14 -19 -18 -81 -34 -31 -9 22 -3 -1 10 -23 -13 -47 -28 -26 -5 11 0 -1 4 -13 1 -1 1 1 28 26 7 -8 -22 -58 -1 -1 1 0 27 -55 -7 17 -18 38 23 58 33 24 21 -44 2 1 -21 45 14 58 40 36 19 -28 2 2 -20 28 20 77 38 36 22 -23 2 2 -23 23 15 79 41 24 21 -24 3 2 -22 24 14 57 45 23 13 -14 2 1 -13 15 11 58 48 32 11 -7 2 3 -12 6 5 70 55 41 15 -15 2 2 -15 15 6 72 75 44 13 -9 1 3 -12 8 16 95 92 64 12 -8 2 2 -13 9 2 104 114 70 22 -10 1 3 -22 9 -14 119 121 74 45 -31 2 2 -45 31 -25 126 0 1 0 0 -35 19 -9 110zm-317 -1127l-60 -24 -18 23 25 60 71 35 13 -16 -31 -78zm218 815l-18 125 125 74 34 -18 24 -125 -122 -73 -43 17zm-99 -73l98 71 43 -18 15 -119 -114 -70 -29 23 -13 113zm-83 -175l95 60 29 -23 -2 -104 -92 -65 -29 22 -1 110zm-85 -255l19 92 65 51 29 -22 -16 -95 -75 -44 -22 18zm-71 -112l7 84 62 26 22 -18 -6 -72 -56 -41 -29 21zm-49 -106l-1 72 48 32 30 -21 -4 -70 -48 -32 -25 19zm-51 -85l9 59 40 24 25 -19 -11 -57 -45 -24 -18 17zm-50 -89l11 64 37 23 18 -17 -14 -56 -41 -24 -11 10zm-55 -116l16 87 37 27 11 -10 -14 -79 -39 -37 -11 12zm-56 -121l17 80 38 38 11 -11 -19 -76 -40 -37 -7 6zm-36 -34l34 32 8 -6 -15 -57 -33 -24 -7 9 13 46zm759 721l-79 -46 -29 32 13 113 94 41 34 -40 -33 -100zm-108 -136l-92 -56 -16 20 24 112 82 44 29 -32 -27 -88zm-113 -124l-88 -30 -13 16 30 84 74 16 16 -20 -19 -66z"/>
    <path class="fil0" d="M5272 1924c377,-177 762,-351 929,-766 58,-143 94,-312 116,-506 22,-192 34,-409 34,-649l51 0 34 89 -1 9 420 25 -5 1163c-33,18 -166,99 -290,191 -73,56 -144,121 -194,191 -49,68 -104,161 -155,257 -50,93 -95,189 -126,271l3 1c31,-82 76,-178 125,-270 51,-97 107,-189 155,-257 50,-71 121,-135 194,-190 126,-96 258,-162 293,-178l1 0 1 0c35,16 167,82 293,178 73,55 144,119 194,190 48,68 104,160 155,257 49,92 94,188 125,270l3 -1c-31,-82 -76,-178 -126,-271 -51,-96 -106,-189 -155,-257 -50,-70 -121,-135 -194,-191 -124,-92 -257,-173 -290,-191l-5 -1163 420 -25 -1 -9 34 -89 51 0c0,240 12,457 34,649 22,194 58,363 116,506 167,415 552,589 929,766l-12 -7c-16,-7 -30,-14 -43,-20 -300,-140 -706,-329 -872,-740 -57,-143 -93,-312 -115,-505 -22,-193 -30,-410 -30,-650l0 -2 -2 0 -57 0 -1 0 0 1 -34 89 -417 33 -1 0 -1 0 -417 -33 -34 -89 0 -1 -1 0 -57 0 -2 0 0 2c0,240 -8,457 -30,650 -22,193 -58,362 -115,505 -166,411 -573,600 -872,740 -13,6 -27,13 -43,20l-12 7z"/>
    <path class="fil0" d="M5208 3992c193,-361 373,-716 524,-1022 151,-307 298,-628 477,-1052 93,-222 122,-463 151,-702 1,-10 2,-20 3,-30 21,-174 41,-347 55,-527 14,-180 22,-367 21,-567l-3 0c2,200 -7,387 -21,567 -14,179 -34,352 -55,526 -1,10 -2,21 -3,31 -29,238 -57,480 -151,701 -179,423 -326,745 -477,1051 -151,306 -305,597 -499,958l-22 66z"/>
    <path class="fil0" d="M6343 251l-191 0 -1 0 0 1c-16,193 -47,364 -84,520 -38,155 -81,296 -124,428 -34,104 -71,200 -111,284 -40,85 -106,172 -153,233l25 -12c47,-61 90,-135 131,-220 40,-84 77,-180 111,-285 42,-131 86,-272 123,-428 38,-155 68,-326 85,-518l188 6 1 -9z"/>
    <path class="fil0" d="M6342 252l-190 0 0 0 0 0 0 0c-8,97 -20,188 -34,274 -15,86 -32,168 -50,246 -19,78 -39,152 -60,223 -21,71 -43,139 -64,205 -17,52 -35,102 -53,150 -19,47 -38,92 -58,135 -20,42 -46,85 -74,125 -26,38 -53,74 -76,104l20 -10c24,-31 46,-64 68,-101 22,-36 43,-76 63,-118 20,-42 39,-87 57,-135 19,-47 37,-97 53,-150 22,-66 43,-134 64,-205 21,-71 42,-145 60,-223 19,-78 36,-159 50,-245 15,-87 26,-177 35,-274l0 -1 1 0 187 7 1 -7zm-190 -2l191 0 1 0 0 1 -1 9 0 1 -1 0 -187 -6c-8,96 -20,186 -35,272 -14,86 -31,168 -50,246 -18,78 -38,152 -59,223 -21,71 -43,139 -64,205 -17,52 -35,102 -54,150 -18,48 -37,93 -57,135 -20,42 -41,82 -63,118 -22,37 -45,71 -68,102l0 0 -1 0 -24 12 -5 2 3 -4c24,-31 52,-68 79,-107 28,-40 54,-83 74,-125 20,-43 39,-87 58,-135 18,-47 36,-97 53,-150 21,-66 43,-134 64,-205 21,-71 41,-145 60,-223 18,-77 35,-159 50,-245 14,-87 26,-178 34,-274l0 -1 0 -2 1 0 1 1z"/>
    <path class="fil0" d="M6393 1c6,290 1,552 -41,785 -42,234 -112,440 -218,620 -168,287 -475,449 -792,616 -8,5 -16,9 -25,13l-12 14c299,-158 654,-339 831,-641 106,-181 176,-388 218,-621 42,-234 56,-495 50,-785l-11 -1z"/>
    <path class="fil0" d="M6394 2c3,145 3,282 -3,413 -5,131 -17,255 -38,371 -21,117 -49,227 -85,330 -36,104 -80,201 -133,291 -84,143 -203,256 -341,353 -137,97 -293,180 -451,263l-25 13 -8 9 22 -12c293,-154 632,-333 803,-626 53,-90 97,-187 133,-290 36,-104 64,-214 85,-331 21,-116 35,-240 43,-371 8,-130 10,-267 7,-412l-9 -1zm-5 413c6,-131 6,-269 3,-414l0 -1 1 0 11 1 1 0 0 1c3,145 1,283 -7,414 -8,130 -22,254 -43,371 -21,117 -49,227 -85,330 -36,104 -80,201 -133,291 -172,294 -510,473 -803,627l-28 15 -6 3 4 -5 13 -13 0 0 0 -1 25 -13c158,-83 314,-166 451,-263 137,-97 256,-209 340,-352 53,-90 97,-187 133,-290 36,-104 64,-213 84,-330 21,-117 33,-240 39,-371z"/>
    <polygon class="fil0" points="6308,257 6240,1038 6241,1033 6311,258 "/>
    <path class="fil0" d="M6266 256c-36,330 -68,671 -108,991l6 -9 105 -982 -3 0z"/>
    <path class="fil0" d="M6220 254c-18,113 -33,232 -48,349 -9,77 -19,152 -29,226 -6,46 -12,93 -18,141 -20,164 -41,346 -94,461l9 -7c48,-122 68,-290 88,-454 6,-48 12,-95 18,-141 10,-73 20,-149 29,-225 15,-118 30,-236 47,-349l-2 -1z"/>
    <path class="fil0" d="M6188 253c-10,60 -19,121 -29,183 -69,432 -148,932 -287,1147l24 -16c127,-258 197,-699 266,-1131 9,-61 19,-122 29,-182l-3 -1z"/>
    <path class="fil0" d="M6815 515l-33 -4 -2 -1 0 2 0 51 0 1 2 1 33 4 1 0 0 -2 0 -51 0 -1 -1 0zm-32 -1l31 3 0 49 -31 -4 0 -48z"/>
    <path class="fil0" d="M6816 332l-17 -28 -1 -1 -1 1 -16 23 -1 1 0 0 0 169 0 1 2 0 33 4 1 0 0 -1 0 -169 0 0 0 0zm-18 -19l16 20 0 166 -31 -4 0 -166 15 -16z"/>
    <path class="fil0" d="M6735 506l-33 -4 -2 0 0 2 0 51 0 1 2 0 33 4 1 0 0 -1 0 -52 0 -1 -1 0zm-32 -1l31 4 0 48 -31 -3 0 -49z"/>
    <path class="fil0" d="M6736 322l-17 -28 -1 -1 -1 1 -16 23 -1 1 0 0 0 169 0 1 2 0 33 4 1 0 0 -1 0 -169 0 0 0 0zm-19 -21l17 22 0 166 -31 -4 0 -166 14 -18z"/>
    <path class="fil0" d="M6655 500l-33 -5 -2 0 0 2 0 51 0 1 2 0 33 5 2 0 0 -2 0 -51 0 -1 -2 0zm-32 -2l31 4 0 49 -31 -4 0 -49z"/>
    <path class="fil0" d="M6656 314l-17 -28 -1 -1 -1 1 -16 24 -1 0 0 0 0 169 0 1 2 0 33 4 2 0 0 -1 0 -169 0 0 -1 0zm-18 -19l16 20 0 166 -31 -3 0 -167 15 -16z"/>
    <path class="fil0" d="M6575 492l-33 -4 -1 0 0 2 0 51 0 1 1 0 33 4 2 0 0 -1 0 -52 0 -1 -2 0zm-32 -1l31 4 0 48 -31 -3 0 -49z"/>
    <path class="fil0" d="M6576 308l-17 -27 -1 -2 -1 2 -16 23 0 0 0 1 0 168 0 1 1 0 33 4 2 1 0 -2 0 -168 0 -1 -1 0zm-18 -20l16 21 0 166 -31 -3 0 -167 15 -17z"/>
    <path class="fil0" d="M6495 484l-33 -4 -1 0 0 1 0 51 0 2 1 0 33 4 2 0 0 -2 0 -51 0 -1 -2 0zm-32 -1l31 3 0 49 -31 -4 0 -48z"/>
    <path class="fil0" d="M6496 300l-17 -27 -1 -2 -1 2 -16 23 0 1 0 0 0 169 0 1 1 0 33 4 2 0 0 -1 0 -169 0 0 -1 -1zm-18 -21l16 23 0 166 -31 -4 0 -166 15 -19z"/>
    <path class="fil0" d="M6436 91c-4,56 -8,110 -12,163 -23,324 -42,597 -84,896l-2 14c-15,110 -34,244 -75,355 -107,294 -254,590 -435,887 -182,298 -397,596 -639,896l-9 13c243,-300 469,-610 650,-907 181,-298 329,-594 436,-888 41,-112 59,-245 75,-355l2 -14c42,-300 61,-573 84,-897 4,-53 8,-107 12,-162l-3 -1z"/>
    <path class="fil0" d="M6856 2673c-85,20 -173,60 -245,122 -63,53 -116,124 -150,214 -68,180 -132,369 -197,572 -65,202 -130,419 -199,653l29 -49c69,-234 108,-401 172,-604 65,-202 130,-391 197,-571 34,-89 87,-160 149,-213 72,-61 159,-100 244,-119l0 -5z"/>
    <path class="fil0" d="M6855 2675c-44,10 -88,25 -130,46 -40,20 -79,45 -114,75 -32,27 -62,59 -88,97 -24,34 -45,73 -61,117 -34,89 -67,182 -100,277 -32,95 -65,193 -97,294 -33,101 -65,206 -98,315 -32,106 -65,216 -98,330l24 -41c29,-98 52,-184 75,-266 31,-114 60,-220 97,-338 33,-101 65,-199 98,-294 32,-95 65,-187 99,-277 17,-43 37,-82 62,-117 26,-37 55,-69 88,-97 34,-29 72,-54 112,-73 42,-21 87,-36 131,-46l0 -2zm-131 44c43,-21 87,-36 132,-47l1 0 0 1 0 5 0 0 -1 1c-44,10 -89,25 -131,46 -40,19 -77,43 -112,73 -32,27 -62,59 -87,96 -25,35 -45,74 -62,117 -33,89 -66,182 -99,277 -33,95 -65,193 -97,294 -38,118 -67,224 -98,338 -23,82 -46,168 -75,266l0 0 0 0 -29 49 -5 7 3 -8c34,-117 68,-230 101,-339 33,-108 65,-213 98,-315 32,-101 65,-199 97,-294 33,-95 66,-187 100,-277 16,-44 37,-83 61,-118 26,-37 56,-69 89,-97 35,-30 73,-55 114,-75z"/>
    <path class="fil0" d="M5892 4273c20,-98 29,-190 28,-276 -1,-86 -13,-165 -36,-238l-1 -2 -1 1c-89,65 -162,139 -222,222 -61,83 -109,175 -146,273l-2 10c38,-98 90,-198 150,-281 60,-83 122,-129 210,-192 22,71 44,122 45,207 1,85 -9,192 -29,289l4 -13z"/>
    <path class="fil0" d="M5267 3822c177,-310 354,-651 509,-974 156,-323 304,-650 452,-978l-3 -1c-148,328 -296,655 -451,978 -156,323 -318,641 -495,952l-12 23z"/>
    <path class="fil0" d="M5526 3350c-84,161 -171,321 -258,473l-2 -1 12 -24 0 0c89,-155 173,-312 255,-471 83,-159 162,-319 240,-481 77,-161 153,-324 228,-487 75,-162 149,-326 223,-490l1 -1 1 0 2 1 1 1 0 1c-74,163 -148,327 -223,490 -75,163 -151,326 -229,487 -79,165 -164,334 -251,502zm119 -238c45,-89 88,-177 130,-265 78,-161 154,-324 229,-487 74,-162 148,-326 222,-489l0 0c-74,163 -148,326 -223,489 -75,163 -151,326 -228,487 -43,89 -86,177 -130,265z"/>
    <path class="fil0" d="M5176 3243c200,-251 398,-502 574,-763 176,-262 331,-533 444,-823 88,-223 97,-266 118,-367 7,-36 16,-78 31,-139l-3 -1c-15,61 -23,104 -31,140 -21,100 -30,143 -117,366 -114,290 -268,561 -444,822 -176,261 -411,552 -611,803l39 -38z"/>
    <path class="fil0" d="M5237 2169c307,-171 577,-358 769,-558 138,-144 242,-296 306,-458 -17,50 -37,97 -60,144 -50,104 -114,200 -194,294 -97,113 -215,220 -348,319 -138,102 -292,196 -455,277l-10 14c163,-82 329,-186 467,-289 133,-99 251,-206 348,-319 80,-94 144,-191 195,-295 35,-73 64,-150 87,-233 10,-36 19,-72 25,-109l0 0 0 -1 -2 0c-8,38 -16,74 -26,109 -57,196 -172,376 -335,545 -192,200 -450,383 -757,553l-10 7z"/>
    <path class="fil0" d="M5240 2448c303,-193 555,-409 737,-636 183,-228 307,-472 375,-733l-2 0c-69,260 -193,504 -375,731 -182,227 -423,437 -725,630l-10 8z"/>
    <path class="fil0" d="M5196 2545c358,-250 636,-507 811,-729 175,-221 274,-431 328,-634l-2 -1c-55,203 -154,412 -328,634 -175,221 -426,455 -785,705l-24 25z"/>
    <path class="fil0" d="M5261 2740c389,-404 629,-692 783,-912 153,-220 220,-372 261,-505l-3 -1c-41,133 -107,285 -261,505 -153,219 -400,516 -789,920l9 -7z"/>
    <path class="fil0" d="M5186 2861c296,-292 559,-596 739,-829 180,-234 300,-437 354,-607l-3 -1c-53,170 -173,373 -353,606 -180,233 -420,497 -716,788l-21 43z"/>
    <path class="fil0" d="M5375 2765l-46 12 -16 5 62 -14 35 40 -40 146 19 17 1 -2 -19 -15 42 -145 94 -41 23 17 2 -2 -24 -18 14 -113 82 -44 30 35 3 -2 -31 -35 24 -111 73 -16 25 30 2 -2 -25 -30 31 -84 70 -35 10 18 3 -2 -11 -18 25 -61 1 0 -1 -1 -18 -23 68 -117 -20 32 -51 84 -59 23 -16 -33 -2 1 15 34 -31 78 -88 31 -12 -11 -2 2 12 11 -19 65 -92 56 -9 -14 -3 1 10 15 -27 89 -79 45 -24 -23 -2 2 24 23 -33 100zm61 658l-123 60 -39 23 164 -81 34 25 1 -2 -34 -25 -9 -110 124 -75 22 11 2 -2 -22 -12 -18 -124 98 -70 34 22 1 -3 -34 -22 -13 -113 94 -59 33 23 1 -2 -33 -24 0 -110 65 -50 42 29 2 -3 -42 -29 19 -91 62 -26 18 23 3 -1 -20 -24 8 -85 48 -32 22 20 2 -2 -22 -20 -1 -72 41 -24 24 23 2 -2 -25 -23 9 -58 37 -24 18 18 2 -2 -18 -18 11 -63 37 -27 11 14 3 -2 -13 -14 17 -88 37 -38 12 19 3 -2 -14 -19 18 -81 34 -31 9 22 3 -1 -10 -23 13 -47 27 -26 6 11 0 -1 -4 -13 -1 -1 -1 1 -28 26 -7 -8 22 -58 1 -1 -1 0 -27 -55 7 17 18 38 -23 58 -33 24 -21 -44 -2 1 21 45 -14 58 -40 36 -19 -28 -2 2 20 28 -20 77 -38 36 -22 -23 -2 2 22 23 -14 79 -41 24 -21 -24 -3 2 22 24 -14 57 -45 23 -13 -14 -2 1 13 15 -11 58 -48 32 -11 -7 -2 3 12 6 -5 70 -55 41 -15 -15 -2 2 15 15 -6 72 -75 44 -13 -9 -1 3 12 8 -16 95 -92 64 -12 -8 -2 2 13 9 -2 104 -114 70 -22 -10 -1 3 22 9 14 119 -121 74 -45 -31 -2 2 45 31 24 126 1 1 0 0 35 19 9 110zm317 -1127l60 -24 18 23 -25 60 -71 35 -13 -16 31 -78zm-218 815l18 125 -125 74 -34 -18 -24 -125 122 -73 43 17zm99 -73l-98 71 -43 -18 -15 -119 114 -70 29 23 13 113zm83 -175l-95 60 -29 -23 2 -104 92 -65 29 22 1 110zm85 -255l-19 92 -65 51 -30 -22 17 -95 75 -44 22 18zm71 -112l-7 84 -62 26 -22 -18 6 -72 56 -41 29 21zm49 -106l1 72 -48 32 -30 -21 4 -70 48 -32 25 19zm51 -85l-9 59 -40 24 -25 -19 11 -57 45 -24 18 17zm50 -89l-11 64 -37 23 -18 -17 14 -56 41 -24 11 10zm55 -116l-16 87 -38 27 -10 -10 14 -79 39 -37 11 12zm56 -121l-17 80 -38 38 -11 -11 19 -76 40 -37 7 6zm36 -34l-34 32 -8 -6 15 -57 33 -24 7 9 -13 46zm-759 721l79 -46 29 32 -13 113 -94 41 -34 -40 33 -100zm108 -136l92 -56 16 20 -24 112 -82 44 -29 -32 27 -88zm113 -124l88 -30 13 16 -30 84 -74 16 -16 -20 19 -66z"/>
   </g>
   <polygon class="fil0" points="5176,807 4229,487 3958,689 3969,700 3948,723 3922,697 3926,672 4219,457 4225,453 4232,455 5185,777 "/>
   <path class="fil0" d="M3968 699l15 13 6 4 0 7 4 60 21 10 9 4 0 10 0 959 0 15 -15 1 -28 1 6 16 2 6 0 73 27 24 5 5 0 7 0 51 0 1571c0,20 -30,19 -31,0l0 -1571 0 -44 -27 -25 -5 -5 0 -7 0 -76 -15 -34 -8 -21 22 -1 36 -1 0 -934 -20 -10 -9 -4 0 -9 -4 -62 -11 -9 20 -24z"/>
   <path class="fil0" d="M5185 777l-15 47 -38 49 0 31 0 10 -9 4 -14 6 0 820 27 0 8 0 5 7 54 76 12 17 -20 7 -16 5c0,501 0,1002 0,1502 0,23 -30,22 -31,0l0 -1512 0 -11 11 -4 7 -3 -38 -52 -34 0 -16 0 0 -16 0 -846 0 -10 10 -4 13 -6 0 -26 3 -10 46 -58 5 -6 7 0 3 0 0 -2 20 -15z"/>
   <path class="fil0" d="M5091 1863l-825 14 -211 -2c-23,1 -23,-31 -2,-31l211 2 1 0 826 -14c23,1 22,30 0,31z"/>
   <path class="fil0" d="M4284 1950l0 2297 -31 0 0 -2297c1,-23 31,-22 31,0z"/>
   <path class="fil0" d="M4085 1758l0 -979 0 0c0,-6 -1,-9 -3,-10 -1,0 -1,-1 -2,0 -2,0 -4,1 -6,2l0 0c-9,7 -17,22 -17,48l0 949 -16 0 -15 -949c0,-37 14,-62 30,-73l0 0c7,-5 13,-7 20,-8 7,-1 14,0 20,3 12,6 20,19 20,38l0 0 0 979 -31 0z"/>
   <path class="fil0" d="M4211 1737l0 -991c-2,-17 -6,-26 -12,-30 -1,-1 -3,-1 -5,-1 -2,1 -6,3 -9,5 -13,12 -24,39 -23,79l0 0 -1 951 -15 0 -15 -951c-1,-50 15,-85 33,-101 8,-7 16,-12 25,-13 9,-2 19,0 27,5 13,8 24,26 26,54l0 2 0 991 -31 0z"/>
   <path class="fil0" d="M4340 1744l0 -998 0 0c0,-24 11,-39 27,-46 7,-3 16,-4 24,-3 8,1 17,3 24,7 22,12 41,37 40,73l0 0 -16 970 -15 0 0 -970 0 -1c1,-22 -10,-37 -23,-44 -4,-3 -9,-4 -13,-4 -3,-1 -6,0 -9,1 -5,2 -8,7 -8,17l0 0 0 998 -31 0z"/>
   <path class="fil0" d="M4466 1744l0 -941 0 -1c0,-24 13,-41 31,-48 8,-4 17,-5 25,-4 9,0 18,3 26,7 21,12 37,36 36,75l-14 912 -16 0 -1 -912 0 -1c1,-25 -9,-40 -20,-47 -4,-2 -9,-3 -13,-3 -4,-1 -8,0 -11,1 -7,3 -12,10 -12,21l0 941 -31 0z"/>
   <path class="fil0" d="M4594 1744l0 -901 0 0c1,-25 14,-42 32,-49 8,-3 16,-5 25,-4 9,1 17,3 25,7 21,12 38,37 37,76l-16 871 -16 0 1 -872 0 -1c1,-25 -9,-40 -20,-46 -4,-3 -9,-4 -13,-4 -4,0 -8,0 -11,2 -7,3 -12,9 -13,20l0 901 -31 0z"/>
   <path class="fil0" d="M4723 1744l0 -858 0 0c0,-24 14,-41 32,-48 8,-4 16,-5 25,-4 9,0 17,3 25,7 21,12 38,36 36,75l-15 830 -16 0 0 -830 0 -1c1,-25 -8,-40 -20,-47 -4,-2 -8,-3 -12,-3 -4,-1 -8,0 -11,1 -7,3 -13,10 -13,21l0 857 -31 0z"/>
   <path class="fil0" d="M4852 1741l0 -809 0 -1c0,-24 14,-41 32,-48 7,-4 16,-5 25,-4 8,0 17,3 25,7 21,12 38,36 36,75l-15 782 -16 0 0 -782 0 -1c1,-25 -8,-40 -20,-47 -4,-2 -8,-3 -12,-3 -4,-1 -8,0 -12,1 -7,3 -12,10 -12,21l0 809 -31 0z"/>
   <path class="fil0" d="M4981 1743l0 -765 0 0c0,-24 14,-41 31,-49 8,-3 17,-4 26,-4 8,1 17,3 25,8 21,11 38,36 36,75l0 737 -31 0 0 -737 0 -1c1,-25 -8,-40 -20,-47 -4,-2 -8,-3 -12,-4 -4,0 -8,1 -12,2 -7,3 -12,10 -12,20l0 765 -31 0z"/>
   <path class="fil0" d="M4006 1223l-217 -19c-25,-1 -21,-32 2,-30l217 18 -2 31z"/>
   <path class="fil0" d="M4011 1249l-97 27c-21,6 -30,-24 -8,-30l97 -27 8 30z"/>
   <path class="fil0" d="M3964 1802l-186 0c-21,-1 -25,-33 0,-31l186 0 0 31z"/>
   <path class="fil0" d="M5159 1783l94 -26c17,-3 30,22 8,30l-94 26 -8 -30z"/>
   <path class="fil0" d="M5090 1247l235 -59c32,-9 42,23 7,30l-234 59 -8 -30z"/>
   <path class="fil0" d="M5094 1296l126 0c33,0 33,31 0,31l-126 0 0 -31z"/>
   <path class="fil0" d="M4121 672c38,-24 95,-67 138,-70 47,-4 131,33 185,50l-1 3c-53,-18 -137,-51 -184,-48 -41,3 -100,42 -138,66l0 -1z"/>
   <path class="fil1" d="M14173 4191l0 -136c0,-19 -15,-35 -34,-35 -19,0 -34,16 -34,35l0 136 -34 0 0 -68c0,-19 -16,-34 -34,-34 -19,0 -35,15 -35,34l0 68 -34 0 0 -136c0,-19 -15,-35 -34,-35 -19,0 -34,16 -34,35l0 136 -85 2c-5,-165 -42,-882 -331,-1300 66,-1 181,-75 177,-171 0,-7 -2,-13 -2,-19l94 -25 21 -53 45 35 396 -106 -9 -33c-32,-121 -266,-176 -491,-116 -112,30 -216,87 -287,158 -1,1 -3,1 -5,2 -44,-95 -134,-191 -244,-257 -95,-58 -201,-92 -299,-98 -100,-5 -174,21 -205,72l-18 30 351 212 53 -21 5 56 44 27c-59,0 -121,8 -181,24 -107,29 -205,81 -277,148 -73,68 -105,140 -90,198l9 33 396 -106 21 -53 45 35 90 -24c-5,16 -9,34 -9,52 0,94 77,171 171,171 39,0 115,-51 144,-73 7,39 31,235 36,273 43,254 52,726 -128,927l-18 0 0 -102c0,-19 -15,-34 -34,-34 -19,0 -34,15 -34,34l0 102 -104 0c22,-28 35,-64 35,-102 0,-94 -76,-171 -171,-171 -94,0 -170,77 -170,171 0,38 13,74 35,102l-614 0c-4,40 15,64 62,69l2123 0c42,0 43,-67 0,-69l-274 0zm-3593 -7l-127 3c-2,43 13,73 66,73 48,-4 71,-28 61,-76zm-551 3c-238,0 -176,-48 -409,0 -85,18 -351,96 -380,0 1,43 13,74 57,73l708 0c31,-4 34,-32 24,-73zm-1451 -26c-43,131 -139,56 -415,15l35 77 281 7c49,0 86,-11 102,-43 6,-14 4,-50 -3,-56zm-3029 15l-939 2 -1 82 903 0 37 -84zm-940 3l-1334 3 0 78 1334 0 0 -81zm-1595 7l-1341 2 0 73 1341 1 0 -76zm-1604 3l-1367 2c-57,2 -58,68 0,69l1367 1 0 -72zm11450 -100c0,-84 68,-152 151,-152 84,0 152,68 152,152 0,83 -68,151 -152,151 -83,0 -151,-68 -151,-151zm584 -1135c1,-2 1,-5 2,-7 3,-7 5,-15 6,-22 2,-11 4,-21 4,-32 0,-1 0,-3 0,-4 0,0 1,0 2,1 8,1 17,2 26,3 14,22 27,45 40,68l-72 58c0,-2 -8,-63 -8,-65zm14 75l73 -49c1,2 29,53 30,55 6,14 13,28 19,43 2,4 4,9 6,14 5,13 10,26 16,39 2,6 4,11 6,17 6,15 11,29 16,45 5,14 10,28 15,42 1,5 3,10 5,15 2,6 18,64 20,70l-165 -4c-10,-81 -28,-208 -41,-286 0,0 0,0 0,-1zm44 308l167 0c23,80 53,214 68,293l-213 0c-4,-79 -13,-212 -22,-293zm21 308l215 0c15,84 31,212 39,285l-268 0c8,-74 16,-201 14,-285zm-17 -767c0,0 -1,-1 -2,-1l-11 2c-44,6 -108,-54 -120,-93 0,-1 -1,-1 -1,-1 -5,-10 -10,-21 -13,-33l-1 -9c-1,-7 -2,-14 -2,-21 0,-7 1,-13 2,-20 0,-4 1,-8 2,-12l1 -2c1,-5 2,-11 5,-16 2,-6 5,-11 8,-16 1,-2 1,-3 2,-5 87,-133 277,-46 262,68 0,69 -64,152 -132,159zm678 -345l-356 111 -70 -58 -25 77 -82 22c-2,-24 -5,-41 -29,-70 -2,-2 -3,-4 -5,-6 -5,-6 -11,-11 -16,-16 -3,-2 -6,-5 -9,-7 -5,-4 -11,-8 -16,-11 -4,-2 -8,-4 -12,-6 -37,-18 -79,-16 -109,-6 124,-86 525,-295 729,-30zm-1185 -32l-321 -191c19,-105 374,-77 485,12 122,74 214,186 243,255 -3,2 -45,34 -47,37 -3,3 -6,6 -9,10 -2,3 -4,7 -6,11 -1,0 -18,50 -19,51 -70,-40 -154,-88 -226,-131l-25 -83 -75 29zm-28 289l-16 86 -372 89c-76,-264 496,-437 672,-291l64 38c0,2 0,4 0,6l-20 5c-1,0 -2,0 -2,0 -4,0 -8,-1 -12,-1 -2,0 -4,0 -6,1 -8,0 -16,0 -23,2 -3,0 -6,1 -9,1 -6,2 -12,4 -19,6 -4,2 -9,3 -13,5 -3,1 -5,3 -7,4 -34,18 -58,55 -83,83l-93 22 -61 -56zm314 231c-71,0 -128,-58 -128,-128 0,-41 19,-77 49,-100l2 -2c6,-4 12,-8 18,-11 1,-1 2,-2 3,-2 5,-2 9,-4 14,-6 4,-1 8,-2 12,-3 3,-1 6,-2 9,-2 4,-1 9,-1 14,-1 6,-1 11,-1 16,0l14 2 1 -1c18,4 34,11 50,22 0,0 0,0 0,0 5,8 10,16 16,23 2,2 3,4 5,6 6,7 12,13 18,19 4,7 7,14 9,21 0,2 1,3 2,5 2,10 4,20 4,30 0,18 -4,36 -13,53 0,0 0,1 0,1 -20,43 -64,74 -115,74zm138 1170c40,-63 66,-145 82,-239l274 0c11,109 15,195 17,239l-373 0z"/>
  </g>
 </g>
</svg>
