<?xml version="1.0" encoding="UTF-8"?>
<!DOCTYPE svg PUBLIC "-//W3C//DTD SVG 1.1//EN" "http://www.w3.org/Graphics/SVG/1.1/DTD/svg11.dtd">
<!-- Creator: CorelDRAW X7 -->
<svg xmlns="http://www.w3.org/2000/svg" xml:space="preserve" width="199.561mm" height="35.766mm" version="1.1" style="shape-rendering:geometricPrecision; text-rendering:geometricPrecision; image-rendering:optimizeQuality; fill-rule:evenodd; clip-rule:evenodd"
viewBox="0 0 19956 3577"
 xmlns:xlink="http://www.w3.org/1999/xlink">
 <defs>
  <style type="text/css">
   <![CDATA[
    .fil0 {fill:#FEFEFE;fill-rule:nonzero}
    .fil1 {fill:#00414E;fill-rule:nonzero}
   ]]>
  </style>
 </defs>
 <g id="Layer_x0020_1">
  <metadata id="CorelCorpID_0Corel-Layer"/>
  <g id="_2511868221984">
   <path class="fil0" d="M22 2823l0 -2242 261 0 0 2242 -261 0zm-22 -2654c0,-59 14,-101 43,-128 28,-27 64,-41 107,-41 41,0 76,14 106,41 30,28 44,70 44,128 0,57 -14,100 -44,128 -30,28 -65,42 -106,42 -43,0 -79,-14 -107,-42 -29,-28 -43,-71 -43,-128zm1538 943c74,0 141,6 200,18l-35 237c-70,-15 -131,-23 -184,-23 -136,0 -252,55 -349,165 -96,111 -144,248 -144,413l0 901 -255 0 0 -1680 210 0 29 310 13 0c62,-109 137,-193 225,-252 87,-60 184,-89 290,-89zm1397 1711l-50 -239 -13 0c-84,105 -167,177 -250,214 -84,38 -188,56 -312,56 -167,0 -297,-43 -392,-128 -94,-87 -142,-209 -142,-368 0,-339 272,-517 814,-534l285 -9 0 -104c0,-132 -28,-229 -85,-292 -57,-62 -147,-94 -272,-94 -140,0 -298,43 -475,129l-78 -195c83,-45 173,-80 272,-106 99,-26 197,-38 296,-38 201,0 349,44 446,133 97,89 145,232 145,428l0 1147 -189 0zm-575 -179c159,0 283,-43 373,-130 91,-87 136,-209 136,-365l0 -152 -255 11c-202,7 -348,38 -437,94 -90,56 -134,143 -134,260 0,92 28,162 84,210 55,48 133,72 233,72zm2351 179l0 -1087c0,-137 -31,-239 -94,-307 -62,-67 -160,-101 -293,-101 -176,0 -304,48 -386,143 -82,95 -123,252 -123,471l0 881 -254 0 0 -1680 206 0 42 229 12 0c53,-82 125,-147 219,-192 95,-46 199,-68 315,-68 203,0 355,48 457,146 102,97 153,254 153,469l0 1096 -254 0zm877 -2242l-61 810 -161 0 -63 -810 285 0zm642 2242l-254 0 0 -1680 254 0 0 1680z"/>
   <path class="fil1" d="M9313 2823l-540 0 -587 -945 -201 144 0 801 -475 0 0 -2242 475 0 0 1026 188 -264 606 -762 528 0 -782 992 788 1250zm868 -1413c-100,0 -177,31 -234,94 -56,63 -88,152 -97,267l657 0c-2,-115 -32,-204 -90,-267 -59,-63 -138,-94 -236,-94zm65 1444c-276,0 -491,-76 -647,-228 -155,-153 -233,-368 -233,-647 0,-288 72,-509 215,-666 144,-157 343,-236 596,-236 243,0 431,69 566,207 135,138 203,328 203,571l0 227 -1106 0c5,133 44,237 118,312 73,75 177,112 310,112 103,0 201,-11 293,-33 92,-21 188,-55 288,-102l0 362c-82,41 -169,72 -262,92 -93,19 -207,29 -341,29zm2187 -540c0,176 -61,310 -183,402 -122,92 -305,138 -548,138 -125,0 -231,-8 -319,-25 -88,-17 -170,-42 -247,-75l0 -386c87,41 185,75 294,103 109,27 204,41 287,41 170,0 255,-49 255,-147 0,-37 -12,-67 -34,-90 -23,-23 -61,-49 -116,-78 -56,-29 -129,-63 -221,-103 -132,-54 -229,-106 -291,-153 -61,-47 -106,-101 -135,-162 -28,-61 -42,-136 -42,-225 0,-151 59,-269 177,-352 118,-84 286,-125 502,-125 207,0 407,45 603,135l-141 336c-86,-37 -166,-67 -241,-90 -74,-24 -151,-36 -228,-36 -138,0 -207,38 -207,112 0,42 22,79 67,109 44,31 141,77 292,137 133,54 232,105 294,152 62,47 108,101 138,162 29,62 44,135 44,220zm-339 893c0,130 -38,224 -115,282 -77,58 -197,88 -358,88 -80,0 -155,-11 -224,-32l0 -258c27,7 65,14 111,21 47,7 83,11 108,11 74,0 110,-32 110,-95 0,-84 -84,-140 -254,-166l119 -235 297 0 -42 94c76,25 136,62 181,114 45,52 67,110 67,176zm1563 -1747l-404 0 0 1363 -468 0 0 -1363 -257 0 0 -225 257 -127 0 -125c0,-195 48,-338 144,-427 96,-90 250,-135 462,-135 161,0 304,24 430,72l-120 343c-93,-30 -180,-45 -260,-45 -66,0 -114,20 -144,59 -29,40 -44,90 -44,151l0 107 404 0 0 352zm891 -50c-99,0 -177,31 -233,94 -56,63 -89,152 -97,267l657 0c-2,-115 -32,-204 -91,-267 -58,-63 -137,-94 -236,-94zm66 1444c-276,0 -492,-76 -647,-228 -156,-153 -233,-368 -233,-647 0,-288 71,-509 215,-666 144,-157 342,-236 596,-236 242,0 431,69 566,207 135,138 202,328 202,571l0 227 -1106 0c6,133 45,237 118,312 74,75 178,112 311,112 103,0 200,-11 293,-33 91,-21 187,-55 288,-102l0 362c-82,41 -170,72 -263,92 -92,19 -206,29 -340,29zm1534 0c-201,0 -360,-78 -475,-234 -115,-157 -172,-373 -172,-651 0,-281 58,-499 175,-656 118,-157 279,-236 484,-236 216,0 381,84 494,252l16 0c-24,-128 -35,-243 -35,-343l0 -550 469 0 0 2387 -359 0 -91 -221 -19 0c-107,168 -269,252 -487,252zm164 -373c120,0 207,-35 263,-104 56,-70 86,-188 92,-355l0 -50c0,-184 -29,-316 -86,-396 -56,-79 -148,-119 -277,-119 -104,0 -185,44 -243,132 -58,89 -86,218 -86,386 0,169 29,295 87,379 58,84 142,127 250,127zm1172 -1816c0,-153 85,-229 255,-229 169,0 254,76 254,229 0,72 -21,129 -63,169 -43,41 -106,61 -191,61 -170,0 -255,-77 -255,-230zm488 2158l-468 0 0 -1715 468 0 0 1715zm1984 0l-468 0 0 -1001c0,-124 -22,-217 -66,-279 -44,-61 -113,-92 -210,-92 -130,0 -225,43 -283,131 -58,87 -87,232 -87,434l0 807 -467 0 0 -1715 356 0 63 220 26 0c53,-82 124,-145 216,-188 91,-42 195,-63 311,-63 200,0 351,54 454,162 103,108 155,263 155,467l0 1117z"/>
  </g>
 </g>
</svg>
