<?xml version="1.0" encoding="UTF-8"?>
<!DOCTYPE svg PUBLIC "-//W3C//DTD SVG 1.1//EN" "http://www.w3.org/Graphics/SVG/1.1/DTD/svg11.dtd">
<!-- Creator: CorelDRAW X7 -->
<svg xmlns="http://www.w3.org/2000/svg" xml:space="preserve" width="8.467mm" height="24.884mm" version="1.1" style="shape-rendering:geometricPrecision; text-rendering:geometricPrecision; image-rendering:optimizeQuality; fill-rule:evenodd; clip-rule:evenodd"
viewBox="0 0 847 2488"
 xmlns:xlink="http://www.w3.org/1999/xlink">
 <defs>
  <style type="text/css">
   <![CDATA[
    .fil0 {fill:#6D7879;fill-rule:nonzero}
   ]]>
  </style>
 </defs>
 <g id="Layer_x0020_1">
  <metadata id="CorelCorpID_0Corel-Layer"/>
  <path class="fil0" d="M185 2299c0,-63 20,-110 60,-142 39,-32 97,-48 173,-48 75,0 133,17 173,50 41,34 61,81 61,141 0,32 -7,61 -20,87 -13,25 -32,46 -56,60l0 4 67 12 0 25 -643 0 0 -41 162 0c24,0 46,1 67,2l35 1 0 -3c-27,-17 -47,-37 -60,-61 -12,-24 -19,-53 -19,-87zm38 1c0,52 15,90 45,113 31,23 81,34 151,34l7 0c68,0 116,-11 146,-35 30,-24 44,-61 44,-112 0,-49 -17,-86 -51,-110 -35,-25 -84,-38 -147,-38 -130,0 -195,50 -195,148zm420 -580l-71 10 0 4c29,22 50,46 62,69 12,24 18,52 18,85 0,44 -11,78 -34,103 -23,25 -54,37 -94,37 -44,0 -78,-19 -102,-55 -24,-37 -37,-89 -38,-159l-3 -85 -30 0c-43,0 -75,8 -97,26 -21,17 -32,45 -32,84 0,41 11,85 35,129l-36 15c-23,-49 -35,-98 -35,-146 0,-49 13,-86 39,-110 25,-25 65,-37 120,-37l298 0 0 30zm-28 166c0,-48 -14,-86 -41,-114 -28,-28 -66,-42 -115,-42l-44 0 3 79c3,63 13,108 30,135 16,27 43,40 78,40 28,0 50,-8 65,-25 16,-18 24,-42 24,-73zm-88 -612c40,0 71,16 93,46 21,31 32,74 32,131 0,60 -9,107 -28,143l-44 0c23,-46 34,-93 34,-143 0,-45 -7,-79 -22,-102 -15,-23 -35,-34 -59,-34 -23,0 -42,9 -57,27 -16,19 -31,49 -46,91 -16,45 -30,76 -42,94 -11,19 -25,32 -39,41 -15,10 -33,14 -54,14 -34,0 -61,-14 -80,-42 -20,-28 -30,-68 -30,-118 0,-49 10,-95 28,-139l37 16c-18,44 -27,85 -27,123 0,36 6,65 18,87 12,21 29,32 50,32 24,0 42,-8 57,-25 14,-17 29,-49 47,-98 14,-40 28,-70 39,-88 12,-19 25,-33 40,-42 15,-9 32,-14 53,-14zm237 95c27,0 48,9 62,27 14,19 21,45 21,78 0,19 -2,32 -5,39l-36 0c2,-8 4,-21 4,-38 0,-21 -4,-38 -12,-49 -7,-11 -18,-17 -33,-17 -26,0 -42,27 -50,80l-72 -39 0 -39 49 27c10,-46 34,-69 72,-69zm-121 -475l-71 11 0 3c29,23 50,46 62,70 12,23 18,52 18,84 0,44 -11,79 -34,103 -23,25 -54,37 -94,37 -44,0 -78,-18 -102,-55 -24,-36 -37,-89 -38,-158l-3 -86 -30 0c-43,0 -75,9 -97,26 -21,17 -32,45 -32,84 0,42 11,85 35,129l-36 16c-23,-50 -35,-98 -35,-147 0,-49 13,-86 39,-110 25,-25 65,-37 120,-37l298 0 0 30zm-28 166c0,-48 -14,-86 -41,-114 -28,-27 -66,-41 -115,-41l-44 0 3 78c3,63 13,108 30,135 16,27 43,41 78,41 28,0 50,-9 65,-26 16,-17 24,-42 24,-73zm-430 -509c0,-20 2,-40 6,-62l40 8c-5,19 -7,38 -7,58 0,39 16,70 48,95 33,24 74,36 124,36l247 0 0 41 -449 0 0 -34 81 -4 0 -3c-33,-19 -56,-39 -70,-60 -13,-20 -20,-46 -20,-75zm458 -185l0 40 -449 0 0 -40 449 0zm0 -183l0 41 -643 0 0 -41 643 0zm0 -183l0 41 -449 0 0 -41 449 0z"/>
 </g>
</svg>
