<?xml version="1.0" encoding="UTF-8"?>
<!DOCTYPE svg PUBLIC "-//W3C//DTD SVG 1.1//EN" "http://www.w3.org/Graphics/SVG/1.1/DTD/svg11.dtd">
<!-- Creator: CorelDRAW X7 -->
<svg xmlns="http://www.w3.org/2000/svg" xml:space="preserve" width="1174.67mm" height="107.518mm" version="1.1" style="shape-rendering:geometricPrecision; text-rendering:geometricPrecision; image-rendering:optimizeQuality; fill-rule:evenodd; clip-rule:evenodd"
viewBox="0 0 117467 10752"
 xmlns:xlink="http://www.w3.org/1999/xlink">
 <defs>
  <style type="text/css">
   <![CDATA[
    .fil10 {fill:#ECEBEC;fill-rule:nonzero}
    .fil11 {fill:#D7D5D4;fill-rule:nonzero}
    .fil6 {fill:#725451;fill-rule:nonzero}
    .fil12 {fill:#634A49;fill-rule:nonzero}
    .fil5 {fill:#5BBC74;fill-rule:nonzero}
    .fil7 {fill:#574142;fill-rule:nonzero}
    .fil3 {fill:#48A15A;fill-rule:nonzero}
    .fil8 {fill:#458352;fill-rule:nonzero}
    .fil9 {fill:#3E6748;fill-rule:nonzero}
    .fil4 {fill:#48A15A;fill-rule:nonzero}
    .fil2 {fill:#5BBC74;fill-rule:nonzero}
    .fil0 {fill:#6CC6E8;fill-rule:nonzero}
    .fil1 {fill:#6CC6E8;fill-rule:nonzero}
   ]]>
  </style>
 </defs>
 <g id="Layer_x0020_1">
  <metadata id="CorelCorpID_0Corel-Layer"/>
  <g id="_2519570499840">
   <path class="fil0" d="M67179 7795l-297 -4317 56 -1c80,-250 202,-475 375,-671l-1272 0c179,180 302,406 375,671l61 1 -202 4304 904 13zm-572 -5643l58 -2152 23 0 59 2152 -70 0c151,0 273,120 273,268 0,15 -1,28 -3,42l58 0 0 79 69 0 0 128 114 0 0 108 -1021 0 0 -108 113 0 0 -128 68 0 0 -79 59 0c-2,-14 -3,-27 -3,-42 0,-148 122,-268 273,-268l-70 0z"/>
   <path class="fil1" d="M62456 9118l1472 -1213c43,-364 61,-809 62,-1307l241 0 88 -88 50 9 0 26 265 12 265 -12 0 -26 50 -9 11 11 -11 -11c-2,554 32,1129 356,1360 -223,-145 -304,-631 -268,-1272l-15 -15 15 15 242 0c1,498 19,943 62,1307l1077 948 371 249 -101 0c-2466,0 -4232,-14 -4232,16zm1640 -19l1077 0 -156 -694c-56,-265 -183,-413 -383,-440 -199,27 -326,175 -382,440l-156 694zm135 -2501c37,641 -39,1127 -262,1272 324,-231 352,-806 350,-1360l-88 88z"/>
   <path class="fil0" d="M66135 7744l0 -180 1142 0 0 180 -1142 0zm-6170 -2965l624 0 0 134 -624 0 0 -134zm7405 2965l0 -180 97 0 0 -35 -1517 0 0 35 92 0 0 180 -194 0 58 390 133 968 -580 897 0 -900 -1211 614 0 -197 -93 0 0 197 -173 -614 -224 202 -11 -582 0 -888 -214 0 0 -2131 -745 -338 -746 338 0 1029 -255 0 0 -262 -248 0 0 262 -204 0 0 -102 -171 0 0 102 -151 0 0 -1816 -298 0 0 -134 209 0 0 -89 -1294 0 0 89 209 0 0 134 -298 0 0 2918 -328 0 0 -2918 -148 0 0 -267 -455 0 0 267 -266 0 0 -267 -455 0 0 267 -148 0 0 2852 -675 0 0 -246 -297 0 0 246 -98 0 0 549 -713 0 0 -822 -1303 -523 0 2115 12739 0 170 -1340 -194 0z"/>
   <path class="fil2" d="M0 10752l100798 0 16670 0 0 0c-53,0 -439,-1335 -4940,-1334 -1996,0 -1581,230 -3563,231 -4373,1 -5826,-721 -8097,-561 -1250,88 -2136,290 -3478,364 -1819,99 -4190,-10 -5991,-53 -1866,-45 -3513,-1007 -5525,-204 -2072,827 -4431,-1383 -6583,-684 -1071,347 -2202,534 -3386,571l-33486 0c-2027,1023 -4528,896 -7345,0 -2095,-634 -4163,-665 -6202,0 -1761,413 -3425,377 -5016,0 -1551,-427 -6589,-784 -8767,18 -4343,1599 -8716,-2509 -15089,1652l0 0z"/>
   <path class="fil2" d="M51896 9082l-7792 0 -1685 0c723,-541 2943,-1797 4121,-1797 2678,0 2678,1797 5356,1797z"/>
   <path class="fil3" d="M46540 9082l5356 0c-2678,0 -2678,-1797 -5356,-1797l0 0 0 1797z"/>
   <path class="fil2" d="M58745 9082c-3424,0 -3424,-2298 -6849,-2298 -3424,0 -3424,2298 -6849,2298l13698 0z"/>
   <path class="fil4" d="M51896 9082l6849 0c-3424,0 -3424,-2298 -6849,-2298l0 0 0 2298z"/>
   <path class="fil5" d="M72326 7248l0 1834 -6478 0c2826,0 2826,-1896 5651,-1896 307,0 580,22 827,62z"/>
   <path class="fil4" d="M75903 9082l-3577 0 -827 0 0 -1896c432,-144 2718,353 4404,1896z"/>
   <path class="fil6" d="M49894 8506l0 1128c0,39 48,71 108,71 59,0 107,-32 107,-71l0 -1128 -215 0z"/>
   <path class="fil7" d="M50109 8506l0 1128c0,39 -48,71 -107,71l0 -1199 107 0z"/>
   <path class="fil8" d="M50713 7825c0,740 -318,1339 -711,1339 -393,0 -712,-599 -712,-1339 0,-739 319,-1339 712,-1339 393,0 711,600 711,1339z"/>
   <path class="fil9" d="M50002 6486l0 2678c393,0 711,-599 711,-1339 0,-739 -318,-1339 -711,-1339z"/>
   <path class="fil9" d="M49740 8638c0,38 -31,68 -68,68 -38,0 -69,-30 -69,-68 0,-38 31,-69 69,-69 37,0 68,31 68,69z"/>
   <path class="fil9" d="M49925 8140c0,38 -31,69 -69,69 -38,0 -68,-31 -68,-69 0,-38 30,-68 68,-68 38,0 69,30 69,68z"/>
   <path class="fil9" d="M49493 7775c0,38 -30,69 -68,69 -38,0 -69,-31 -69,-69 0,-38 31,-68 69,-68 38,0 68,30 68,68z"/>
   <path class="fil9" d="M49856 7301c0,38 -31,68 -68,68 -38,0 -69,-30 -69,-68 0,-38 31,-69 69,-69 37,0 68,31 68,69z"/>
   <path class="fil8" d="M50216 6782c0,38 -31,69 -69,69 -38,0 -68,-31 -68,-69 0,-38 30,-68 68,-68 38,0 69,30 69,68z"/>
   <path class="fil8" d="M50494 7121c0,38 -30,68 -68,68 -38,0 -69,-30 -69,-68 0,-38 31,-69 69,-69 38,0 68,31 68,69z"/>
   <path class="fil8" d="M50216 7516c0,38 -31,68 -69,68 -38,0 -68,-30 -68,-68 0,-38 30,-69 68,-69 38,0 69,31 69,69z"/>
   <path class="fil8" d="M50494 7740c0,38 -30,68 -68,68 -38,0 -69,-30 -69,-68 0,-38 31,-69 69,-69 38,0 68,31 68,69z"/>
   <path class="fil8" d="M50192 8277c0,38 -30,69 -68,69 -38,0 -69,-31 -69,-69 0,-38 31,-68 69,-68 38,0 68,30 68,68z"/>
   <path class="fil8" d="M50413 8746c0,38 -30,68 -68,68 -38,0 -69,-30 -69,-68 0,-38 31,-69 69,-69 38,0 68,31 68,69z"/>
   <path class="fil9" d="M49740 6894c0,38 -31,69 -68,69 -38,0 -69,-31 -69,-69 0,-38 31,-68 69,-68 37,0 68,30 68,68z"/>
   <path class="fil6" d="M47275 7754l0 1542c0,53 66,97 146,97 81,0 147,-44 147,-97l0 -1542 -293 0z"/>
   <path class="fil7" d="M47568 7754l0 1542c0,53 -66,97 -147,97l0 -1639 147 0z"/>
   <path class="fil8" d="M48394 6824c0,1011 -436,1830 -973,1830 -536,0 -972,-819 -972,-1830 0,-1010 436,-1829 972,-1829 537,0 973,819 973,1829z"/>
   <path class="fil9" d="M47421 4995l0 3659c537,0 973,-819 973,-1830 0,-1010 -436,-1829 -973,-1829z"/>
   <path class="fil9" d="M47064 7934c0,52 -42,94 -93,94 -52,0 -94,-42 -94,-94 0,-51 42,-93 94,-93 51,0 93,42 93,93z"/>
   <path class="fil9" d="M47316 7255c0,51 -42,93 -93,93 -52,0 -94,-42 -94,-93 0,-52 42,-94 94,-94 51,0 93,42 93,94z"/>
   <path class="fil9" d="M46727 6756c0,52 -42,94 -93,94 -52,0 -94,-42 -94,-94 0,-52 42,-94 94,-94 51,0 93,42 93,94z"/>
   <path class="fil9" d="M47223 6108c0,52 -42,93 -94,93 -52,0 -93,-41 -93,-93 0,-52 41,-94 93,-94 52,0 94,42 94,94z"/>
   <path class="fil8" d="M47714 5399c0,52 -42,94 -94,94 -52,0 -93,-42 -93,-94 0,-51 41,-93 93,-93 52,0 94,42 94,93z"/>
   <path class="fil8" d="M48095 5862c0,52 -42,94 -94,94 -52,0 -93,-42 -93,-94 0,-51 41,-93 93,-93 52,0 94,42 94,93z"/>
   <path class="fil8" d="M47714 6402c0,51 -42,93 -94,93 -52,0 -93,-42 -93,-93 0,-52 41,-94 93,-94 52,0 94,42 94,94z"/>
   <path class="fil8" d="M48095 6708c0,51 -42,93 -94,93 -52,0 -93,-42 -93,-93 0,-52 41,-94 93,-94 52,0 94,42 94,94z"/>
   <path class="fil8" d="M47682 7442c0,52 -42,94 -94,94 -51,0 -93,-42 -93,-94 0,-52 42,-94 93,-94 52,0 94,42 94,94z"/>
   <path class="fil8" d="M47984 8082c0,52 -42,94 -94,94 -51,0 -93,-42 -93,-94 0,-52 42,-94 93,-94 52,0 94,42 94,94z"/>
   <path class="fil9" d="M47064 5552c0,52 -42,94 -93,94 -52,0 -94,-42 -94,-94 0,-51 42,-93 94,-93 51,0 93,42 93,93z"/>
   <path class="fil6" d="M68673 8196l0 1322c0,46 57,83 126,83 69,0 126,-37 126,-83l0 -1322 -252 0z"/>
   <path class="fil7" d="M68925 8196l0 1322c0,46 -57,83 -126,83l0 -1405 126 0z"/>
   <path class="fil8" d="M69633 7398c0,867 -374,1570 -834,1570 -460,0 -834,-703 -834,-1570 0,-866 374,-1569 834,-1569 460,0 834,703 834,1569z"/>
   <path class="fil9" d="M68799 5829l0 3139c460,0 834,-703 834,-1570 0,-866 -374,-1569 -834,-1569z"/>
   <path class="fil9" d="M68493 8350c0,45 -36,81 -81,81 -44,0 -80,-36 -80,-81 0,-44 36,-80 80,-80 45,0 81,36 81,80z"/>
   <path class="fil9" d="M68709 7768c0,44 -36,80 -80,80 -45,0 -81,-36 -81,-80 0,-45 36,-81 81,-81 44,0 80,36 80,81z"/>
   <path class="fil9" d="M68204 7340c0,44 -36,80 -81,80 -44,0 -80,-36 -80,-80 0,-45 36,-80 80,-80 45,0 81,35 81,80z"/>
   <path class="fil9" d="M68629 6784c0,44 -36,80 -81,80 -44,0 -80,-36 -80,-80 0,-44 36,-80 80,-80 45,0 81,36 81,80z"/>
   <path class="fil8" d="M69050 6176c0,45 -36,81 -81,81 -44,0 -80,-36 -80,-81 0,-44 36,-80 80,-80 45,0 81,36 81,80z"/>
   <path class="fil8" d="M69376 6573c0,45 -36,81 -80,81 -44,0 -80,-36 -80,-81 0,-44 36,-80 80,-80 44,0 80,36 80,80z"/>
   <path class="fil8" d="M69050 7036c0,44 -36,80 -81,80 -44,0 -80,-36 -80,-80 0,-44 36,-80 80,-80 45,0 81,36 81,80z"/>
   <path class="fil8" d="M69376 7298c0,45 -36,81 -80,81 -44,0 -80,-36 -80,-81 0,-44 36,-80 80,-80 44,0 80,36 80,80z"/>
   <path class="fil8" d="M69022 7928c0,45 -36,80 -80,80 -44,0 -80,-35 -80,-80 0,-44 36,-80 80,-80 44,0 80,36 80,80z"/>
   <path class="fil8" d="M69281 8477c0,44 -36,80 -80,80 -44,0 -80,-36 -80,-80 0,-44 36,-80 80,-80 44,0 80,36 80,80z"/>
   <path class="fil9" d="M68493 6308c0,44 -36,80 -81,80 -44,0 -80,-36 -80,-80 0,-45 36,-81 80,-81 45,0 81,36 81,81z"/>
   <path class="fil8" d="M56238 9555c-151,0 -274,122 -274,274l548 0c0,-152 -122,-274 -274,-274z"/>
   <path class="fil9" d="M56491 9649c-100,0 -180,80 -180,180l360 0c0,-100 -81,-180 -180,-180z"/>
   <path class="fil6" d="M70963 8239l0 1883c0,65 80,118 179,118 99,0 179,-53 179,-118l0 -1883 -358 0z"/>
   <path class="fil7" d="M71321 8239l0 1883c0,65 -80,118 -179,118l0 -2001 179 0z"/>
   <path class="fil8" d="M72329 7104c0,1234 -531,2234 -1187,2234 -655,0 -1187,-1000 -1187,-2234 0,-1234 532,-2234 1187,-2234 656,0 1187,1000 1187,2234z"/>
   <path class="fil9" d="M71142 4870l0 4468c656,0 1187,-1000 1187,-2234 0,-1234 -531,-2234 -1187,-2234z"/>
   <path class="fil9" d="M70706 8459c0,63 -51,114 -114,114 -63,0 -114,-51 -114,-114 0,-63 51,-114 114,-114 63,0 114,51 114,114z"/>
   <path class="fil9" d="M71014 7629c0,63 -51,115 -115,115 -63,0 -114,-52 -114,-115 0,-63 51,-114 114,-114 64,0 115,51 115,114z"/>
   <path class="fil9" d="M70294 7020c0,63 -51,114 -114,114 -63,0 -114,-51 -114,-114 0,-63 51,-114 114,-114 63,0 114,51 114,114z"/>
   <path class="fil9" d="M70899 6229c0,63 -51,114 -114,114 -63,0 -114,-51 -114,-114 0,-63 51,-114 114,-114 63,0 114,51 114,114z"/>
   <path class="fil8" d="M71499 5364c0,63 -51,114 -114,114 -63,0 -114,-51 -114,-114 0,-63 51,-115 114,-115 63,0 114,52 114,115z"/>
   <path class="fil8" d="M71964 5929c0,63 -51,114 -114,114 -63,0 -114,-51 -114,-114 0,-63 51,-114 114,-114 63,0 114,51 114,114z"/>
   <path class="fil8" d="M71499 6588c0,63 -51,114 -114,114 -63,0 -114,-51 -114,-114 0,-63 51,-115 114,-115 63,0 114,52 114,115z"/>
   <path class="fil8" d="M71964 6961c0,63 -51,115 -114,115 -63,0 -114,-52 -114,-115 0,-63 51,-114 114,-114 63,0 114,51 114,114z"/>
   <path class="fil8" d="M71460 7858c0,63 -51,114 -114,114 -63,0 -114,-51 -114,-114 0,-63 51,-114 114,-114 63,0 114,51 114,114z"/>
   <path class="fil8" d="M71829 8639c0,64 -51,115 -114,115 -63,0 -115,-51 -115,-115 0,-63 52,-114 115,-114 63,0 114,51 114,114z"/>
   <path class="fil9" d="M70706 5551c0,63 -51,114 -114,114 -63,0 -114,-51 -114,-114 0,-64 51,-115 114,-115 63,0 114,51 114,115z"/>
   <path class="fil8" d="M71322 10060c-99,0 -180,80 -180,180l360 0c0,-100 -80,-180 -180,-180z"/>
   <path class="fil9" d="M71669 9936c-168,0 -304,136 -304,304l607 0c0,-168 -136,-304 -303,-304z"/>
   <path class="fil10" d="M62927 9792c-160,0 -289,129 -289,288l577 0c0,-159 -129,-288 -288,-288z"/>
   <path class="fil11" d="M63215 10080c0,-159 -129,-288 -288,-288l0 288 288 0z"/>
   <path class="fil10" d="M49290 9579c-159,0 -289,129 -289,288l578 0c0,-159 -130,-288 -289,-288z"/>
   <path class="fil11" d="M49579 9867c0,-159 -130,-288 -289,-288l0 288 289 0z"/>
   <path class="fil10" d="M66519 9157c-84,0 -152,68 -152,152l304 0c0,-84 -68,-152 -152,-152z"/>
   <path class="fil11" d="M66671 9309c0,-84 -68,-152 -152,-152l0 152 152 0z"/>
   <path class="fil10" d="M51136 9361c-84,0 -152,68 -152,152l304 0c0,-84 -68,-152 -152,-152z"/>
   <path class="fil11" d="M51288 9513c0,-84 -68,-152 -152,-152l0 152 152 0z"/>
   <path class="fil10" d="M69457 9459c-122,0 -221,99 -221,221l442 0c0,-122 -99,-221 -221,-221z"/>
   <path class="fil11" d="M69678 9680c0,-122 -99,-221 -221,-221l0 221 221 0z"/>
   <path class="fil6" d="M53551 6864l0 331c0,12 14,21 31,21 18,0 32,-9 32,-21l0 -331 -63 0z"/>
   <path class="fil12" d="M53614 6864l0 331c0,12 -14,21 -32,21l0 -352 32 0z"/>
   <polygon class="fil8" points="53582,6128 53293,7040 53872,7040 "/>
   <polygon class="fil9" points="53872,7040 53582,6128 53582,7040 "/>
   <path class="fil6" d="M51113 6635l0 243c0,8 10,15 23,15 13,0 23,-7 23,-15l0 -243 -46 0z"/>
   <path class="fil12" d="M51159 6635l0 243c0,8 -10,15 -23,15l0 -258 23 0z"/>
   <polygon class="fil8" points="51136,6098 50924,6764 51347,6764 "/>
   <polygon class="fil9" points="51347,6764 51136,6098 51136,6764 "/>
   <path class="fil6" d="M55550 8320l0 332c0,11 14,20 32,20 17,0 31,-9 31,-20l0 -332 -63 0z"/>
   <path class="fil12" d="M55613 8320l0 332c0,11 -14,20 -31,20l0 -352 31 0z"/>
   <polygon class="fil8" points="55582,7584 55292,8496 55871,8496 "/>
   <polygon class="fil9" points="55871,8496 55582,7584 55582,8496 "/>
   <path class="fil6" d="M67363 8717l0 331c0,12 14,21 31,21 18,0 32,-9 32,-21l0 -331 -63 0z"/>
   <path class="fil12" d="M67426 8717l0 331c0,12 -14,21 -32,21l0 -352 32 0z"/>
   <polygon class="fil8" points="67394,7981 67105,8893 67683,8893 "/>
   <polygon class="fil9" points="67683,8893 67394,7981 67394,8893 "/>
   <path class="fil6" d="M48681 7776l0 332c0,11 14,20 31,20 18,0 32,-9 32,-20l0 -332 -63 0z"/>
   <path class="fil12" d="M48744 7776l0 332c0,11 -14,20 -32,20l0 -352 32 0z"/>
   <polygon class="fil8" points="48712,7040 48423,7952 49001,7952 "/>
   <polygon class="fil9" points="49001,7952 48712,7040 48712,7952 "/>
   <path class="fil6" d="M44545 7708l0 331c0,12 14,21 31,21 18,0 32,-9 32,-21l0 -331 -63 0z"/>
   <path class="fil12" d="M44608 7708l0 331c0,12 -14,21 -32,21l0 -352 32 0z"/>
   <polygon class="fil8" points="44576,6972 44287,7884 44865,7884 "/>
   <polygon class="fil9" points="44865,7884 44576,6972 44576,7884 "/>
   <path class="fil6" d="M52299 8233l0 518c0,18 22,33 49,33 28,0 50,-15 50,-33l0 -518 -99 0z"/>
   <path class="fil12" d="M52398 8233l0 518c0,18 -22,33 -50,33l0 -551 50 0z"/>
   <polygon class="fil8" points="52348,7082 51896,8508 52801,8508 "/>
   <polygon class="fil9" points="52801,8508 52348,7082 52348,8508 "/>
   <path class="fil6" d="M45216 8400l0 987c0,34 42,62 94,62 52,0 94,-28 94,-62l0 -987 -188 0z"/>
   <path class="fil7" d="M45404 8400l0 987c0,34 -42,62 -94,62l0 -1049 94 0z"/>
   <path class="fil8" d="M45932 7805c0,647 -278,1171 -622,1171 -344,0 -622,-524 -622,-1171 0,-647 278,-1171 622,-1171 344,0 622,524 622,1171z"/>
   <path class="fil9" d="M45310 6634l0 2342c344,0 622,-524 622,-1171 0,-647 -278,-1171 -622,-1171z"/>
   <path class="fil9" d="M45081 8516c0,33 -27,60 -60,60 -33,0 -60,-27 -60,-60 0,-33 27,-60 60,-60 33,0 60,27 60,60z"/>
   <path class="fil9" d="M45243 8081c0,33 -27,60 -60,60 -33,0 -60,-27 -60,-60 0,-33 27,-60 60,-60 33,0 60,27 60,60z"/>
   <path class="fil9" d="M44865 7761c0,33 -26,60 -59,60 -34,0 -60,-27 -60,-60 0,-33 26,-60 60,-60 33,0 59,27 59,60z"/>
   <path class="fil9" d="M45183 7346c0,33 -27,60 -60,60 -33,0 -60,-27 -60,-60 0,-33 27,-59 60,-59 33,0 60,26 60,59z"/>
   <path class="fil8" d="M45497 6893c0,33 -27,60 -60,60 -33,0 -60,-27 -60,-60 0,-33 27,-60 60,-60 33,0 60,27 60,60z"/>
   <path class="fil8" d="M45741 7189c0,33 -27,60 -60,60 -33,0 -60,-27 -60,-60 0,-33 27,-60 60,-60 33,0 60,27 60,60z"/>
   <path class="fil8" d="M45497 7535c0,33 -27,59 -60,59 -33,0 -60,-26 -60,-59 0,-34 27,-60 60,-60 33,0 60,26 60,60z"/>
   <path class="fil8" d="M45741 7730c0,33 -27,60 -60,60 -33,0 -60,-27 -60,-60 0,-33 27,-60 60,-60 33,0 60,27 60,60z"/>
   <path class="fil8" d="M45477 8200c0,33 -27,60 -60,60 -33,0 -60,-27 -60,-60 0,-33 27,-59 60,-59 33,0 60,26 60,59z"/>
   <path class="fil8" d="M45670 8610c0,33 -27,60 -60,60 -33,0 -60,-27 -60,-60 0,-33 27,-60 60,-60 33,0 60,27 60,60z"/>
   <path class="fil9" d="M45081 6991c0,33 -27,60 -60,60 -33,0 -60,-27 -60,-60 0,-33 27,-60 60,-60 33,0 60,27 60,60z"/>
   <path class="fil8" d="M45168 9393c-89,0 -161,72 -161,160l321 0c0,-88 -72,-160 -160,-160z"/>
   <path class="fil9" d="M45476 9283c-149,0 -270,121 -270,270l541 0c0,-149 -121,-270 -271,-270z"/>
  </g>
 </g>
</svg>
