<?xml version="1.0" encoding="UTF-8"?>
<!DOCTYPE svg PUBLIC "-//W3C//DTD SVG 1.1//EN" "http://www.w3.org/Graphics/SVG/1.1/DTD/svg11.dtd">
<!-- Creator: CorelDRAW X7 -->
<svg xmlns="http://www.w3.org/2000/svg" xml:space="preserve" width="44.15mm" height="32.38mm" version="1.1" style="shape-rendering:geometricPrecision; text-rendering:geometricPrecision; image-rendering:optimizeQuality; fill-rule:evenodd; clip-rule:evenodd"
viewBox="0 0 4415 3238"
 xmlns:xlink="http://www.w3.org/1999/xlink">
 <defs>
  <style type="text/css">
   <![CDATA[
    .fil0 {fill:#0998B5;fill-rule:nonzero}
   ]]>
  </style>
 </defs>
 <g id="Layer_x0020_1">
  <metadata id="CorelCorpID_0Corel-Layer"/>
  <path class="fil0" d="M4222 1804c-129,-160 -292,-263 -490,-309 63,-97 94,-203 94,-318 0,-162 -57,-301 -172,-416 -115,-115 -254,-172 -416,-172 -148,0 -275,47 -382,142 -90,-217 -234,-394 -431,-528 -197,-135 -417,-203 -659,-203 -325,0 -602,115 -832,345 -230,230 -345,508 -345,832 0,24 1,56 4,99 -177,83 -321,208 -430,376 -108,168 -163,353 -163,556 0,283 101,526 302,727 202,202 445,303 728,303l2502 0c244,0 452,-86 624,-259 173,-172 259,-380 259,-624 0,-207 -65,-391 -193,-551z"/>
 </g>
</svg>
