<?xml version="1.0" encoding="UTF-8"?>
<!DOCTYPE svg PUBLIC "-//W3C//DTD SVG 1.1//EN" "http://www.w3.org/Graphics/SVG/1.1/DTD/svg11.dtd">
<!-- Creator: CorelDRAW X7 -->
<svg xmlns="http://www.w3.org/2000/svg" xml:space="preserve" width="46.699mm" height="43.615mm" version="1.1" style="shape-rendering:geometricPrecision; text-rendering:geometricPrecision; image-rendering:optimizeQuality; fill-rule:evenodd; clip-rule:evenodd"
viewBox="0 0 4670 4361"
 xmlns:xlink="http://www.w3.org/1999/xlink">
 <defs>
  <style type="text/css">
   <![CDATA[
    .fil0 {fill:#2B2B2B}
   ]]>
  </style>
 </defs>
 <g id="Layer_x0020_1">
  <metadata id="CorelCorpID_0Corel-Layer"/>
  <g id="_2313508494224">
   <path class="fil0" d="M876 1478l-769 0 0 95 -107 0 0 2368 102 0 0 95 352 0c6,0 12,5 12,12l0 200 95 0 0 97 410 0c6,0 12,-6 12,-12l0 -2760 -107 0 0 -95z"/>
   <polygon class="fil0" points="1633,2 1209,0 1209,4267 1304,4267 1304,4361 4462,4361 4462,4267 4556,4267 4556,3954 4462,3954 4462,3859 3616,3859 3605,3735 4575,3754 4575,3661 4670,3661 4670,3154 4575,3154 4575,3059 3636,3059 3636,2950 4555,2941 4555,2845 4649,2845 4649,2322 4555,2322 4555,2227 3605,2227 3605,2132 4458,2132 4458,2037 4552,2037 4552,1529 4372,1529 4372,1446 4371,1446 4191,1446 4181,1446 4181,1351 2213,1351 2213,482 2118,482 2118,410 2023,410 2023,335 1929,335 1929,259 1834,259 1834,183 1739,183 1739,97 1633,97 "/>
  </g>
 </g>
</svg>
