<?xml version="1.0" encoding="UTF-8"?>
<!DOCTYPE svg PUBLIC "-//W3C//DTD SVG 1.1//EN" "http://www.w3.org/Graphics/SVG/1.1/DTD/svg11.dtd">
<!-- Creator: CorelDRAW X7 -->
<svg xmlns="http://www.w3.org/2000/svg" xml:space="preserve" width="12.81mm" height="12.81mm" version="1.1" style="shape-rendering:geometricPrecision; text-rendering:geometricPrecision; image-rendering:optimizeQuality; fill-rule:evenodd; clip-rule:evenodd"
viewBox="0 0 1281 1281"
 xmlns:xlink="http://www.w3.org/1999/xlink">
 <defs>
  <style type="text/css">
   <![CDATA[
    .fil0 {fill:#F4F7F9;fill-rule:nonzero}
   ]]>
  </style>
 </defs>
 <g id="Layer_x0020_1">
  <metadata id="CorelCorpID_0Corel-Layer"/>
  <path class="fil0" d="M1165 523l-408 0 0 -407c0,-64 -52,-116 -116,-116 -65,0 -117,52 -117,116l0 408 -407 0c-65,0 -117,52 -117,116 0,33 13,62 34,83 21,21 50,35 82,35l408 0 0 406c0,33 13,62 34,83 21,21 50,34 83,34 64,0 116,-52 116,-117l0 -406 408 0c64,0 116,-53 116,-117 0,-65 -52,-118 -116,-118z"/>
 </g>
</svg>
