<?xml version="1.0" encoding="UTF-8"?>
<!DOCTYPE svg PUBLIC "-//W3C//DTD SVG 1.1//EN" "http://www.w3.org/Graphics/SVG/1.1/DTD/svg11.dtd">
<!-- Creator: CorelDRAW X7 -->
<svg xmlns="http://www.w3.org/2000/svg" xml:space="preserve" width="2.825mm" height="33.338mm" version="1.1" style="shape-rendering:geometricPrecision; text-rendering:geometricPrecision; image-rendering:optimizeQuality; fill-rule:evenodd; clip-rule:evenodd"
viewBox="0 0 282 3334"
 xmlns:xlink="http://www.w3.org/1999/xlink">
 <defs>
  <style type="text/css">
   <![CDATA[
    .fil0 {fill:#6D7879;fill-rule:nonzero}
   ]]>
  </style>
 </defs>
 <g id="Layer_x0020_1">
  <metadata id="CorelCorpID_0Corel-Layer"/>
  <path class="fil0" d="M169 3334l0 -226 57 0 0 226 57 0 0 -283 -170 0 0 226 -57 0 0 -226 -56 0 0 283 169 0zm114 -339l0 -283 -283 0 0 57 226 0 0 169 -226 0 0 57 283 0zm0 -339l0 -283 -57 0 0 226 -170 0 0 -226 -56 0 0 283 283 0zm0 -339l0 -283 -57 0 0 226 -170 0 0 -226 -56 0 0 283 283 0zm0 -339l0 -283 -57 0 0 226 -57 0 0 -113 -56 0 0 113 -57 0 0 -226 -56 0 0 283 283 0zm-114 -339l0 -226 57 0 0 226 57 0 0 -283 -170 0 0 226 -57 0 0 -226 -56 0 0 283 169 0zm0 -339l0 -226 57 0 0 226 57 0 0 -283 -170 0 0 226 -57 0 0 -226 -56 0 0 283 169 0zm114 -339l0 -57 -114 0 0 -113 -56 0 0 113 -57 0 0 -226 -56 0 0 283 283 0zm0 -339l0 -283 -283 0 0 57 226 0 0 169 -226 0 0 57 283 0zm0 -339l0 -283 -57 0 0 226 -226 0 0 57 283 0z"/>
 </g>
</svg>
