<?xml version="1.0" encoding="UTF-8"?>
<!DOCTYPE svg PUBLIC "-//W3C//DTD SVG 1.1//EN" "http://www.w3.org/Graphics/SVG/1.1/DTD/svg11.dtd">
<!-- Creator: CorelDRAW X7 -->
<svg xmlns="http://www.w3.org/2000/svg" xml:space="preserve" width="131.869mm" height="131.869mm" version="1.1" style="shape-rendering:geometricPrecision; text-rendering:geometricPrecision; image-rendering:optimizeQuality; fill-rule:evenodd; clip-rule:evenodd"
viewBox="0 0 13187 13187"
 xmlns:xlink="http://www.w3.org/1999/xlink">
 <defs>
  <style type="text/css">
   <![CDATA[
    .fil1 {fill:#FAFAFA}
    .fil0 {fill:#FAFAFA;fill-rule:nonzero}
   ]]>
  </style>
 </defs>
 <g id="Layer_x0020_1">
  <metadata id="CorelCorpID_0Corel-Layer"/>
  <path class="fil0" d="M6593 0c1821,0 3470,738 4663,1931 1193,1193 1931,2842 1931,4662 0,1821 -738,3470 -1931,4663 -1193,1193 -2842,1931 -4663,1931 -1820,0 -3469,-738 -4662,-1931 -1193,-1193 -1931,-2842 -1931,-4663 0,-1820 738,-3469 1931,-4662 1193,-1193 2842,-1931 4662,-1931zm4592 2002c-1175,-1175 -2798,-1902 -4592,-1902 -1793,0 -3416,727 -4591,1902 -1175,1175 -1902,2798 -1902,4591 0,1794 727,3417 1902,4592 1175,1175 2798,1902 4591,1902 1794,0 3417,-727 4592,-1902 1175,-1175 1902,-2798 1902,-4592 0,-1793 -727,-3416 -1902,-4591z"/>
  <g id="_2524901869776">
   <path class="fil1" d="M8498 6699l-3986 0 0 -2539 4092 0 0 2433c0,82 -25,106 -106,106zm353 -317l30 -40c127,-138 48,-101 499,-101l0 352 -459 0c-12,-53 -48,-163 -70,-211zm-4727 211l-388 0 0 -352 388 0c100,0 127,101 177,176 -41,76 -62,176 -177,176zm4727 -811c56,-84 43,-37 70,-141l459 0 0 353c-534,0 -396,42 -529,-212zm-4656 212l-459 0 0 -353 388 0c85,0 104,57 177,106 -37,158 -70,113 -106,247zm4656 -847c40,-60 77,-141 176,-141l353 0 0 353 -353 0c-140,0 -138,-128 -176,-212zm-4727 212l-388 0 0 -353 388 0c230,0 174,353 0,353zm-740 -1517l0 4656c0,497 332,423 670,423 128,0 122,-140 156,-266 39,-144 87,-205 91,-368 -379,0 -318,66 -318,-459 0,-81 25,-106 106,-106l5009 0 0 565 -318 0c27,116 51,209 86,338 100,370 -20,296 620,296 224,0 317,-201 317,-423l0 -4726c0,-244 -113,-424 -352,-424l-5715 0c-275,0 -352,216 -352,494z"/>
   <path class="fil1" d="M6593 9027c-1186,0 -510,-1060 283,-670 396,195 215,670 -283,670zm-2504 494c0,81 25,106 106,106l4656 0c251,0 32,-491 -70,-882 -65,-248 -179,-882 -353,-882l-3739 0c-181,0 -259,491 -349,781 -46,151 -251,757 -251,877z"/>
   <path class="fil1" d="M4230 9839l4621 0c112,0 120,-87 141,-177 -386,90 -4026,36 -4727,36 -95,0 -97,-17 -176,-36 9,105 25,177 141,177z"/>
  </g>
 </g>
</svg>
