<?xml version="1.0" encoding="UTF-8"?>
<!DOCTYPE svg PUBLIC "-//W3C//DTD SVG 1.1//EN" "http://www.w3.org/Graphics/SVG/1.1/DTD/svg11.dtd">
<!-- Creator: CorelDRAW X7 -->
<svg xmlns="http://www.w3.org/2000/svg" xml:space="preserve" width="131.869mm" height="131.869mm" version="1.1" style="shape-rendering:geometricPrecision; text-rendering:geometricPrecision; image-rendering:optimizeQuality; fill-rule:evenodd; clip-rule:evenodd"
viewBox="0 0 13187 13187"
 xmlns:xlink="http://www.w3.org/1999/xlink">
 <defs>
  <style type="text/css">
   <![CDATA[
    .fil0 {fill:#FAFAFA;fill-rule:nonzero}
   ]]>
  </style>
 </defs>
 <g id="Layer_x0020_1">
  <metadata id="CorelCorpID_0Corel-Layer"/>
  <path class="fil0" d="M6593 0c1821,0 3470,738 4663,1931 1193,1193 1931,2842 1931,4662 0,1821 -738,3470 -1931,4663 -1193,1193 -2842,1931 -4663,1931 -1820,0 -3469,-738 -4662,-1931 -1193,-1193 -1931,-2842 -1931,-4663 0,-1820 738,-3469 1931,-4662 1193,-1193 2842,-1931 4662,-1931zm4592 2002c-1175,-1175 -2798,-1902 -4592,-1902 -1793,0 -3416,727 -4591,1902 -1175,1175 -1902,2798 -1902,4591 0,1794 727,3417 1902,4592 1175,1175 2798,1902 4591,1902 1794,0 3417,-727 4592,-1902 1175,-1175 1902,-2798 1902,-4592 0,-1793 -727,-3416 -1902,-4591z"/>
  <path class="fil0" d="M9371 5760c-9,-159 -197,-282 -575,-377 13,-28 20,-57 20,-86l0 -648 -1 0c-33,-540 -2246,-556 -2499,-556 -254,0 -2466,16 -2500,556l-1 0 0 648c0,176 227,313 565,416 -4,16 -7,31 -8,47l-1 0 0 647c-365,94 -546,216 -555,372l-1 0 0 648c0,123 110,226 291,313 -6,19 -11,38 -12,58l-2 0 0 648c1,308 695,499 1466,589 5,1 11,3 16,3 2,0 4,-1 5,-1 149,17 300,30 450,39 3,1 5,2 9,2 1,0 3,-1 5,-1 189,11 376,17 550,17 175,0 362,-6 551,-17 2,0 3,1 5,1 3,0 6,-2 9,-2 150,-9 301,-22 449,-39 2,0 4,1 5,1 6,0 12,-2 17,-3 771,-90 1465,-281 1466,-589l0 -648 -2 0c-7,-114 -103,-209 -295,-288 12,-27 18,-54 18,-83l0 -606c333,-102 556,-239 556,-413l0 -648 -1 0zm-4908 -216l0 -447c87,23 180,44 278,64l0 452c-11,-3 -23,-5 -34,-7 -50,-11 -98,-22 -144,-34 -35,-9 -68,-19 -100,-28zm4147 -203l-3 0 -33 26c-49,38 -124,77 -221,114l0 -441c111,-38 204,-80 278,-127l0 383c0,14 -7,29 -21,45zm-2463 2084c25,1 50,1 76,2l0 462c-18,0 -36,0 -54,0 -8,0 -16,0 -24,0 -42,-1 -85,-2 -126,-3l-16 -1c-50,-1 -101,-4 -150,-6l0 -463c92,5 186,8 279,9 5,0 10,0 15,0zm352 0c94,-1 187,-5 280,-9l0 463c-20,1 -40,2 -60,3 -56,2 -112,4 -169,5 -14,1 -28,1 -41,1 -33,1 -67,1 -101,1l0 -462c26,-1 51,-1 77,-2 4,0 9,0 14,0zm527 438c-20,2 -41,3 -62,5l0 -462c94,-6 187,-14 278,-23l0 460c-57,6 -116,12 -176,17 -13,1 -27,2 -40,3zm401 -500c95,-11 188,-24 278,-39l0 455c-87,16 -180,30 -278,43l0 -459zm-1990 485c-9,-1 -19,-2 -28,-2 -6,-1 -13,-2 -19,-3l0 -460c90,9 183,17 277,23l0 462c-78,-6 -154,-12 -230,-20zm-233 -485l0 459c-98,-13 -190,-27 -278,-43l0 -455c90,15 183,28 278,39zm2686 380l0 -452c99,-19 191,-41 278,-64l0 448c-82,24 -175,47 -278,68zm-1743 -2448c25,1 50,1 76,1l0 463c-125,-2 -249,-5 -370,-11l0 -462c92,4 186,7 279,9 5,0 10,0 15,0zm352 0c94,-2 187,-5 280,-9l0 462c-16,1 -31,2 -47,3 -1,0 -2,0 -4,0 -62,3 -125,5 -190,6 -10,0 -20,0 -30,1 -33,0 -66,1 -100,1l0 -463c26,0 51,0 77,-1l14 0zm556 1111c93,-1 187,-4 279,-9l0 463c-121,5 -245,9 -370,10l0 -462c26,-1 51,-1 76,-1l15 -1zm-893 438c-59,-4 -117,-9 -173,-15 -12,-1 -25,-2 -36,-4 -3,0 -5,0 -8,-1l0 -460c91,9 184,17 278,23l0 462c-8,-1 -15,-1 -23,-2 -13,-1 -25,-2 -38,-3zm-574 -66c-37,-6 -71,-12 -106,-18l0 -454c90,14 183,27 278,38l0 459c-57,-8 -112,-16 -166,-24 -2,0 -4,-1 -6,-1zm1114 -371c26,0 51,0 77,1l0 462c-45,0 -91,0 -135,-1 -7,-1 -13,-1 -20,-1 -70,-2 -138,-4 -205,-7 -4,0 -7,-1 -11,-1l0 -463c93,5 186,8 279,9 5,0 10,0 15,1zm933 433c-4,0 -7,1 -10,1 -35,3 -70,5 -105,7l0 -461c93,-6 186,-14 277,-23l0 460c-53,6 -107,11 -162,16zm-2245 -1127l0 -460c90,9 183,16 277,23l0 461c-94,-7 -187,-15 -277,-24zm1852 0c-90,9 -182,17 -278,24l0 -461c94,-7 187,-14 278,-23l0 460zm185 -480c95,-11 188,-25 278,-39l0 454c-88,15 -180,30 -278,43l0 -458zm463 379l0 -451c99,-20 191,-41 278,-64l0 446c-83,24 -177,48 -278,69zm-2686 -379l0 458c-18,-3 -37,-4 -56,-7 -11,-2 -23,-3 -34,-5 -54,-8 -106,-16 -157,-25 -11,-1 -21,-3 -31,-5l0 -455c90,14 183,28 278,39zm93 1040l0 451c-103,-22 -196,-46 -278,-70l0 -446c86,24 179,45 278,65zm2955 489c-41,7 -81,14 -124,20 -24,4 -49,8 -73,11 -24,3 -48,6 -72,9l0 -458c95,-11 188,-24 278,-38l0 454c-3,1 -6,2 -9,2zm-3418 -610l0 440c-146,-56 -240,-114 -270,-165l-7 -10c0,-3 -1,-6 -2,-9l0 -384c75,47 168,89 279,128zm-93 1139l0 452c-85,-18 -163,-37 -235,-56 -11,-3 -23,-7 -34,-10 -3,-1 -6,-1 -9,-2l0 -448c87,23 180,45 278,64zm278 1019l0 452c-103,-21 -196,-44 -278,-68l0 -448c86,23 180,45 278,64zm185 33c90,15 182,28 278,40l0 458c-98,-13 -191,-28 -278,-43l0 -455zm463 59c92,9 184,17 278,23l0 462c-96,-7 -189,-15 -278,-25l0 -460zm463 33c93,4 186,8 280,9 5,0 9,0 14,0 26,1 51,1 77,2l0 462c-128,0 -252,-4 -371,-10l0 -463zm556 10c26,0 51,0 77,-1l14 0c94,-2 187,-5 280,-9l0 463c-119,6 -243,9 -371,10l0 -463zm556 -20c94,-6 186,-14 278,-23l0 460c-89,10 -182,18 -278,25l0 -462zm463 -42c96,-12 188,-25 278,-40l0 455c-87,15 -180,30 -278,43l0 -458zm463 -73c98,-19 192,-41 278,-64l0 448c-82,24 -176,47 -278,68l0 -452zm453 -853l-31 28c-49,43 -130,86 -237,127l0 -441c111,-39 204,-81 278,-128l0 384c0,9 -3,19 -10,30zm62 -790c-46,13 -95,25 -144,37 -23,6 -47,10 -71,16 -7,1 -15,3 -22,4l0 -451c99,-20 191,-41 278,-65l0 448c-13,4 -27,7 -41,11zm-4683 -1370l0 -384c74,47 167,89 278,127l0 444c-180,-68 -278,-135 -278,-187zm0 2130l0 -384c74,47 167,89 278,128l0 441 -53 -20 -1 1c-146,-60 -224,-120 -224,-166zm278 1019l0 -384c74,47 168,89 277,128l0 443c-179,-67 -277,-135 -277,-187zm4353 187l0 -443c110,-39 204,-81 278,-128l0 383c0,53 -98,121 -278,188zm278 -2038l0 -443c110,-39 204,-81 278,-128l0 384c0,52 -98,120 -278,187z"/>
 </g>
</svg>
