<?xml version="1.0" encoding="UTF-8"?>
<!DOCTYPE svg PUBLIC "-//W3C//DTD SVG 1.1//EN" "http://www.w3.org/Graphics/SVG/1.1/DTD/svg11.dtd">
<!-- Creator: CorelDRAW X7 -->
<svg xmlns="http://www.w3.org/2000/svg" xml:space="preserve" width="72.73mm" height="11.356mm" version="1.1" style="shape-rendering:geometricPrecision; text-rendering:geometricPrecision; image-rendering:optimizeQuality; fill-rule:evenodd; clip-rule:evenodd"
viewBox="0 0 7273 1136"
 xmlns:xlink="http://www.w3.org/1999/xlink">
 <defs>
  <style type="text/css">
   <![CDATA[
    .fil0 {fill:#ED1C24}
    .fil1 {fill:white;fill-rule:nonzero}
   ]]>
  </style>
 </defs>
 <g id="Layer_x0020_1">
  <metadata id="CorelCorpID_0Corel-Layer"/>
  <g id="_2519570476832">
   <path class="fil0" d="M0 717l0 -617 200 0c76,0 125,3 148,9 35,9 65,29 89,61 24,31 36,71 36,120 0,38 -7,70 -21,95 -14,26 -31,47 -52,61 -21,15 -43,25 -65,30 -29,6 -72,9 -129,9l-81 0 0 232 -125 0zm2319 -444l0 94 -81 0 0 181c0,37 1,59 3,65 1,6 5,11 10,15 6,4 12,6 20,6 11,0 27,-4 48,-12l10 92c-28,12 -59,18 -93,18 -22,0 -41,-4 -58,-11 -2,-1 -4,-2 -5,-4 -11,-21 -18,-41 -21,-59 -4,-19 -6,-48 -6,-87l2 -139c0,-51 -6,-86 -16,-105 -11,-20 -29,-36 -55,-48 -3,-2 -7,-3 -11,-5l0 -1 54 0 0 -89 118 -70 0 159 81 0zm289 306l118 20c-15,43 -39,76 -72,99 -32,23 -73,34 -122,34 -78,0 -136,-25 -173,-76 -29,-41 -44,-93 -44,-155 0,-74 19,-132 58,-174 39,-42 88,-63 147,-63 66,0 119,22 157,66 39,44 57,111 55,202l-296 0c1,35 11,62 29,82 18,19 41,29 68,29 18,0 34,-5 46,-15 13,-10 23,-26 29,-49zm7 -120c-1,-34 -10,-60 -26,-78 -17,-18 -38,-27 -62,-27 -26,0 -47,10 -64,29 -17,18 -25,44 -24,76l176 0zm274 262l-118 0 0 -448 109 0 0 64c19,-30 36,-50 51,-59 15,-10 33,-14 52,-14 27,0 53,7 78,22l-37 103c-20,-13 -38,-19 -56,-19 -16,0 -30,4 -42,13 -11,10 -20,26 -27,50 -7,24 -10,74 -10,150l0 138zm258 -310l-107 -19c12,-44 33,-76 62,-97 30,-21 74,-31 132,-31 52,0 92,6 118,18 25,13 44,29 54,48 11,19 16,54 16,106l-2 138c0,39 2,68 6,87 4,19 11,39 21,60l-117 0c-3,-8 -7,-19 -12,-35 -2,-7 -3,-11 -4,-13 -20,19 -42,34 -65,44 -23,10 -47,15 -73,15 -46,0 -82,-12 -109,-37 -26,-25 -39,-57 -39,-95 0,-25 6,-48 18,-68 12,-19 29,-35 51,-45 21,-11 53,-20 94,-28 55,-10 93,-20 115,-29l0 -12c0,-23 -6,-39 -17,-49 -12,-10 -33,-15 -64,-15 -21,0 -38,4 -49,13 -12,8 -22,23 -29,44zm159 96c-16,5 -40,11 -73,18 -32,7 -54,14 -64,21 -15,11 -23,24 -23,41 0,17 6,31 18,43 13,12 28,18 48,18 21,0 41,-7 61,-21 14,-10 23,-23 28,-39 3,-10 5,-29 5,-58l0 -23zm303 214l-181 -448 124 0 85 229 24 76c7,-19 11,-32 12,-38 4,-13 9,-26 13,-38l86 -229 121 0 -178 448 -106 0zm562 -142l118 20c-15,43 -39,76 -71,99 -33,23 -74,34 -123,34 -78,0 -136,-25 -173,-76 -29,-41 -44,-93 -44,-155 0,-74 19,-132 58,-174 39,-42 88,-63 147,-63 66,0 119,22 157,66 39,44 57,111 55,202l-296 0c1,35 11,62 29,82 18,19 41,29 68,29 19,0 34,-5 47,-15 12,-10 22,-26 28,-49zm7 -120c-1,-34 -10,-60 -26,-78 -17,-18 -38,-27 -62,-27 -26,0 -47,10 -64,29 -16,18 -25,44 -24,76l176 0zm380 -349l-101 0 0 611 -118 0 0 -611 -2338 0 0 155c-20,-3 -44,-5 -72,-5 -58,0 -102,11 -131,32 -30,21 -51,53 -63,97l107 19c8,-21 17,-36 29,-45 12,-8 28,-12 49,-12 32,0 53,5 64,14 11,10 17,26 17,49l0 1 0 12c-21,9 -60,18 -115,29 -41,8 -72,17 -94,27 -22,11 -39,26 -51,46 -12,20 -18,42 -18,67 0,39 13,70 40,95 26,25 63,38 108,38 26,0 51,-5 74,-15 20,-9 38,-21 56,-37l0 171 2557 0 0 -738zm-2557 394l0 23 0 1 0 2c0,27 -2,45 -5,55 -4,15 -14,28 -28,39 -19,14 -40,21 -61,21 -19,0 -35,-6 -47,-18 -12,-12 -19,-26 -19,-43 0,-17 8,-31 24,-42 10,-6 31,-13 64,-20 33,-7 57,-13 72,-18zm-1876 -300l0 176 68 0c49,0 82,-3 98,-10 17,-6 30,-16 39,-30 9,-14 14,-30 14,-48 0,-23 -6,-41 -19,-56 -14,-15 -30,-24 -51,-28 -14,-2 -44,-4 -89,-4l-60 0zm619 372l118 20c-15,43 -39,76 -72,99 -32,22 -73,34 -122,34 -78,0 -136,-26 -173,-77 -30,-40 -44,-92 -44,-154 0,-74 19,-133 58,-175 38,-42 88,-63 147,-63 66,0 119,22 157,66 39,44 57,112 55,203l-296 0c1,35 11,62 29,81 18,20 41,30 68,30 18,0 34,-5 46,-15 13,-10 23,-27 29,-49zm7 -120c-1,-34 -10,-60 -27,-78 -16,-18 -37,-27 -61,-27 -26,0 -47,9 -64,28 -17,19 -25,45 -24,77l176 0zm255 261l-119 0 0 -447 110 0 0 63c19,-30 36,-49 51,-59 15,-9 32,-14 51,-14 27,0 53,8 78,23l-36 103c-20,-13 -39,-20 -56,-20 -17,0 -31,5 -42,14 -12,9 -21,26 -28,49 -6,24 -9,74 -9,150l0 138zm135 -125l119 -19c5,23 16,41 31,52 16,12 37,18 65,18 31,0 54,-5 69,-17 11,-7 16,-18 16,-31 0,-9 -3,-17 -9,-23 -6,-5 -19,-11 -39,-15 -96,-22 -157,-41 -182,-58 -36,-24 -53,-58 -53,-101 0,-39 15,-72 46,-98 30,-27 78,-40 142,-40 61,0 107,10 137,30 29,20 50,50 61,89l-111 21c-5,-18 -14,-31 -27,-40 -14,-10 -33,-14 -58,-14 -31,0 -54,4 -67,13 -9,6 -14,14 -14,24 0,8 4,15 12,21 11,8 48,19 111,34 63,14 108,32 132,52 25,21 38,51 38,89 0,41 -17,76 -52,105 -34,30 -85,45 -152,45 -61,0 -109,-13 -145,-37 -36,-25 -59,-58 -70,-100zm444 -383l0 -109 119 0 0 109 -119 0zm0 508l0 -447 119 0 0 447 -119 0z"/>
   <path class="fil1" d="M4648 271l109 0 0 61c39,-47 86,-71 139,-71 29,0 54,6 75,18 21,12 38,30 52,53 19,-23 41,-41 63,-53 23,-12 47,-18 73,-18 33,0 61,7 84,20 22,14 39,33 51,59 8,19 12,50 12,93l0 285 -118 0 0 -255c0,-44 -4,-73 -13,-86 -11,-17 -28,-25 -50,-25 -17,0 -32,5 -47,15 -15,10 -25,25 -32,44 -6,20 -9,51 -9,93l0 214 -119 0 0 -245c0,-43 -2,-71 -6,-84 -4,-12 -11,-22 -19,-28 -9,-6 -21,-9 -36,-9 -19,0 -35,5 -50,15 -14,9 -25,24 -31,42 -6,19 -9,49 -9,92l0 217 -119 0 0 -447zm696 218c0,-39 9,-77 29,-114 19,-37 46,-65 82,-85 35,-19 75,-29 119,-29 68,0 123,22 166,66 43,44 65,100 65,167 0,68 -22,124 -65,169 -44,44 -99,67 -165,67 -41,0 -80,-10 -118,-28 -37,-19 -65,-46 -84,-82 -20,-36 -29,-79 -29,-131zm121 6c0,45 11,79 32,103 21,23 47,35 78,35 30,0 56,-12 77,-35 21,-24 31,-58 31,-103 0,-44 -10,-78 -31,-102 -21,-23 -47,-35 -77,-35 -31,0 -57,12 -78,35 -21,24 -32,58 -32,102zm787 223l-118 0 0 -228c0,-48 -3,-79 -8,-93 -5,-15 -13,-25 -24,-33 -12,-8 -26,-12 -42,-12 -21,0 -39,5 -55,17 -17,11 -28,26 -34,44 -6,19 -9,53 -9,103l0 202 -119 0 0 -447 110 0 0 65c39,-50 88,-75 148,-75 26,0 50,5 72,14 22,10 38,22 49,36 12,15 19,32 24,50 4,19 6,45 6,80l0 277zm326 -141l118 20c-15,43 -39,76 -72,99 -32,22 -73,34 -123,34 -77,0 -135,-26 -172,-77 -30,-40 -44,-92 -44,-154 0,-74 19,-133 58,-175 38,-42 87,-63 147,-63 66,0 118,22 157,66 38,44 57,112 55,203l-296 0c1,35 11,62 29,82 18,19 41,29 68,29 18,0 34,-5 46,-15 13,-10 22,-27 29,-49zm7 -120c-1,-34 -10,-60 -27,-78 -17,-18 -37,-27 -61,-27 -26,0 -47,9 -64,28 -17,19 -25,45 -25,77l177 0zm104 -186l126 0 107 317 105 -317 123 0 -158 431 -29 77c-10,26 -20,46 -30,60 -9,14 -20,25 -32,33 -12,9 -27,16 -45,20 -18,5 -39,8 -61,8 -23,0 -45,-3 -67,-8l-11 -92c19,4 36,6 51,6 27,0 48,-8 61,-25 13,-16 23,-37 30,-62l-170 -448z"/>
   <path class="fil1" d="M69 1113l0 -143 -53 0 0 -19 128 0 0 19 -53 0 0 143 -22 0zm88 0l0 -162 20 0 0 58c9,-11 21,-16 35,-16 9,0 16,2 22,5 7,4 11,8 14,14 3,6 4,15 4,27l0 74 -20 0 0 -74c0,-10 -2,-17 -6,-22 -4,-4 -10,-7 -18,-7 -6,0 -12,2 -17,5 -5,3 -9,7 -11,12 -2,6 -3,13 -3,22l0 64 -20 0zm199 -38l21 3c-4,12 -10,21 -18,28 -9,6 -20,10 -34,10 -17,0 -31,-5 -41,-16 -10,-11 -15,-25 -15,-45 0,-19 5,-35 15,-46 11,-11 24,-16 40,-16 16,0 28,5 38,16 10,11 15,26 15,45 0,1 0,3 0,6l-87 0c0,12 4,22 10,29 7,7 15,10 25,10 7,0 14,-1 19,-5 5,-4 9,-10 12,-19zm-65 -32l65 0c-1,-10 -3,-17 -7,-22 -7,-8 -15,-12 -25,-12 -9,0 -17,3 -23,10 -6,6 -10,14 -10,24zm169 70l0 -162 22 0 85 127 0 -127 21 0 0 162 -22 0 -85 -127 0 127 -21 0zm235 -38l20 3c-3,12 -9,21 -18,28 -9,6 -20,10 -33,10 -18,0 -31,-5 -41,-16 -10,-11 -15,-25 -15,-45 0,-19 5,-35 15,-46 10,-11 23,-16 40,-16 15,0 28,5 38,16 10,11 15,26 15,45 0,1 0,3 0,6l-88 0c1,12 4,22 11,29 7,7 15,10 25,10 7,0 13,-1 18,-5 5,-4 10,-10 13,-19zm-66 -32l66 0c-1,-10 -4,-17 -8,-22 -6,-8 -14,-12 -24,-12 -10,0 -17,3 -23,10 -7,6 -10,14 -11,24zm91 70l43 -61 -40 -56 24 0 19 27c3,6 6,10 8,13 3,-5 6,-9 9,-13l20 -27 24 0 -40 56 43 61 -25 0 -24 -36 -6 -9 -31 45 -24 0zm196 0l0 -17c-9,13 -21,20 -37,20 -7,0 -13,-2 -19,-4 -6,-3 -11,-6 -14,-10 -3,-4 -5,-9 -6,-15 -1,-4 -1,-10 -1,-19l0 -72 20 0 0 65c0,10 0,17 1,21 1,5 4,9 8,12 4,3 9,5 15,5 6,0 12,-2 17,-5 5,-3 9,-7 11,-13 2,-5 3,-12 3,-22l0 -63 20 0 0 117 -18 0zm34 -35l20 -3c1,8 4,14 9,18 5,4 12,6 22,6 9,0 16,-1 20,-5 4,-4 7,-8 7,-13 0,-5 -2,-8 -6,-11 -3,-2 -10,-4 -21,-7 -14,-3 -24,-7 -30,-9 -6,-3 -10,-7 -13,-11 -3,-5 -4,-10 -4,-16 0,-5 1,-10 3,-15 3,-4 6,-8 10,-11 3,-2 7,-4 13,-6 5,-1 11,-2 17,-2 9,0 17,1 24,4 7,3 12,6 16,11 3,4 5,11 7,18l-20 3c-1,-6 -3,-11 -8,-15 -4,-3 -10,-5 -18,-5 -9,0 -15,2 -19,5 -4,3 -6,6 -6,11 0,2 1,4 2,7 2,2 5,3 8,5 2,1 8,2 18,5 14,4 24,7 29,9 6,3 10,6 13,11 3,4 5,10 5,17 0,6 -2,13 -6,18 -4,6 -9,11 -17,14 -7,3 -15,5 -24,5 -16,0 -27,-3 -35,-10 -8,-6 -14,-15 -16,-28zm170 -24c0,-21 6,-37 18,-48 10,-9 23,-13 37,-13 16,0 30,5 40,16 10,10 15,25 15,44 0,15 -2,27 -7,35 -4,9 -11,16 -19,21 -9,4 -19,7 -29,7 -16,0 -30,-5 -40,-16 -10,-11 -15,-26 -15,-46zm20 0c0,16 4,27 10,34 7,8 15,11 25,11 10,0 18,-3 25,-11 7,-7 10,-19 10,-34 0,-15 -4,-26 -10,-33 -7,-8 -15,-11 -25,-11 -10,0 -18,3 -25,11 -6,7 -10,18 -10,33zm111 59l0 -102 -18 0 0 -15 18 0 0 -13c0,-8 1,-14 2,-18 2,-5 5,-9 10,-12 5,-3 12,-5 21,-5 5,0 11,1 18,2l-3 18c-4,-1 -8,-2 -12,-2 -6,0 -10,2 -12,4 -3,3 -4,8 -4,15l0 11 23 0 0 15 -23 0 0 102 -20 0zm154 0l0 -143 -54 0 0 -19 129 0 0 19 -54 0 0 143 -21 0zm55 -59c0,-21 6,-37 18,-48 10,-9 22,-13 37,-13 16,0 29,5 40,16 10,10 15,25 15,44 0,15 -2,27 -7,35 -4,9 -11,16 -20,21 -8,4 -18,7 -28,7 -17,0 -30,-5 -40,-16 -10,-11 -15,-26 -15,-46zm20 0c0,16 3,27 10,34 7,8 15,11 25,11 10,0 18,-3 25,-11 6,-7 10,-19 10,-34 0,-15 -4,-26 -10,-33 -7,-8 -15,-11 -25,-11 -10,0 -18,3 -25,11 -7,7 -10,18 -10,33zm183 59l0 -17c-9,13 -22,20 -37,20 -7,0 -14,-2 -20,-4 -6,-3 -10,-6 -13,-10 -3,-4 -5,-9 -6,-15 -1,-4 -1,-10 -1,-19l0 -72 20 0 0 65c0,10 0,17 1,21 1,5 4,9 8,12 4,3 9,5 15,5 6,0 11,-2 17,-5 5,-3 9,-7 11,-13 2,-5 3,-12 3,-22l0 -63 20 0 0 117 -18 0zm42 0l0 -117 18 0 0 18c4,-9 8,-14 12,-17 4,-3 9,-4 13,-4 7,0 14,2 21,6l-7 19c-5,-3 -10,-4 -15,-4 -4,0 -8,1 -12,4 -3,2 -6,6 -7,10 -2,8 -3,15 -3,24l0 61 -20 0zm68 -140l0 -22 20 0 0 22 -20 0zm0 140l0 -117 20 0 0 117 -20 0zm35 -35l20 -3c1,8 4,14 9,18 5,4 12,6 22,6 9,0 16,-1 20,-5 4,-4 7,-8 7,-13 0,-5 -2,-8 -6,-11 -3,-2 -10,-4 -21,-7 -14,-3 -24,-7 -30,-9 -6,-3 -10,-7 -13,-11 -3,-5 -4,-10 -4,-16 0,-5 1,-10 3,-15 3,-4 6,-8 10,-11 3,-2 7,-4 13,-6 5,-1 11,-2 17,-2 9,0 17,1 24,4 7,3 12,6 16,11 3,4 5,11 7,18l-20 3c-1,-6 -3,-11 -8,-15 -4,-3 -10,-5 -18,-5 -9,0 -15,2 -19,5 -4,3 -6,6 -6,11 0,2 1,4 2,7 2,2 5,3 8,5 2,1 8,2 18,5 14,4 24,7 29,9 6,3 10,6 13,11 4,4 5,10 5,17 0,6 -2,13 -6,18 -4,6 -9,11 -16,14 -8,3 -16,5 -25,5 -16,0 -27,-3 -35,-10 -8,-6 -13,-15 -16,-28zm114 35l0 -117 18 0 0 16c4,-6 9,-10 15,-14 6,-3 13,-5 21,-5 9,0 16,2 21,5 6,4 10,9 12,16 10,-14 22,-21 37,-21 11,0 20,3 27,10 6,6 9,16 9,30l0 80 -20 0 0 -74c0,-8 0,-14 -2,-17 -1,-4 -3,-6 -7,-9 -3,-2 -7,-3 -12,-3 -8,0 -15,3 -21,9 -5,5 -8,14 -8,26l0 68 -20 0 0 -76c0,-9 -1,-16 -5,-20 -3,-5 -8,-7 -16,-7 -5,0 -10,2 -15,5 -5,3 -8,7 -10,13 -3,5 -4,14 -4,24l0 61 -20 0zm187 0l0 -22 23 0 0 22c0,9 -1,15 -4,21 -3,5 -8,9 -15,12l-5 -9c4,-2 7,-5 9,-8 2,-4 3,-9 4,-16l-12 0zm118 0l0 -162 109 0 0 19 -88 0 0 50 76 0 0 20 -76 0 0 73 -21 0zm127 -140l0 -22 20 0 0 22 -20 0zm0 140l0 -117 20 0 0 117 -20 0zm43 0l0 -117 18 0 0 16c9,-13 21,-19 38,-19 7,0 13,1 19,4 6,2 11,6 14,10 3,4 5,9 6,15 0,3 1,10 1,19l0 72 -20 0 0 -71c0,-8 -1,-14 -2,-18 -2,-5 -5,-8 -9,-10 -4,-3 -8,-4 -14,-4 -8,0 -15,3 -22,8 -6,6 -9,16 -9,31l0 64 -20 0zm196 -14c-7,6 -14,10 -21,13 -7,3 -14,4 -22,4 -13,0 -23,-3 -30,-10 -7,-6 -11,-14 -11,-24 0,-6 2,-11 4,-16 3,-4 6,-8 11,-11 4,-3 9,-5 14,-7 4,-1 10,-2 18,-3 16,-1 28,-4 35,-6 1,-3 1,-5 1,-6 0,-8 -2,-13 -6,-17 -5,-4 -13,-6 -23,-6 -9,0 -16,1 -21,5 -4,3 -8,9 -10,17l-19 -3c2,-8 4,-15 9,-20 4,-5 10,-9 17,-12 8,-3 17,-4 27,-4 10,0 18,1 25,4 6,2 11,5 14,8 2,4 5,9 6,14 0,4 1,10 1,18l0 27c0,18 0,30 1,35 1,5 2,10 5,14l-21 0c-2,-4 -3,-9 -4,-14zm-1 -45c-8,3 -19,6 -33,8 -8,1 -14,2 -18,4 -3,1 -6,3 -7,6 -2,3 -3,6 -3,10 0,5 2,9 6,13 4,3 10,5 17,5 8,0 15,-2 21,-5 6,-3 10,-8 13,-14 2,-4 3,-11 3,-19l1 -8zm43 59l0 -117 18 0 0 16c9,-13 21,-19 37,-19 8,0 14,1 20,4 6,2 10,6 13,10 3,4 5,9 7,15 0,3 1,10 1,19l0 72 -20 0 0 -71c0,-8 -1,-14 -3,-18 -1,-5 -4,-8 -8,-10 -4,-3 -8,-4 -14,-4 -8,0 -16,3 -22,8 -6,6 -9,16 -9,31l0 64 -20 0zm196 -43l19 3c-2,13 -7,24 -16,31 -9,8 -20,12 -32,12 -17,0 -29,-5 -39,-16 -10,-10 -15,-26 -15,-45 0,-13 2,-24 6,-33 5,-10 11,-17 20,-22 8,-5 18,-7 28,-7 12,0 23,3 31,10 8,6 13,15 16,27l-20 3c-1,-8 -5,-14 -9,-18 -5,-4 -11,-6 -18,-6 -10,0 -18,4 -24,11 -6,7 -9,19 -9,34 0,16 3,28 9,35 6,7 14,10 23,10 8,0 15,-2 20,-7 5,-4 9,-12 10,-22zm109 5l21 3c-3,12 -9,21 -18,28 -9,6 -20,10 -33,10 -18,0 -31,-5 -41,-16 -10,-11 -15,-25 -15,-45 0,-19 5,-35 15,-46 10,-11 23,-16 39,-16 16,0 29,5 39,16 10,11 15,26 15,45 0,1 0,3 0,6l-88 0c1,12 4,22 11,29 7,7 15,10 25,10 7,0 13,-1 18,-5 5,-4 9,-10 12,-19zm-65 -32l66 0c-1,-10 -4,-17 -8,-22 -6,-8 -14,-12 -24,-12 -10,0 -17,3 -24,10 -6,6 -9,14 -10,24zm244 56c-7,6 -15,10 -21,13 -7,3 -15,4 -22,4 -13,0 -23,-3 -30,-10 -7,-6 -11,-14 -11,-24 0,-6 2,-11 4,-16 3,-4 6,-8 11,-11 4,-3 9,-5 14,-7 4,-1 10,-2 18,-3 16,-1 28,-4 35,-6 0,-3 0,-5 0,-6 0,-8 -1,-13 -5,-17 -5,-4 -13,-6 -23,-6 -9,0 -16,1 -21,5 -4,3 -8,9 -10,17l-19 -3c1,-8 4,-15 8,-20 5,-5 10,-9 18,-12 8,-3 17,-4 27,-4 10,0 18,1 25,4 6,2 11,5 13,8 3,4 5,9 7,14 0,4 1,10 1,18l0 27c0,18 0,30 1,35 1,5 2,10 5,14l-21 0c-2,-4 -3,-9 -4,-14zm-2 -45c-7,3 -18,6 -32,8 -8,1 -14,2 -18,4 -3,1 -6,3 -8,6 -1,3 -2,6 -2,10 0,5 2,9 6,13 4,3 10,5 17,5 8,0 15,-2 21,-5 6,-3 10,-8 13,-14 2,-4 3,-11 3,-19l0 -8zm44 59l0 -117 18 0 0 16c9,-13 21,-19 37,-19 7,0 14,1 20,4 6,2 10,6 13,10 3,4 5,9 6,15 1,3 2,10 2,19l0 72 -20 0 0 -71c0,-8 -1,-14 -3,-18 -1,-5 -4,-8 -8,-10 -4,-3 -9,-4 -14,-4 -8,0 -16,3 -22,8 -6,6 -9,16 -9,31l0 64 -20 0zm195 0l0 -15c-7,12 -18,18 -33,18 -9,0 -18,-3 -26,-8 -8,-5 -14,-12 -18,-22 -4,-9 -7,-19 -7,-31 0,-12 2,-23 6,-32 4,-10 10,-17 18,-22 8,-5 16,-8 26,-8 7,0 14,2 19,5 6,3 10,6 14,11l0 -58 20 0 0 162 -19 0zm-63 -58c0,15 3,26 9,33 7,8 14,11 23,11 9,0 16,-3 22,-10 6,-7 9,-18 9,-33 0,-16 -3,-28 -9,-35 -6,-8 -14,-11 -23,-11 -9,0 -16,3 -22,10 -6,8 -9,19 -9,35zm209 58l0 -143 -54 0 0 -19 129 0 0 19 -54 0 0 143 -21 0zm142 -38l21 3c-3,12 -9,21 -18,28 -9,6 -20,10 -34,10 -17,0 -30,-5 -41,-16 -10,-11 -15,-25 -15,-45 0,-19 5,-35 16,-46 10,-11 23,-16 39,-16 16,0 29,5 39,16 10,11 15,26 15,45 0,1 0,3 0,6l-88 0c1,12 4,22 11,29 6,7 15,10 24,10 8,0 14,-1 19,-5 5,-4 9,-10 12,-19zm-65 -32l66 0c-1,-10 -4,-17 -8,-22 -6,-8 -15,-12 -25,-12 -9,0 -17,3 -23,10 -6,6 -9,14 -10,24zm181 27l19 3c-2,13 -7,24 -16,31 -9,8 -20,12 -33,12 -16,0 -29,-5 -38,-16 -10,-10 -15,-26 -15,-45 0,-13 2,-24 6,-33 4,-10 11,-17 19,-22 9,-5 18,-7 29,-7 12,0 23,3 31,10 8,6 13,15 16,27l-20 3c-2,-8 -5,-14 -10,-18 -4,-4 -10,-6 -17,-6 -10,0 -18,4 -24,11 -6,7 -10,19 -10,34 0,16 3,28 9,35 7,7 14,10 24,10 8,0 15,-2 20,-7 5,-4 8,-12 10,-22zm29 43l0 -162 20 0 0 58c9,-11 21,-16 35,-16 9,0 16,2 23,5 6,4 11,8 13,14 3,6 5,15 5,27l0 74 -20 0 0 -74c0,-10 -3,-17 -7,-22 -4,-4 -10,-7 -18,-7 -6,0 -11,2 -17,5 -5,3 -9,7 -11,12 -2,6 -3,13 -3,22l0 64 -20 0zm119 0l0 -117 18 0 0 16c8,-13 21,-19 37,-19 7,0 14,1 20,4 6,2 10,6 13,10 3,4 5,9 6,15 1,3 1,10 1,19l0 72 -20 0 0 -71c0,-8 0,-14 -2,-18 -1,-5 -4,-8 -8,-10 -4,-3 -9,-4 -14,-4 -8,0 -16,3 -22,8 -6,6 -9,16 -9,31l0 64 -20 0zm111 -59c0,-21 6,-37 18,-48 11,-9 23,-13 38,-13 16,0 29,5 39,16 10,10 16,25 16,44 0,15 -3,27 -7,35 -5,9 -11,16 -20,21 -9,4 -18,7 -28,7 -17,0 -30,-5 -40,-16 -11,-11 -16,-26 -16,-46zm21 0c0,16 3,27 10,34 6,8 15,11 25,11 9,0 18,-3 24,-11 7,-7 10,-19 10,-34 0,-15 -3,-26 -10,-33 -6,-8 -15,-11 -24,-11 -10,0 -19,3 -25,11 -7,7 -10,18 -10,33zm105 59l0 -162 20 0 0 162 -20 0zm36 -59c0,-21 6,-37 18,-48 11,-9 23,-13 38,-13 16,0 29,5 39,16 10,10 16,25 16,44 0,15 -3,27 -7,35 -5,9 -11,16 -20,21 -9,4 -18,7 -28,7 -17,0 -30,-5 -40,-16 -11,-11 -16,-26 -16,-46zm21 0c0,16 3,27 10,34 6,8 14,11 25,11 9,0 18,-3 24,-11 7,-7 10,-19 10,-34 0,-15 -3,-26 -10,-33 -6,-8 -15,-11 -24,-11 -11,0 -19,3 -25,11 -7,7 -10,18 -10,33zm102 69l19 3c1,6 3,10 7,13 5,4 12,5 20,5 10,0 17,-1 22,-5 5,-4 8,-9 10,-16 1,-4 2,-12 1,-25 -8,10 -19,15 -32,15 -16,0 -29,-6 -38,-17 -9,-12 -13,-26 -13,-42 0,-11 2,-22 6,-31 4,-10 10,-17 18,-22 7,-5 16,-8 27,-8 14,0 25,6 34,17l0 -14 19 0 0 101c0,19 -2,32 -6,39 -4,8 -10,14 -18,18 -8,5 -18,7 -30,7 -14,0 -25,-3 -33,-9 -9,-7 -13,-16 -13,-29zm16 -71c0,16 3,27 10,34 6,7 13,11 23,11 9,0 16,-4 23,-11 6,-7 9,-18 9,-33 0,-14 -3,-25 -10,-32 -6,-8 -14,-11 -23,-11 -9,0 -16,3 -22,10 -7,8 -10,18 -10,32zm106 107l-3 -19c5,1 9,2 12,2 4,0 8,-1 10,-2 3,-2 5,-4 7,-7 1,-2 3,-6 6,-14 1,-2 1,-3 2,-5l-45 -118 22 0 24 68c3,8 6,17 9,27 2,-9 5,-18 8,-27l25 -68 20 0 -45 119c-4,13 -8,22 -11,27 -3,7 -7,11 -12,14 -5,3 -10,5 -16,5 -4,0 -9,-1 -13,-2z"/>
   <path class="fil1" d="M7173 25c28,0 53,12 71,30 18,18 29,42 29,70 0,27 -11,52 -29,70 -18,18 -43,29 -71,29 -27,0 -52,-11 -70,-29 -18,-18 -29,-43 -29,-70 0,-28 11,-52 29,-70 18,-18 43,-30 70,-30zm-45 151l0 -102 43 0c11,0 19,1 24,3 4,2 8,5 11,10 3,4 5,10 5,16 0,7 -2,14 -7,19 -4,4 -11,8 -20,9 5,2 8,5 11,8 3,3 7,9 12,17l12 20 -24 0 -15 -23c-5,-7 -9,-12 -11,-14 -2,-2 -4,-4 -6,-5 -2,0 -6,-1 -10,-1l-5 0 0 43 -20 0zm20 -59l16 0c9,0 15,0 18,-1 2,-1 4,-2 6,-4 1,-2 2,-5 2,-8 0,-3 -1,-6 -3,-8 -2,-2 -4,-4 -8,-4 -1,0 -6,-1 -15,-1l-16 0 0 26zm88 -54c-16,-16 -38,-26 -63,-26 -24,0 -46,10 -62,26 -16,16 -26,38 -26,62 0,24 10,46 26,62 16,16 38,26 62,26 25,0 47,-10 63,-26 16,-16 26,-38 26,-62 0,-24 -10,-46 -26,-62z"/>
  </g>
 </g>
</svg>
