<?xml version="1.0" encoding="UTF-8"?>
<!DOCTYPE svg PUBLIC "-//W3C//DTD SVG 1.1//EN" "http://www.w3.org/Graphics/SVG/1.1/DTD/svg11.dtd">
<!-- Creator: CorelDRAW X7 -->
<svg xmlns="http://www.w3.org/2000/svg" xml:space="preserve" width="131.869mm" height="131.869mm" version="1.1" style="shape-rendering:geometricPrecision; text-rendering:geometricPrecision; image-rendering:optimizeQuality; fill-rule:evenodd; clip-rule:evenodd"
viewBox="0 0 13187 13187"
 xmlns:xlink="http://www.w3.org/1999/xlink">
 <defs>
  <style type="text/css">
   <![CDATA[
    .fil0 {fill:#FAFAFA;fill-rule:nonzero}
   ]]>
  </style>
 </defs>
 <g id="Layer_x0020_1">
  <metadata id="CorelCorpID_0Corel-Layer"/>
  <path class="fil0" d="M6593 0c1821,0 3470,738 4663,1931 1193,1193 1931,2842 1931,4662 0,1821 -738,3470 -1931,4663 -1193,1193 -2842,1931 -4663,1931 -1820,0 -3469,-738 -4662,-1931 -1193,-1193 -1931,-2842 -1931,-4663 0,-1820 738,-3469 1931,-4662 1193,-1193 2842,-1931 4662,-1931zm4592 2002c-1175,-1175 -2798,-1902 -4592,-1902 -1793,0 -3416,727 -4591,1902 -1175,1175 -1902,2798 -1902,4591 0,1794 727,3417 1902,4592 1175,1175 2798,1902 4591,1902 1794,0 3417,-727 4592,-1902 1175,-1175 1902,-2798 1902,-4592 0,-1793 -727,-3416 -1902,-4591z"/>
  <g id="_2696202609504">
   <path class="fil0" d="M9650 8750l-1241 -1241 885 -512c69,-40 110,-116 104,-195 -6,-80 -57,-149 -131,-179l-3947 -1575c-78,-31 -166,-12 -225,47 -59,58 -77,147 -46,224l1574 3948c30,75 99,125 179,131 79,6 155,-34 195,-104l512 -885 1240 1241c40,39 93,61 148,61 55,0 108,-22 147,-61l606 -606c81,-81 81,-213 0,-294z"/>
   <path class="fil0" d="M4391 4096c-81,-81 -213,-81 -295,0 -81,82 -81,214 0,295l464 463c40,41 94,61 147,61 53,0 107,-20 148,-61 81,-81 81,-213 0,-295l-464 -463z"/>
   <path class="fil0" d="M4548 5538c0,-115 -93,-209 -208,-209l-656 0c-115,0 -208,94 -208,209 0,115 93,208 208,208l656 0c115,0 208,-93 208,-208z"/>
   <path class="fil0" d="M4464 6181l-464 464c-81,81 -81,213 0,295 41,40 94,61 148,61 53,0 107,-21 147,-61l464 -464c81,-81 81,-213 0,-295 -82,-81 -214,-81 -295,0z"/>
   <path class="fil0" d="M5538 4548c115,0 208,-93 208,-209l0 -655c0,-115 -93,-208 -208,-208 -115,0 -209,93 -209,208l0 656c0,115 94,208 209,208z"/>
   <path class="fil0" d="M6329 4819c53,0 107,-20 147,-61l464 -463c81,-81 81,-213 0,-295 -82,-81 -214,-81 -295,0l-464 464c-81,81 -81,213 0,294 41,41 94,61 148,61z"/>
  </g>
 </g>
</svg>
