<?xml version="1.0" encoding="UTF-8"?>
<!DOCTYPE svg PUBLIC "-//W3C//DTD SVG 1.1//EN" "http://www.w3.org/Graphics/SVG/1.1/DTD/svg11.dtd">
<!-- Creator: CorelDRAW X7 -->
<svg xmlns="http://www.w3.org/2000/svg" xml:space="preserve" width="131.869mm" height="131.869mm" version="1.1" style="shape-rendering:geometricPrecision; text-rendering:geometricPrecision; image-rendering:optimizeQuality; fill-rule:evenodd; clip-rule:evenodd"
viewBox="0 0 13187 13187"
 xmlns:xlink="http://www.w3.org/1999/xlink">
 <defs>
  <style type="text/css">
   <![CDATA[
    .fil0 {fill:#FAFAFA;fill-rule:nonzero}
   ]]>
  </style>
 </defs>
 <g id="Layer_x0020_1">
  <metadata id="CorelCorpID_0Corel-Layer"/>
  <path class="fil0" d="M6593 0c1821,0 3470,738 4663,1931 1193,1193 1931,2842 1931,4662 0,1821 -738,3470 -1931,4663 -1193,1193 -2842,1931 -4663,1931 -1820,0 -3469,-738 -4662,-1931 -1193,-1193 -1931,-2842 -1931,-4663 0,-1820 738,-3469 1931,-4662 1193,-1193 2842,-1931 4662,-1931zm4592 2002c-1175,-1175 -2798,-1902 -4592,-1902 -1793,0 -3416,727 -4591,1902 -1175,1175 -1902,2798 -1902,4591 0,1794 727,3417 1902,4592 1175,1175 2798,1902 4591,1902 1794,0 3417,-727 4592,-1902 1175,-1175 1902,-2798 1902,-4592 0,-1793 -727,-3416 -1902,-4591z"/>
  <path class="fil0" d="M8081 4172l-382 0 0 -358c0,-105 -85,-190 -190,-190l-1843 0c-106,0 -191,85 -191,190l0 358 -381 0c-246,0 -445,199 -445,445l0 4501c0,246 199,445 445,445l2987 0c246,0 445,-199 445,-445l0 -4501c0,-246 -199,-445 -445,-445zm-985 445l0 -612 222 0 0 1033 -222 0 0 -421zm-1240 0l0 -612 699 0 0 1033 -699 0 0 -421zm117 4424c0,106 -85,191 -191,191l-307 0c-105,0 -191,-85 -191,-191l0 -328c0,-105 86,-190 191,-190l307 0c106,0 191,85 191,190l0 328zm0 -958c0,105 -85,190 -191,190l-307 0c-105,0 -191,-85 -191,-190l0 -328c0,-106 86,-191 191,-191l307 0c106,0 191,85 191,191l0 328zm0 -959c0,106 -85,191 -191,191l-307 0c-105,0 -191,-85 -191,-191l0 -328c0,-105 86,-191 191,-191l307 0c106,0 191,86 191,191l0 328zm959 1917c0,106 -86,191 -191,191l-307 0c-106,0 -191,-85 -191,-191l0 -328c0,-105 85,-190 191,-190l307 0c105,0 191,85 191,190l0 328zm0 -958c0,105 -86,190 -191,190l-307 0c-106,0 -191,-85 -191,-190l0 -328c0,-106 85,-191 191,-191l307 0c105,0 191,85 191,191l0 328zm0 -959c0,106 -86,191 -191,191l-307 0c-106,0 -191,-85 -191,-191l0 -328c0,-105 85,-191 191,-191l307 0c105,0 191,86 191,191l0 328zm958 1917c0,106 -85,191 -191,191l-307 0c-105,0 -190,-85 -190,-191l0 -328c0,-105 85,-190 190,-190l307 0c106,0 191,85 191,190l0 328zm0 -958c0,105 -85,190 -191,190l-307 0c-105,0 -190,-85 -190,-190l0 -328c0,-106 85,-191 190,-191l307 0c106,0 191,85 191,191l0 328zm0 -959c0,106 -85,191 -191,191l-307 0c-105,0 -190,-85 -190,-191l0 -328c0,-105 85,-191 190,-191l307 0c106,0 191,86 191,191l0 328zm0 -1113c0,180 -146,326 -326,326l-1954 0c-180,0 -326,-146 -326,-326l0 -337c0,-180 146,-325 326,-325l1954 0c180,0 326,146 326,325l0 337z"/>
 </g>
</svg>
