<?xml version="1.0" encoding="UTF-8"?>
<!DOCTYPE svg PUBLIC "-//W3C//DTD SVG 1.1//EN" "http://www.w3.org/Graphics/SVG/1.1/DTD/svg11.dtd">
<!-- Creator: CorelDRAW X7 -->
<svg xmlns="http://www.w3.org/2000/svg" xml:space="preserve" width="6.375in" height="6.375in" version="1.1" style="shape-rendering:geometricPrecision; text-rendering:geometricPrecision; image-rendering:optimizeQuality; fill-rule:evenodd; clip-rule:evenodd"
viewBox="0 0 6375 6375"
 xmlns:xlink="http://www.w3.org/1999/xlink">
 <defs>
  <style type="text/css">
   <![CDATA[
    .fil0 {fill:#FEFEFE}
   ]]>
  </style>
 </defs>
 <g id="Layer_x0020_1">
  <metadata id="CorelCorpID_0Corel-Layer"/>
  <g id="_2006794180800">
   <g id="Up">
    <g>
     <path class="fil0" d="M4503 3484l-1095 -1196c-57,-61 -137,-97 -220,-97 -84,0 -164,36 -221,97l-1096 1196 1 0c-49,54 -79,124 -79,202 0,165 134,298 299,298 87,0 165,-37 219,-97l1 1 876 -955 875 955 1 -1c54,60 132,97 219,97 165,0 299,-133 299,-298 0,-78 -30,-148 -79,-202l0 0zm-1315 -3484c-1761,0 -3188,1427 -3188,3188 0,1760 1427,3187 3188,3187 1760,0 3187,-1427 3187,-3187 0,-1761 -1427,-3188 -3187,-3188zm0 5777c-1428,0 -2590,-1161 -2590,-2589 0,-1428 1162,-2590 2590,-2590 1428,0 2589,1162 2589,2590 0,1428 -1161,2589 -2589,2589z"/>
    </g>
   </g>
  </g>
  <g id="_2006794181280">
  </g>
  <g id="_2006794178336">
  </g>
  <g id="_2006794179200">
  </g>
  <g id="_2006794177024">
  </g>
  <g id="_2006794176608">
  </g>
  <g id="_2006794176480">
  </g>
  <g id="_2006794174720">
  </g>
  <g id="_2006794175904">
  </g>
  <g id="_2006794175392">
  </g>
  <g id="_2006794175360">
  </g>
  <g id="_2006794205312">
  </g>
  <g id="_2006794206048">
  </g>
  <g id="_2006794206656">
  </g>
  <g id="_2006794202272">
  </g>
  <g id="_2006794195296">
  </g>
 </g>
</svg>
