<?xml version="1.0" encoding="UTF-8"?>
<!DOCTYPE svg PUBLIC "-//W3C//DTD SVG 1.1//EN" "http://www.w3.org/Graphics/SVG/1.1/DTD/svg11.dtd">
<!-- Creator: CorelDRAW X7 -->
<svg xmlns="http://www.w3.org/2000/svg" xml:space="preserve" width="99.958mm" height="14.495mm" version="1.1" style="shape-rendering:geometricPrecision; text-rendering:geometricPrecision; image-rendering:optimizeQuality; fill-rule:evenodd; clip-rule:evenodd"
viewBox="0 0 9996 1450"
 xmlns:xlink="http://www.w3.org/1999/xlink">
 <defs>
  <style type="text/css">
   <![CDATA[
    .fil0 {fill:#F7F7F7;fill-rule:nonzero}
   ]]>
  </style>
 </defs>
 <g id="Layer_x0020_1">
  <metadata id="CorelCorpID_0Corel-Layer"/>
  <g id="_2696034063376">
   <path class="fil0" d="M6242 265l162 0 0 91c59,-70 128,-105 208,-105 43,0 80,9 112,26 31,18 57,44 77,80 29,-36 61,-62 95,-80 34,-17 70,-26 109,-26 49,0 90,10 124,30 34,20 59,49 76,87 12,29 18,75 18,139l0 426 -176 0 0 -381c0,-66 -6,-109 -18,-128 -17,-25 -42,-38 -76,-38 -24,0 -48,7 -70,22 -21,16 -37,38 -47,67 -10,29 -14,75 -14,138l0 320 -177 0 0 -366c0,-64 -3,-106 -9,-125 -6,-19 -16,-33 -29,-42 -13,-10 -32,-14 -54,-14 -27,0 -52,7 -73,22 -22,15 -38,36 -47,63 -10,28 -14,74 -14,138l0 324 -177 0 0 -668zm1011 326c0,-59 15,-116 44,-171 29,-55 70,-97 123,-126 53,-29 112,-43 177,-43 101,0 184,33 249,98 64,66 96,149 96,249 0,102 -32,186 -97,252 -66,67 -148,100 -246,100 -62,0 -120,-14 -176,-42 -55,-27 -97,-68 -126,-122 -29,-53 -44,-118 -44,-195zm182 9c0,67 16,117 47,153 32,35 70,53 116,53 46,0 85,-18 116,-53 31,-36 47,-87 47,-154 0,-65 -16,-116 -47,-151 -31,-35 -70,-53 -116,-53 -46,0 -84,18 -116,53 -31,35 -47,86 -47,152zm1149 333l-177 0 0 -340c0,-73 -4,-119 -11,-140 -8,-21 -20,-38 -37,-49 -17,-12 -38,-18 -62,-18 -31,0 -59,8 -83,25 -25,17 -42,39 -51,67 -9,27 -13,78 -13,153l0 302 -177 0 0 -668 164 0 0 98c58,-75 132,-112 221,-112 39,0 75,7 107,21 33,14 57,32 74,53 17,22 28,47 35,75 6,27 10,67 10,118l0 415zm459 -211l177 30c-23,64 -59,113 -107,147 -49,34 -110,51 -184,51 -116,0 -202,-38 -257,-114 -44,-61 -66,-138 -66,-231 0,-110 29,-197 86,-260 58,-63 131,-94 220,-94 99,0 177,33 235,98 57,66 84,167 82,302l-442 0c1,53 16,93 43,122 27,30 61,44 101,44 28,0 51,-7 70,-22 19,-15 33,-40 42,-73zm11 -179c-2,-51 -15,-90 -40,-117 -25,-27 -55,-40 -91,-40 -39,0 -71,14 -96,42 -25,28 -37,67 -37,115l264 0zm129 -278l188 0 160 474 157 -474 182 0 -235 643 -43 116c-15,39 -30,69 -44,89 -14,21 -31,37 -49,50 -18,13 -41,23 -67,30 -27,7 -57,11 -91,11 -34,0 -67,-4 -100,-11l-16 -138c28,5 53,8 75,8 42,0 72,-12 92,-36 20,-24 35,-55 45,-93l-254 -669z"/>
   <path class="fil0" d="M3651 276l0 140 -121 0 0 270c0,55 1,87 4,96 2,9 7,17 16,23 8,6 18,9 29,9 17,0 40,-6 72,-17l14 137c-41,18 -87,27 -139,27 -32,0 -60,-6 -86,-17 -25,-10 -44,-24 -56,-41 -12,-17 -20,-40 -25,-70 -3,-20 -5,-62 -5,-125l0 -292 -81 0 0 -140 81 0 0 -133 176 -104 0 237 121 0zm215 668l-176 0 0 -668 163 0 0 94c29,-44 54,-74 76,-88 23,-14 48,-21 77,-21 40,0 79,12 117,34l-55 154c-30,-20 -58,-29 -83,-29 -25,0 -46,7 -63,20 -18,14 -31,38 -41,74 -10,36 -15,110 -15,224l0 206zm387 -462l-160 -29c18,-65 49,-113 93,-145 44,-31 110,-47 196,-47 79,0 138,10 177,28 38,19 65,43 81,71 16,29 25,82 24,158l-3 206c-1,59 3,102 8,130 6,28 16,58 32,90l-175 0c-5,-12 -11,-29 -17,-52 -3,-10 -5,-17 -6,-20 -30,29 -63,51 -97,66 -34,15 -71,23 -110,23 -68,0 -122,-19 -162,-56 -39,-38 -59,-85 -59,-142 0,-37 9,-71 27,-101 18,-29 43,-52 76,-68 32,-15 79,-29 140,-41 83,-15 140,-30 172,-43l0 -18c0,-34 -8,-59 -25,-74 -17,-14 -49,-21 -96,-21 -31,0 -56,6 -73,18 -18,13 -32,35 -43,67zm237 142c-23,8 -59,17 -108,28 -49,10 -81,20 -96,30 -23,16 -34,37 -34,62 0,25 9,47 27,65 19,18 42,27 71,27 31,0 62,-11 91,-32 21,-15 35,-35 42,-58 4,-15 7,-44 7,-86l0 -36zm400 317l-270 -668 186 0 125 341 37 114c9,-29 16,-48 18,-57 6,-19 12,-38 19,-57l128 -341 181 0 -265 668 -159 0zm841 -211l176 30c-22,64 -58,113 -107,147 -49,34 -110,51 -183,51 -116,0 -202,-38 -258,-114 -44,-61 -66,-138 -66,-231 0,-110 29,-197 87,-260 58,-63 131,-94 219,-94 99,0 178,33 235,98 58,66 85,167 82,302l-441 0c1,53 15,93 42,123 27,29 61,43 102,43 27,0 51,-7 69,-22 19,-15 33,-39 43,-73zm10 -179c-1,-51 -14,-90 -39,-117 -25,-27 -56,-40 -92,-40 -38,0 -70,14 -95,42 -25,28 -37,67 -37,115l263 0zm243 390l0 -922 176 0 0 922 -176 0z"/>
   <polygon class="fil0" points="6233,23 9762,23 9762,71 6233,71 "/>
   <polygon class="fil0" points="6233,120 9762,120 9762,168 6233,168 "/>
   <path class="fil0" d="M9909 0c24,0 45,10 61,26 16,15 26,37 26,61 0,24 -10,46 -26,62 -16,16 -37,26 -61,26 -25,0 -46,-10 -62,-26 -16,-16 -26,-38 -26,-62 0,-24 10,-46 26,-61 16,-16 37,-26 62,-26zm-40 132l0 -89 37 0c10,0 17,1 21,2 4,2 8,5 10,9 3,4 4,9 4,14 0,6 -2,12 -6,16 -4,5 -9,7 -17,8 4,3 7,5 9,8 3,3 6,7 11,14l10 18 -21 0 -13 -20c-4,-7 -8,-11 -9,-13 -2,-2 -4,-3 -6,-3 -2,-1 -5,-1 -9,-1l-3 0 0 37 -18 0zm18 -52l13 0c8,0 14,0 16,-1 2,0 4,-2 5,-3 1,-2 2,-4 2,-7 0,-3 -1,-5 -3,-7 -1,-2 -3,-3 -6,-4 -2,0 -6,0 -13,0l-14 0 0 22zm76 -47c-14,-14 -33,-23 -54,-23 -22,0 -41,9 -55,23 -14,14 -23,33 -23,54 0,22 9,41 23,55 14,14 33,23 55,23 21,0 40,-9 54,-23 14,-14 23,-33 23,-55 0,-21 -9,-40 -23,-54z"/>
   <path class="fil0" d="M0 278l163 0 0 97c21,-33 50,-60 86,-80 36,-21 76,-31 120,-31 77,0 142,30 195,91 54,60 81,144 81,251 0,111 -27,197 -81,258 -54,62 -120,92 -196,92 -37,0 -70,-7 -100,-22 -29,-14 -61,-39 -93,-74l0 331 -175 0 0 -913zm172 321c0,74 15,129 44,165 29,35 65,53 107,53 41,0 75,-16 102,-49 27,-33 40,-86 40,-161 0,-69 -14,-121 -42,-155 -27,-33 -62,-50 -103,-50 -42,0 -78,16 -106,50 -28,33 -42,82 -42,147zm922 132l174 29c-22,64 -57,112 -105,146 -49,33 -109,50 -182,50 -115,0 -200,-37 -255,-113 -43,-60 -65,-136 -65,-228 0,-109 28,-195 86,-257 57,-63 129,-94 217,-94 98,0 175,33 232,98 57,65 84,164 81,299l-437 0c2,51 16,92 43,121 26,28 60,43 100,43 27,0 50,-8 69,-22 18,-15 32,-39 42,-72zm10 -178c-1,-50 -14,-89 -39,-115 -25,-27 -55,-40 -91,-40 -38,0 -69,14 -94,42 -25,28 -37,66 -36,113l260 0zm412 387l-175 0 0 -662 162 0 0 94c28,-44 53,-73 75,-87 22,-14 48,-21 76,-21 40,0 78,11 115,33l-54 153c-30,-19 -57,-29 -82,-29 -25,0 -46,7 -63,20 -17,14 -30,38 -40,73 -10,35 -14,109 -14,222l0 204zm194 -186l176 -27c8,34 23,59 46,77 22,17 54,26 95,26 46,0 80,-8 103,-25 15,-12 22,-27 22,-47 0,-13 -4,-24 -12,-33 -9,-8 -28,-16 -58,-23 -142,-31 -231,-60 -269,-85 -52,-36 -78,-86 -78,-149 0,-58 22,-106 68,-145 45,-39 115,-59 210,-59 90,0 158,15 201,45 44,29 75,73 91,131l-164 31c-7,-26 -21,-46 -40,-60 -20,-14 -48,-21 -85,-21 -46,0 -79,7 -100,20 -13,9 -20,21 -20,35 0,13 6,23 18,32 16,12 70,28 164,49 93,22 158,47 195,78 37,31 55,75 55,130 0,61 -25,113 -76,157 -50,43 -125,65 -225,65 -90,0 -161,-18 -214,-54 -52,-37 -86,-86 -103,-148zm700 -565l0 -162 174 0 0 162 -174 0zm0 751l0 -662 174 0 0 662 -174 0zm412 -458l-158 -28c18,-64 49,-112 92,-143 44,-31 108,-47 194,-47 78,0 136,9 175,28 38,18 65,42 80,70 16,29 23,81 23,157l-2 204c0,57 3,100 8,128 6,28 16,57 31,89l-173 0c-4,-12 -10,-29 -17,-51 -2,-11 -5,-18 -6,-21 -30,30 -61,51 -95,66 -34,15 -70,22 -109,22 -68,0 -121,-18 -160,-55 -39,-37 -59,-84 -59,-140 0,-37 9,-71 27,-100 18,-29 43,-52 75,-67 32,-16 78,-29 139,-41 81,-15 138,-30 169,-43l0 -17c0,-34 -8,-59 -24,-73 -17,-15 -49,-22 -95,-22 -31,0 -55,6 -73,19 -17,12 -31,34 -42,65zm234 142c-22,7 -57,16 -106,26 -48,11 -80,21 -95,31 -23,16 -34,36 -34,61 0,25 9,46 27,64 18,18 42,27 70,27 31,0 61,-11 90,-31 21,-16 35,-36 42,-58 4,-15 6,-44 6,-86l0 -34z"/>
   <path class="fil0" d="M498 1376l0 -209 -75 0 0 -42 200 0 0 42 -74 0 0 209 -51 0zm219 -251l0 93c15,-19 34,-28 56,-28 11,0 21,2 30,6 9,4 15,9 20,16 5,6 8,13 9,21 2,8 3,20 3,36l0 107 -48 0 0 -96c0,-19 -1,-31 -3,-37 -2,-5 -5,-9 -10,-12 -5,-3 -10,-4 -17,-4 -8,0 -16,2 -22,6 -6,3 -11,9 -14,17 -3,8 -4,19 -4,35l0 91 -49 0 0 -251 49 0zm286 193l48 8c-6,18 -16,31 -29,41 -14,9 -30,13 -50,13 -32,0 -55,-10 -71,-31 -12,-16 -18,-37 -18,-63 0,-30 8,-53 24,-71 16,-17 36,-25 60,-25 27,0 48,9 64,27 16,18 23,45 22,82l-120 0c0,14 4,25 12,33 7,8 16,12 27,12 8,0 14,-2 19,-6 5,-4 9,-11 12,-20zm3 -49c-1,-13 -4,-24 -11,-31 -7,-8 -15,-11 -25,-11 -11,0 -19,4 -26,11 -7,8 -10,18 -10,31l72 0zm198 107l0 -251 50 0 103 168 0 -168 47 0 0 251 -51 0 -102 -165 0 165 -47 0zm373 -58l48 8c-6,18 -16,31 -29,41 -14,9 -30,13 -50,13 -32,0 -55,-10 -71,-31 -12,-16 -18,-37 -18,-63 0,-30 8,-53 24,-71 16,-17 36,-25 60,-25 27,0 48,9 64,27 15,18 23,45 22,82l-120 0c0,14 4,25 12,33 7,8 16,12 27,12 8,0 14,-2 19,-6 5,-4 9,-11 12,-20zm3 -49c-1,-13 -4,-24 -11,-31 -7,-8 -15,-11 -25,-11 -11,0 -19,4 -26,11 -7,8 -10,18 -10,31l72 0zm77 107l66 -94 -63 -88 59 0 32 50 34 -50 56 0 -61 86 67 96 -59 0 -37 -57 -37 57 -57 0zm353 0l0 -27c-7,9 -15,17 -26,23 -11,6 -22,8 -34,8 -13,0 -24,-2 -33,-8 -10,-5 -17,-13 -21,-22 -5,-10 -7,-24 -7,-41l0 -115 48 0 0 84c0,25 1,41 3,47 2,5 5,10 9,13 5,4 11,6 18,6 9,0 16,-3 23,-7 6,-5 11,-10 13,-17 2,-7 4,-23 4,-49l0 -77 48 0 0 182 -45 0zm91 -51l48 -8c2,10 6,17 13,21 6,5 15,8 26,8 13,0 22,-3 28,-7 4,-3 7,-8 7,-13 0,-4 -2,-7 -4,-9 -2,-2 -8,-5 -16,-7 -39,-8 -63,-16 -74,-23 -14,-10 -22,-24 -22,-41 0,-16 7,-29 19,-40 13,-11 32,-16 58,-16 25,0 44,4 56,12 12,8 20,20 25,36l-46 9c-2,-7 -5,-13 -11,-17 -5,-4 -13,-5 -23,-5 -13,0 -22,1 -27,5 -4,2 -6,6 -6,10 0,3 2,6 5,8 4,4 19,8 45,14 26,6 44,13 54,21 10,9 15,21 15,36 0,17 -7,31 -21,43 -14,12 -35,18 -62,18 -25,0 -44,-5 -59,-15 -14,-10 -24,-23 -28,-40zm312 -42c0,-16 4,-32 12,-47 8,-15 19,-26 34,-34 14,-8 30,-12 48,-12 28,0 50,9 68,27 17,18 26,40 26,68 0,27 -9,50 -27,68 -17,18 -40,27 -67,27 -16,0 -32,-3 -47,-11 -15,-8 -27,-19 -35,-33 -8,-15 -12,-33 -12,-53zm50 2c0,18 4,32 13,42 8,9 19,14 31,14 13,0 23,-5 32,-14 8,-10 13,-24 13,-42 0,-18 -5,-32 -13,-41 -9,-10 -19,-15 -32,-15 -12,0 -23,5 -31,15 -9,9 -13,23 -13,41zm169 -91l26 0 0 -14c0,-15 2,-27 5,-34 4,-8 10,-14 18,-19 9,-5 20,-7 34,-7 14,0 27,2 40,6l-6 34c-8,-2 -15,-3 -22,-3 -8,0 -13,1 -16,5 -3,3 -4,9 -4,19l0 13 36 0 0 38 -36 0 0 144 -49 0 0 -144 -26 0 0 -38zm306 182l0 -209 -74 0 0 -42 199 0 0 42 -74 0 0 209 -51 0zm134 -93c0,-16 4,-32 12,-47 8,-15 19,-26 34,-34 14,-8 30,-12 48,-12 27,0 50,9 68,27 17,18 26,40 26,68 0,27 -9,50 -27,68 -17,18 -40,27 -67,27 -16,0 -32,-3 -47,-11 -16,-8 -27,-19 -35,-33 -8,-15 -12,-33 -12,-53zm50 2c0,18 4,32 13,42 8,9 19,14 31,14 13,0 23,-5 32,-14 8,-10 12,-24 12,-42 0,-18 -4,-32 -12,-41 -9,-10 -19,-15 -32,-15 -12,0 -23,5 -31,15 -9,9 -13,23 -13,41zm310 91l0 -27c-7,9 -15,17 -26,23 -11,6 -22,8 -34,8 -13,0 -24,-2 -33,-8 -10,-5 -17,-13 -21,-22 -5,-10 -7,-24 -7,-41l0 -115 48 0 0 84c0,25 1,41 3,47 2,5 5,10 10,13 4,4 10,6 17,6 9,0 16,-3 23,-7 6,-5 11,-10 13,-17 2,-7 4,-23 4,-49l0 -77 48 0 0 182 -45 0zm154 0l-48 0 0 -182 45 0 0 26c7,-13 14,-21 20,-25 6,-3 13,-5 21,-5 11,0 22,3 32,9l-15 42c-8,-5 -16,-8 -23,-8 -6,0 -12,2 -17,6 -5,3 -8,10 -11,20 -3,9 -4,30 -4,61l0 56zm105 -207l0 -44 48 0 0 44 -48 0zm0 207l0 -182 48 0 0 182 -48 0zm94 -51l48 -8c2,10 6,17 13,21 6,5 15,8 26,8 13,0 22,-3 28,-7 4,-3 7,-8 7,-13 0,-4 -2,-7 -4,-9 -2,-2 -8,-5 -16,-7 -39,-8 -63,-16 -74,-23 -14,-10 -22,-24 -22,-41 0,-16 7,-29 19,-40 13,-11 32,-16 58,-16 25,0 44,4 56,12 12,8 20,20 25,36l-46 9c-2,-7 -5,-13 -11,-17 -5,-4 -13,-5 -23,-5 -13,0 -22,1 -27,5 -4,2 -6,6 -6,10 0,3 2,6 5,8 4,4 19,8 45,14 26,6 44,13 54,21 10,9 15,21 15,36 0,17 -7,31 -21,43 -14,12 -35,18 -62,18 -25,0 -44,-5 -59,-15 -14,-10 -24,-23 -28,-40zm223 -131l44 0 0 25c16,-20 35,-29 56,-29 12,0 22,2 31,7 8,5 15,12 21,22 8,-10 16,-17 26,-22 9,-5 19,-7 29,-7 14,0 25,3 34,8 10,5 16,13 21,24 3,8 5,20 5,38l0 116 -48 0 0 -104c0,-18 -2,-30 -5,-35 -5,-7 -11,-10 -21,-10 -6,0 -13,2 -19,6 -6,4 -10,10 -13,18 -2,8 -4,20 -4,37l0 88 -48 0 0 -100c0,-18 0,-29 -2,-34 -2,-5 -4,-9 -8,-12 -4,-2 -9,-3 -15,-3 -7,0 -14,2 -20,6 -6,4 -10,9 -12,17 -3,7 -4,20 -4,37l0 89 -48 0 0 -182zm328 134l48 0 0 34c0,14 -1,25 -4,33 -2,8 -7,16 -13,22 -7,6 -16,11 -26,15l-9 -20c9,-3 16,-8 20,-13 4,-6 7,-13 7,-23l-23 0 0 -48zm210 48l0 -251 173 0 0 42 -122 0 0 60 106 0 0 42 -106 0 0 107 -51 0zm228 -207l0 -44 48 0 0 44 -48 0zm0 207l0 -182 48 0 0 182 -48 0zm277 0l-48 0 0 -93c0,-20 -1,-32 -3,-38 -2,-6 -5,-10 -10,-14 -5,-3 -10,-4 -17,-4 -8,0 -16,2 -22,7 -7,4 -12,10 -14,18 -3,7 -4,21 -4,41l0 83 -48 0 0 -182 45 0 0 26c16,-20 36,-30 60,-30 11,0 20,2 29,6 9,3 16,8 20,14 5,6 8,13 10,20 1,8 2,19 2,33l0 113zm99 -126l-44 -8c5,-18 14,-31 26,-39 12,-9 30,-13 53,-13 22,0 38,2 48,7 11,6 18,12 22,20 5,8 7,22 7,43l-1 56c0,16 1,28 2,35 2,8 5,16 9,25l-48 0c-1,-3 -3,-8 -4,-14 -1,-3 -2,-5 -2,-6 -8,8 -17,14 -26,18 -10,4 -20,6 -30,6 -19,0 -34,-5 -44,-15 -11,-10 -17,-23 -17,-38 0,-11 3,-20 8,-28 5,-8 12,-14 20,-18 9,-5 22,-8 39,-12 22,-4 38,-8 46,-11l0 -5c0,-10 -2,-16 -6,-20 -5,-4 -14,-6 -26,-6 -9,0 -16,1 -20,5 -5,3 -9,9 -12,18zm64 39c-6,2 -16,4 -29,7 -13,3 -22,6 -26,9 -6,4 -10,10 -10,16 0,7 3,13 8,18 5,5 11,7 19,7 9,0 17,-3 25,-8 6,-5 10,-10 12,-16 1,-4 1,-12 1,-24l0 -9zm275 87l-48 0 0 -93c0,-20 -1,-32 -3,-38 -3,-6 -6,-10 -11,-14 -4,-3 -10,-4 -16,-4 -9,0 -16,2 -23,7 -7,4 -11,10 -14,18 -2,7 -4,21 -4,41l0 83 -48 0 0 -182 45 0 0 26c16,-20 36,-30 60,-30 11,0 21,2 30,6 8,3 15,8 20,14 4,6 7,13 9,20 2,8 3,19 3,33l0 113zm221 -128l-47 8c-2,-9 -6,-16 -11,-21 -6,-5 -13,-7 -22,-7 -12,0 -22,4 -29,12 -7,8 -11,22 -11,42 0,21 4,37 11,46 8,9 17,13 29,13 10,0 17,-3 23,-8 6,-5 10,-14 12,-27l48 8c-5,22 -15,39 -29,50 -14,11 -32,16 -56,16 -26,0 -48,-8 -63,-25 -16,-17 -24,-40 -24,-70 0,-30 8,-53 24,-70 16,-17 37,-25 64,-25 22,0 40,5 53,14 13,10 22,24 28,44zm156 70l48 8c-6,18 -16,31 -29,41 -14,9 -30,13 -50,13 -32,0 -55,-10 -70,-31 -12,-16 -19,-37 -19,-63 0,-30 8,-53 24,-71 16,-17 36,-25 60,-25 27,0 48,9 64,27 16,18 23,45 22,82l-120 0c0,14 4,25 12,33 7,8 16,12 27,12 8,0 14,-2 19,-6 5,-4 9,-11 12,-20zm3 -49c-1,-13 -4,-24 -11,-31 -7,-8 -15,-11 -25,-11 -11,0 -19,4 -26,11 -7,8 -10,18 -10,31l72 0zm234 -19l-44 -8c5,-18 14,-31 26,-39 12,-9 30,-13 53,-13 22,0 38,2 48,7 11,6 18,12 22,20 5,8 7,22 7,43l-1 56c0,16 1,28 2,35 2,8 5,16 9,25l-48 0c-1,-3 -2,-8 -4,-14 -1,-3 -2,-5 -2,-6 -8,8 -17,14 -26,18 -10,4 -20,6 -30,6 -19,0 -34,-5 -44,-15 -11,-10 -16,-23 -16,-38 0,-11 2,-20 7,-28 5,-8 12,-14 21,-18 8,-5 21,-8 38,-12 22,-4 38,-8 47,-11l0 -5c0,-10 -3,-16 -7,-20 -5,-4 -14,-6 -26,-6 -9,0 -16,1 -20,5 -5,3 -9,9 -12,18zm65 39c-7,2 -16,4 -30,7 -13,3 -22,6 -26,9 -6,4 -9,10 -9,16 0,7 2,13 7,18 5,5 12,7 19,7 9,0 17,-3 25,-8 6,-5 10,-10 12,-16 1,-4 2,-12 2,-24l0 -9zm274 87l-48 0 0 -93c0,-20 -1,-32 -3,-38 -2,-6 -6,-10 -10,-14 -5,-3 -11,-4 -17,-4 -9,0 -16,2 -23,7 -7,4 -11,10 -14,18 -2,7 -3,21 -3,41l0 83 -48 0 0 -182 44 0 0 26c16,-20 36,-30 60,-30 11,0 21,2 30,6 9,3 15,8 20,14 4,6 7,13 9,20 2,8 3,19 3,33l0 113zm230 0l-45 0 0 -27c-7,10 -16,18 -26,24 -10,5 -21,7 -31,7 -21,0 -39,-8 -54,-25 -15,-17 -22,-40 -22,-71 0,-30 7,-54 21,-70 15,-16 33,-24 56,-24 20,0 38,8 53,25l0 -90 48 0 0 251zm-129 -95c0,20 3,34 8,43 8,12 19,18 33,18 11,0 20,-4 28,-14 8,-9 12,-23 12,-42 0,-21 -4,-36 -12,-45 -7,-10 -17,-14 -29,-14 -11,0 -21,4 -28,13 -8,9 -12,23 -12,41zm344 95l0 -209 -74 0 0 -42 199 0 0 42 -74 0 0 209 -51 0zm251 -58l48 8c-6,18 -16,31 -29,41 -14,9 -30,13 -50,13 -32,0 -55,-10 -70,-31 -12,-16 -18,-37 -18,-63 0,-30 7,-53 23,-71 16,-17 36,-25 60,-25 27,0 48,9 64,27 16,18 23,45 22,82l-120 0c0,14 4,25 12,33 7,8 16,12 27,12 8,0 14,-2 19,-6 5,-4 9,-11 12,-20zm3 -49c-1,-13 -4,-24 -11,-31 -7,-8 -15,-11 -25,-11 -11,0 -19,4 -26,11 -7,8 -10,18 -10,31l72 0zm259 -21l-47 8c-2,-9 -5,-16 -11,-21 -6,-5 -13,-7 -22,-7 -12,0 -21,4 -29,12 -7,8 -10,22 -10,42 0,21 3,37 11,46 7,9 17,13 29,13 9,0 16,-3 22,-8 6,-5 10,-14 12,-27l48 8c-5,22 -15,39 -28,50 -14,11 -33,16 -56,16 -27,0 -48,-8 -64,-25 -16,-17 -24,-40 -24,-70 0,-30 8,-53 24,-70 16,-17 37,-25 64,-25 23,0 40,5 53,14 13,10 23,24 28,44zm98 -123l0 93c16,-19 35,-28 56,-28 11,0 21,2 30,6 9,4 16,9 21,16 4,6 7,13 9,21 2,8 2,20 2,36l0 107 -48 0 0 -96c0,-19 -1,-31 -2,-37 -2,-5 -6,-9 -10,-12 -5,-3 -11,-4 -18,-4 -8,0 -15,2 -21,6 -7,3 -11,9 -14,17 -3,8 -5,19 -5,35l0 91 -48 0 0 -251 48 0zm347 251l-48 0 0 -93c0,-20 -1,-32 -3,-38 -3,-6 -6,-10 -11,-14 -4,-3 -10,-4 -16,-4 -9,0 -16,2 -23,7 -7,4 -11,10 -14,18 -2,7 -3,21 -3,41l0 83 -49 0 0 -182 45 0 0 26c16,-20 36,-30 60,-30 11,0 21,2 30,6 8,3 15,8 20,14 4,6 7,13 9,20 2,8 3,19 3,33l0 113zm51 -93c0,-16 4,-32 12,-47 8,-15 19,-26 34,-34 14,-8 30,-12 48,-12 27,0 50,9 68,27 17,18 26,40 26,68 0,27 -9,50 -27,68 -17,18 -40,27 -67,27 -16,0 -32,-3 -47,-11 -16,-8 -27,-19 -35,-33 -8,-15 -12,-33 -12,-53zm50 2c0,18 4,32 12,42 9,9 20,14 32,14 13,0 23,-5 32,-14 8,-10 12,-24 12,-42 0,-18 -4,-32 -12,-41 -9,-10 -19,-15 -32,-15 -12,0 -23,5 -32,15 -8,9 -12,23 -12,41zm190 91l0 -251 48 0 0 251 -48 0zm100 -93c0,-16 4,-32 12,-47 8,-15 19,-26 33,-34 15,-8 31,-12 49,-12 27,0 50,9 67,27 18,18 27,40 27,68 0,27 -9,50 -27,68 -18,18 -40,27 -67,27 -17,0 -33,-3 -48,-11 -15,-8 -26,-19 -34,-33 -8,-15 -12,-33 -12,-53zm49 2c0,18 5,32 13,42 9,9 19,14 32,14 12,0 23,-5 31,-14 9,-10 13,-24 13,-42 0,-18 -4,-32 -13,-41 -8,-10 -19,-15 -31,-15 -13,0 -23,5 -32,15 -8,9 -13,23 -13,41zm186 102l55 7c1,7 3,11 6,13 5,4 12,6 22,6 13,0 22,-2 28,-6 4,-3 8,-7 10,-12 1,-4 2,-12 2,-22l0 -27c-14,20 -32,30 -54,30 -25,0 -44,-11 -59,-31 -11,-17 -16,-37 -16,-61 0,-31 7,-54 22,-70 14,-16 33,-24 54,-24 23,0 42,10 56,29l0 -25 45 0 0 163c0,21 -2,38 -5,48 -4,11 -9,19 -15,25 -6,6 -15,11 -26,14 -10,4 -24,6 -40,6 -31,0 -53,-6 -66,-16 -13,-11 -19,-24 -19,-41 0,-1 0,-3 0,-6zm43 -106c0,19 4,33 11,42 8,9 17,14 28,14 12,0 22,-5 30,-14 8,-9 12,-23 12,-41 0,-19 -4,-33 -12,-42 -8,-9 -17,-13 -29,-13 -12,0 -21,4 -29,13 -7,9 -11,23 -11,41zm167 -87l51 0 44 129 42 -129 50 0 -64 175 -12 32c-4,10 -8,18 -12,24 -4,5 -8,10 -13,13 -5,4 -11,7 -19,9 -7,2 -15,3 -24,3 -10,0 -19,-1 -28,-3l-4 -38c8,2 15,2 21,2 11,0 19,-3 25,-10 5,-6 9,-15 12,-25l-69 -182z"/>
  </g>
 </g>
</svg>
